<svg id="Group_690" data-name="Group 690" xmlns="http://www.w3.org/2000/svg" xmlns:xlink="http://www.w3.org/1999/xlink" width="375" height="812" viewBox="0 0 375 812">
  <defs>
    <clipPath id="clip-path">
      <rect id="Rectangle_263" data-name="Rectangle 263" width="375" height="812" fill="#fff" stroke="#707070" stroke-width="1"/>
    </clipPath>
  </defs>
  <g id="Mask_Group_17" data-name="Mask Group 17" clip-path="url(#clip-path)">
    <g id="Group_689" data-name="Group 689">
      <path id="Path_7" data-name="Path 7" d="M0,0H375V812H0Z" fill="#252632"/>
      <g id="Group_607" data-name="Group 607" transform="translate(0.464 17)">
        <path id="Path_1552" data-name="Path 1552" d="M864.92,113.354V611.7c-73.984,22.568-150.824,23.585-229.931,5.322-48.513-11.193-96.618-25.62-145.069-36.709V113.354c0-15.5,9.837-28.1,21.981-28.1H842.939C855.083,85.255,864.92,97.857,864.92,113.354Z" transform="translate(-489.92 -130.255)" fill="#fff"/>
        <path id="Path_1553" data-name="Path 1553" d="M0,28.1V526.445a413.279,413.279,0,0,0,56.014,12.921,419.711,419.711,0,0,0,57.03,5.052,449.749,449.749,0,0,0,57.991-2.6,504.257,504.257,0,0,0,58.9-10.047c12.128-2.8,24.231-5.8,36.32-8.9s24.164-6.3,36.238-9.5,24.145-6.389,36.226-9.476,24.173-6.068,36.285-8.84V28.1a34.826,34.826,0,0,0-1.727-10.928,29.594,29.594,0,0,0-4.71-8.933,22.624,22.624,0,0,0-6.987-6.027A17.874,17.874,0,0,0,353.019,0H21.981a17.874,17.874,0,0,0-8.558,2.211A22.624,22.624,0,0,0,6.437,8.238a29.594,29.594,0,0,0-4.71,8.933A34.826,34.826,0,0,0,0,28.1Z" transform="translate(0 -58.51)" fill="rgba(255,255,255,0.24)"/>
        <path id="Path_1554" data-name="Path 1554" d="M0,28.1V526.445a413.279,413.279,0,0,0,56.014,12.921,419.711,419.711,0,0,0,57.03,5.052,449.749,449.749,0,0,0,57.991-2.6,504.257,504.257,0,0,0,58.9-10.047c12.128-2.8,24.231-5.8,36.32-8.9s24.164-6.3,36.238-9.5,24.145-6.389,36.226-9.476,24.173-6.068,36.285-8.84V28.1a34.826,34.826,0,0,0-1.727-10.928,29.594,29.594,0,0,0-4.71-8.933,22.624,22.624,0,0,0-6.987-6.027A17.874,17.874,0,0,0,353.019,0H21.981a17.874,17.874,0,0,0-8.558,2.211A22.624,22.624,0,0,0,6.437,8.238a29.594,29.594,0,0,0-4.71,8.933A34.826,34.826,0,0,0,0,28.1Z" transform="translate(0 -13.51)" fill="rgba(255,255,255,0.24)"/>
        <path id="Path_1555" data-name="Path 1555" d="M864.92,113.354V611.7c-73.984,22.568-150.824,23.585-229.931,5.322-48.513-11.193-96.618-25.62-145.069-36.709V113.354c0-15.5,9.837-28.1,21.981-28.1H842.939C855.083,85.255,864.92,97.857,864.92,113.354Z" transform="translate(-490.384 -98.765)" fill="rgba(255,255,255,0.24)"/>
      </g>
      <g id="Medical_prescription-bro" data-name="Medical prescription-bro" transform="translate(-10.55 57.928)">
        <g id="freepik--Window--inject-69" transform="translate(43.274 125.608)">
          <g id="Group_2" data-name="Group 2" opacity="0.3">
            <path id="Path_10" data-name="Path 10" d="M105.21,174.026H48.81l.571-10.886h56.4Z" transform="translate(-48.81 -163.14)" fill="none" stroke="#000" stroke-linecap="round" stroke-linejoin="round" stroke-width="1"/>
            <path id="Path_11" data-name="Path 11" d="M105.21,194.316H48.81l.571-10.886h56.4Z" transform="translate(-48.81 -168.186)" fill="none" stroke="#000" stroke-linecap="round" stroke-linejoin="round" stroke-width="1"/>
            <path id="Path_12" data-name="Path 12" d="M105.21,214.606H48.81l.571-10.886h56.4Z" transform="translate(-48.81 -173.232)" fill="none" stroke="#000" stroke-linecap="round" stroke-linejoin="round" stroke-width="1"/>
            <path id="Path_13" data-name="Path 13" d="M105.21,234.9H48.81l.571-10.886h56.4Z" transform="translate(-48.81 -178.278)" fill="none" stroke="#000" stroke-linecap="round" stroke-linejoin="round" stroke-width="1"/>
            <path id="Path_14" data-name="Path 14" d="M105.21,255.194H48.81l.571-10.894h56.4Z" transform="translate(-48.81 -183.324)" fill="none" stroke="#000" stroke-linecap="round" stroke-linejoin="round" stroke-width="1"/>
            <path id="Path_15" data-name="Path 15" d="M105.21,275.484H48.81l.571-10.894h56.4Z" transform="translate(-48.81 -188.37)" fill="none" stroke="#000" stroke-linecap="round" stroke-linejoin="round" stroke-width="1"/>
            <path id="Path_16" data-name="Path 16" d="M105.21,295.774H48.81l.571-10.894h56.4Z" transform="translate(-48.81 -193.416)" fill="none" stroke="#000" stroke-linecap="round" stroke-linejoin="round" stroke-width="1"/>
            <path id="Path_17" data-name="Path 17" d="M105.21,316.064H48.81l.571-10.894h56.4Z" transform="translate(-48.81 -198.462)" fill="none" stroke="#000" stroke-linecap="round" stroke-linejoin="round" stroke-width="1"/>
            <path id="Path_18" data-name="Path 18" d="M105.21,336.354H48.81l.571-10.894h56.4Z" transform="translate(-48.81 -203.508)" fill="none" stroke="#000" stroke-linecap="round" stroke-linejoin="round" stroke-width="1"/>
            <path id="Path_19" data-name="Path 19" d="M105.21,356.644H48.81l.571-10.894h56.4Z" transform="translate(-48.81 -208.555)" fill="none" stroke="#000" stroke-linecap="round" stroke-linejoin="round" stroke-width="1"/>
            <path id="Path_20" data-name="Path 20" d="M105.21,376.936H48.81l.571-10.886h56.4Z" transform="translate(-48.81 -213.603)" fill="none" stroke="#000" stroke-linecap="round" stroke-linejoin="round" stroke-width="1"/>
            <path id="Path_21" data-name="Path 21" d="M184.59,174.026h-56.4l.571-10.886h56.4Z" transform="translate(-68.552 -163.14)" fill="none" stroke="#000" stroke-linecap="round" stroke-linejoin="round" stroke-width="1"/>
            <path id="Path_22" data-name="Path 22" d="M184.59,194.316h-56.4l.571-10.886h56.4Z" transform="translate(-68.552 -168.186)" fill="none" stroke="#000" stroke-linecap="round" stroke-linejoin="round" stroke-width="1"/>
            <path id="Path_23" data-name="Path 23" d="M184.59,214.606h-56.4l.571-10.886h56.4Z" transform="translate(-68.552 -173.232)" fill="none" stroke="#000" stroke-linecap="round" stroke-linejoin="round" stroke-width="1"/>
            <path id="Path_24" data-name="Path 24" d="M184.59,234.9h-56.4l.571-10.886h56.4Z" transform="translate(-68.552 -178.278)" fill="none" stroke="#000" stroke-linecap="round" stroke-linejoin="round" stroke-width="1"/>
            <path id="Path_25" data-name="Path 25" d="M184.59,255.194h-56.4l.571-10.894h56.4Z" transform="translate(-68.552 -183.324)" fill="none" stroke="#000" stroke-linecap="round" stroke-linejoin="round" stroke-width="1"/>
            <path id="Path_26" data-name="Path 26" d="M184.59,275.484h-56.4l.571-10.894h56.4Z" transform="translate(-68.552 -188.37)" fill="none" stroke="#000" stroke-linecap="round" stroke-linejoin="round" stroke-width="1"/>
            <path id="Path_27" data-name="Path 27" d="M184.59,295.774h-56.4l.571-10.894h56.4Z" transform="translate(-68.552 -193.416)" fill="none" stroke="#000" stroke-linecap="round" stroke-linejoin="round" stroke-width="1"/>
            <path id="Path_28" data-name="Path 28" d="M184.59,316.064h-56.4l.571-10.894h56.4Z" transform="translate(-68.552 -198.462)" fill="none" stroke="#000" stroke-linecap="round" stroke-linejoin="round" stroke-width="1"/>
            <path id="Path_29" data-name="Path 29" d="M184.59,336.354h-56.4l.571-10.894h56.4Z" transform="translate(-68.552 -203.508)" fill="none" stroke="#000" stroke-linecap="round" stroke-linejoin="round" stroke-width="1"/>
            <path id="Path_30" data-name="Path 30" d="M184.59,356.644h-56.4l.571-10.894h56.4Z" transform="translate(-68.552 -208.555)" fill="none" stroke="#000" stroke-linecap="round" stroke-linejoin="round" stroke-width="1"/>
            <path id="Path_31" data-name="Path 31" d="M184.59,376.936h-56.4l.571-10.886h56.4Z" transform="translate(-68.552 -213.603)" fill="none" stroke="#000" stroke-linecap="round" stroke-linejoin="round" stroke-width="1"/>
          </g>
        </g>
        <g id="freepik--Diplomas--inject-69" transform="translate(259.935 147.764)">
          <g id="Group_3" data-name="Group 3" opacity="0.3">
            <rect id="Rectangle_11" data-name="Rectangle 11" width="72.801" height="55.078" fill="none" stroke="#000" stroke-linecap="round" stroke-linejoin="round" stroke-width="1"/>
            <rect id="Rectangle_12" data-name="Rectangle 12" width="64.898" height="45.98" transform="translate(3.944 4.553)" fill="none" stroke="#000" stroke-linecap="round" stroke-linejoin="round" stroke-width="1"/>
            <line id="Line_1" data-name="Line 1" x2="22.577" transform="translate(25.109 11.795)" fill="none" stroke="#000" stroke-linecap="round" stroke-linejoin="round" stroke-width="1"/>
            <line id="Line_2" data-name="Line 2" x2="51.817" transform="translate(10.488 18.467)" fill="none" stroke="#000" stroke-linecap="round" stroke-linejoin="round" stroke-width="1"/>
            <line id="Line_3" data-name="Line 3" x2="28.722" transform="translate(22.036 31.803)" fill="none" stroke="#000" stroke-linecap="round" stroke-linejoin="round" stroke-width="1"/>
            <line id="Line_4" data-name="Line 4" x2="11.292" transform="translate(10.999 45.146)" fill="none" stroke="#000" stroke-linecap="round" stroke-linejoin="round" stroke-width="1"/>
            <line id="Line_5" data-name="Line 5" x2="11.285" transform="translate(50.503 45.146)" fill="none" stroke="#000" stroke-linecap="round" stroke-linejoin="round" stroke-width="1"/>
          </g>
          <g id="Group_4" data-name="Group 4" transform="translate(38.985 66.693)" opacity="0.3">
            <rect id="Rectangle_13" data-name="Rectangle 13" width="53.583" height="40.54" fill="none" stroke="#000" stroke-linecap="round" stroke-linejoin="round" stroke-width="1"/>
            <rect id="Rectangle_14" data-name="Rectangle 14" width="47.768" height="33.846" transform="translate(2.908 3.351)" fill="none" stroke="#000" stroke-linecap="round" stroke-linejoin="round" stroke-width="1"/>
            <line id="Line_6" data-name="Line 6" x2="16.611" transform="translate(18.49 8.685)" fill="none" stroke="#000" stroke-linecap="round" stroke-linejoin="round" stroke-width="1"/>
            <line id="Line_7" data-name="Line 7" x2="38.144" transform="translate(7.723 13.591)" fill="none" stroke="#000" stroke-linecap="round" stroke-linejoin="round" stroke-width="1"/>
            <line id="Line_8" data-name="Line 8" x2="21.149" transform="translate(16.221 23.411)" fill="none" stroke="#000" stroke-linecap="round" stroke-linejoin="round" stroke-width="1"/>
            <line id="Line_9" data-name="Line 9" x2="8.309" transform="translate(8.099 33.23)" fill="none" stroke="#000" stroke-linecap="round" stroke-linejoin="round" stroke-width="1"/>
            <line id="Line_10" data-name="Line 10" x2="8.309" transform="translate(37.174 33.23)" fill="none" stroke="#000" stroke-linecap="round" stroke-linejoin="round" stroke-width="1"/>
          </g>
        </g>
        <g id="freepik--Document--inject-69" transform="translate(130.568 30.072)">
          <path id="Path_32" data-name="Path 32" d="M324.862,250.073l-77.782-2.7q-4.808-.165-9.617,0L165,250.073l3.216-101.741q.18-5.778,0-11.57L165,40.76H324.862Z" transform="translate(-165 -37.169)" fill="#263238" stroke="#263238" stroke-linecap="round" stroke-linejoin="round" stroke-width="1"/>
          <rect id="Rectangle_15" data-name="Rectangle 15" width="159.862" height="209.313" transform="translate(2.569)" fill="#fff" stroke="#263238" stroke-linecap="round" stroke-linejoin="round" stroke-width="1"/>
          <rect id="Rectangle_16" data-name="Rectangle 16" width="138.608" height="140.313" transform="translate(13.193 57.046)" fill="#fff" stroke="#263238" stroke-linecap="round" stroke-linejoin="round" stroke-width="1"/>
          <path id="Path_33" data-name="Path 33" d="M184.29,75.5V49.848H191.8a7.273,7.273,0,0,1,3.757.856,5.094,5.094,0,0,1,2.126,2.487,10.255,10.255,0,0,1,.676,3.944,8.264,8.264,0,0,1-.856,4.035,5.086,5.086,0,0,1-2.389,2.254,8.685,8.685,0,0,1-3.629.7h-2.532V75.5Zm4.688-14.7h1.773a4.44,4.44,0,0,0,1.983-.368,1.908,1.908,0,0,0,.977-1.172,7.055,7.055,0,0,0,.27-2.171,10.286,10.286,0,0,0-.2-2.254,1.968,1.968,0,0,0-.887-1.285,4.32,4.32,0,0,0-2.141-.413h-1.773Z" transform="translate(-169.797 -39.427)" fill="#285ffa"/>
          <path id="Path_34" data-name="Path 34" d="M191.88,91.984l5.161-13.614-5-12.021h4.373l3.321,7.949,2.915-7.949H206.7l-4.966,12.907,5.319,12.727h-4.343l-3.644-8.617-3.171,8.61Z" transform="translate(-171.685 -43.533)" fill="#285ffa"/>
          <line id="Line_11" data-name="Line 11" x2="59.255" transform="translate(92.087 18.332)" fill="none" stroke="#263238" stroke-linecap="round" stroke-linejoin="round" stroke-width="1"/>
          <line id="Line_12" data-name="Line 12" x2="59.255" transform="translate(92.087 31.119)" fill="none" stroke="#263238" stroke-linecap="round" stroke-linejoin="round" stroke-width="1"/>
          <line id="Line_13" data-name="Line 13" x2="46.461" transform="translate(104.882 25.582)" fill="none" stroke="#263238" stroke-linecap="round" stroke-linejoin="round" stroke-width="1"/>
          <line id="Line_14" data-name="Line 14" x2="46.461" transform="translate(104.882 37.092)" fill="none" stroke="#263238" stroke-linecap="round" stroke-linejoin="round" stroke-width="1"/>
          <line id="Line_15" data-name="Line 15" x2="46.468" transform="translate(17.911 72.471)" fill="none" stroke="#263238" stroke-linecap="round" stroke-linejoin="round" stroke-width="1"/>
          <line id="Line_16" data-name="Line 16" x2="46.468" transform="translate(17.911 84.604)" fill="none" stroke="#263238" stroke-linecap="round" stroke-linejoin="round" stroke-width="1"/>
          <line id="Line_17" data-name="Line 17" x2="70.345" transform="translate(17.911 78.744)" fill="none" stroke="#263238" stroke-linecap="round" stroke-linejoin="round" stroke-width="1"/>
          <line id="Line_18" data-name="Line 18" x2="46.468" transform="translate(17.911 99.39)" fill="none" stroke="#263238" stroke-linecap="round" stroke-linejoin="round" stroke-width="1"/>
          <line id="Line_19" data-name="Line 19" x2="46.468" transform="translate(17.911 111.523)" fill="none" stroke="#263238" stroke-linecap="round" stroke-linejoin="round" stroke-width="1"/>
          <line id="Line_20" data-name="Line 20" x2="70.345" transform="translate(17.911 105.663)" fill="none" stroke="#263238" stroke-linecap="round" stroke-linejoin="round" stroke-width="1"/>
          <line id="Line_21" data-name="Line 21" x2="44.049" transform="translate(16.919 189.794)" fill="none" stroke="#263238" stroke-linecap="round" stroke-linejoin="round" stroke-width="1"/>
          <line id="Line_22" data-name="Line 22" x2="44.049" transform="translate(100.449 189.794)" fill="none" stroke="#263238" stroke-linecap="round" stroke-linejoin="round" stroke-width="1"/>
          <path id="Path_35" data-name="Path 35" d="M193.365,223.417a15.777,15.777,0,1,0,11.908-2.072A15.777,15.777,0,0,0,193.365,223.417ZM208.5,247.286a12.464,12.464,0,1,1,3.854-17.2A12.464,12.464,0,0,1,208.5,247.286Z" transform="translate(-170.232 -81.984)" fill="#285ffa"/>
          <rect id="Rectangle_17" data-name="Rectangle 17" width="15.905" height="2.562" transform="translate(24.02 158.148) rotate(-32.36)" fill="#285ffa"/>
          <path id="Path_36" data-name="Path 36" d="M196.91,277.755s.218,5,6.762-3.922,5.665-8.264,3.922-3.261a44.149,44.149,0,0,1-5.259,9.767s7.844-12.412,7.844-8.933S202.77,289.7,204.3,288.394s6.318-7.836,6.318-7.836-.654,4.35,1.082,2.389,3.7-5.875,3.486-3.7-3.05,4.786-.218,2.179,5.011-5.883,4.358-3.486-2.4,3.268-.654,2.4,11.54-17.2,8.49-15.244-8.708,18.94-6.093,17.633,5.657-7.836,5.439-4.568.654,3.268,1.5,2.179" transform="translate(-172.936 -92.92)" fill="none" stroke="#263238" stroke-linecap="round" stroke-linejoin="round" stroke-width="1"/>
        </g>
        <g id="freepik--Table--inject-69" transform="translate(26.55 352.584)">
          <line id="Line_23" data-name="Line 23" x1="343" fill="none" stroke="#263238" stroke-linecap="round" stroke-linejoin="round" stroke-width="1"/>
          <line id="Line_24" data-name="Line 24" x1="343" transform="translate(0 7.182)" fill="none" stroke="#263238" stroke-linecap="round" stroke-linejoin="round" stroke-width="1"/>
        </g>
        <g id="freepik--character-2--inject-69" transform="translate(178.303 213.615)">
          <path id="Path_37" data-name="Path 37" d="M428.841,359.8H356.115a4.771,4.771,0,0,0-4.726,4.087L340.51,438.266h86.483l6.6-73.282a4.771,4.771,0,0,0-4.756-5.184Z" transform="translate(-256.384 -300.056)" fill="#263238" stroke="#263238" stroke-linecap="round" stroke-linejoin="round" stroke-width="1"/>
          <path id="Path_38" data-name="Path 38" d="M302.512,343.384s-19.677,9.767-26.431,12.464-8.415,3.907-9.016,5.56-26.882,42.952-29.879,46.708-9.466,11.863-8.565,17.415,8.114,10.368,15.026,10.218,11.27-1.5,12.021-3.456S275.5,396.23,275.5,396.23l6.01,37.993h76.746s6.01-51.96,6.01-59.623,1.5-16.671-1.653-18.625-16.221-6.454-25.837-9.609-12.614-3.757-14.861-3.757S302.512,343.384,302.512,343.384Z" transform="translate(-228.536 -295.781)" fill="#fff" stroke="#263238" stroke-linecap="round" stroke-linejoin="round" stroke-width="1"/>
          <path id="Path_39" data-name="Path 39" d="M321.311,342.492s-2.554,4.808-2.7,8.715-.751,11.112-3.005,15.469-3.907,6.762-2.7,6.3,8.107-8.107,8.858-9.767,1.953,1.5,1.953,1.5-2.254,6.454-2.554,7.355,9.459,13.366,9.459,13.366,8.415-6.6,10.368-8.107,1.352-2.7,1.5-4.658a16.057,16.057,0,0,1,1.8-6.454c1.044-1.653,4.065,4.823,6.161,7.829s4.207,4.057,3.907,1.8-1.352-6.611-2.1-14.275-.6-16.822-2.554-19.677-12.2-3.418-18.925-3.9A9.932,9.932,0,0,0,321.311,342.492Z" transform="translate(-249.416 -294.619)" fill="#fff" stroke="#263238" stroke-linecap="round" stroke-linejoin="round" stroke-width="1"/>
          <path id="Path_40" data-name="Path 40" d="M283.328,378.05l5.409,27.017L281.75,387.1" transform="translate(-241.77 -304.595)" fill="none" stroke="#263238" stroke-linecap="round" stroke-linejoin="round" stroke-width="1"/>
          <path id="Path_41" data-name="Path 41" d="M325.23,352.2s2.1,11.713,4.057,20.721a92.415,92.415,0,0,0,4.508,15.026s9.917-16.671,12.772-25.379a100.549,100.549,0,0,0,3.756-14.718H325.23Z" transform="translate(-252.584 -297.084)" fill="none" stroke="#263238" stroke-linecap="round" stroke-linejoin="round" stroke-width="1"/>
          <path id="Path_42" data-name="Path 42" d="M338.032,359l-5.4,6.762,3.757,7.212-3.7,8.948a81.582,81.582,0,0,0,2.945,8.768s3.1-5.2,6.318-11.27l-2.712-6.258,3.306-7.513Z" transform="translate(-254.424 -299.857)" fill="#285ffa" stroke="#263238" stroke-linecap="round" stroke-linejoin="round" stroke-width="1"/>
          <path id="Path_43" data-name="Path 43" d="M325.23,347.84V352.2s1.45,8.084,3.058,15.98l7.6-8.024,8.016,8.88a63.246,63.246,0,0,0,2.652-6.476,100.545,100.545,0,0,0,3.757-14.718Z" transform="translate(-252.584 -297.082)" fill="#fff" stroke="#263238" stroke-linecap="round" stroke-linejoin="round" stroke-width="1"/>
          <path id="Path_44" data-name="Path 44" d="M238.08,435.375s14.027-5.124,21.592,7.34" transform="translate(-230.91 -318.592)" fill="none" stroke="#263238" stroke-linecap="round" stroke-linejoin="round" stroke-width="1"/>
          <path id="Path_45" data-name="Path 45" d="M262.794,440.37s-7.836,1.773-12.021,8.452,4.327,7.423,6.679,7.423,4.575-1.578,4.7-2.4,3.208-8.738,3.088-10.586a3.005,3.005,0,0,0-2.449-2.893Z" transform="translate(-233.783 -320.094)" fill="#fff" stroke="#263238" stroke-linecap="round" stroke-linejoin="round" stroke-width="1"/>
          <path id="Path_46" data-name="Path 46" d="M261.007,444.05s-4.335,3.757-4.042,5.259,6.724,7.288,7.964,6.454a1.908,1.908,0,0,0,.834-2.57C265.41,452.63,261.007,444.05,261.007,444.05Z" transform="translate(-235.603 -321.009)" fill="#fff" stroke="#263238" stroke-linecap="round" stroke-linejoin="round" stroke-width="1"/>
          <path id="Path_47" data-name="Path 47" d="M256.377,451s-2.547,2.712-1.713,3.952,6.657,4.4,8.167,3.448.533-1.931.533-1.931Z" transform="translate(-234.993 -322.738)" fill="#fff" stroke="#263238" stroke-linecap="round" stroke-linejoin="round" stroke-width="1"/>
          <path id="Path_48" data-name="Path 48" d="M275.134,443.562l-5.214-.9,1.225,7.506,5.327.165Z" transform="translate(-238.828 -320.663)" fill="#fff" stroke="#263238" stroke-linecap="round" stroke-linejoin="round" stroke-width="1"/>
          <path id="Path_49" data-name="Path 49" d="M264.355,427.585l6.108,21.4,2.968,2.7v-3.809l-6.461-21.036a1.352,1.352,0,0,0-1.743-.887h0a1.36,1.36,0,0,0-.871,1.63Z" transform="translate(-237.433 -316.49)" fill="#263238" stroke="#263238" stroke-linecap="round" stroke-linejoin="round" stroke-width="1"/>
          <path id="Path_50" data-name="Path 50" d="M266.067,440.368s-3.606,2.111-3.246,3.711,4.252,9.083,5.657,9.181,2.254-.751,2.051-2.374-1.5-7.513-2.382-8.8S267.172,440.292,266.067,440.368Z" transform="translate(-237.057 -320.091)" fill="#fff" stroke="#263238" stroke-linecap="round" stroke-linejoin="round" stroke-width="1"/>
          <path id="Path_51" data-name="Path 51" d="M276.6,443.86s3.839.481,4.508,1.653-2.013,5.845-2.87,6.912-2.389,1.022-2.434-1.683A41.267,41.267,0,0,1,276.6,443.86Z" transform="translate(-240.291 -320.962)" fill="#fff" stroke="#263238" stroke-linecap="round" stroke-linejoin="round" stroke-width="1"/>
          <path id="Path_52" data-name="Path 52" d="M248.27,455.89H290.4a4.448,4.448,0,0,1,4.44,4.44h0a3.756,3.756,0,0,1-3.757,3.757H248.856a3.456,3.456,0,0,1-3.456-3.456v-1.878a2.863,2.863,0,0,1,2.87-2.862Z" transform="translate(-232.73 -323.954)" fill="#fff" stroke="#263238" stroke-linecap="round" stroke-linejoin="round" stroke-width="1"/>
          <path id="Path_53" data-name="Path 53" d="M338.289,441.948s-10.962-1.2-13.666-2.1-7.062-1.653-8.565-.451-8.858,9.767-9.016,10.811-1.653,4.508-.9,5.409a5.447,5.447,0,0,0,2.254,1.352s9.767,2.7,10.811,2.855,11.112-.3,11.112-.3l5.259-1.953,7.355-.15s.15,2.4.3-3.456S338.289,441.948,338.289,441.948Z" transform="translate(-247.784 -319.696)" fill="#fff" stroke="#263238" stroke-linecap="round" stroke-linejoin="round" stroke-width="1"/>
          <path id="Path_54" data-name="Path 54" d="M309.24,458.327a17.063,17.063,0,0,1,.9-4.959c.751-1.5,9.309-9.158,9.309-9.158" transform="translate(-248.607 -321.049)" fill="none" stroke="#263238" stroke-linecap="round" stroke-linejoin="round" stroke-width="1"/>
          <path id="Path_55" data-name="Path 55" d="M313,461.245s1.5-3.757,2.1-4.057,7.656-4.808,7.656-4.808" transform="translate(-249.542 -323.081)" fill="none" stroke="#263238" stroke-linecap="round" stroke-linejoin="round" stroke-width="1"/>
          <path id="Path_56" data-name="Path 56" d="M319.83,463.939s.3-1.5,1.052-1.8,7.062-3.155,7.062-3.155" transform="translate(-251.241 -324.722)" fill="none" stroke="#263238" stroke-linecap="round" stroke-linejoin="round" stroke-width="1"/>
          <path id="Path_57" data-name="Path 57" d="M328.681,465.884l2.855-.751-.3-1.352-3.005.751" transform="translate(-253.33 -325.916)" fill="none" stroke="#263238" stroke-linecap="round" stroke-linejoin="round" stroke-width="1"/>
          <path id="Path_58" data-name="Path 58" d="M383.4,373.648s-7.956,16.671-7.513,22.539S378.3,411.8,378.3,411.8s-12.614,4.951-16.972,6.762A89.2,89.2,0,0,1,349,422.017l4.05,15.92-.594,1.653h43.7s3.306-.6,3.907-1.352a4.877,4.877,0,0,0,1.5-3.456c.3-2.4,2.254-23.426,1.8-29.3s-6.611-36.341-7.363-39.5-2.1-5.259-3.448-6.01-7.213-1.345-7.213-1.345" transform="translate(-258.495 -299.765)" fill="#fff" stroke="#263238" stroke-linecap="round" stroke-linejoin="round" stroke-width="1"/>
          <path id="Path_59" data-name="Path 59" d="M389.4,429.8s11.563.6,17.28,4.2" transform="translate(-268.543 -317.465)" fill="none" stroke="#263238" stroke-linecap="round" stroke-linejoin="round" stroke-width="1"/>
          <path id="Path_60" data-name="Path 60" d="M392.19,427.776s8.114-.451,12.472.9" transform="translate(-269.236 -316.944)" fill="none" stroke="#263238" stroke-linecap="round" stroke-linejoin="round" stroke-width="1"/>
          <path id="Path_61" data-name="Path 61" d="M387.658,378s-4.057,9.466-4.207,13.073-.451,5.71-.451,5.71" transform="translate(-266.951 -304.583)" fill="none" stroke="#263238" stroke-linecap="round" stroke-linejoin="round" stroke-width="1"/>
          <path id="Path_62" data-name="Path 62" d="M364.61,344.64s9.158,13.043,1.8,49.413" transform="translate(-262.377 -296.286)" fill="none" stroke="#263238" stroke-linecap="round" stroke-linejoin="round" stroke-width="2"/>
          <path id="Path_63" data-name="Path 63" d="M369.816,410.318a4.508,4.508,0,1,0-4.508,4.508A4.508,4.508,0,0,0,369.816,410.318Z" transform="translate(-261.43 -311.499)" fill="#fff" stroke="#263238" stroke-linecap="round" stroke-linejoin="round" stroke-width="1"/>
          <path id="Path_64" data-name="Path 64" d="M321.212,346.44s-4.651,3.005-5.4,15.169" transform="translate(-250.241 -296.734)" fill="none" stroke="#263238" stroke-linecap="round" stroke-linejoin="round" stroke-width="2"/>
          <path id="Path_65" data-name="Path 65" d="M320.5,391.16c-1.134,8.2-2.682,17.017-3.005,18.948-.751,4.132-5.657,5.575-8.813,4.222" transform="translate(-248.468 -307.856)" fill="none" stroke="#263238" stroke-linecap="round" stroke-linejoin="round" stroke-width="2"/>
          <path id="Path_66" data-name="Path 66" d="M308.26,385.6c-1.029-4.6-1.66-8.587-1.435-10.413,1.052-8.407,6.762-8.557,6.762-8.557a8.551,8.551,0,0,1,7.205,8.114,60.056,60.056,0,0,1-.751,10.315" transform="translate(-247.995 -301.755)" fill="none" stroke="#263238" stroke-linecap="round" stroke-linejoin="round" stroke-width="2"/>
          <path id="Path_67" data-name="Path 67" d="M321.432,413.908s-3.156,1.8-5.259.6c-1.42-.811-5.259-13.043-7.423-22.629" transform="translate(-248.485 -308.035)" fill="none" stroke="#263238" stroke-linecap="round" stroke-linejoin="round" stroke-width="2"/>
          <rect id="Rectangle_18" data-name="Rectangle 18" width="3.711" height="2.397" rx="1.198" transform="translate(71.723 105.247) rotate(-23.32)" fill="none" stroke="#263238" stroke-linecap="round" stroke-linejoin="round" stroke-width="1"/>
          <rect id="Rectangle_19" data-name="Rectangle 19" width="3.711" height="2.397" rx="1.198" transform="matrix(0.857, 0.515, -0.515, 0.857, 58.431, 103.758)" fill="none" stroke="#263238" stroke-linecap="round" stroke-linejoin="round" stroke-width="1"/>
          <path id="Path_68" data-name="Path 68" d="M315.175,297.771s-2.4,5.7-1.953,9.309,5.259,7.513,5.259,7.513,1.653-16.07,1.653-16.671S317.121,295.968,315.175,297.771Z" transform="translate(-249.583 -284.405)" fill="#263238" stroke="#263238" stroke-linecap="round" stroke-linejoin="round" stroke-width="1"/>
          <line id="Line_25" data-name="Line 25" y1="2.231" x2="3.193" transform="translate(63.864 31.562)" fill="none" stroke="#263238" stroke-linecap="round" stroke-linejoin="round" stroke-width="2"/>
          <path id="Path_69" data-name="Path 69" d="M318.1,296.749s-.6,15.92-.3,18.918,1.5,12.614,2.554,15.62,4.508,12.614,7.213,13.666,8.107,1.8,9.91.6,8.407-5.7,10.21-10.06a29.53,29.53,0,0,0,2.1-7.956,11.067,11.067,0,0,0,5.71-7.964c.9-5.71-1.5-7.355-1.5-7.355l.15-9.917s-1.653-6.9-6.01-10.661-9.459-4.057-14.718-1.2S318.1,296.749,318.1,296.749Z" transform="translate(-250.716 -282.331)" fill="#fff" stroke="#263238" stroke-linecap="round" stroke-linejoin="round" stroke-width="1"/>
          <path id="Path_70" data-name="Path 70" d="M345.188,293.8s.15-3.907-3.6-2.554-4.658,3.907-10.218,6.161-12.915-.3-15.462-1.8-4.357-3.606-.9-7.513,11.563-7.806,20.285-7.806,15.469,7.2,18.324,10.21a9.089,9.089,0,0,1,2.254,9.459c-1.052,2.7-3.005,10.218-3.005,10.218s-1.2-.15-1.653,1.645-.3,3.757-2.254,3.907-1.8-5.1-1.8-5.1-4.8-1.5-5.4-4.959S345.188,297.1,345.188,293.8Z" transform="translate(-249.567 -280.28)" fill="#263238" stroke="#263238" stroke-linecap="round" stroke-linejoin="round" stroke-width="1"/>
          <path id="Path_71" data-name="Path 71" d="M327.4,327.709,313.51,325.26l.8,6.228a1.818,1.818,0,0,0,1.5,1.563l8.445,1.33a1.811,1.811,0,0,0,2.066-1.443Z" transform="translate(-249.669 -291.466)" fill="none" stroke="#263238" stroke-linecap="round" stroke-linejoin="round" stroke-width="2"/>
          <path id="Path_72" data-name="Path 72" d="M335.37,328.716l16.108-.466-1.578,5.83a1.923,1.923,0,0,1-1.908,1.292l-9.767.135a2.111,2.111,0,0,1-2.209-1.66Z" transform="translate(-255.106 -292.21)" fill="none" stroke="#263238" stroke-linecap="round" stroke-linejoin="round" stroke-width="2"/>
          <line id="Line_26" data-name="Line 26" x2="2.509" y2="0.263" transform="translate(77.755 36.243)" fill="none" stroke="#263238" stroke-linecap="round" stroke-linejoin="round" stroke-width="2"/>
          <line id="Line_27" data-name="Line 27" y1="4.508" x2="5.259" transform="translate(96.372 31.532)" fill="#fff" stroke="#263238" stroke-linecap="round" stroke-linejoin="round" stroke-width="2"/>
          <path id="Path_73" data-name="Path 73" d="M338.22,325.779s4.508-3.448,8.715-1.352" transform="translate(-255.814 -291.091)" fill="none" stroke="#263238" stroke-linecap="round" stroke-linejoin="round" stroke-width="2"/>
          <path id="Path_74" data-name="Path 74" d="M326.793,324.758s-3.456-3.757-7.363-1.2" transform="translate(-251.141 -290.821)" fill="none" stroke="#263238" stroke-linecap="round" stroke-linejoin="round" stroke-width="2"/>
          <path id="Path_75" data-name="Path 75" d="M330.319,342.84s-.751,3.155,0,3.757a6.634,6.634,0,0,0,4.2.751" transform="translate(-253.766 -295.838)" fill="none" stroke="#263238" stroke-linecap="round" stroke-linejoin="round" stroke-width="1"/>
          <path id="Path_76" data-name="Path 76" d="M327.43,351s3.005,2.254,5.86,2.4,6.153-1.953,6.153-1.953" transform="translate(-253.131 -297.868)" fill="none" stroke="#263238" stroke-linecap="round" stroke-linejoin="round" stroke-width="1"/>
          <path id="Path_77" data-name="Path 77" d="M342.22,330.6s1.8,2.1,4.808-.15" transform="translate(-256.809 -292.757)" fill="none" stroke="#263238" stroke-linecap="round" stroke-linejoin="round" stroke-width="1"/>
          <path id="Path_78" data-name="Path 78" d="M322.53,329.42s1.5,2.329,4.778.5" transform="translate(-251.912 -292.501)" fill="none" stroke="#263238" stroke-linecap="round" stroke-linejoin="round" stroke-width="1"/>
        </g>
        <g id="freepik--character-1--inject-69" transform="translate(40.898 205.445)">
          <path id="Path_79" data-name="Path 79" d="M182.632,294.962s.954,14.312.233,15.507l-2.111,3.576s.954,10.263-.954,11.45a12.57,12.57,0,0,1-4.771,1.435s-1.908,7.633-2.63,8.587a25.327,25.327,0,0,1-6.439,4.508c-1.427.451-5.965.751-16.7-5.725s-14.793-8.587-14.553-12.164.751-7.633.751-7.633,1.195-17.182,3.343-22.426,29.346-8.114,35.311-6.679S182.632,294.962,182.632,294.962Z" transform="translate(-67.793 -273.291)" fill="#fff" stroke="#263238" stroke-linecap="round" stroke-linejoin="round" stroke-width="1"/>
          <path id="Path_80" data-name="Path 80" d="M161.66,329.68l1.675,1.195s-1.435,5.725-.751,8.355" transform="translate(-74.499 -284.395)" fill="none" stroke="#263238" stroke-linecap="round" stroke-linejoin="round" stroke-width="1"/>
          <path id="Path_81" data-name="Path 81" d="M192.814,322.581c-.24,1.1-.819,1.893-1.285,1.788s-.654-1.067-.406-2.164.819-1.893,1.285-1.788S193.062,321.491,192.814,322.581Z" transform="translate(-81.799 -282.089)" fill="#263238"/>
          <path id="Path_82" data-name="Path 82" d="M190.17,317.073s2.6-2.6,4.771-.143" transform="translate(-81.589 -280.962)" fill="none" stroke="#263238" stroke-linecap="round" stroke-linejoin="round" stroke-width="1"/>
          <path id="Path_83" data-name="Path 83" d="M170.856,289.168s3.1,5.725,2.862,6.919-10.022,4.057-10.022,4.057-.954,5.725-2.389,6.439l-1.427.714a24.986,24.986,0,0,1-2.862-5.011c-1.668-3.576-4.057-4.508-6.679-.954s-.481,11.931.954,12.644l1.427.714s-1.195,1.195-5.725,1.916-7.874,1.668-11.209.714-8.114-10.022-9.767-21.713,3.576-21.705,10.518-24.793,22.667-.24,23.854.473,9.309-3.1,14.079-.714,4.508,5.011,5.725,6.679,7.393-.473,7.874,5.492-1.908,9.542-5.011,10.015S170.856,289.168,170.856,289.168Z" transform="translate(-65.559 -269.405)" fill="#263238" stroke="#263238" stroke-linecap="round" stroke-linejoin="round" stroke-width="1"/>
          <path id="Path_84" data-name="Path 84" d="M99.822,344.695S76.96,356.888,72.6,359.3s-5.011,4.575-5.259,6.762,0,75.769,0,75.769H190.835s-18.73-56.235-19.346-62.516-1.953-17.423-3.7-18.73-26.356-12.194-26.356-12.194-5.883-6.311-19.812-6.311S99.822,344.695,99.822,344.695Z" transform="translate(-51.015 -287.479)" fill="#285ffa" stroke="#263238" stroke-linecap="round" stroke-linejoin="round" stroke-width="1"/>
          <path id="Path_85" data-name="Path 85" d="M129.45,405.19c.646.255,1.3.488,1.953.706" transform="translate(-66.488 -303.175)" fill="none" stroke="#263238" stroke-linecap="round" stroke-linejoin="round" stroke-width="1"/>
          <path id="Path_86" data-name="Path 86" d="M97,378.31s9.016,12.577,21.33,18.783" transform="translate(-58.418 -296.49)" fill="none" stroke="#263238" stroke-linecap="round" stroke-linejoin="round" stroke-width="1"/>
          <path id="Path_87" data-name="Path 87" d="M107.42,397.72s5,5.011,15.454,7.844" transform="translate(-61.01 -301.317)" fill="none" stroke="#263238" stroke-linecap="round" stroke-linejoin="round" stroke-width="1"/>
          <path id="Path_88" data-name="Path 88" d="M186.69,373.7c-3.479,3.952-8.377,10.27-10,16.085" transform="translate(-78.237 -295.343)" fill="none" stroke="#263238" stroke-linecap="round" stroke-linejoin="round" stroke-width="1"/>
          <path id="Path_89" data-name="Path 89" d="M194.353,368.45s-.691.669-1.773,1.818" transform="translate(-82.189 -294.037)" fill="none" stroke="#263238" stroke-linecap="round" stroke-linejoin="round" stroke-width="1"/>
          <path id="Path_90" data-name="Path 90" d="M177.124,385.84s-3.268,6.311-3.914,10.233" transform="translate(-77.371 -298.362)" fill="none" stroke="#263238" stroke-linecap="round" stroke-linejoin="round" stroke-width="1"/>
          <path id="Path_91" data-name="Path 91" d="M108.87,343.5s12.629-.436,24.605-.218,19.819,3.922,19.819,3.922-7.19-8.708-10.451-10.668-13.283-5.259-21.555-2.615A24,24,0,0,0,108.87,343.5Z" transform="translate(-61.37 -285.206)" fill="#285ffa" stroke="#263238" stroke-linecap="round" stroke-linejoin="round" stroke-width="1"/>
          <path id="Path_92" data-name="Path 92" d="M57.234,458.664l-11.51-44.132a3.681,3.681,0,0,1,3.606-4.433h91.576a3.7,3.7,0,0,1,3.606,2.9l10.165,45.709" transform="translate(-45.647 -304.396)" fill="#263238" stroke="#263238" stroke-linecap="round" stroke-linejoin="round" stroke-width="1"/>
        </g>
      </g>
    </g>
  </g>
</svg>
