<svg xmlns="http://www.w3.org/2000/svg" width="18.772" height="24" viewBox="0 0 18.772 24">
  <g id="Layer_2" data-name="Layer 2" transform="translate(-0.026 -0.002)">
    <g id="Layer_1" data-name="Layer 1" transform="translate(0.026 0.002)">
      <path id="Path_840" data-name="Path 840" d="M8.451,23.985a4.812,4.812,0,0,0-.916-.181A9.284,9.284,0,0,1,.277,16.784a7.775,7.775,0,0,1,.6-5.505,34.268,34.268,0,0,1,4.549-6.9C6.616,2.909,7.877,1.515,9.176.151c.161-.171.253-.219.444-.021a55.158,55.158,0,0,1,7.043,8.8A18.584,18.584,0,0,1,18.406,12.5a7.447,7.447,0,0,1-.1,5.034,9.273,9.273,0,0,1-6.015,6,7.891,7.891,0,0,1-1.685.393.34.34,0,0,0-.27.079Zm.967-1.268a6.115,6.115,0,0,0,.9-.044A7.987,7.987,0,0,0,16.079,19.2a7.3,7.3,0,0,0,1.367-5.406A10.463,10.463,0,0,0,15.9,10.076a51.68,51.68,0,0,0-6.315-8.14c-.174-.195-.253-.123-.386.021-.748.82-1.49,1.647-2.2,2.5A37.382,37.382,0,0,0,2.4,11.019a7.885,7.885,0,0,0-1.114,3.626,8.137,8.137,0,0,0,8.137,8.072Z" transform="translate(-0.026 -0.002)" fill="#fff"/>
      <path id="Path_841" data-name="Path 841" d="M9.759,42.66c.584,0,.584,0,.66.564A4.3,4.3,0,0,0,14.3,47c.383.041.5.15.482.54-.034.844,0,.844-.861.683a5.622,5.622,0,0,1-4.76-4.842C9.055,42.66,9.075,42.66,9.759,42.66Z" transform="translate(-6.009 -28.082)" fill="#fff"/>
    </g>
  </g>
</svg>
