<svg xmlns="http://www.w3.org/2000/svg" viewBox="0 0 186.64 104.67"><title>5Asset 1</title><g id="Layer_2" data-name="Layer 2"><g id="Layer_1-2" data-name="Layer 1"><path d="M93.36,104.67a3.55,3.55,0,0,1-2-1.36Q70.27,82.24,49.16,61.15c-1.46-1.44-1.56-2.48,0-3.92,2.64-2.44,5.22-5,7.62-7.63,1.72-1.93,2.88-1.66,4.58.06C71.11,59.54,81,69.27,90.74,79.2c2.06,2.11,3.2,2,5.21,0q38.28-38.46,76.7-76.77c3-3,3-3,6,0l5.73,5.73c3,3,3,3-.11,6.21L151.2,47.42Q123.63,75,96.07,102.52C95.25,103.35,94.58,104.42,93.36,104.67Z"/><path d="M127.27,0a3.23,3.23,0,0,1,2.26,1.32c2.55,2.53,5,5.18,7.66,7.58,1.88,1.69,1.76,2.84,0,4.58-12,11.88-23.9,23.84-35.84,35.78-2.47,2.47-5,4.91-7.4,7.43-1.15,1.21-2.06,1.23-3.23,0-2.63-2.74-5.27-5.47-8.07-8-1.71-1.57-1.77-2.64,0-4.32,6.73-6.55,13.31-13.24,20-19.88Q113.9,13.13,125.24,1.8C125.93,1.11,126.7.5,127.27,0Z"/><path d="M10.81,48A3.45,3.45,0,0,1,13,49.33Q32.24,68.59,51.53,87.85c1.44,1.42,1.64,2.46.08,3.92-2.77,2.6-5.44,5.3-8.06,8-1.32,1.38-2.32,1.43-3.71,0Q20.52,80.43,1.09,61.08C-.22,59.77-.47,58.77,1,57.38c2.83-2.67,5.52-5.49,8.29-8.23A15,15,0,0,1,10.81,48Z"/></g></g></svg>