<svg xmlns="http://www.w3.org/2000/svg" xmlns:xlink="http://www.w3.org/1999/xlink" viewBox="0 0 224.49 312.93">
    <defs>
        <clipPath id="clip-path">
            <path
                d="M212.7,249.88,58.1,299,20.3,101.78l-2.2-11.2L155.8,24a5.11,5.11,0,0,1,6.7,2.7,6.89,6.89,0,0,1,.3.8l2.9,11.1,51.7,202.6A7.08,7.08,0,0,1,212.7,249.88Z"
                style="fill:none" />
        </clipPath>
    </defs>
    <title>Folder</title>
    <g id="Layer_2" data-name="Layer 2">
        <g id="Layer_1-2" data-name="Layer 1">
            <g id="freepik--left-hand--inject-2">
                <path
                    d="M192.9,89.88l9.4-11.6a11.58,11.58,0,0,0,2.3-9.5l-8.9-41.4a6.77,6.77,0,0,0-6.8-5.4H171.6a10.88,10.88,0,0,0-3.6.6L.5,91.08l42.4,220.4c6,9,173.4-48.9,173.4-48.9a11.37,11.37,0,0,0,7.4-13.3L189.5,105A17.59,17.59,0,0,1,192.9,89.88Z"
                    style="fill:#285ffa;stroke:#263238;stroke-linecap:round;stroke-linejoin:round" />
                <path d="M168.4,26.78l53,227.2s-179.2,66.8-170.8,46.1c0,0-42.7-203-39.1-203.7S168.4,26.78,168.4,26.78Z"
                    style="fill-opacity:0.699999988079071;opacity:0.30000001192092896;isolation:isolate" />
                <path
                    d="M212.7,249.88,58.1,299,20.3,101.78l-2.2-11.2L155.8,24a5.11,5.11,0,0,1,6.7,2.7,6.89,6.89,0,0,1,.3.8l2.9,11.1,51.7,202.6A7.08,7.08,0,0,1,212.7,249.88Z"
                    style="fill:#fff" />
                <g style="clip-path:url(#clip-path)">
                    <path d="M165.7,38.58,21.4,104.68l-3.3-14,137.7-66.6a5.11,5.11,0,0,1,6.7,2.7,6.89,6.89,0,0,1,.3.8Z"
                        style="fill:#263238" />
                    <path
                        d="M158.5,33.68a3.15,3.15,0,0,1-2.9,3.4h-.3a3.79,3.79,0,0,1-3.2-3.9,3.22,3.22,0,0,1,2.9-3.4h.3A3.79,3.79,0,0,1,158.5,33.68Z"
                        style="fill:#285ffa;stroke:#263238;stroke-linecap:round;stroke-linejoin:round" />
                    <path
                        d="M150.2,37.78a3,3,0,0,1-2.8,3.2h-.2a3.41,3.41,0,0,1-3-3.6,3,3,0,0,1,2.8-3.2h.2A3.41,3.41,0,0,1,150.2,37.78Z"
                        style="fill:#285ffa;stroke:#263238;stroke-linecap:round;stroke-linejoin:round" />
                    <path
                        d="M142.4,41.28a2.79,2.79,0,0,1-2.5,3h-.3a3.36,3.36,0,0,1-2.8-3.4,2.79,2.79,0,0,1,2.5-3h.3A3.26,3.26,0,0,1,142.4,41.28Z"
                        style="fill:#285ffa;stroke:#263238;stroke-linecap:round;stroke-linejoin:round" />
                    <path
                        d="M212.7,249.88,58.1,299,20.3,101.78l-2.2-11.2L155.8,24a5.11,5.11,0,0,1,6.7,2.7,6.89,6.89,0,0,1,.3.8l2.9,11.1,51.7,202.6A7.08,7.08,0,0,1,212.7,249.88Z"
                        style="fill-opacity:0.699999988079071;opacity:0.30000001192092896;isolation:isolate" />
                </g>
                <path
                    d="M212.7,249.88,58.1,299,20.3,101.78l-2.2-11.2L155.8,24a5.11,5.11,0,0,1,6.7,2.7,6.89,6.89,0,0,1,.3.8l2.9,11.1,51.7,202.6A7.08,7.08,0,0,1,212.7,249.88Z"
                    style="fill:none;stroke:#263238;stroke-linecap:round;stroke-linejoin:round" />
                <path
                    d="M203.5,240.18,51.1,300.08,13.8,105.58l-2.1-11.1,135.8-76.3A4.76,4.76,0,0,1,154,20a6.12,6.12,0,0,1,.5,1.2l2.8,10.9,51,199A7.92,7.92,0,0,1,203.5,240.18Z"
                    style="fill:#fff;stroke:#263238;stroke-linecap:round;stroke-linejoin:round" />
                <path d="M157.2,32.08,14.8,108.18l-3.2-13.8,135.8-76.2a4.76,4.76,0,0,1,6.5,1.8,6.12,6.12,0,0,1,.5,1.2Z"
                    style="fill:#263238" />
                <path d="M150.1,27.78a3.18,3.18,0,1,1-6.3-.9,3.15,3.15,0,0,1,3.2-2.7A3.37,3.37,0,0,1,150.1,27.78Z"
                    style="fill:#285ffa;stroke:#263238;stroke-linecap:round;stroke-linejoin:round" />
                <path d="M141.9,32.38a3,3,0,1,1-3-3.4A3.29,3.29,0,0,1,141.9,32.38Z"
                    style="fill:#285ffa;stroke:#263238;stroke-linecap:round;stroke-linejoin:round" />
                <path d="M134.2,36.48a2.73,2.73,0,0,1-5.4-.8,2.78,2.78,0,0,1,2.7-2.4A3.07,3.07,0,0,1,134.2,36.48Z"
                    style="fill:#285ffa;stroke:#263238;stroke-linecap:round;stroke-linejoin:round" />
                <path
                    d="M155.6,37.08l44.9,175.8a1.56,1.56,0,0,1-.9,1.8l-4.1,1.8a1.54,1.54,0,0,1-2-.8.35.35,0,0,0-.1-.2L149.7,40.68a2.15,2.15,0,0,1,1-2.3l3.4-1.9a.88.88,0,0,1,1.3.4A.22.22,0,0,1,155.6,37.08Z"
                    style="fill-opacity:0.699999988079071;opacity:0.30000001192092896;isolation:isolate" />
                <path
                    d="M151.7,42.08l2.5-1.4a1.7,1.7,0,0,1,2.4.7c.1.1.1.3.2.4l4.6,18.4a2.09,2.09,0,0,1-1,2.3l-3,1.6a1.28,1.28,0,0,1-1.7-.5.37.37,0,0,1-.1-.3l-4.7-19A1.82,1.82,0,0,1,151.7,42.08Z"
                    style="fill:#bfbfbf;stroke:#263238;stroke-linecap:round;stroke-linejoin:round" />
                <line x1="174.1" y1="238.98" x2="75.9" y2="279.38"
                    style="fill:none;stroke:#000;stroke-linecap:round;stroke-linejoin:round;stroke-width:2px;opacity:0.4000000059604645;isolation:isolate" />
                <line x1="187.4" y1="226.68" x2="62.7" y2="279.38"
                    style="fill:none;stroke:#000;stroke-linecap:round;stroke-linejoin:round;stroke-width:2px;opacity:0.4000000059604645;isolation:isolate" />
                <polygon points="175.2 173.58 165.1 130.78 137.8 143.78 147.8 186.48 175.2 173.58"
                    style="fill-opacity:0.699999988079071;opacity:0.30000001192092896;isolation:isolate" />
                <polygon points="126.7 96.18 136.2 136.78 163.4 123.58 153.6 81.98 126.7 96.18"
                    style="fill-opacity:0.699999988079071;opacity:0.30000001192092896;isolation:isolate" />
                <polygon points="152.8 78.38 144.8 44.38 117.9 58.48 125.9 92.68 152.8 78.38"
                    style="fill-opacity:0.699999988079071;opacity:0.30000001192092896;isolation:isolate" />
                <polygon points="148.8 190.68 158 229.98 185.6 217.88 176.3 178.38 148.8 190.68"
                    style="fill-opacity:0.699999988079071;opacity:0.30000001192092896;isolation:isolate" />
                <path
                    d="M.5,91.08l42.4,220.4c13.6-15.5,110.6-86.6,110.6-86.6a23.28,23.28,0,0,0,9-24L117.7,8.18A9.85,9.85,0,0,0,101.6,3C101.5,3,11.2,59.68.5,91.08Z"
                    style="fill:#285ffa;stroke:#263238;stroke-linecap:round;stroke-linejoin:round" />
                <g style="opacity:0.699999988079071">
                    <path
                        d="M154.9,207.78a2.88,2.88,0,0,1-2.8-2.2c-.8-3.1-1.5-6.3-2.3-9.5a2.82,2.82,0,1,1,5.4-1.6c0,.1.1.2.1.3.7,3.1,1.5,6.3,2.2,9.4a2.79,2.79,0,0,1-2.1,3.4h0C155.4,207.68,155.1,207.78,154.9,207.78Z"
                        style="fill:#fff" />
                </g>
                <g style="opacity:0.699999988079071">
                    <path
                        d="M149.1,182.38a2.88,2.88,0,0,1-2.8-2.2L107.4,9.28c0-.1-.1-.2-.2-.3a.19.19,0,0,0-.3,0c-10,6.7-43.8,29.3-59.5,41.9-10,8.3-19.1,17.9-29.6,30.9a2.84,2.84,0,1,1-4.4-3.6C24.1,64.78,33.5,55,43.9,46.38,59.4,34,91,12.78,103.8,4.18a6,6,0,0,1,8.3,1.6,6.67,6.67,0,0,1,.9,2.1l38.9,170.9a2.87,2.87,0,0,1-2.1,3.4h0A1.08,1.08,0,0,1,149.1,182.38Z"
                        style="fill:#fff" />
                </g>
            </g>
        </g>
    </g>
</svg>