<svg xmlns="http://www.w3.org/2000/svg" width="22.49" height="24" viewBox="0 0 22.49 24">
  <g id="Layer_2" data-name="Layer 2" transform="translate(0.025)">
    <g id="Layer_1" data-name="Layer 1" transform="translate(-0.025)">
      <path id="Path_838" data-name="Path 838" d="M22.465,0V3.956c0,.215-.062.264-.264.255H21.172c-.154,0-.2-.048-.2-.2V2.466c-.1-.031-.132.053-.176.092-1.059,1-2.119,2.009-3.182,3.007a.215.215,0,0,0-.04.316,6.25,6.25,0,0,1-1.037,7.472,6.127,6.127,0,0,1-4.523,1.859.33.33,0,0,0-.334.18,6.215,6.215,0,0,1-3.077,2.637,5.152,5.152,0,0,1-1.371.369c-.149,0-.2.07-.2.22v1.569c0,.167.066.189.211.189H9.12c.18,0,.224.057.22.229v1.051c0,.163-.044.215-.211.215H7.3c-.2,0-.268.04-.264.255v1.662c0,.163-.044.215-.211.211H5.775c-.189,0-.215-.062-.215-.224V22.158c0-.22-.04-.295-.277-.286H3.551c-.149,0-.2-.04-.2-.2v-1.1c0-.158.048-.2.2-.193h1.8c.167,0,.211-.048.207-.211V18.628c0-.149-.044-.2-.193-.224a6.207,6.207,0,0,1-5.275-5.05A6.129,6.129,0,0,1,2.421,7.2,6.066,6.066,0,0,1,5.6,5.908a5.275,5.275,0,0,1,.747-.031.3.3,0,0,0,.3-.163,6.026,6.026,0,0,1,3.2-2.681,6.154,6.154,0,0,1,6.448,1.231c.29.251.281.264.567,0l2.734-2.6a.312.312,0,0,0,.141-.189H18.517c-.365,0-.369,0-.365-.374V0ZM12.394,13.723a3.13,3.13,0,0,0,.857-.1,4.835,4.835,0,1,0-4.945-7.7c-.18.224-.176.22.105.325a6.316,6.316,0,0,1,3.982,7.472Zm-2.2,1.235-.295-.11a6.312,6.312,0,0,1-4-7.261c.031-.145.035-.22-.163-.2a4.835,4.835,0,0,0-3.051,8A4.681,4.681,0,0,0,7.937,16.7a4.527,4.527,0,0,0,2.277-1.758Zm.879-2.826a3.531,3.531,0,0,0-.053-.708A4.861,4.861,0,0,0,7.617,7.552c-.136-.04-.185,0-.224.132A4.541,4.541,0,0,0,7.3,9.745a4.765,4.765,0,0,0,3.385,3.811c.158.053.2,0,.233-.141a4.738,4.738,0,0,0,.176-1.284Z" transform="translate(0.025)" fill="#fff"/>
    </g>
  </g>
</svg>
