<svg xmlns="http://www.w3.org/2000/svg" viewBox="0 0 124.97 478.73"><title>manAsset 25</title><g id="Layer_2" data-name="Layer 2"><g id="Layer_1-2" data-name="Layer 1"><g class="cls-1"><path class="cls-2" d="M124.42,204.13a126.62,126.62,0,0,1-.72-16,112,112,0,0,0-3-30.58,16.56,16.56,0,0,1-.57-4.38c.07-3.65-.15-7.28-.3-10.91-.27-6.12-.49-12.24-1-18.33a109.9,109.9,0,0,1,.45-19,31.54,31.54,0,0,0-4.09-18.64,15.8,15.8,0,0,0-6.4-6.46,65,65,0,0,0-7.07-2.93c-4.53-1.75-9.38-2.59-13.64-5.1-3.79-2.23-7.52-4.56-11.5-6.44A1.47,1.47,0,0,1,75.7,64c-.44-4.39-.49-8.78-.67-13.18a1.84,1.84,0,0,1,.25-1.14c2.36-3.5,3.47-7.51,4.61-11.5.23-.8.41-1.39,1.35-1.55a1.58,1.58,0,0,0,1.11-1.18,53.57,53.57,0,0,1,2.14-5.2,4.05,4.05,0,0,0,.22-2.13,2.33,2.33,0,0,0-2.15-2.19c-.66-.08-.76-.35-.75-.93a43.47,43.47,0,0,0-.55-8.37c-.63-3.72-1.53-7.36-3.84-10.47A14.06,14.06,0,0,0,69.16.59C65.48-.27,61.76,0,58.06.22A12.9,12.9,0,0,0,50.9,3c-3.38,2.56-5,6.18-5.94,10.12a42.65,42.65,0,0,0-1.19,11.54c0,.77-.2,1.13-1,1.27a2.19,2.19,0,0,0-1.9,2.16,5.89,5.89,0,0,0,.64,3.26,17.3,17.3,0,0,1,1.39,3.56c.15.61.37,1.36,1,1.54,1.31.36,1.51,1.39,1.76,2.45A33.24,33.24,0,0,0,49.7,49a4.55,4.55,0,0,1,.76,2.66c-.1,3.76-.08,7.51-.32,11.27a2.5,2.5,0,0,1-1.73,2.51,88.63,88.63,0,0,0-8.94,4.33c-2,1.11-4,2.25-6,3.16-4.39,1.92-9.16,2.77-13.54,4.77-2.95,1.35-6,2.42-8,5.28-1.19,1.76-2.06,3.69-3.07,5.54-2.72,5-3.25,10.36-3,15.9.24,4.67.6,9.35.54,14C6.31,127.28,5.53,136.13,5,145c-.34,5.32.29,10.72-1.32,16a59.94,59.94,0,0,0-1.45,8.26,72.58,72.58,0,0,0-.89,9c-.2,6.52.18,13-.19,19.56C.65,206.11,0,214.39,0,222.73c0,7.53.54,15,1.14,22.49a5.6,5.6,0,0,0,1.35,3.5,30.93,30.93,0,0,1,5.16,7.47,16.36,16.36,0,0,0,4.81,6.14,18.5,18.5,0,0,0,8.84,4c.77.11,1.52,0,1.58-.83a6.14,6.14,0,0,1,.8-2.57,1.73,1.73,0,0,0,.09-1.17c-.27-1.49.49-3.14-.64-4.52,0,0,0-.16,0-.23.62-1.9-.18-3.52-1-5.14a15.36,15.36,0,0,1-1.93-5.75c-.25-3.11-.89-6.16-1.44-9.22-.44-2.45-2-4.24-3.37-6.13s-2.94-3.8-3.21-6.32a51.57,51.57,0,0,1,1.5-18.06c1.25-4.95,2.69-9.86,3.95-14.81,1-4,1.83-8.1,2.94-12.09.73-2.62,1.34-5.26,1.86-7.92.81-4.11.6-8.29.92-12.44.17-2.19,0-4.45.44-6.56.68-3,1.33-6,2.11-9,1.38-5.25,2.51-10.56,3.77-16a2.13,2.13,0,0,1,.77,1.37c.5,3.32,1.65,6.49,2.19,9.81.5,3.11,1.47,6.18,1.46,9.33,0,5.67.5,11.37-.49,17a36.86,36.86,0,0,1-1.41,6.43c-1.16,3.18-2.58,6.27-3.16,9.65-.81,4.68-1.76,9.34-2.57,14a104.57,104.57,0,0,0-1.27,15.41c-.08,3.48-.7,6.93-.75,10.4-.1,6.79,0,13.59.15,20.39.12,5.67.32,11.35.73,17,.44,6.09,1.53,12.12,2.48,18.16.85,5.48,1.72,11,2.66,16.43.72,4.17,1.28,8.37,2.1,12.52,1.13,5.66,1.07,11.37,1,17.09a43.61,43.61,0,0,1-1.45,9c-1,4.27-1.44,8.59-2,12.9a117.55,117.55,0,0,0-.86,15.92,72,72,0,0,0,.94,14.45c.79,4,1.37,8,2.14,12,.73,3.84,1.47,7.68,2.17,11.53.87,4.79,2,9.54,2.86,14.33a67.83,67.83,0,0,1,1.1,16.95,4.21,4.21,0,0,1-.68,2.38c-1.62,2.18-1.36,4.28.25,6.33.17.22.28.49.47.7a1.72,1.72,0,0,1,.3,1.79c-.78,2.68-1.55,5.36-2.29,8.06-.92,3.34-1.89,6.68-2.71,10.06a36.47,36.47,0,0,0-1.2,7.2c-.07,2.09.16,4,1.89,5.57a38.48,38.48,0,0,0,7.93,5.94c4.24,2.17,10.39.18,12.46-4.11a16.35,16.35,0,0,0,1.43-6.85c.19-5.8-1.24-11.43-1.82-17.15-.45-4.42-.78-8.7.7-13,.78-2.28.56-4.63-1.68-6.27a1.66,1.66,0,0,1-.67-1.1,59.6,59.6,0,0,1-1-7.35A223.55,223.55,0,0,1,52.47,396c.91-9.67,1.66-19.36,2.48-29q.72-8.61,1-17.24c.22-6.42-.12-12.88,1.26-19.21.64-3,1-6,1.52-9a43.81,43.81,0,0,0,.87-11.32c-.27-3.39-.6-6.77-.71-10.17-.18-5.55-.57-11.1-.83-16.65-.15-3.19-.32-6.39-.21-9.59.2-5.75.49-11.5,1-17.24.4-4.5.88-9,1.47-13.47.84-6.34,1.24-12.64-.36-18.92-.17-.67,0-.86.61-.66a6,6,0,0,0,4.78,0c.56-.27.92.14.66.67a7,7,0,0,0-.34,2.28,47.34,47.34,0,0,0-.19,10.77c.32,4.58,1.14,9.12,1.6,13.68.76,7.4,1.39,14.81,1.52,22.26.1,6.28-.27,12.54-.68,18.81-.46,7-.42,14-1.23,20.94a3.49,3.49,0,0,0,.07,1.07,32.69,32.69,0,0,1,.49,4.17c.29,3.23.93,6.4,1.5,9.58.41,2.32,1,4.62,1.23,7,.36,4.62.62,9.26.64,13.89,0,8.57.69,17.1,1.44,25.62.79,9.08,1.81,18.14,2.26,27.25s.91,18.22-.52,27.29a2.1,2.1,0,0,1-.71,1.45c-2.69,2.21-2.63,4.45-1.51,7.57a14.49,14.49,0,0,1,.91,4.31c.25,5.16-1,10.17-1.53,15.25-.45,4.2-1.13,8.35-.45,12.65.77,4.95,3.77,7.31,7.54,8.48a7.56,7.56,0,0,0,5.38-.41c3.57-1.55,6.36-4.12,9.07-6.78a4.6,4.6,0,0,0,1.25-2.92c.39-3.86-.6-7.55-1.51-11.22-1.33-5.3-2.93-10.54-4.42-15.8a3.14,3.14,0,0,1,.58-2.92c1.83-2.43,1.84-3.95.17-6.43a3.22,3.22,0,0,1-.6-1.67,71.16,71.16,0,0,1,1.14-17.54c1.1-5.56,2.3-11.1,3.37-16.67,1.14-6,2.16-11.94,3.28-17.9a96.27,96.27,0,0,0,1.45-22.92,156.73,156.73,0,0,0-2.72-23c-.41-2-1-4-1.27-6.09A103.89,103.89,0,0,1,93,312.41a21.89,21.89,0,0,1,.4-4.29c.92-4.1,1.4-8.27,2.18-12.39.53-2.79.76-5.63,1.3-8.41.93-4.75,1.47-9.56,2.29-14.32.56-3.26,1-6.56,1.43-9.84,0-.23-.07-.59.33-.65,1.1,1.36,1.1,1.36,1.11,1.9,0,1.58.49,2,2.07,1.66a16.13,16.13,0,0,0,7.87-3.56c1.42-1.26,3.19-2.18,4.07-4a41.92,41.92,0,0,1,6.54-10.13,4.86,4.86,0,0,0,1.17-2.71A108,108,0,0,0,124.9,231C124.93,222,125.21,213.07,124.42,204.13ZM12,244.14c.31-.77.52-1,1.18-.26,1.38,1.57,1.74,3.57,2.29,5.46.41,1.42.76,2.88,1.3,4.57-2.66-1.69-4.32-3.71-4.62-6.59C12.06,246.27,11.58,245.24,12,244.14Zm100.41,4.8c-.5,2.33-2.4,3.38-4.07,4.76-.35-.75.21-1.09.37-1.55a21.58,21.58,0,0,0,1.15-4.14,14,14,0,0,1,1.74-4.16c.16-.33.38-.65.83-.5s.5.49.54.86A15.41,15.41,0,0,1,112.42,248.94Zm.24-23.94a8.57,8.57,0,0,1-2.24,4.42,20.7,20.7,0,0,0-5,11.81c-.31,2.9-.39,5.93-1.71,8.65a20.26,20.26,0,0,0-2,5,1.9,1.9,0,0,0,.07,1.48c.37.62.26,1.14-.62,1.54a31.36,31.36,0,0,1,.13-4c.42-6,.42-12,.65-18,.18-4.59.19-9.19.06-13.79a67.25,67.25,0,0,0-.93-8.09c-.71-4.74-1.15-9.51-1.82-14.25-.65-4.58-1.37-9.16-2.37-13.69-.46-2.1-.57-4.27-1.13-6.36-.66-2.47-1.72-4.8-2.57-7.21a44.86,44.86,0,0,1-2.1-15,90.23,90.23,0,0,1,.26-11,123.5,123.5,0,0,1,2.74-13.73c.37-1.54.67-3.09,1-4.63a.5.5,0,0,1,.45.54c.34,2.71,1.32,5.27,1.91,7.92,1,4.24,2.1,8.44,3.09,12.68,1.16,5,1.27,10.14,1.42,15.25a52.24,52.24,0,0,0,2,13c.87,3,1.46,6.05,2.21,9.07,1.23,5,2.75,9.92,4,14.9C112.19,209.16,113.85,216.92,112.66,225Z"/></g></g></g></svg>