<svg xmlns="http://www.w3.org/2000/svg" viewBox="0 0 111.64 112.73"><title>man1-afterAsset 13</title><g id="Layer_2" data-name="Layer 2"><g id="OBJECTS"><circle cx="55.82" cy="56.85" r="55.82" transform="translate(-23.85 56.12) rotate(-45)" style="fill:#fce8e3"/><rect x="41.19" y="49.56" width="29.53" height="33.36" style="fill:#e2988f"/><path d="M103.66,85.9c-15.76-7-32.94-9.52-32.94-9.52-7.88,8.22-22.56,8.33-29.53,0,0,0-17.18,2.49-32.94,9.52a55.83,55.83,0,0,0,95.41,0Z" style="fill:#d85d63"/><path d="M55.54,86.37h-.28c-7.63-.08-14.06-3.45-17.66-9.23l.64-.4c3.45,5.56,9.66,8.8,17,8.88h.27c7.6,0,14.51-3.39,18.08-8.88l.63.41C70.54,82.85,63.39,86.37,55.54,86.37Z" style="fill:#b73d49"/><path d="M83.88,31.17c0,15.42-8.47,35.44-27.21,35.07C36.5,66.24,28.85,48.46,28.85,33c-3.53-10,.71-20.9,8-22.91C41.5,2.47,49.48,0,57.5,0,72.93,0,88.14,11.34,83.88,31.17Z" style="fill:#4c224b"/><path d="M83.84,33.32c-1.57-3.75-4.78-1.91-4.78-1.91C79.73,16.7,72.23,6.49,56,6.49S32.28,18.74,32.86,31.41c0,0-3.21-1.84-4.78,1.91s1.3,12.56,3.07,15.36a3.6,3.6,0,0,0,4.47,1.62s.65,6.44,1.47,8.62,10.1,12.23,12.83,13.77c3.58,2.1,8.86,2.1,12.07,0,2.73-1.54,12-11.58,12.83-13.77s1.47-8.73,1.47-8.73a3.49,3.49,0,0,0,4.47-1.51C82.54,45.88,85.41,37.08,83.84,33.32Z" style="fill:#e2988f"/><path d="M56.09,73.18c-6.62,0-11.53-4.59-14.64-8.05l.55-.5c3,3.35,7.77,7.8,14.09,7.8,6,0,10.35-3.94,13.82-7.8l.56.5C66.88,69.11,62.37,73.18,56.09,73.18Z" style="fill:#c46966"/><rect x="35.01" y="46.26" width="0.75" height="4.05" transform="translate(-5.16 4.25) rotate(-6.4)" style="fill:#c46966"/><rect x="74.53" y="47.86" width="3.93" height="0.75" transform="translate(20.56 119.29) rotate(-84.02)" style="fill:#c46966"/><path d="M30.16,41.77c-.15-.56-1.43-5.46.34-6.8a1.57,1.57,0,0,1,1.38-.24,2.73,2.73,0,0,1,1.4,1.53l-.7.27c-.1-.25-.45-.94-.94-1.09a.81.81,0,0,0-.71.14c-1,.77-.56,4.09,0,6Z" style="fill:#c46966"/><path d="M81.75,41.77l-.72-.2c.52-1.9,1-5.22-.07-6a.81.81,0,0,0-.69-.13c-.48.15-.84.84-.94,1.09l-.7-.27A2.72,2.72,0,0,1,80,34.73a1.53,1.53,0,0,1,1.35.23C83.18,36.31,81.9,41.21,81.75,41.77Z" style="fill:#c46966"/><path d="M32.86,31.41a26.33,26.33,0,0,1,6.86-12.14c9.38,10.94,21,18.07,39.34,12.14l1.41-4.66s-2.21-9.88-2.21-10.23S71,9.39,71,9.39L61.53,5.51H51.79L44,7.69l-6.84,5.79-4.32,8.68Z" style="fill:#4c224b"/></g></g></svg>