<svg xmlns="http://www.w3.org/2000/svg" viewBox="0 0 111.64 117.97"><title>man2-afterAsset 15</title><g id="Layer_2" data-name="Layer 2"><g id="OBJECTS"><circle cx="55.82" cy="62.15" r="55.82" style="fill:#fce8e3"/><rect x="41.05" y="54.8" width="29.53" height="33.36" style="fill:#e2988f"/><path d="M84.74,31.38c-1.63-3.9-4.95-2-4.95-2C81.71,11.69,72.7,0,55.82,0s-25.89,11.69-24,29.4c0,0-3.32-1.92-5,2s1.34,13,3.18,15.94a20.55,20.55,0,0,0,5.1,5.09,23.66,23.66,0,0,0,1.07,5.53c.85,2.27,10.48,12.69,13.31,14.28,3.71,2.19,9.19,2.19,12.52,0,2.83-1.59,12.46-12,13.31-14.28a23.66,23.66,0,0,0,1.07-5.53,20.55,20.55,0,0,0,5.1-5.09C83.4,44.41,86.37,35.28,84.74,31.38Z" style="fill:#e2988f"/><path d="M56,74.22a13.25,13.25,0,0,1-6.6-1.68c-1.72-1-5.66-4.91-8.59-8.17l.55-.5c3,3.32,6.84,7.14,8.41,8,3.6,2.12,8.92,2.12,12.13,0,1.6-.9,5.45-4.72,8.44-8l.55.5c-2.93,3.26-6.88,7.21-8.6,8.18A11.68,11.68,0,0,1,56,74.22Z" style="fill:#c46966"/><rect x="34.34" y="44.79" width="0.75" height="7.65" transform="translate(-5.69 4.61) rotate(-7.03)" style="fill:#c46966"/><rect x="73.09" y="48.24" width="7.64" height="0.75" transform="translate(20.09 119.68) rotate(-83.65)" style="fill:#c46966"/><path d="M29.07,40.14c-.16-.58-1.48-5.65.35-7a1.61,1.61,0,0,1,1.41-.25,2.77,2.77,0,0,1,1.45,1.58l-.7.27c-.1-.26-.48-1-1-1.14a.86.86,0,0,0-.75.15c-1.05.8-.6,4.25-.06,6.23Z" style="fill:#c46966"/><path d="M82.57,40.14l-.73-.2c.55-2,1-5.43-.07-6.24a.8.8,0,0,0-.73-.14c-.6.2-1,1.13-1,1.14l-.7-.27a2.77,2.77,0,0,1,1.45-1.58,1.61,1.61,0,0,1,1.39.23C84.05,34.49,82.72,39.56,82.57,40.14Z" style="fill:#c46966"/><path d="M34.25,38.71c5,0,1.22-16.14,5.15-20.06,2-2,4.91-1.66,7.41-1,2.92.74,5.92,1.74,9,1.82,3.25.09,6.34-1.1,9.46-1.86,2.42-.59,5-.84,7,1.06,3.93,3.92.14,20.09,5.15,20.06C77,35,77,30.88,79.78,29.4h0C81.71,11.69,72.7,0,55.82,0s-25.89,11.69-24,29.4h0C34.09,30.85,34.6,34.8,34.25,38.71Z" style="fill:#4c224b"/><path d="M103.53,91.14c-15.76-7-32.94-9.52-32.94-9.52C62.7,89.84,48,90,41.05,81.62c0,0-17.18,2.49-32.94,9.52a55.83,55.83,0,0,0,95.42,0Z" style="fill:#f4ba5d"/><polygon points="37.06 82.19 41.05 75.03 53.97 86.63 46.07 95.29 37.06 82.19" style="fill:#fff"/><polygon points="74.56 82.19 70.57 75.03 57.65 86.63 65.56 95.29 74.56 82.19" style="fill:#fff"/></g></g></svg>