<svg xmlns="http://www.w3.org/2000/svg" viewBox="0 0 111.64 117.14"><title>man3-beforeAsset 16</title><g id="Layer_2" data-name="Layer 2"><g id="OBJECTS"><g style="opacity:0.5"><circle cx="55.82" cy="61.32" r="55.82" style="fill:#ededed"/><path d="M72.3,74.19c0,1.3-7.45,2.36-16.65,2.36S39,75.49,39,74.19s7.46-2.37,16.66-2.37S72.3,72.88,72.3,74.19Z" style="fill:#a7a7a7"/><rect x="41.05" y="53.97" width="29.53" height="33.36" style="fill:#adadad"/><path d="M85.64,32.35c-1.68-4-5.11-2-5.11-2C82.51,12.05,73.22,0,55.82,0S29.13,12.05,31.11,30.31c0,0-3.43-2-5.11,2s1.39,13.43,3.29,16.43A21.07,21.07,0,0,0,34.55,54a23.84,23.84,0,0,0,1.09,5.7c.88,2.34,10.81,13.08,13.73,14.72,3.83,2.25,9.47,2.25,12.9,0C65.19,72.81,75.12,62.07,76,59.73A23.84,23.84,0,0,0,77.09,54a21.07,21.07,0,0,0,5.26-5.25C84.25,45.78,87.32,36.37,85.64,32.35Z" style="fill:#adadad"/><path d="M28.26,41.37c-.17-.59-1.53-5.81.35-7.24a1.67,1.67,0,0,1,1.45-.26,3,3,0,0,1,1.48,1.63l-.7.27a2.13,2.13,0,0,0-1-1.18.89.89,0,0,0-.78.15c-1.09.83-.62,4.39-.06,6.44Z" style="fill:#848484"/><path d="M83.38,41.37l-.72-.19c.4-1.47,1.17-5.5-.08-6.45a.87.87,0,0,0-.76-.14,2.13,2.13,0,0,0-1,1.18l-.7-.27a3,3,0,0,1,1.48-1.63,1.65,1.65,0,0,1,1.43.25C84.91,35.56,83.55,40.78,83.38,41.37Z" style="fill:#848484"/><path d="M55.82,0C38.41,0,29.13,12.05,31.11,30.31h0c2.31,1.49,2.83,5.56,2.47,9.6h0s-.77,12.83,1.76,18.88,6.91,15.51,20.47,15.4h0c13.56.11,18-9.34,20.48-15.4s1.75-18.88,1.75-18.88h0c-.36-3.86-.37-8.08,2.46-9.6h0C82.51,12.05,73.22,0,55.82,0ZM74.87,28.05s-.34,16.75-2.93,20.42S70.16,44,55.82,43.86s-13.54,8.28-16.13,4.61-2.92-20.35-2.92-20.42c.17-3.7.53-7.24,2.12-8.82C41,17.18,44,17.51,46.54,18.17c3,.77,6.1,1.8,9.27,1.88,3.35.09,6.53-1.14,9.75-1.92,2.49-.6,5.21-.87,7.19,1.1,1.59,1.59,2,5.12,2.12,8.83Z" style="fill:#333"/><path d="M106.33,85.09c-14-3.4-34-4.3-34-4.3C62,89,48.13,89.13,39,80.79c0,0-19.68,1.28-33.55,4.58a55.81,55.81,0,0,0,50.38,31.77h0A55.81,55.81,0,0,0,106.33,85.09Z" style="fill:#838383"/><path d="M39,74.19v8.35c11.82,8.72,22.94,8.84,33.31,0V74.19C66.42,78,42.75,77.48,39,74.19Z" style="fill:#838383"/><path d="M55.25,85.91c-1.61,0-3.23-.07-4.79-.21-3.09-.27-10.43-1.26-11.82-4.54l.69-.3c.86,2,5,3.55,11.2,4.1,8.54.74,19.17-.63,21.46-4.15l.63.41C70.57,84.36,62.9,85.91,55.25,85.91Z" style="fill:#333"/><path d="M55.31,79c-3,0-6-.14-8.39-.39-4.24-.46-6.77-1.2-7.53-2.21l.6-.45c.29.38,1.54,1.33,7,1.91,8.68.92,21.89.18,24.35-2l.5.56C69.79,78.21,62.33,79,55.31,79Z" style="fill:#333"/></g></g></g></svg>