<svg xmlns="http://www.w3.org/2000/svg" viewBox="0 0 228.61 452.2">
    <title>Medical Diagnosis</title>
    <g id="Layer_2" data-name="Layer 2">
        <g id="Layer_1-2" data-name="Layer 1">
            <g id="freepik--Character--inject-60">
                <path
                    d="M227.83,231.5l-1.7-2.4c-2.2-3.1-5.6-7.8-7.2-9.8-2.2-2.7-8.9-8-10.9-9.6l-3.3-6.2c-1.3-5-7-26.4-8.1-34.6-1.9-14.4-7.2-21.6-10.7-26.4a26.45,26.45,0,0,1-2.6-3.9c-1.9-4-5.1-18-6.2-23.5V99.2c.2-18.4-23.8-25.3-24.7-25.6l-17.7-5.4-1.5-1.1V53.6a10.08,10.08,0,0,0,7-7c.3-1.3.8-2.6,1.2-3.8,1.4-4.2,2.5-7.8,1-10.6a7.67,7.67,0,0,0-4.4-3.3c.5-4.7.5-13.8-4.8-20.6-4-5.1-10.1-7.9-18.3-8.2H113c-7.9.4-14,3.2-18.1,8.3-5.4,6.9-5.6,16.1-5.2,20.8a8.22,8.22,0,0,0-4.5,3.3c-1.6,2.8-.4,6.4.9,10.6.4,1.3.8,2.6,1.2,3.8a8.85,8.85,0,0,0,6.8,6.5l1.2,7.5-.7,5.2-1.4,2.5-17,5.2c-1,.3-24.9,7.2-24.8,25.6v16.1c-1.1,5.5-4.3,19.5-6.2,23.5a26.45,26.45,0,0,1-2.6,3.9c-3.5,4.8-8.8,11.9-10.7,26.4-1,7.7-6,26.8-7.8,33.5l-3,8.6c-2.7,1.7-9.3,6-11.5,8.8-1.6,2-5,6.7-7.2,9.7-.9,1.2-1.5,2.1-1.7,2.4-1.6,1.9-.1,4.7.2,5.3a6.13,6.13,0,0,0,7,2.8c-2,4.4-3.8,8.9-4,10.5a5.7,5.7,0,0,0,1.3,5,5.17,5.17,0,0,0,4.6,1.4,5.77,5.77,0,0,0,1.4-.3,6.59,6.59,0,0,0,1.1,2.4,5.5,5.5,0,0,0,4.6,2,7.56,7.56,0,0,0,3.9-1,6,6,0,0,0,2.7,3.4,5.3,5.3,0,0,0,4.9,0c2.1-.9,3-2.3,3.8-4.8a4.55,4.55,0,0,0,2,.5c2,.1,4.6-1,5.9-4.6,1-2.8,1.3-7.9,1.6-12.9.1-1,.1-2,.1-2.3a45.61,45.61,0,0,1,2.6-9.8c1.6-3.7,2-11.4,2-13.4l1.2-4.6h0c.6-1.6,1.4-3.8,2.4-6.4,5-13,11.1-28.3,12.4-30.2,4.3-6.9,5.8-14.4,7.2-21.1.6-2.7,1.1-5.3,1.8-7.5.5-1.7,1.1-3.5,1.8-5.3,1.5,5.9,2.9,12.8,2.6,16.5-.6,7.2-1.9,23.1-2,24.9-.3,1.8-3.6,18.5-5.9,31.2-2.5,13.1-.6,52.3-.4,57-.1,1.1.3,3.4,2,12.3,1.4,7.4,3.4,18.5,3.3,21a49.54,49.54,0,0,1-.6,5.4,70.71,70.71,0,0,0-1.1,12.1l-.2,9.5a82.88,82.88,0,0,0-3.1,15.6c-1.3,10.2,2.4,23.5,3,25.6.5,4.2,3.6,30.8,4.4,34.5a5.33,5.33,0,0,1,.1,2.8,21.18,21.18,0,0,0-.5,4.4,83.86,83.86,0,0,0,.6,10,17.32,17.32,0,0,1-3,5.7l-.6.7c-2.6,3.2-6.3,7.5-4.7,13.4,2.2,8,19.6,8.2,21.6,8.2,6.2,0,8.7-4.2,10.5-7.3.3-.4.5-.9.8-1.3a7.53,7.53,0,0,0,.6-7.4,6.44,6.44,0,0,1-.5-2.4c.1-3.3.6-8.5.7-9.4.1-.6.5-2.9.9-7.3a16.45,16.45,0,0,0-1.2-7.6,48,48,0,0,1-2.1-9.1c-.6-5.4,1.1-10.8,3.2-16.9a102.62,102.62,0,0,0,3.5-12c2.7-13-1.4-30.6-2.8-35.8-1-3.9,0-6.5,1.4-10.1.5-1.4,1.1-2.8,1.6-4.4,1.6-5.4,1.6-12.4,1.6-14.1.1-.5.4-1.8,1.2-4.9a29.67,29.67,0,0,0,.7-9.4v-.1c.4-2,2.9-15,5.1-26.3,2.2,11.3,4.8,24.1,5.1,26.1v.1a26.64,26.64,0,0,0,.7,9.3c.8,3,1.1,4.3,1.2,4.8,0,1.8-.1,8.7,1.6,14.1a45,45,0,0,0,1.6,4.4c1.4,3.6,2.4,6.2,1.4,10.1-1.3,5.1-5.5,22.8-2.7,35.8a97.27,97.27,0,0,0,3.5,12c2.1,6.2,3.8,11.5,3.2,16.9a35.42,35.42,0,0,1-2.1,9.1,16.45,16.45,0,0,0-1.2,7.6c.4,4.4.8,6.7.9,7.3.1.9.6,6.1.7,9.4a6.87,6.87,0,0,1-.5,2.4,7.78,7.78,0,0,0,.5,7.4c.3.4.5.9.8,1.3,1.8,3.1,4.3,7.3,10.5,7.3,2,0,19.4-.2,21.6-8.2,1.6-5.9-2-10.2-4.7-13.4l-.6-.7a17.32,17.32,0,0,1-3-5.7,56,56,0,0,0,.6-10,21.18,21.18,0,0,0-.5-4.4,5.33,5.33,0,0,1,.1-2.8c.9-3.7,4-30.3,4.5-34.5.6-2.1,4.3-15.4,3-25.6A80.32,80.32,0,0,0,157,331l-.2-9.5a81.23,81.23,0,0,0-1.1-12.1,49.54,49.54,0,0,1-.6-5.4c-.1-2.5,2-13.6,3.3-21,1.6-8.9,2-11.2,2-12.3.2-4.7,2.1-43.9-.4-57-2.4-12.7-5.6-29.4-6-31.2-.1-1.8-1.4-17.8-2-24.9-.3-3.6,1.2-10.6,2.6-16.5.6,1.7,1.3,3.6,1.8,5.3.7,2.3,1.2,4.8,1.8,7.5,1.4,6.7,3,14.3,7.2,21.1,1.2,2,7.4,17.3,12.4,30.3.8,2.1,1.5,4,2,5.5l.3,6.4.1.5c.1.3,1.7,7.9,3.4,11.7a38.08,38.08,0,0,1,2.6,9.9c0,.3.1,1.3.1,2.3.3,5,.6,10.1,1.6,12.9,1.3,3.5,3.9,4.6,5.9,4.6a4.55,4.55,0,0,0,2-.5c.8,2.5,1.7,3.9,3.8,4.8a5.3,5.3,0,0,0,4.9,0,5.45,5.45,0,0,0,2.7-3.4,7.56,7.56,0,0,0,3.9,1,5.38,5.38,0,0,0,4.6-2,5.28,5.28,0,0,0,1.1-2.4,3.53,3.53,0,0,0,1.4.3,5.17,5.17,0,0,0,4.6-1.4,5.7,5.7,0,0,0,1.3-5c-.2-1.6-2-6.1-4-10.5a6.13,6.13,0,0,0,7-2.8C227.93,236.2,229.43,233.4,227.83,231.5Z"
                    style="fill:#e0e0e0" />
                <path
                    d="M227.83,231.5c.2.2.3.5.5.7a3.59,3.59,0,0,1,.1,2.5,6.47,6.47,0,0,1-2.2,3.6,6.05,6.05,0,0,1-5.6,1.2v-.1c1.4,3.1,2.7,6.2,3.8,9.4a7.69,7.69,0,0,1,.3,3,5.69,5.69,0,0,1-1.1,2.9,4.69,4.69,0,0,1-2.9,1.6,6.9,6.9,0,0,1-3.5-.3h.1a5.49,5.49,0,0,1-3.7,4.1,6.46,6.46,0,0,1-3.1.2,7.61,7.61,0,0,1-3-1h.1a5.89,5.89,0,0,1-2.1,3,5.07,5.07,0,0,1-3.8.9,6.72,6.72,0,0,1-3.6-1.7,8.56,8.56,0,0,1-2-3.6h.1a5.16,5.16,0,0,1-5.1-.3,7.88,7.88,0,0,1-3.1-4.5,26.18,26.18,0,0,1-.9-5.6c-.2-1.9-.3-3.9-.4-5.9-.1-1-.1-2-.2-3s-.3-2-.5-3a34.21,34.21,0,0,0-1.8-6,70.25,70.25,0,0,1-3.8-12.6h0l-.1-.5h0c-.1-1.9-.2-4.2-.3-6.4h0c-1.9-5.1-3.9-10.3-6.1-15.8s-4.4-11-6.8-16.7a41.11,41.11,0,0,0-2.1-4.2c-.8-1.4-1.5-2.8-2.2-4.3a52,52,0,0,1-3-9.2c-.8-3.2-1.4-6.5-2.2-9.7-.4-1.6-.7-3.3-1.2-4.9l-1.6-4.9h.2c-.8,3.1-1.5,6.4-2.1,9.7a44.29,44.29,0,0,0-.6,5.1,46.66,46.66,0,0,0,.3,5.2c.6,7,1.1,14.1,1.7,21.4h0q1.95,10,3.9,20.4c.7,3.5,1.3,7,2,10.6a80.3,80.3,0,0,1,1,11c.3,7.4.3,15,.2,22.7s-.4,15.6-.8,23.5h0a14.72,14.72,0,0,1-.4,3.6c-.2,1.2-.4,2.4-.6,3.5-.4,2.4-.9,4.8-1.3,7.2-.9,4.8-1.8,9.8-2.5,14.8-.2,1.3-.3,2.5-.4,3.8a24.33,24.33,0,0,0,.3,3.8c.4,2.5.8,5.1,1,7.7s.3,5.2.4,7.9.1,5.3.1,7.9v-.1a80.43,80.43,0,0,1,2.3,9.7c.3,1.7.5,3.4.8,5.1a45.5,45.5,0,0,1,.4,5.2,64.39,64.39,0,0,1-.9,10.7,97.32,97.32,0,0,1-2.4,10.7h0c-.9,8-1.9,16.4-3.1,25.1-.3,2.2-.6,4.4-.9,6.5-.2,1.1-.3,2.2-.6,3.3a4.33,4.33,0,0,0-.1,1.6c.1.5.2,1.1.3,1.6a38.3,38.3,0,0,1,.3,6.8c-.1,2.3-.3,4.5-.6,6.8v-.1a16.85,16.85,0,0,0,2,4.3c.8,1.3,2,2.5,3,3.8a22.64,22.64,0,0,1,2.6,4.2,11.7,11.7,0,0,1,1.1,4.9,6.15,6.15,0,0,1-.1,1.3,5,5,0,0,1-.2,1.2,6.71,6.71,0,0,1-1,2.3,9.67,9.67,0,0,1-4,3.2,33.19,33.19,0,0,1-9.8,2.7,43.79,43.79,0,0,1-5.1.4,18.28,18.28,0,0,1-5.2-.4,10.44,10.44,0,0,1-2.4-1.1,9.09,9.09,0,0,1-2.1-1.8,18.43,18.43,0,0,1-3-4.3c-.4-.7-.9-1.5-1.3-2.3a6.94,6.94,0,0,1-.4-5.3c.2-.9.6-1.7.8-2.5a10.45,10.45,0,0,0,0-2.5l-.2-2.6-.4-5.3h0c-.4-2.4-.6-4.7-.9-7.1a14.47,14.47,0,0,1,.1-3.6,20,20,0,0,1,.9-3.5,55.6,55.6,0,0,0,1.9-7c.2-1.2.4-2.4.5-3.6a21.64,21.64,0,0,0,0-3.6c-.5-4.8-2.3-9.5-3.8-14.2a66.65,66.65,0,0,1-3.5-14.5,62.71,62.71,0,0,1-.3-7.5c.1-2.5.3-5,.5-7.6a123.82,123.82,0,0,1,2.7-15,24.47,24.47,0,0,0,.8-3.7,9.19,9.19,0,0,0-.4-3.7c-.3-1.2-.8-2.4-1.2-3.6s-.9-2.4-1.3-3.6a28.63,28.63,0,0,1-1.6-7.6,67.92,67.92,0,0,1-.4-7.8v.1c-.3-1.1-.5-2.2-.8-3.4s-.6-2.3-.8-3.5a31.44,31.44,0,0,1-.3-7.5v.1l-5.2-26.1h.5c-1.6,8.2-3.4,17.2-5.1,26.3V292a28.15,28.15,0,0,1-.2,7.1c-.2,1.2-.5,2.4-.8,3.6l-.9,3.6v-.1q0,3.6-.3,7.2a34.16,34.16,0,0,1-1.3,7.1l-1.2,3.4c-.4,1.2-.9,2.3-1.3,3.4a13.71,13.71,0,0,0-.8,3.5,11,11,0,0,0,.3,3.6,143,143,0,0,1,2.9,14.5c.3,2.5.6,5,.7,7.4a47,47,0,0,1,0,7.5,48.2,48.2,0,0,1-1,7.5c-.6,2.5-1.3,4.9-2,7.3-1.5,4.8-3.4,9.6-4.3,14.6a23.59,23.59,0,0,0,0,7.5,47,47,0,0,0,1.8,7.4c.4,1.2.8,2.5,1.1,3.7a12.86,12.86,0,0,1,.3,3.9c-.2,2.6-.5,5.1-.9,7.7h0c-.2,3.2-.5,6.5-.7,9.7a8.65,8.65,0,0,0,.6,2.3,10.15,10.15,0,0,1,.6,2.5,7.89,7.89,0,0,1-1.3,4.9,38.65,38.65,0,0,1-2.7,4.3,11.29,11.29,0,0,1-3.9,3.3,12.52,12.52,0,0,1-5,1.1,43.61,43.61,0,0,1-5.1-.3,39.71,39.71,0,0,1-10.1-2.2,13.85,13.85,0,0,1-4.5-2.7,6.52,6.52,0,0,1-1.6-2.1,7.71,7.71,0,0,1-.7-2.6,9.18,9.18,0,0,1,.6-5.2,16.08,16.08,0,0,1,2.6-4.6c1-1.4,2.3-2.7,3.2-4.1a19.47,19.47,0,0,0,2.2-4.6v.1a55.18,55.18,0,0,1-.5-12.2c.1-1,.3-2.1.5-3.1a15.44,15.44,0,0,0-.4-3c-.4-2.1-.6-4.2-.9-6.3-1.1-8.4-2.1-16.9-3.1-25.5l-.2-1.7h0a90.15,90.15,0,0,1-2.3-10.3,74.59,74.59,0,0,1-1-10.5,60.08,60.08,0,0,1,1-10.4,58.23,58.23,0,0,1,2.4-10.2v.1c.1-2.6.1-5.1.1-7.7s.1-5.1.3-7.6.6-5.1,1-7.6c.2-1.2.3-2.5.4-3.8a22.18,22.18,0,0,0-.3-3.7c-.7-5-1.6-10-2.6-14.9-.4-2.5-.9-5-1.4-7.4l-.6-3.7a16.37,16.37,0,0,1-.4-3.8h0c-.4-7.5-.6-15-.8-22.5s-.2-14.9.1-22.3a103.76,103.76,0,0,1,.9-11.1c.6-3.6,1.4-7.3,2-10.9,1.4-7.2,2.7-14.4,4.1-21.6h0c.7-14,4-28-.6-41.3h.5l-1.5,4.5a9.77,9.77,0,0,0-.6,2.3l-.5,2.3c-.8,3.1-1.4,6.2-2.1,9.3a59.66,59.66,0,0,1-2.8,9.1c-.6,1.5-1.3,2.9-2,4.3l-1.2,2.1a20,20,0,0,0-1,2.1c-2.5,5.7-4.8,11.6-7.1,17.3s-4.5,11.6-6.6,17.3l-.1-.3h0l.2.1-.1.2c-.5,1.6-1,3.1-1.4,4.7v.7c-.1,2.1-.2,4.2-.4,6.3a33.92,33.92,0,0,1-1.2,6.2c-.3,1-.8,1.9-1.1,2.9s-.6,2-.9,2.9a26.35,26.35,0,0,0-.7,3,15.44,15.44,0,0,0-.4,3,86.54,86.54,0,0,1-1.1,12.4,9.72,9.72,0,0,1-2.8,5.5,5.32,5.32,0,0,1-6,.8l.4-.1a9.81,9.81,0,0,1-2,3.6,6.51,6.51,0,0,1-3.6,1.8,4.86,4.86,0,0,1-3.9-.8,7,7,0,0,1-2.4-3.2l.4.1a8.35,8.35,0,0,1-6,.8,5.81,5.81,0,0,1-4-4.3l.3.2a7.77,7.77,0,0,1-3,.4,5.7,5.7,0,0,1-2.8-1.1,4.89,4.89,0,0,1-1.7-2.5,7.62,7.62,0,0,1-.2-3,12.9,12.9,0,0,1,.8-2.8c.3-.9.7-1.8,1-2.7.7-1.8,1.5-3.5,2.3-5.3l.3.3a6.38,6.38,0,0,1-5.4-.9,7.13,7.13,0,0,1-2.7-4.8,3.26,3.26,0,0,1,.8-2.7l1.6-2.2,3.2-4.4c1.1-1.5,2.1-2.9,3.2-4.3.5-.7,1.1-1.4,1.7-2.1s1.3-1.2,2-1.8a85.16,85.16,0,0,1,8.7-6.1l-.1.1c1-3,2-5.8,3-8.6h0c2-7.8,4-15.4,5.8-23.1a111.08,111.08,0,0,0,2.2-11.5,56.58,56.58,0,0,1,2.8-11.3,49.4,49.4,0,0,1,5.1-10.3c1-1.6,2.2-3.1,3.3-4.6.6-.8,1.1-1.5,1.6-2.3a13.61,13.61,0,0,0,1.1-2.5c1.2-3.5,2.1-7.2,3-10.8s1.7-7.2,2.4-10.8V101.7c0-1.5,0-3.1.1-4.6a17.43,17.43,0,0,1,1.1-4.5,22.19,22.19,0,0,1,2-4.1,24.76,24.76,0,0,1,2.8-3.6,32.6,32.6,0,0,1,3.3-3.1,40.47,40.47,0,0,1,7.6-4.8,59.76,59.76,0,0,1,8.3-3.3l16.7-5.1-.1.1,1.4-2.5v.1c.3-1.8.5-3.5.7-5.2v.1c-.4-2.7-.8-5.1-1.2-7.5l.1.2a9.6,9.6,0,0,1-6.3-4.8,10.66,10.66,0,0,1-.7-1.9l-.6-1.8c-.4-1.2-.8-2.4-1.1-3.7s-.7-2.4-1-3.7a8.13,8.13,0,0,1,0-3.8,5.9,5.9,0,0,1,2.1-3.3,9.61,9.61,0,0,1,3.3-1.8l-.1.2a37.7,37.7,0,0,1,.9-11.6A24,24,0,0,1,96,7.5a21.61,21.61,0,0,1,9.3-6.1,26.19,26.19,0,0,1,5.4-1.2,24.39,24.39,0,0,1,5.4-.1,28.71,28.71,0,0,1,10.4,2.4,19.5,19.5,0,0,1,8,6.8,25.77,25.77,0,0,1,3.8,9.6,34.24,34.24,0,0,1,.3,10.1l-.1-.2a8.37,8.37,0,0,1,3.6,2.2,5.94,5.94,0,0,1,1.6,3.8,11,11,0,0,1-.5,4c-.3,1.3-.7,2.5-1.1,3.7L141,46.1a10.39,10.39,0,0,1-1.5,3.4,11.69,11.69,0,0,1-5.9,4.3l.1-.2V67.1l-.1-.1,1.5,1.1h0L154,73.9a44.29,44.29,0,0,1,16.2,9.2,24.77,24.77,0,0,1,5.4,7.1,28.64,28.64,0,0,1,1.5,4.1,21,21,0,0,1,.5,4.3v16.7h0c1.1,5.1,2.2,10.1,3.5,14.9.6,2.4,1.3,4.7,2,6.9a21.92,21.92,0,0,0,3.5,5.9,49.82,49.82,0,0,1,6.6,11.4,59.92,59.92,0,0,1,3.3,11.7c1.1,7,2.5,13.9,4.2,20.8,1.5,6.2,3,11.8,4.3,16.8h0c1.6,3.1,2.5,4.7,3.3,6.2h0a101.94,101.94,0,0,1,10,8.5c.3.3.6.7.9,1l.8,1.1,1.4,1.9,2.5,3.3c2.6,4,3.9,5.9,3.9,5.8l-4.2-5.7-2.5-3.3c-.5-.6-.9-1.3-1.4-1.9s-1.1-1.4-1.7-2.1a115.14,115.14,0,0,0-10-8.5h0l-3.3-6.3h0c-1.3-5-2.8-10.6-4.3-16.8-1.8-6.9-3.2-13.8-4.3-20.8a57.09,57.09,0,0,0-3.3-11.6,51.37,51.37,0,0,0-6.6-11.3c-1.3-1.8-2.9-3.7-3.6-6l-2.1-6.9c-1.2-4.7-2.4-9.7-3.5-14.9h0V98.7a21,21,0,0,0-.5-4.3,28.64,28.64,0,0,0-1.5-4.1,26.71,26.71,0,0,0-5.4-7.1,46,46,0,0,0-16.1-9.1l-18.9-5.8h0l-1.5-1.2H133V53.4h.1a10.87,10.87,0,0,0,5.7-4.2,10.19,10.19,0,0,0,1.4-3.4c.4-1.2.8-2.4,1.1-3.6s.8-2.4,1.1-3.7a13.28,13.28,0,0,0,.4-4,6.1,6.1,0,0,0-1.5-3.6,8.43,8.43,0,0,0-3.5-2.1h-.1v-.1a41.87,41.87,0,0,0-.3-10,23.59,23.59,0,0,0-3.7-9.5,19.74,19.74,0,0,0-7.9-6.7A26.73,26.73,0,0,0,115.53.1a12.19,12.19,0,0,0-2.7,0c-.9.1-1.8.1-2.7.2a24,24,0,0,0-5.3,1.2,19.94,19.94,0,0,0-9.1,6,22.54,22.54,0,0,0-5,10,34,34,0,0,0-.8,11.5v.2h-.1a7.89,7.89,0,0,0-3.1,1.7,5.8,5.8,0,0,0-1.8,3,10.88,10.88,0,0,0,0,3.6c.3,1.2.6,2.4,1,3.6s.8,2.4,1.1,3.7l.6,1.9a13.36,13.36,0,0,0,.7,1.8,8.78,8.78,0,0,0,6,4.6h.1v.1c.4,2.4.8,4.8,1.2,7.5v.1c-.2,1.7-.4,3.3-.7,5.2h0c-.4.8-.9,1.6-1.4,2.5v.1h-.2l-16.7,5.1a41.37,41.37,0,0,0-8.2,3.3,36.79,36.79,0,0,0-7.5,4.8,23.52,23.52,0,0,0-3.3,3,24.76,24.76,0,0,0-2.8,3.6,21.35,21.35,0,0,0-2,4,21.62,21.62,0,0,0-1,4.4,35.33,35.33,0,0,0-.1,4.6v14c-.8,3.6-1.6,7.2-2.5,10.8s-1.8,7.3-3,10.8a12.27,12.27,0,0,1-1.2,2.6c-.5.8-1,1.6-1.6,2.4-1.1,1.5-2.3,3-3.3,4.6A47.83,47.83,0,0,0,35,157c-2.7,7.2-2.9,15.1-4.9,22.7-1.7,7.7-3.7,15.4-5.8,23.1h0c-1,2.8-2,5.6-3,8.6v.1h0a104.47,104.47,0,0,0-8.7,6.1A18.48,18.48,0,0,0,9,221.4l-3.2,4.3-3.2,4.4L1,232.3a3.41,3.41,0,0,0-.7,2.4,6,6,0,0,0,2.6,4.4A6.52,6.52,0,0,0,8,240l.5-.1-.2.5c-.8,1.7-1.5,3.5-2.2,5.2-.4.9-.7,1.8-1,2.7a27.59,27.59,0,0,0-.8,2.7,6.66,6.66,0,0,0,.2,2.8A5.13,5.13,0,0,0,6,256.1a5.77,5.77,0,0,0,5.4.6l.3-.1.1.3a5.36,5.36,0,0,0,3.7,4,7,7,0,0,0,2.9.1,7.09,7.09,0,0,0,2.8-.9l.3-.1.1.3a5.52,5.52,0,0,0,2.2,3,4.59,4.59,0,0,0,3.6.7,6.48,6.48,0,0,0,3.4-1.7,7.48,7.48,0,0,0,1.8-3.4l.1-.3.3.1a4.87,4.87,0,0,0,5.4-.7,8.14,8.14,0,0,0,2.6-5.2,98.75,98.75,0,0,0,1.1-12.2c.1-1,.2-2.1.4-3.1s.4-2,.7-3l.9-3c.3-1,.8-2,1.1-2.9a31.89,31.89,0,0,0,1.2-6c.2-2.1.4-4.1.4-6.2v-.1c.5-1.6.9-3.1,1.4-4.7l.1.3h0l-.2-.1.1-.2c2.1-5.8,4.4-11.6,6.7-17.4s4.6-11.6,7.1-17.4a21.16,21.16,0,0,1,1.1-2.1c.4-.7.8-1.3,1.2-2,.7-1.4,1.4-2.8,2-4.3a67.18,67.18,0,0,0,2.8-9c.7-3.1,1.3-6.2,2.1-9.3l.5-2.3c.2-.8.4-1.6.6-2.3l1.5-4.6.3-.8.2.8c.8,3.4,1.6,6.7,2.2,10.1a30.52,30.52,0,0,1,.5,5.2c0,.9-.1,1.8-.1,2.6l-.2,2.6c-.6,6.9-1.1,13.9-1.7,20.9h0c-1.3,7.2-2.7,14.3-4.1,21.6-.7,3.6-1.4,7.2-2,10.9a99.88,99.88,0,0,0-.9,11c-.3,7.4-.2,14.8-.1,22.3s.4,15,.8,22.5h0a23.25,23.25,0,0,0,.4,3.7l.6,3.7,1.4,7.4c.9,5,1.8,9.9,2.5,15a25.31,25.31,0,0,1,.3,3.8c-.1,1.3-.2,2.5-.4,3.8-.4,2.5-.8,5-1,7.5s-.3,5.1-.3,7.6-.1,5.1-.1,7.7v.1a70.26,70.26,0,0,0-2.3,10.1,59.89,59.89,0,0,0-1,10.3,71.82,71.82,0,0,0,1,10.4,88.49,88.49,0,0,0,2.3,10.2h0c.1.5.1,1.1.2,1.7,1,8.6,2,17.1,3.1,25.5.3,2.1.6,4.2.9,6.2a11,11,0,0,1,.4,3.1c-.2,1.1-.4,2-.5,3.1a54.53,54.53,0,0,0,.5,12.1v.1a17.67,17.67,0,0,1-2.3,4.8c-1,1.5-2.2,2.7-3.3,4.1a16.63,16.63,0,0,0-2.5,4.5,9.46,9.46,0,0,0-.5,5,7.28,7.28,0,0,0,.7,2.4,7.49,7.49,0,0,0,1.5,2,14.54,14.54,0,0,0,4.3,2.6,33.67,33.67,0,0,0,9.9,2.1c3.3.2,6.9.8,9.8-.8a10.36,10.36,0,0,0,3.7-3.2c1-1.3,1.8-2.8,2.7-4.2a7.12,7.12,0,0,0,1.2-4.5,8.65,8.65,0,0,0-.6-2.3,7.05,7.05,0,0,1-.6-2.5c.2-3.3.5-6.5.7-9.8h0c.4-2.5.7-5.1.9-7.6a12.22,12.22,0,0,0-.3-3.8,25.94,25.94,0,0,0-1.1-3.7,48.17,48.17,0,0,1-1.8-7.5,24.85,24.85,0,0,1,0-7.7c.9-5.1,2.8-9.8,4.3-14.6a52.67,52.67,0,0,0,3-14.7q.15-3.75,0-7.5c-.1-2.5-.4-5-.7-7.4a120,120,0,0,0-2.9-14.5,11.6,11.6,0,0,1-.3-3.7,14.47,14.47,0,0,1,.8-3.6c.4-1.2.9-2.3,1.3-3.4s.8-2.3,1.2-3.4a33.24,33.24,0,0,0,1.3-7,44.48,44.48,0,0,0,0-7.3h0l.9-3.6c.3-1.2.6-2.4.8-3.6a27.37,27.37,0,0,0,.2-7v-.1c1.8-9.1,3.6-18.1,5.1-26.3l.2-1.3.3,1.3c1.8,9,3.5,18,5.1,26.1v.1a26.27,26.27,0,0,0,.3,7.4c.2,1.2.5,2.3.8,3.5s.6,2.3.8,3.3v.1c0,2.6.1,5.2.3,7.7a31.31,31.31,0,0,0,1.6,7.5c.4,1.2.9,2.4,1.3,3.6s.9,2.4,1.3,3.7a13,13,0,0,1,.4,3.9,16.06,16.06,0,0,1-.8,3.8,123.82,123.82,0,0,0-2.7,15,63,63,0,0,0-.5,7.5,47.06,47.06,0,0,0,.3,7.5,64.44,64.44,0,0,0,3.5,14.4c1.5,4.7,3.3,9.4,3.8,14.3a22.85,22.85,0,0,1,0,3.7c-.1,1.2-.3,2.4-.5,3.6a55.6,55.6,0,0,1-1.9,7,20,20,0,0,0-.9,3.5,13.81,13.81,0,0,0-.1,3.5c.2,2.4.5,4.8.9,7.1h0l.4,5.3.2,2.6a12.19,12.19,0,0,1,0,2.7c-.2.9-.6,1.7-.8,2.5a6.42,6.42,0,0,0,.4,4.9,15.92,15.92,0,0,0,1.3,2.2,20.18,20.18,0,0,0,3,4.2,15.58,15.58,0,0,0,2,1.6,9.43,9.43,0,0,0,2.3,1,16.66,16.66,0,0,0,5,.4c1.7-.1,3.4-.2,5.1-.4a31.79,31.79,0,0,0,9.6-2.6,10.15,10.15,0,0,0,3.8-3,9.29,9.29,0,0,0,1.2-4.6,11,11,0,0,0-1-4.7,21.86,21.86,0,0,0-2.6-4.1c-1-1.3-2.1-2.4-3-3.8a19.27,19.27,0,0,1-2-4.4v-.1c.3-2.2.5-4.5.6-6.8a37.6,37.6,0,0,0-.3-6.7c-.1-.5-.2-1.1-.3-1.7a9.15,9.15,0,0,1,.1-1.7c.3-1.1.4-2.2.6-3.3.3-2.2.6-4.4.9-6.5,1.1-8.7,2.1-17.1,3.1-25.1h0a95.6,95.6,0,0,0,2.4-10.6,62.33,62.33,0,0,0,.9-10.6,72,72,0,0,0-1.1-10.3,74.48,74.48,0,0,0-2.2-9.6v-.1c0-2.7-.1-5.3-.1-8a65.66,65.66,0,0,0-.4-7.8c-.3-2.5-.7-5.1-1-7.7a25.61,25.61,0,0,1-.3-3.9,23.28,23.28,0,0,1,.4-3.8c.7-5,1.7-10,2.6-14.8.4-2.4.9-4.8,1.3-7.2l.6-3.5a20.85,20.85,0,0,0,.4-3.5h0c.4-8,.6-15.8.8-23.5s.2-15.3-.1-22.7a81.76,81.76,0,0,0-1-11c-.7-3.6-1.3-7.1-2-10.6q-2-10.5-3.9-20.4h0c-.6-7.3-1.2-14.5-1.7-21.4l-.5-2.4a22.6,22.6,0,0,1-.1-2.6,44.29,44.29,0,0,1,.6-5.1c.6-3.3,1.3-6.6,2.1-9.7l.1-.5.2.5c.6,1.6,1.1,3.3,1.6,4.9s.8,3.3,1.2,4.9c.8,3.3,1.4,6.6,2.2,9.7a52,52,0,0,0,3,9.2,32.91,32.91,0,0,0,2.1,4.2,27.44,27.44,0,0,1,2.1,4.2c2.5,5.7,4.7,11.3,6.8,16.7s4.2,10.7,6,15.8h0c.1,2.3.2,4.5.3,6.4h0a.75.75,0,0,0,.1.5h0a66.63,66.63,0,0,0,3.7,12.5q1,3,1.8,6c.2,1,.4,2,.5,3s.1,2,.2,3c.1,2,.2,4,.4,5.9a34.42,34.42,0,0,0,.9,5.6,7.5,7.5,0,0,0,3,4.4,5,5,0,0,0,5,.3h.1v.1a8.56,8.56,0,0,0,2,3.6,6.78,6.78,0,0,0,3.5,1.7,4.6,4.6,0,0,0,3.6-.9,6.34,6.34,0,0,0,2.1-3v-.1h.1a7.5,7.5,0,0,0,3,.9,6.13,6.13,0,0,0,3-.2,5.41,5.41,0,0,0,3.6-4V256h.1a5.61,5.61,0,0,0,6.2-1.3,4.36,4.36,0,0,0,1.1-2.9,7,7,0,0,0-.3-2.9,77,77,0,0,0-3.8-9.4v-.1h.1a6.34,6.34,0,0,0,5.6-1.2,7.08,7.08,0,0,0,2.2-3.6,4.27,4.27,0,0,0-.1-2.5A2.09,2.09,0,0,0,227.83,231.5Z"
                    style="fill:#263238" />
                <path
                    d="M24.63,215s-9.9,5-12,7.5-7.9,11.2-8.1,11.4-.5,3,2.9,2c2.7-.8,5.6-4.6,6.7-6.2a1.47,1.47,0,0,1,1.4-.5h0a1.3,1.3,0,0,1,.9,1.4l-.2,1.1s-8.3,16.7-8.3,19.1c0,1.9,1.8,1.8,3,.9,1.8-1.5,3.7-5.6,5.5-8.9,2-3.6,3.4-5.5,4.3-4.7.7.7-5.4,13.5-5.6,15.4s-1.1,3.3,2,3.1,4-4.1,4.9-6.4c1-2.7,3.6-10.6,4.3-10.5,1.9.4-2.2,15.8-1.9,17.6s.8,3.3,2.5,2.1,2.3-4.1,3.3-8.1c.8-3.1,1.6-8.9,2.1-11,.1-.6.6-.4.6-.4s0,11.8.5,13.8,1.9,2.7,3-.4,1.2-12.8,1.4-14.4a50.71,50.71,0,0,1,2.9-10.8c1.4-3.2.6-12.3.6-12.3l1.4-3.6-15.8-4.6Z"
                    style="fill:#285ffa" />
                <path
                    d="M76.13,321c.1-8.9,1.9-13.5,2.1-18.4s-6-33.1-5.7-34.1c0,0-2-40.1.3-53.6s6-32.9,6-32.9,1.6-18.9,2.1-26.5-6.6-28.2-6.6-28.2-4.9,11.8-6.5,18c-2.1,8.1-4.4,17.5-9.5,26.6-1.4,2.5-8.4,19.4-12.2,30.5-2.1,6.1-4.5,13.1-4.5,13.1l-14.8-6.7s9.1-29.6,10.2-39.3c2.2-18.4,10.3-23.2,12.6-28.5s6.7-25.4,6.7-25.4l.1-15.6c-.1-16.4,19-20.9,19-20.9l16.9-5.5,21.3-4.2.7,33.1-.6,132.5-.6,19.2-2.5,1.6s-6.2,35.1-6.2,35.7a15.45,15.45,0,0,1,.1,7.7c-1,4.6-2.3,6.2-2.3,6.2s.3,8-1.3,13.7-3.6,7.6-2.8,14.2,4.9,24.7,2.8,36.3-7.7,21.4-6.7,30.9,3.9,10,3.6,14.9a42,42,0,0,1-1.3,7.9s-.3,5.9-.4,9.6,1.8,4.9-.2,8.3-3.6,6.1-8.3,6.1-14.3-.8-15.4-5.5,1.5-5.5,3.9-8.8a44.62,44.62,0,0,0,4.7-8.9s-.4-6.7-.2-11.5,1-4.3.3-8-4.2-33.4-4.2-33.4-4.6-12.8-3.4-23.2a135.34,135.34,0,0,1,2.8-16.7Z"
                    style="fill:#285ffa" />
                <path
                    d="M73.63,93.7v.5c-.1.4-.1.8-.2,1.3-.2,1.2-.5,2.8-1,4.9a29.4,29.4,0,0,1-2.8,6.9c-1.3,2.5-3,5-4.7,7.8l-.2.4-.2-.4-.2-.3c-3-5.8-5.7-11.2-6.4-15.5a21.86,21.86,0,0,1-.3-5.1,6.75,6.75,0,0,1,.2-1.4c0-.2.1-.3.1-.5a14.07,14.07,0,0,0-.1,1.8,20.7,20.7,0,0,0,.4,5c.7,4.2,3.4,9.5,6.4,15.3l.2.3h-.4c1.7-2.8,3.4-5.3,4.7-7.7a31.64,31.64,0,0,0,2.9-6.8c.6-2,.9-3.7,1.2-4.8a13,13,0,0,1,.3-1.3C73.63,94,73.63,93.9,73.63,93.7Z"
                    style="fill:#263238" />
                <path
                    d="M104.73,109.1a12.24,12.24,0,0,0-1.2-1,15,15,0,0,0-3.2-1.9c-1.3-.6-2.6-1.1-3.5-1.6a9.74,9.74,0,0,0-1.1-.5c-.1-.1-.3-.1-.4-.2.1,0,.3.1.4.1l1.1.4c.9.4,2.2.8,3.5,1.5a13.24,13.24,0,0,1,3.2,2,6.47,6.47,0,0,1,.9.8A1.38,1.38,0,0,1,104.73,109.1Z"
                    style="fill:#263238" />
                <path
                    d="M105.53,106.9s-.4-.3-1.1-.9a28.32,28.32,0,0,0-2.8-2c-1-.6-2-1.2-3-1.7-.8-.4-1.3-.6-1.3-.6s.3.1.4.1.6.2,1,.4a24.34,24.34,0,0,1,5.9,3.7c.3.3.6.5.8.7C105.33,106.7,105.43,106.8,105.53,106.9Z"
                    style="fill:#263238" />
                <path
                    d="M109.93,125.5c-.2.1-.4.1-.6.2l-1.7.4c-1.5.3-3.6.8-6.3,1.1a29.66,29.66,0,0,1-9.4-.2,17.51,17.51,0,0,1-5.3-1.8,16.8,16.8,0,0,1-4.8-3.6,23.45,23.45,0,0,1-5-10.4c-.7-3.5-1.1-6.6-1.5-9.3s-.6-4.7-.8-6.3a14.93,14.93,0,0,1-.2-1.7c0-.2-.1-.4-.1-.6a1.27,1.27,0,0,1,.1.6c.1.4.2,1,.3,1.7.3,1.5.6,3.6,1,6.3s.8,5.8,1.6,9.3a23.82,23.82,0,0,0,4.9,10.1,16,16,0,0,0,4.6,3.6,18,18,0,0,0,5.1,1.7,29.06,29.06,0,0,0,9.3.3c2.7-.3,4.8-.7,6.3-.9l1.7-.3A1.51,1.51,0,0,1,109.93,125.5Z"
                    style="fill:#263238" />
                <path
                    d="M74.93,100.9a.9.9,0,0,1,.1.5c.1.4.1.9.2,1.4s.2,1.4.3,2.3a26.61,26.61,0,0,1,.2,3c0,1.1.1,2.4.1,3.7s-.1,2.7-.1,4.2a53.46,53.46,0,0,1-1.6,9.6,43.83,43.83,0,0,1-3.5,9.1c-.4.6-.7,1.3-1.1,1.9s-.8,1.2-1.1,1.7c-.7,1-1.4,2-2.2,3a14.46,14.46,0,0,1-2.1,2.2,12.88,12.88,0,0,1-1.7,1.6l-1.1.9c-.1.1-.3.2-.4.3l.4-.4,1-1a12.09,12.09,0,0,0,1.6-1.6,22,22,0,0,0,2-2.3,27.3,27.3,0,0,0,2.1-3,16.29,16.29,0,0,0,1.1-1.7c.3-.6.7-1.3,1-1.9a48.94,48.94,0,0,0,3.4-9,60.8,60.8,0,0,0,1.6-9.5c.1-1.5.2-2.9.2-4.2V108a26.61,26.61,0,0,0-.2-3c-.1-.9-.1-1.6-.2-2.3a8.17,8.17,0,0,1-.1-1.4C74.93,101.3,74.93,101.1,74.93,100.9Z"
                    style="fill:#263238" />
                <path
                    d="M57.23,141a4.1,4.1,0,0,1-.1-1.1,15,15,0,0,1,0-3,35.51,35.51,0,0,1,1.9-9.7c.6-1.8,1.3-3.5,1.9-5.1a29.28,29.28,0,0,1,1.9-4c.6-1.1,1.2-2,1.5-2.6l.6-.9a3.13,3.13,0,0,1-.5,1L63,118.2a28.75,28.75,0,0,0-1.8,4c-.6,1.6-1.3,3.3-1.9,5.1a44.28,44.28,0,0,0-2,9.6C57.23,139.5,57.33,141,57.23,141Z"
                    style="fill:#263238" />
                <path
                    d="M79.13,142a4.18,4.18,0,0,1-.4-1c-.2-.6-.5-1.5-.8-2.7a73.16,73.16,0,0,1-2.1-9,56.23,56.23,0,0,1-.9-9.2,26.2,26.2,0,0,1,.1-2.8,3.55,3.55,0,0,1,.2-1c.1,0,0,1.5.1,3.8a55.1,55.1,0,0,0,1,9.1c.6,3.5,1.4,6.7,1.9,9,.3,1,.5,2,.7,2.7C79,141.3,79,141.7,79.13,142Z"
                    style="fill:#263238" />
                <path
                    d="M91.53,142.9a7.71,7.71,0,0,1-2.5-1,21.19,21.19,0,0,1-5.1-3.8A24.61,24.61,0,0,1,80,133a8.18,8.18,0,0,1-1-2.4,33.42,33.42,0,0,0,5.3,7.2A36.14,36.14,0,0,0,91.53,142.9Z"
                    style="fill:#263238" />
                <path
                    d="M90.93,131.3a15.73,15.73,0,0,1-3.8,3,17.47,17.47,0,0,1-4.3,2.2,34.19,34.19,0,0,1,4-2.6C88.23,133,89.53,132.1,90.93,131.3Z"
                    style="fill:#263238" />
                <path
                    d="M92.93,131.8h-.7a12.25,12.25,0,0,1-1.9-.2,15.85,15.85,0,0,1-10.2-7.1c-.3-.5-.6-1.1-.9-1.7a1.45,1.45,0,0,1-.2-.7c.1,0,.5.9,1.4,2.2a18,18,0,0,0,4.3,4.4,16.83,16.83,0,0,0,5.6,2.6C91.93,131.7,92.93,131.7,92.93,131.8Z"
                    style="fill:#263238" />
                <path d="M80.13,145.2a9.61,9.61,0,0,1,4.6-5.3c.1.1-1.1,1.1-2.4,2.6S80.33,145.2,80.13,145.2Z"
                    style="fill:#263238" />
                <path
                    d="M92.13,156a8,8,0,0,1-2.5-1.1,20.66,20.66,0,0,1-5.4-3.9,20.08,20.08,0,0,1-4-5.2,11.73,11.73,0,0,1-.5-1.1c-.1-.3-.2-.5-.3-.8a1.7,1.7,0,0,1-.1-.7c.1,0,.4,1,1.2,2.4a21.89,21.89,0,0,0,4.1,5,28.26,28.26,0,0,0,5.2,3.9A26.92,26.92,0,0,0,92.13,156Z"
                    style="fill:#263238" />
                <path
                    d="M82.53,157.1a8.31,8.31,0,0,1-1.7-4.5,9.61,9.61,0,0,1,.3-3.4c.3-.9.5-1.3.6-1.3a24.18,24.18,0,0,0-.4,4.7A17.61,17.61,0,0,0,82.53,157.1Z"
                    style="fill:#263238" />
                <path
                    d="M92.13,165.2a7.5,7.5,0,0,1-2-1,26.66,26.66,0,0,1-4.3-3.2,28.56,28.56,0,0,1-3.6-4.1,7.24,7.24,0,0,1-1.1-1.9,66.58,66.58,0,0,0,5,5.6A68,68,0,0,0,92.13,165.2Z"
                    style="fill:#263238" />
                <path
                    d="M91.83,176.3a10,10,0,0,1-2-1.6,59.74,59.74,0,0,1-4.3-4.4,44.13,44.13,0,0,1-3.6-4.9,9.41,9.41,0,0,1-1.2-2.2,9.51,9.51,0,0,1,1.5,2,52.89,52.89,0,0,0,3.7,4.7c1.5,1.7,3,3.3,4.1,4.4A16.24,16.24,0,0,1,91.83,176.3Z"
                    style="fill:#263238" />
                <path
                    d="M113.73,225s-8-2.4-10.4-10.1a207,207,0,0,1-6.4-24.3,70.46,70.46,0,0,1-1-10.3,3.2,3.2,0,0,1,3.1-3.2h.3l10.3.8a3.37,3.37,0,0,1,2,.9l2.4,2.5v-6.1s-16.1,2.3-18.1,0-.6-12.5-.6-12.5,13.9-3.6,16.8-2.6,1.9,3.2,1.9,3.2l.2-7.5s-1.2,2.3-3.2,2.4c-1.6.1-10.3,1.2-13.8,1.7a1.38,1.38,0,0,1-1.6-1.2v-.1l-.3-6.6a2.14,2.14,0,0,1,.8-1.7c2.7-2.1,11.2-8.6,13.5-8.8a12.1,12.1,0,0,1,3.8,0l.8,1.1v-6s-15.8,10.8-17.6,10.6c-1.3-.1-1.9-3.9-1.8-5.3.1-.8-.7-7.5.4-10.5a18.45,18.45,0,0,0,1.2-4l-5.6-.7-2.4,1.9a9.26,9.26,0,0,1,3.5,5.5c.5,3.3-.1,31.1-.3,33.7s1.6,21.7,1.2,25.6-3.6,6.4-6.8,3.9-8.8-7.1-8.8-7.1l-.9,4.9s2.9-1.9,7.8,3.2,13.6,14.6,15.3,18.6,4.5,20.1,14,19.9Z"
                    style="fill:#fff" />
                <path d="M89.13,194.2c-.1,0-1.5-1.9-3.2-4.3s-3.1-4.4-3.1-4.4,1.5,1.9,3.2,4.3S89.13,194.2,89.13,194.2Z"
                    style="fill:#263238" />
                <path
                    d="M90.23,192c-.2-.1-.3-.3-.5-.5s-.7-.8-1.2-1.4a45.71,45.71,0,0,1-6.2-10.1c-.3-.7-.5-1.3-.7-1.7a1.55,1.55,0,0,1-.2-.6l.3.6.7,1.6a52.06,52.06,0,0,0,2.8,5.2,53.61,53.61,0,0,0,3.4,4.9l1.1,1.4A3.17,3.17,0,0,0,90.23,192Z"
                    style="fill:#263238" />
                <path d="M107.13,199.9c-.1,0-.6-2.9-1.3-6.4s-1.1-6.5-1.1-6.5.6,2.9,1.3,6.4S107.13,199.9,107.13,199.9Z"
                    style="fill:#263238" />
                <path d="M108.73,201.7c-.1,0-.6-4.4-1.1-9.9s-1-9.9-.9-9.9.6,4.4,1.1,9.9Z" style="fill:#263238" />
                <path
                    d="M106.93,173c-.1-.4-.2-.7-.3-1.1-.1-.7-.3-1.6-.4-2.7s-.1-2-.1-2.7a4.1,4.1,0,0,1,.1-1.1,4.1,4.1,0,0,1,.1,1.1c0,.7.1,1.6.2,2.7s.2,2,.3,2.7C106.83,172.3,106.93,172.6,106.93,173Z"
                    style="fill:#263238" />
                <path
                    d="M108,171.9a4.25,4.25,0,0,1-.2-1.1,18.7,18.7,0,0,1-.2-2.7v-2.7a3.75,3.75,0,0,1,.1-1.1v3.8c0,1.1.1,2,.1,2.7A5.16,5.16,0,0,1,108,171.9Z"
                    style="fill:#263238" />
                <path
                    d="M107.93,154.5a4.1,4.1,0,0,1-.1-1.1c0-.6-.1-1.6-.2-2.5s-.3-1.9-.4-2.5c-.1-.3-.1-.7-.2-1.1a3.81,3.81,0,0,1,.3,1,10.86,10.86,0,0,1,.4,2.5,21.12,21.12,0,0,1,.2,2.6A2.05,2.05,0,0,1,107.93,154.5Z"
                    style="fill:#263238" />
                <path
                    d="M106.13,154.9s-.3-1.8-.5-4.1a28.28,28.28,0,0,1-.3-4.1c.2,1.4.4,2.7.5,4.1A29.34,29.34,0,0,1,106.13,154.9Z"
                    style="fill:#263238" />
                <path
                    d="M103.93,156c-.1-1.1-.2-2.2-.2-3.3a18.19,18.19,0,0,1,0-3.3c.1,1.1.2,2.2.2,3.3A18.19,18.19,0,0,1,103.93,156Z"
                    style="fill:#263238" />
                <path
                    d="M103.53,138.3v.5h-.1c0-.7,0-2.1-.1-3.6-.1-1.1-.1-2.1-.2-2.9a4.87,4.87,0,0,1-.1-1.2,5,5,0,0,1,.2,1.2,21.93,21.93,0,0,1,.2,2.9,21.64,21.64,0,0,1,0,3.6h-.1A1,1,0,0,0,103.53,138.3Z"
                    style="fill:#263238" />
                <path
                    d="M104.73,138.3a4.1,4.1,0,0,1-.1-1.1,21,21,0,0,1-.1-2.7c0-1.1.1-2,.1-2.7,0-.4.1-.7.1-1.1v6.5A2,2,0,0,1,104.73,138.3Z"
                    style="fill:#263238" />
                <path d="M106.83,136.7a48.64,48.64,0,0,1,0-5.4A48.64,48.64,0,0,1,106.83,136.7Z" style="fill:#263238" />
                <path
                    d="M107.13,277.2a2.2,2.2,0,0,1-.1-.8c-.1-.6-.1-1.3-.3-2.3a11.14,11.14,0,0,0-.2-1.7c-.1-.6-.2-1.3-.3-2-.2-1.4-.4-3-.8-4.8-.2-.9-.3-1.8-.5-2.8l-.6-3c-.4-2.1-1-4.3-1.6-6.6-1.2-4.6-2.6-9.6-4.3-14.8-3.4-10.4-6.6-19.8-8.7-26.7-1.1-3.4-1.9-6.2-2.4-8.2l-.6-2.2c-.1-.3-.1-.5-.2-.8a6.89,6.89,0,0,1,.3.8l.7,2.2c.6,1.9,1.4,4.7,2.6,8.1,2.2,6.8,5.5,16.2,8.9,26.6,1.7,5.2,3.1,10.2,4.3,14.9.5,2.3,1.1,4.5,1.5,6.6l.6,3c.2,1,.3,1.9.5,2.8.3,1.8.5,3.4.7,4.8a15,15,0,0,1,.2,2c0,.6.1,1.2.1,1.7.1,1,.1,1.7.2,2.3Z"
                    style="fill:#263238" />
                <path
                    d="M105.23,285.5c0-.1-.1-.1-.1-.2l-.3-.6-1.2-2.5c-.5-1.1-1.1-2.4-1.8-4s-1.4-3.3-2.2-5.3c-1.6-4-3.3-8.7-5.2-14.1s-3.6-11.3-5.4-17.5-3.2-12.3-4.4-17.8-2.1-10.5-2.8-14.7c-.4-2.1-.6-4-.8-5.7s-.4-3.1-.5-4.3-.2-2.1-.3-2.7v-.7l.1.7q.15,1.05.3,2.7c.1,1.1.4,2.6.6,4.3s.5,3.6.9,5.7c.7,4.2,1.7,9.2,2.9,14.7s2.7,11.5,4.4,17.8,3.6,12.2,5.3,17.5,3.5,10.1,5,14.1c.8,2,1.5,3.8,2.1,5.3s1.2,2.9,1.7,4,.8,1.9,1.1,2.5l.3.7C105.23,285.4,105.23,285.5,105.23,285.5Z"
                    style="fill:#263238" />
                <path
                    d="M71.93,240a4.24,4.24,0,0,1,.6-1.4c.2-.4.4-1,.7-1.6s.6-1.4.9-2.2c.6-1.6,1.3-3.6,2-5.7s1.3-4.6,1.9-7.2c1.2-5.1,2-9.9,2.5-13.3.3-1.6.4-3,.6-4.1a8,8,0,0,1,.3-1.5,7.57,7.57,0,0,1-.1,1.5c-.1,1-.2,2.4-.4,4.1-.6,4.5-1.3,8.9-2.3,13.4-.6,2.6-1.3,5-2,7.2a59.05,59.05,0,0,1-2.1,5.7,22,22,0,0,1-.9,2.1,11.88,11.88,0,0,1-.8,1.6C72.53,239.1,72.23,239.5,71.93,240Z"
                    style="fill:#263238" />
                <path
                    d="M82.13,291.4c-.1-.2-.3-.4-.4-.6a14.77,14.77,0,0,1-.9-1.8,60.08,60.08,0,0,1-2.8-7,80.61,80.61,0,0,1-3.8-24.3,168.56,168.56,0,0,1,1.7-24.6c.4-3.1.8-5.6,1.1-7.4.1-.8.3-1.5.4-2a1.85,1.85,0,0,1,.2-.7v.7c-.1.5-.1,1.2-.3,2-.2,1.8-.6,4.3-1,7.4a182.6,182.6,0,0,0-1.6,24.6,89.7,89.7,0,0,0,3.6,24.2,58.87,58.87,0,0,0,2.6,7c.3.8.6,1.4.8,1.9A.72.72,0,0,1,82.13,291.4Z"
                    style="fill:#263238" />
                <path
                    d="M93.63,256.4a.9.9,0,0,1,.1.5,13,13,0,0,1,.3,1.5,36,36,0,0,1,.4,5.6,78.72,78.72,0,0,1-.4,8.4c-.3,3.1-.8,6.6-1.2,10.2a95.36,95.36,0,0,0-.4,18.5,48.53,48.53,0,0,0,.8,5.5c.3,1.3.5,2,.5,2-.1-.2-.2-.3-.2-.5-.2-.5-.3-1-.5-1.5a34.53,34.53,0,0,1-1-5.6,82.67,82.67,0,0,1,.3-18.6c.4-3.6.9-7,1.2-10.2s.5-6,.6-8.3c0-1.9-.1-3.7-.2-5.6A6.28,6.28,0,0,1,93.63,256.4Z"
                    style="fill:#263238" />
                <path
                    d="M85.23,291.4c-.1-.2-.1-.5-.2-.7-.1-.6-.2-1.3-.4-2.3a30.3,30.3,0,0,1-.4-3.6c-.1-1.4-.3-3-.4-4.8-.5-7.1-.8-17-.9-27.8s0-20.7,0-27.8c.1-3.5.1-6.4.1-8.4a14.84,14.84,0,0,1,.1-2.3,2.2,2.2,0,0,1,.1-.8c0,.3.1.5.1.8v10.7c0,7.1,0,16.9.1,27.8s.4,20.7.8,27.8q.15,2.7.3,4.8c.1,1.4.3,2.6.4,3.6s.2,1.7.3,2.3C85.13,290.9,85.23,291.1,85.23,291.4Z"
                    style="fill:#263238" />
                <path
                    d="M98.13,255.7c-.1,0-1-2.4-2.2-5.5a57.35,57.35,0,0,1-2-5.5c.1,0,1,2.4,2.2,5.5A57.35,57.35,0,0,1,98.13,255.7Z"
                    style="fill:#263238" />
                <path
                    d="M98.53,252.8c-.1,0-.9-2.1-2-4.8a38.2,38.2,0,0,1-1.8-4.9,36.18,36.18,0,0,1,2,4.8C97.73,250.6,98.63,252.8,98.53,252.8Z"
                    style="fill:#263238" />
                <path d="M104.53,247.9s-1-2.6-2.1-5.9-1.9-6-1.9-6,1,2.6,2.1,5.9S104.53,247.9,104.53,247.9Z"
                    style="fill:#263238" />
                <path
                    d="M105.23,247a.75.75,0,0,1-.1-.5c-.1-.4-.1-.8-.2-1.3-.2-1-.5-2.5-.9-4.1s-.9-3-1.2-4c-.1-.4-.3-.8-.4-1.2a.75.75,0,0,1-.1-.5.76.76,0,0,1,.2.4c.1.3.3.7.5,1.2.5,1.3.9,2.6,1.3,4a30.1,30.1,0,0,1,.9,4.1c.1.5.1,1,.2,1.3C105.23,246.7,105.33,246.9,105.23,247Z"
                    style="fill:#263238" />
                <path
                    d="M108.43,262.6v-1.2c0-.8.1-1.9.1-3.3,0-3.6-.1-7.2-.4-10.7s-.9-7.1-1.6-10.6c-.3-1.4-.5-2.4-.7-3.2a5,5,0,0,1-.2-1.2,4.87,4.87,0,0,1,.4,1.1c.2.7.5,1.8.9,3.2a77.06,77.06,0,0,1,2.1,21.4,23.39,23.39,0,0,1-.3,3.3Z"
                    style="fill:#263238" />
                <path
                    d="M78.13,302.3s2.8,4.5,4,2.4,1-9.6,1-9.6l-1.9-5.7v-3.8l4.1,5.9,3.1-4.2s.4,19.7,5.9,21.7,8-4,8-4-7,14.2-6.9,18.7c.1,3.5,2.9,3.6,2.9,3.6l-.1,5.4A23.42,23.42,0,0,0,91,351.2c.6,9.5,2.5,37.9,3.2,48.6a22.32,22.32,0,0,0,1.7,7.1,20.76,20.76,0,0,1,1.9,7.3,73.87,73.87,0,0,1-1.5,11.5s1.1-6.8-4.7-7.6-11.1,5.8-11.1,5.8l-.3-7.9c.5-2,8.6-3.4,8.3-11.7s-6-25.1-6-25.1c2,1.6,3.9,2,5.4-1.4l-3-23.7-3.7-23.2s-1-4.6-1.9-10.7-3.3-1.1-3.3-1.1A138.33,138.33,0,0,1,78.13,302.3Z"
                    style="fill:#fff" />
                <path
                    d="M92.43,325c0,.1-.4.4-1.3.7a8,8,0,0,1-3.4.5,7.46,7.46,0,0,1-4.6-1.5,18,18,0,0,0,4.6,1A14.46,14.46,0,0,0,92.43,325Z"
                    style="fill:#263238" />
                <path
                    d="M82.63,379.3a2.19,2.19,0,0,1-.3-.5c-.2-.3-.4-.8-.7-1.4a47.07,47.07,0,0,1-2.1-5.2,70.94,70.94,0,0,1-3.7-18.2,128.31,128.31,0,0,1-.1-18.6c.1-2.4.3-4.3.4-5.6,0-.6.1-1.1.1-1.5a.75.75,0,0,1,.1-.5v2c0,1.4-.1,3.3-.2,5.6a142.52,142.52,0,0,0,.3,18.5A79.57,79.57,0,0,0,80,372c.7,2.3,1.5,4,2,5.3l.6,1.4C82.53,378.9,82.63,379.1,82.63,379.3Z" />
                <path
                    d="M99.63,374.4a7.22,7.22,0,0,1-2.3-2.3,30.71,30.71,0,0,1-3.9-6.8,33.55,33.55,0,0,1-2.1-7.5c-.1-.5-.1-.9-.2-1.4s0-.7-.1-1v-.9a2.92,2.92,0,0,1,.2.9,3.08,3.08,0,0,1,.1,1,5.85,5.85,0,0,0,.2,1.3,39.22,39.22,0,0,0,2.2,7.4,34.4,34.4,0,0,0,3.7,6.8C98.23,372.8,98.83,373.6,99.63,374.4Z"
                    style="fill:#263238" />
                <path
                    d="M88.83,435.7a4.2,4.2,0,0,1,.2.5,6.94,6.94,0,0,1,.5,1.3,3.14,3.14,0,0,1-.5,2.1,3.92,3.92,0,0,1-1,.8,6.47,6.47,0,0,0-.9.8,4.19,4.19,0,0,0-.8,2.2,13.4,13.4,0,0,0,.1,2c.1.6.3,1.2.4,1.8a3.59,3.59,0,0,1-.7-1.8,7.49,7.49,0,0,1-.2-2.1,3.84,3.84,0,0,1,.9-2.5,9,9,0,0,1,1-.9,5.5,5.5,0,0,0,.9-.7,2.73,2.73,0,0,0,.5-1.8,6.47,6.47,0,0,0-.4-1.3Z"
                    style="fill:#263238" />
                <path
                    d="M82.63,440.5a18.15,18.15,0,0,0-1.1,3,8.13,8.13,0,0,0-.1,2.2c.1.6.3.9.2.9s-.4-.2-.6-.8a4.89,4.89,0,0,1-.1-2.4,4.69,4.69,0,0,1,.9-2.2A2.71,2.71,0,0,1,82.63,440.5Z"
                    style="fill:#263238" />
                <path
                    d="M78.83,440.5a13.51,13.51,0,0,1-.4,2.8c-.1.9-.2,1.8-.4,2.8a4.48,4.48,0,0,1-.1-2.8A6.6,6.6,0,0,1,78.83,440.5Z"
                    style="fill:#263238" />
                <path d="M74.83,438.8a15.69,15.69,0,0,0-.3,2.9c.1,1.6.5,2.8.4,2.9a5.31,5.31,0,0,1-.1-5.8Z"
                    style="fill:#263238" />
                <path
                    d="M77.63,436.3a15.92,15.92,0,0,1,1.3-2.2,45.33,45.33,0,0,0,2.7-5.4,34.65,34.65,0,0,0,1.9-5.7l.6-2.4a10.68,10.68,0,0,1-.3,2.5,29.94,29.94,0,0,1-1.8,5.8,28.1,28.1,0,0,1-2.9,5.4A7.49,7.49,0,0,1,77.63,436.3Z"
                    style="fill:#263238" />
                <path
                    d="M84.73,436.7a9.86,9.86,0,0,1,.3-2.4c.3-1.5.6-3.5,1-5.8s.6-4.3.8-5.8a20,20,0,0,1,.4-2.4,9.64,9.64,0,0,1,0,2.4c-.1,1.5-.3,3.6-.6,5.8s-.8,4.3-1.1,5.8A11.28,11.28,0,0,1,84.73,436.7Z"
                    style="fill:#263238" />
                <path
                    d="M88.83,434.7a16.35,16.35,0,0,1-.2-2.2c-.1-1.6-.1-3.4-.2-5.4s-.2-3.8-.3-5.4a8.84,8.84,0,0,1,0-2.3,17,17,0,0,1,.4,2.2c.2,1.4.3,3.3.4,5.4s.1,4,.1,5.4A5.83,5.83,0,0,1,88.83,434.7Z"
                    style="fill:#263238" />
                <path
                    d="M92.23,435.2q.15-3.75,0-7.5a64.19,64.19,0,0,0-1.4-7.4,7.22,7.22,0,0,1,.9,2,31.16,31.16,0,0,1,1.1,5.3,24.37,24.37,0,0,1,0,5.4A7.94,7.94,0,0,1,92.23,435.2Z"
                    style="fill:#263238" />
                <path
                    d="M55.73,141.6s.6,8.4,2.1,13.3a27.94,27.94,0,0,0,4.6,8.7,62.82,62.82,0,0,0,2.5-7.3s-2-.9-1.3-4.1a19.39,19.39,0,0,1,2.6-6.1s-4.6,4.8-5.3,2.8,1.7-8.3,1.7-8.3-4.4,1.8-4.3-2.2C58.43,138.3,57.13,145.1,55.73,141.6Z"
                    style="fill:#fff" />
                <path
                    d="M56.43,117.9a26.89,26.89,0,0,1-.6,3.5,81.15,81.15,0,0,0-.7,8.5c0,3.3.2,6.4.3,8.6.1,1.2.2,2.4.2,3.6a2.92,2.92,0,0,1-.2-.9c-.1-.6-.2-1.5-.4-2.6a82.65,82.65,0,0,1-.5-8.6,50,50,0,0,1,.8-8.6,18.53,18.53,0,0,1,.6-2.5A9.29,9.29,0,0,1,56.43,117.9Z"
                    style="fill:#263238" />
                <path
                    d="M70.83,126.1c0,.2-.1.4-.1.7s-.3,1-.5,1.8a30.47,30.47,0,0,1-2.4,5.6,29,29,0,0,1-3.5,4.9,15.62,15.62,0,0,1-1.3,1.3l-.5.5a2.18,2.18,0,0,1,.4-.5c.3-.3.7-.8,1.2-1.4a33.87,33.87,0,0,0,3.4-5,38.75,38.75,0,0,0,2.5-5.5c.3-.7.4-1.3.6-1.7A1.85,1.85,0,0,1,70.83,126.1Z"
                    style="fill:#263238" />
                <path
                    d="M62.43,126.3a.52.52,0,0,1-.2.4,6.12,6.12,0,0,0-.5,1.2,39.74,39.74,0,0,0-2.5,8.3c-.1.4-.1.9-.2,1.3,0,.2-.1.3-.1.5v-.5a8.32,8.32,0,0,1,.2-1.3A28.44,28.44,0,0,1,60,132a20.5,20.5,0,0,1,1.6-4.1,6.66,6.66,0,0,1,.6-1.2C62.23,126.6,62.33,126.5,62.43,126.3Z"
                    style="fill:#263238" />
                <path
                    d="M67.63,122.9l-.3.6-.8,1.7c-.7,1.4-1.6,3.4-2.6,5.7s-1.8,4.3-2.3,5.8l-.7,1.8-.3.6a1.85,1.85,0,0,1,.2-.7,18.41,18.41,0,0,1,.6-1.8,62.17,62.17,0,0,1,2.3-5.8c1-2.2,1.9-4.2,2.7-5.7.4-.7.7-1.3.9-1.7C67.33,123.3,67.53,123.1,67.63,122.9Z"
                    style="fill:#263238" />
                <path
                    d="M65.43,88.9v.3l-.2.7c-.1.6-.3,1.6-.6,2.7a55.1,55.1,0,0,0-1,9,69.28,69.28,0,0,0,.4,9.1c.1,1.2.3,2.1.4,2.7l.1.7v.3a.77.77,0,0,0-.1-.3,1.7,1.7,0,0,1-.1-.7c-.1-.6-.3-1.6-.5-2.7a52.4,52.4,0,0,1,.6-18.1,23.12,23.12,0,0,1,.6-2.7l.2-.7C65.43,89.1,65.43,89,65.43,88.9Z"
                    style="fill:#263238" />
                <path
                    d="M70,87.5l-.3.6c-.2.4-.5.9-.8,1.6a37.34,37.34,0,0,0-2,5.6,38.26,38.26,0,0,0-1,5.9,13.57,13.57,0,0,0-.1,1.8v0a13.57,13.57,0,0,1,.1-1.8,34.77,34.77,0,0,1,2.9-11.5c.3-.7.6-1.2.8-1.6C69.73,87.9,69.93,87.7,70,87.5Z"
                    style="fill:#263238" />
                <path
                    d="M94.43,408.3l-.3-1.2a28.5,28.5,0,0,0-.6-3.2c-.5-2.7-1.1-6.4-1.8-10.5s-1.5-7.8-2.1-10.5c-.3-1.3-.6-2.4-.8-3.1l-.3-1.2a3.7,3.7,0,0,1,.5,1.1,20.42,20.42,0,0,1,.9,3.1c.7,2.7,1.5,6.4,2.3,10.5s1.3,7.9,1.7,10.6c.2,1.4.3,2.5.4,3.2A4.87,4.87,0,0,1,94.43,408.3Z"
                    style="fill:#263238" />
                <g style="opacity:0.30000001192092896">
                    <path
                        d="M99.43,271.2l-13.1-40.9c-.6,9.5,1.4,18.9,4.8,27.8s8.6,17.2,13.3,25.4C102.93,279.4,100.93,275.3,99.43,271.2Z" />
                </g>
                <g style="opacity:0.30000001192092896">
                    <path
                        d="M75.53,102.9c1.1,6.9-1.6,13.9-1.2,20.9.3,4.6,1.9,8.9,3.4,13.2l1.8,6.5c1.4,4.8,5.2,7.9,7.6,9.4C75.23,142.5,78.63,117,75.53,102.9Z" />
                </g>
                <g style="opacity:0.30000001192092896">
                    <path
                        d="M58.23,100.3a51,51,0,0,0,6,16.9c5.4-4.1,8.5-11.5,8.3-18.3-1.3,6.4-4.4,11.4-7.8,16.1-1.9-4.7-5-9.4-6.5-14.7" />
                </g>
                <path
                    d="M89.13,81.7a29.31,29.31,0,0,0-2.9.5,15.28,15.28,0,0,0-6.1,3.4,35,35,0,0,0-4.7,5.4c-.5.8-1.2,1.6-1.8,2.4a13.5,13.5,0,0,1,1.5-2.6,30.46,30.46,0,0,1,4.6-5.6,14.21,14.21,0,0,1,6.4-3.4,8.2,8.2,0,0,1,2.2-.2A6,6,0,0,0,89.13,81.7Z"
                    style="fill:#263238" />
                <path
                    d="M88.63,90.3c.1,0,.2,0,.2.1l.7.3c.6.2,1.4.5,2.4.8a45,45,0,0,1,8,2.9,14.47,14.47,0,0,1,5.9,6.1,12,12,0,0,1,1.3,3.3l-.3-.9a16.27,16.27,0,0,0-1.1-2.3,15.21,15.21,0,0,0-5.9-5.9,45,45,0,0,0-8-2.9c-1-.3-1.9-.7-2.4-.9a1.63,1.63,0,0,1-.6-.3Z"
                    style="fill:#263238" />
                <g style="opacity:0.30000001192092896">
                    <path d="M82.63,379.3c-5.2-11-6.9-20.5-7.3-32.7-2.4,12.3,1,25.5,8.2,35.7Z" />
                </g>
                <path
                    d="M32.13,208.8v-2.7a44.53,44.53,0,0,1,1-7.2,64.89,64.89,0,0,1,3.3-10.3c1.5-3.8,3.4-7.8,5.3-12.1a106.49,106.49,0,0,0,4.8-12.2,47,47,0,0,0,2.2-10.4,28.91,28.91,0,0,0,0-7.2,16.77,16.77,0,0,1-.3-2.6,6.37,6.37,0,0,1,.2.7,14.92,14.92,0,0,1,.4,1.9,35.46,35.46,0,0,1,.2,7.3,55.26,55.26,0,0,1-2.1,10.6,130.57,130.57,0,0,1-4.8,12.3c-1.9,4.3-3.8,8.3-5.3,12a71.78,71.78,0,0,0-3.4,10.2,42.12,42.12,0,0,0-1.2,7.1,16.36,16.36,0,0,0-.1,2C32.23,208.4,32.23,208.6,32.13,208.8Z"
                    style="fill:#263238" />
                <path
                    d="M40.53,180.4v1.1c0,.7-.1,1.7-.2,2.9a50.32,50.32,0,0,1-1.8,9.4,56.62,56.62,0,0,1-3.2,9,20.68,20.68,0,0,1-1.3,2.6,2.36,2.36,0,0,1-.6.9c-.1,0,.6-1.4,1.5-3.7a72.86,72.86,0,0,0,4.9-18.3C40.33,181.9,40.43,180.4,40.53,180.4Z"
                    style="fill:#263238" />
                <path
                    d="M56.93,151.4v2.3A34.17,34.17,0,0,1,56,160a55.57,55.57,0,0,1-2.9,9c-1.4,3.3-3.1,6.8-5,10.4s-3.8,7-5.4,10.2a92.78,92.78,0,0,0-3.7,8.6,61.29,61.29,0,0,0-1.8,6.1c-.2.7-.3,1.3-.4,1.7a1.42,1.42,0,0,1-.2.6,1.27,1.27,0,0,1,.1-.6c.1-.4.1-1,.3-1.7a42.38,42.38,0,0,1,1.7-6.1,66.33,66.33,0,0,1,3.6-8.7c1.5-3.2,3.4-6.6,5.3-10.3s3.6-7.1,5-10.4a66.47,66.47,0,0,0,3-8.9,44.8,44.8,0,0,0,1.1-6.2C56.83,152.2,56.93,151.4,56.93,151.4Z"
                    style="fill:#263238" />
                <path
                    d="M56,144.9a5.54,5.54,0,0,1-.2,1.8,12.26,12.26,0,0,1-1.9,4,9.52,9.52,0,0,1-3.3,3,3.45,3.45,0,0,1-1.8.5,16.34,16.34,0,0,1,1.6-.9,10.71,10.71,0,0,0,3-3,19.75,19.75,0,0,0,2-3.8A6.39,6.39,0,0,1,56,144.9Z"
                    style="fill:#263238" />
                <path
                    d="M38.23,211.4a1.27,1.27,0,0,1,.1-.6,15.69,15.69,0,0,0,.3-1.6,38.59,38.59,0,0,1,1.7-5.8,50.73,50.73,0,0,1,3.8-8.2,104.22,104.22,0,0,1,6.1-9.2,90,90,0,0,0,5.8-9.3,31.2,31.2,0,0,0,3-8.4,24.25,24.25,0,0,0,.4-6,17.32,17.32,0,0,1-.2-2.2,1.27,1.27,0,0,1,.1.6c.1.5.2,1.1.3,1.6a20.86,20.86,0,0,1-.3,6.1,31.64,31.64,0,0,1-2.9,8.5,69.86,69.86,0,0,1-5.8,9.4c-2.2,3.2-4.4,6.2-6.1,9.1a60.33,60.33,0,0,0-3.9,8.1,55.75,55.75,0,0,0-1.8,5.8c-.2.6-.3,1.2-.4,1.6C38.33,211,38.33,211.2,38.23,211.4Z"
                    style="fill:#263238" />
                <path
                    d="M17.13,219.2s7.3-1.3,9.7.6c1.8,1.4-.1,3.5-.1,3.5s3.6-3.9,3.4.9c0,0,2.3-3.9,2.2,0,0,0,3.5-5.3,7-1.3,1.3-2,1.7-1.8,2.3,1.4l.1-3.2c0-1.9-.1-3.7-.2-5.3,0,0-3.8-6.4-15.4-5.3l-1.4,4.4C21.93,216.4,19.43,217.8,17.13,219.2Z"
                    style="fill:#fff" />
                <path
                    d="M10.43,244.1s1.9-1.1,2.6.6a8.66,8.66,0,0,1,.6,3.2c2.4-4,5.2-9.4,6.5-9.7,1-.3-.7,3.5-1.1,4.8s-3.4,8.8-3.4,8.8,1.6-1.9,3.3-1.5,2,2.8,2,2.8,4.8-13.6,5.3-13.4c1,.6-1.6,15-1.6,15a4.2,4.2,0,0,0,.2-.5,2.22,2.22,0,0,1,2.8-1.2,2,2,0,0,1,1.2,1.2l.4.9s.7-2.2,1.3-5.1c.9-4.3,2-9.8,2.2-10,.5-.4.1,10.2.4,10.2,0,0,.1-3.8,1.8-4.2.9-.2,2.4,2,2.4,2s.4-4.3.4-7.3a10.6,10.6,0,0,0-.8-4.3s-2.7-6.5-2.6-6.3,1.1,5.6-1.2,6.2-1.7-4.6-1.7-4.6l.5-6.2s-1.4,7.3-2.7,9.4c-1.6,2.7-3.7,1.8-3.2-.4.5-2.4,3.1-9.5,3.1-9.5s-5,10.3-6.5,10.1-.4-4-.3-4.4a46.46,46.46,0,0,1,3.4-6.2s-3.8,4.4-5.7,6.8c-3,3.7-5.2,3-5.2,3s-.1.2-.1.3c-1.3,2.6-4.3,9.5-4.3,9.5"
                    style="fill:#f5f5f5" />
                <path
                    d="M17.43,219.8c.1,0-.2.5-.5,1.4a19.68,19.68,0,0,0-.6,3.5,10.8,10.8,0,0,1-1,3.5c-.4.9-.9,1.2-1,1.2s.3-.5.6-1.3a14,14,0,0,0,.8-3.4,13.71,13.71,0,0,1,.8-3.5C17,220.2,17.43,219.7,17.43,219.8Z"
                    style="fill:#263238" />
                <path
                    d="M25.13,220.7a30,30,0,0,0-5.4,3.3,37.22,37.22,0,0,0-4.3,4.6,5.56,5.56,0,0,1,.9-1.7,16.88,16.88,0,0,1,7-5.7A7.76,7.76,0,0,1,25.13,220.7Z"
                    style="fill:#263238" />
                <path
                    d="M38.63,222.4a4,4,0,0,1,.9,2,12.36,12.36,0,0,1,.3,5.4,31.55,31.55,0,0,1-1.3,5.3,9.49,9.49,0,0,1-.9,2.1,17.42,17.42,0,0,1,.5-2.2,48.75,48.75,0,0,0,1.2-5.2,15.75,15.75,0,0,0-.2-5.3C38.93,223.2,38.53,222.4,38.63,222.4Z"
                    style="fill:#263238" />
                <path
                    d="M35.73,232.7a12.75,12.75,0,0,1-2.3-4.1,10.23,10.23,0,0,1-.9-4.6c.1,0,.5,2,1.4,4.4S35.83,232.6,35.73,232.7Z"
                    style="fill:#263238" />
                <path d="M37.73,230.7a5.39,5.39,0,0,1-.9-1.6c-.4-.9-.6-1.8-.4-1.8s.6.7.9,1.6A5,5,0,0,1,37.73,230.7Z"
                    style="fill:#263238" />
                <path
                    d="M78.23,310.6a11,11,0,0,1,.2,1.8c.1,1.1.3,2.8.6,4.8.6,4.1,1.4,9.6,2.4,15.8s1.9,11.8,2.4,15.8c.3,2,.5,3.7.6,4.8a10.87,10.87,0,0,1,.1,1.8,5.66,5.66,0,0,1-.3-1.8c-.2-1.2-.4-2.8-.7-4.8L81,333c-1-6.2-1.8-11.8-2.3-15.9-.2-2-.4-3.7-.4-4.8A9.15,9.15,0,0,1,78.23,310.6Z"
                    style="fill:#263238" />
                <path
                    d="M97.23,73.8l-4.1-.6s5.2-7.3,5.3-8.1c.4-5-.8-16.4-.8-16.4s-3.7,0-5.2-2a25.38,25.38,0,0,1-3.8-11c-.1-2.7,2.4-3.5,4.4-3.3,1,.1.1-2.6.1-2.6a54.57,54.57,0,0,1-.2-7c.3-7,1.8-6.1,3.9-9.6A19.64,19.64,0,0,1,113.73,3V69.9l.2,14.3Z"
                    style="fill:#285ffa" />
                <path
                    d="M105.23,80.2l-1.8-2.1a18.66,18.66,0,0,1-3.5-5.7,24.78,24.78,0,0,1-1.2-6.6,13.09,13.09,0,0,1,0-2.8,25.12,25.12,0,0,1,.4,2.7,35.64,35.64,0,0,0,1.3,6.5,20.23,20.23,0,0,0,3.3,5.7A9.13,9.13,0,0,1,105.23,80.2Z"
                    style="fill:#263238" />
                <path
                    d="M105.13,78.5a13.65,13.65,0,0,1-.7-2.9,52.63,52.63,0,0,1-.9-7c-.3-2.4-.7-4.7-1.2-7-.2-.9-.4-1.9-.6-2.9a13.09,13.09,0,0,1,.9,2.8,41.13,41.13,0,0,1,1.3,7c.3,2.8.5,5.2.8,7A10.32,10.32,0,0,1,105.13,78.5Z"
                    style="fill:#263238" />
                <path
                    d="M113.33,91.9a10.91,10.91,0,0,1-.6-1.1c-.2-.4-.4-.9-.6-1.3a17.08,17.08,0,0,1-.7-1.8,59.79,59.79,0,0,1-2.3-11c-.4-3.7-.6-7.5-.7-11.2V62.1a4.87,4.87,0,0,1,.1-1.2,4.87,4.87,0,0,1,.1,1.2c0,.9.1,2,.1,3.4.1,2.9.3,6.8.8,11.1a65.62,65.62,0,0,0,2.1,10.9C112.63,90.3,113.43,91.9,113.33,91.9Z"
                    style="fill:#263238" />
                <path
                    d="M99.33,69.1a10.7,10.7,0,0,1-1.4,1.6,30,30,0,0,0-3.3,3.8,18.56,18.56,0,0,0-2.5,4.3,11.92,11.92,0,0,1-.8,2,7.79,7.79,0,0,1,.4-2.1,19.48,19.48,0,0,1,2.4-4.5,24.4,24.4,0,0,1,3.5-3.7A7.46,7.46,0,0,1,99.33,69.1Z"
                    style="fill:#263238" />
                <path
                    d="M99.33,69.1a4.06,4.06,0,0,1,.4,1.9,14.12,14.12,0,0,1-.4,4.6,32.21,32.21,0,0,1-1.4,4.4,8.86,8.86,0,0,1-.8,1.7,5.34,5.34,0,0,1,.5-1.8,40.94,40.94,0,0,0,1.3-4.4,17.26,17.26,0,0,0,.5-4.5A11.48,11.48,0,0,1,99.33,69.1Z"
                    style="fill:#263238" />
                <g style="opacity:0.30000001192092896">
                    <path d="M91.33,81.3c0-.2.1-.4.1-.6l-.1-.1Z" />
                </g>
                <g style="opacity:0.30000001192092896">
                    <path
                        d="M99.23,69.1c-.2,0-.5.3-.6.5-4.7,4.6-6.1,6.7-7.2,11.1a11.72,11.72,0,0,0,2.4.9,3.33,3.33,0,0,0,2.6-.4,5.75,5.75,0,0,0,1.7-2.8,24.16,24.16,0,0,0,1.3-6.6A18.7,18.7,0,0,0,99.23,69.1Z" />
                </g>
                <g style="opacity:0.30000001192092896">
                    <path d="M101.63,58.2s4.5,19.8,6.3,19.3.8-16.4.8-16.4Z" />
                </g>
                <path
                    d="M113.63,4.5c-.6,0-11.2,1.8-14.8,7.5-3.1,4.9.3,7.3.7,8.5l.2,3.3-1.5,3.3v9l.8,5.3s-1.8-.4-2.8-3.9c-.7-2.4-.7-6.5-.6-8.9a7.06,7.06,0,0,1,.6-2.8,5.56,5.56,0,0,0,.1-4.2c-1.1-2.7-2.9-2.3-2.9-2.3a21,21,0,0,1,3.9-8.9c5.7-8.1,16.6-7.8,16.6-7.8Z"
                    style="fill:#fff" />
                <path
                    d="M110.63,30.8c-.1,0-.4-.5-1.2-1.1a6.28,6.28,0,0,0-3.7-1.2,6.1,6.1,0,0,0-3.6,1.5c-.8.6-1.2,1.2-1.3,1.1s.2-.7,1-1.4a6,6,0,0,1,3.8-1.7,6.21,6.21,0,0,1,3.9,1.4A3.09,3.09,0,0,1,110.63,30.8Z"
                    style="fill:#263238" />
                <path d="M109.23,22.1c0,.2-2.2-.1-4.9.4s-4.6,1.5-4.7,1.3A12.05,12.05,0,0,1,109.23,22.1Z"
                    style="fill:#263238" />
                <path
                    d="M106,50.9l-.3-.3-.9-.9c-.7-.8-1.8-1.9-2.9-3.1a27.14,27.14,0,0,1-2.4-3.5c-.3-.5-.4-.9-.6-1.2-.1-.1-.1-.3-.2-.4a15.59,15.59,0,0,0,.9,1.5,27.14,27.14,0,0,0,2.4,3.5c1.1,1.3,2.1,2.3,2.8,3.2l.8,1A.52.52,0,0,1,106,50.9Z"
                    style="fill:#263238" />
                <path
                    d="M113.73,61.7a1.7,1.7,0,0,1-1,0,12.41,12.41,0,0,1-2.7-.3,22.17,22.17,0,0,1-8.5-3.3,8.13,8.13,0,0,1-1.9-1.8,6.5,6.5,0,0,1-1.1-2.2,17.73,17.73,0,0,1-.8-4c-.1-1.2-.3-2.1-.4-2.7-.1-.3-.1-.7-.2-1a11.8,11.8,0,0,1,.9,3.7,27.44,27.44,0,0,0,.9,3.9,7.26,7.26,0,0,0,2.9,3.8,24.08,24.08,0,0,0,8.3,3.3A14.49,14.49,0,0,0,113.73,61.7Z"
                    style="fill:#263238" />
                <path
                    d="M111.23,32.1a5.38,5.38,0,0,1-1,2,7.9,7.9,0,0,1-9.8,2.2,4.89,4.89,0,0,1-1.8-1.4c.1-.1.7.5,1.9,1a8,8,0,0,0,9.4-2.1C110.83,32.8,111.13,32,111.23,32.1Z"
                    style="fill:#263238" />
                <path
                    d="M99.93,30.5c.1-.1.5.5,1.5,1a7.46,7.46,0,0,0,8,.1c.9-.6,1.4-1.1,1.5-1s-.3.7-1.3,1.3a7.05,7.05,0,0,1-8.4-.1A3.25,3.25,0,0,1,99.93,30.5Z"
                    style="fill:#263238" />
                <path
                    d="M96.43,43.1c-.1-.2-.2-.3-.2-.5s-.3-.8-.5-1.4a42.06,42.06,0,0,1-1.3-4.7c-.4-1.9-.8-3.5-1-4.7a10.4,10.4,0,0,1-.2-1.5,4.33,4.33,0,0,0-.1-.5.9.9,0,0,1,.1.5c.1.5.2.9.3,1.4.2,1.2.6,2.9,1,4.7s.9,3.5,1.2,4.7c.1.5.3.9.4,1.4C96.33,42.7,96.33,42.9,96.43,43.1Z"
                    style="fill:#263238" />
                <path
                    d="M95.33,43.8a4.2,4.2,0,0,1-.5.2,2.44,2.44,0,0,1-2.5-2.4,2.77,2.77,0,0,1,.3-1.3c.2-.4.5-.8.7-1.2a2,2,0,0,0,.3-1.1c-.1-.4-.2-.8-.3-1.1a2.83,2.83,0,0,0-1.1-1.5.8.8,0,0,0-1.1.3c-.2.3-.1.4-.2.5s-.2-.2,0-.6a1.21,1.21,0,0,1,.5-.5,1.39,1.39,0,0,1,.9,0,2.65,2.65,0,0,1,1.4,1.7,5,5,0,0,1,.4,1.3,3.19,3.19,0,0,1-.3,1.4,3.73,3.73,0,0,0-.9,2.3,2,2,0,0,0,.9,1.7A3.81,3.81,0,0,0,95.33,43.8Z"
                    style="fill:#263238" />
                <path
                    d="M104.83,50.7c-.2,0-.3-.1-.4-.1-.4-.2-.7-.4-1.1-.6a38.76,38.76,0,0,1-3.1-2.6c-1.1-1.1-2.1-2.1-2.8-2.9a8.18,8.18,0,0,0-.8-.9,1.38,1.38,0,0,1-.3-.4l.3.3.8.9c.7.8,1.7,1.8,2.8,2.9a38.76,38.76,0,0,0,3.1,2.6A7.14,7.14,0,0,1,104.83,50.7Z"
                    style="fill:#263238" />
                <path
                    d="M113.43,47.1a28.17,28.17,0,0,1-3.1.7c-1,.3-2,.5-3,.7a5.65,5.65,0,0,1,2.9-1.2A7,7,0,0,1,113.43,47.1Z"
                    style="fill:#263238" />
                <path d="M113.93,44.7a24.18,24.18,0,0,0-3.6,1,32.84,32.84,0,0,0-3.1,2A6.54,6.54,0,0,1,113.93,44.7Z"
                    style="fill:#263238" />
                <path d="M114.63,51.6a9.2,9.2,0,0,1-6.5-1.3c.1-.1,1.5.4,3.3.8S114.63,51.4,114.63,51.6Z"
                    style="fill:#263238" />
                <path
                    d="M105.33,59.1l-.2-.2a3.78,3.78,0,0,1-.5-.8,10.48,10.48,0,0,1-1.5-5.8,2.77,2.77,0,0,1,.1-.9.44.44,0,0,1,.1-.3v1.2a11.57,11.57,0,0,0,1.5,5.7C105.13,58.7,105.33,59.1,105.33,59.1Z"
                    style="fill:#263238" />
                <path
                    d="M109.53,56.8V56a13.8,13.8,0,0,1,.3-2,10.66,10.66,0,0,1,.7-1.9,1.61,1.61,0,0,1,.4-.7c.1,0-.5,1.2-.9,2.7S109.63,56.8,109.53,56.8Z"
                    style="fill:#263238" />
                <path
                    d="M113.13,31.1a31.32,31.32,0,0,1-2.4,6c-.6,1.6-1.9,3.2-.7,3.8a2.84,2.84,0,0,0,1.2.4,1.21,1.21,0,0,1,.5.1,1.21,1.21,0,0,1-.5.1,3.19,3.19,0,0,1-1.4-.3,1.78,1.78,0,0,1-.7-.8,1.67,1.67,0,0,1,.1-1.2l1-2.3A62.73,62.73,0,0,1,113.13,31.1Z"
                    style="fill:#263238" />
                <path
                    d="M110.93,26.8a6,6,0,0,0-6-1.3,8.28,8.28,0,0,0-4,1.9c-.9.8-1.1,1.5-1.2,1.4a3.67,3.67,0,0,1,1-1.7,8.14,8.14,0,0,1,4.2-2.2,7,7,0,0,1,4.7.5C110.63,26,111,26.8,110.93,26.8Z"
                    style="fill:#263238" />
                <path
                    d="M113.13,31.1c-.2,0-.3-1.4-.9-3.1a6.92,6.92,0,0,0-1-1.9c-.4-.4-.6-.6-.6-.7s.4,0,.9.5a5.33,5.33,0,0,1,1.3,2A5.79,5.79,0,0,1,113.13,31.1Z"
                    style="fill:#263238" />
                <path
                    d="M106.13,11.3a42.82,42.82,0,0,1,.6,4.6,33.61,33.61,0,0,1,.4,4.6,42.82,42.82,0,0,1-.6-4.6C106.23,13.3,106.13,11.3,106.13,11.3Z"
                    style="fill:#263238" />
                <path
                    d="M107.33,10.5c.3,1.3.6,2.7.8,4s.4,2.7.6,4a33.73,33.73,0,0,1-.8-4C107.73,13.2,107.53,11.8,107.33,10.5Z"
                    style="fill:#263238" />
                <path
                    d="M107.83,8c.1.1.2.2.2.3a3.55,3.55,0,0,1,.4.9,16.29,16.29,0,0,1,1.1,3.1,17.73,17.73,0,0,1,.5,3.2v1.4a7.31,7.31,0,0,1-.1-1.3c-.1-1.1-.3-2.1-.5-3.2a28.11,28.11,0,0,0-1-3.1A8.72,8.72,0,0,0,107.83,8Z"
                    style="fill:#263238" />
                <path
                    d="M83.53,76.4s6.1,3.9,12,4.9,6.4-2.2,6.4-2.2l3.2-.6s-.5,3.1,1.4,3.8,2.8-3.4,2.8-3.4l4.8,3.4.2,54.4-.7-3.3-5.7-19.7a9.75,9.75,0,0,1,1-7.8l1.2-2.1c0-.3-1.1-11.3-1.1-11.3l-2.5-8.2s-11.2-.1-14.6-1.6-9.4-6.1-9.4-6.1Z"
                    style="fill:#fff" />
                <path
                    d="M161.13,81.5s-2.3-.9-3.5,0a20.64,20.64,0,0,0-2.8,3.1s-5.3-.7-6.6,0a17.29,17.29,0,0,0-3.5,3.1l-1.1,4.2-5.1,2.3s-8.6,20.2-8.1,20.3,4.8,7.2,4.8,7.2l9-4.4,6.1-9.9-.7-4.7,4.1-4.4.7-3.3s-1.6-4.9,2.1-7.5,5.6-1.6,5.6-1.6l-.7-3.4"
                    style="fill:#455a64" />
                <g style="opacity:0.30000001192092896">
                    <path
                        d="M161.13,81.5s-2.3-.9-3.5,0a20.64,20.64,0,0,0-2.8,3.1s-5.3-.7-6.6,0a17.29,17.29,0,0,0-3.5,3.1l-1.1,4.2-5.1,2.3s-8.6,20.2-8.1,20.3,4.8,7.2,4.8,7.2l9-4.4,6.1-9.9-.7-4.7,4.1-4.4.7-3.3s-1.6-4.9,2.1-7.5,5.6-1.6,5.6-1.6l-.7-3.4" />
                </g>
                <path
                    d="M144.83,176.7c-4.8-4.9-11.2-3.2-14-2.7s-2.1,2.3-4.7,6-12.2,6.9-12.2,6.9l.1,27.7h2l.3-2.3s0-.7,1.2-1.7,7.1-10.9,8.4-13.6,2.9-1.3,2.9-1.3a17,17,0,0,1,2.1,6.1c.7,3.9,0,4.4-5.6,10.9s-8.7,4.3-8.7,4.3l-1.1,3.2s5.1,7.3,8,8.1,8-4.3,8-4.3l1.3-7.9c.7-4.5,9.7-6.5,9.7-6.5h0a15.26,15.26,0,0,1-.1-11.5l.9-2.2s.5,4.7,4.4,0S149.63,181.6,144.83,176.7Zm-19.3,48a2.35,2.35,0,0,1-2.4-.5,2.82,2.82,0,0,1-.3-2.2,6.16,6.16,0,0,1,2-3.8c1.1-1,2.9-1.6,3.4-.3V221A4.43,4.43,0,0,1,125.53,224.7Z"
                    style="fill:#455a64" />
                <path
                    d="M145.13,181a12,12,0,0,1,1.3,3.3,14,14,0,0,1,.4,4.1,11.21,11.21,0,0,1-1.5,5.1h0a15.29,15.29,0,0,0-3.3,6.3,15.53,15.53,0,0,0,.3,8v.1l.1.3-.3.1a20.47,20.47,0,0,0-5.8,2.7,7.58,7.58,0,0,0-3.3,4.5l-.1.3-.3-.1a8.87,8.87,0,0,0-3.2-.8,10.47,10.47,0,0,0-3,.5,12.15,12.15,0,0,0-4.4,2.2,13.23,13.23,0,0,0-2.9,3.3c0-.1.1-.2.1-.3l.4-.8a10.41,10.41,0,0,1,2.2-2.5,12.21,12.21,0,0,1,4.5-2.4,10.59,10.59,0,0,1,3.1-.5,8.08,8.08,0,0,1,3.4.8l-.3.2a8.12,8.12,0,0,1,3.5-4.8,18.82,18.82,0,0,1,5.9-2.8l-.2.3v-.2a16.65,16.65,0,0,1-.3-8.3,16.26,16.26,0,0,1,3.4-6.5h0a10.78,10.78,0,0,0,1.5-4.9,13.52,13.52,0,0,0-.3-4A14.1,14.1,0,0,0,145.13,181Z"
                    style="fill:#263238" />
                <path
                    d="M127.33,180.4a1.11,1.11,0,0,1,.4.5,11.91,11.91,0,0,1,.9,1.5,4.68,4.68,0,0,1,.5,2.6,16.68,16.68,0,0,1-.5,3.1,34.78,34.78,0,0,0,0,7.9,5.93,5.93,0,0,1-.5-2.3,21.76,21.76,0,0,1,.1-5.7c.2-1.1.4-2.1.5-3a5.07,5.07,0,0,0-.4-2.4C127.83,181.2,127.23,180.5,127.33,180.4Z"
                    style="fill:#263238" />
                <path d="M114.13,140.5h5.7s2.8-.1,3.4,1.6.6,2.9,0,3.1a24.09,24.09,0,0,1-3.8,0l-4.4.1Z"
                    style="fill:#455a64" />
                <path d="M113.83,138.3l6.2-.9-.5,11.6h2.7s2.1,2.1.7,2.4a19.3,19.3,0,0,1-3.4,0v13.2l-5.8.8Z"
                    style="fill:#455a64" />
                <path d="M113.73,161.3l7.8-1.5-.9-2.5,3.4-1.8s1.4-1.1.5-1.7-3.9.9-3.9.9v-.9l-6.7,1.5Z"
                    style="fill:#455a64" />
                <path
                    d="M123.73,160.9l-4.2.5s-.1,2.8-.9,2.8h-4.8v6.1s5.2.7,6-1.6a6.83,6.83,0,0,0,.5-3.7C120.33,165.1,125.13,163.6,123.73,160.9Z"
                    style="fill:#455a64" />
                <path d="M113.73,173.3c2-.4,4-.8,6-1.4V175s4.4-2.1,3.6,0a3.16,3.16,0,0,1-3.2,2l-.3,2.9h-6.1Z"
                    style="fill:#455a64" />
                <path
                    d="M113.83,164.7l1-2.1s2.7,4.1,10.3,2.5,16.6-7.8,14.3-20.8-13.1-6.4-13.1-6.4-5.6-2.7-5-8.5l-5.2-4c.1.7,1.4,10.4,7.7,16.5,0,0,2.5,9.6-6.6,13.3a17.4,17.4,0,0,0-3.3,1.8"
                    style="fill:#285ffa" />
                <g style="opacity:0.30000001192092896">
                    <path
                        d="M113.83,164.7l1-2.1s2.7,4.1,10.3,2.5,16.6-7.8,14.3-20.8-13.1-6.4-13.1-6.4-5.6-2.7-5-8.5l-5.2-4c.1.7,1.4,10.4,7.7,16.5,0,0,2.5,9.6-6.6,13.3a17.4,17.4,0,0,0-3.3,1.8" />
                </g>
                <path
                    d="M117.13,173.4c-2.5-.1-3.6,3.1-3.5,5.6a54.52,54.52,0,0,1,.1,7c-.2,6,0,9.3-.1,13.5s.1,9,.1,9.6c3.6.6,12.8-3.6,17-5.1s8.6-3.3,11.2-7c2-2.8,2.6-6.3,2.8-9.6a48.65,48.65,0,0,0-3.2-20.3,2.59,2.59,0,0,0-.7-1.1,2.32,2.32,0,0,0-2-.1,78.65,78.65,0,0,0-21.7,7.5"
                    style="fill:#285ffa" />
                <g style="opacity:0.5">
                    <path
                        d="M117.13,173.4c-2.5-.1-3.6,3.1-3.5,5.6s0,5.9.1,8.4c.1,4.3,0,13.9,0,18.1,0,1.4.1,3.6.1,3.6,1.1.3,5-.4,8.9-1.3,3-3.3,3.9-2.3,8.1-3.8s8.6-3.3,11.2-7c2-2.8,2.6-6.3,2.8-9.6a48.65,48.65,0,0,0-3.2-20.3,2.59,2.59,0,0,0-.7-1.1,2.32,2.32,0,0,0-2-.1,92,92,0,0,0-22.8,7.9"
                        style="fill:#fff" />
                </g>
                <path
                    d="M126.83,88.8s-3.3-.8-3,4v4.4s-2.3.5-2.6,4-.5,8.1-.5,8.1,6.2,15.3,6,16.8-1.9,8.3,1.1,9.9,4.3,1.7,5.2,3.4,3.6,2.9,5.3,3.7,3.2,4,5.1,4.1,3.1-1.8,3.7-6,2.8-25.4-3.1-36.6S126.83,88.8,126.83,88.8Z"
                    style="fill:#285ffa" />
                <path
                    d="M113.73,165.5s5.6-1.7,8.6-.1c0,0,.5-2.1,4-1.2a7.81,7.81,0,0,1,5.3-2.5s.4-2,4-3.1c0,0,1.2-4.4,5.2-3.9,0,0,3.3-.1,4.1,2.5a12.19,12.19,0,0,1,0,6,5.64,5.64,0,0,1-.4,4.9,6.71,6.71,0,0,1,.7,5s1.4,1,.9,4.5c0,0,2.5.4,2,5,0,0,1.2,3.2-.5,5.4,0,0,1.5,3.4-1,5.8,0,0-1,5.7-4.3,6.2,0,0-1.4,3.9-4.4,3.6,0,0-1.5,4.3-5.8,2.4,0,0-.7,3.7-3.5,3.1,0,0-2.5,2.2-4.6,1.1,0,0,.7.9-1.6,2.5,0,0,1.1,4.7,0,7.6s-3.3,8.5-3.3,8.5h-3.9a97.29,97.29,0,0,1-.6-10.7c.1-4-2-11.6,7.8-13.3a10.17,10.17,0,0,1,4.3-2.7,13,13,0,0,1,3.3-.7,7.78,7.78,0,0,1,3.8-2l2.3-.4s1-3.1,3.2-4,1.8.7,1.8.7l2.4-7.7-.3-6.5c-1.6-1.7-2.3-3.9-1-6.1-2-1.4-1.8-2.7-1.2-4.6l-1.8-3.2-2.8,1.1s-1,2.7-5.6,2.7a6.55,6.55,0,0,1-7.1,1.8s-6.9,3.4-10.2.9Z"
                    style="fill:#285ffa" />
                <g style="opacity:0.30000001192092896">
                    <path
                        d="M113.73,165.5s5.6-1.7,8.6-.1c0,0,.5-2.1,4-1.2a7.81,7.81,0,0,1,5.3-2.5s.4-2,4-3.1c0,0,1.2-4.4,5.2-3.9,0,0,3.3-.1,4.1,2.5a12.19,12.19,0,0,1,0,6,5.64,5.64,0,0,1-.4,4.9,6.71,6.71,0,0,1,.7,5s1.4,1,.9,4.5c0,0,2.5.4,2,5,0,0,1.2,3.2-.5,5.4,0,0,1.5,3.4-1,5.8,0,0-1,5.7-4.3,6.2,0,0-1.4,3.9-4.4,3.6,0,0-1.5,4.3-5.8,2.4,0,0-.7,3.7-3.5,3.1,0,0-2.5,2.2-4.6,1.1,0,0,.7.9-1.6,2.5,0,0,1.1,4.7,0,7.6s-3.3,8.5-3.3,8.5h-3.9a97.29,97.29,0,0,1-.6-10.7c.1-4-2-11.6,7.8-13.3a10.17,10.17,0,0,1,4.3-2.7,13,13,0,0,1,3.3-.7,7.78,7.78,0,0,1,3.8-2l2.3-.4s1-3.1,3.2-4,1.8.7,1.8.7l2.5-7.9a11.24,11.24,0,0,1-.3-6.3c-1.6-1.7-2.3-3.9-1-6.1-2-1.4-1.8-2.7-1.2-4.6l-1.8-3.2-2.8,1.1s-1,2.7-5.6,2.7a6.55,6.55,0,0,1-7.1,1.8s-6.9,3.4-10.2.9Z"
                        style="fill:#fff" />
                </g>
                <path
                    d="M124.13,172.7a3.91,3.91,0,0,0,.3-1.1,7.62,7.62,0,0,0-1.4-5.3c-.4-.6-.8-.8-.8-.9s.1.1.3.2l.6.6a6.2,6.2,0,0,1,1.2,2.6,7,7,0,0,1,.1,2.9,1.14,1.14,0,0,1-.3.8C124.23,172.5,124.23,172.6,124.13,172.7Z"
                    style="fill:#263238" />
                <path
                    d="M130.83,171.7a5.7,5.7,0,0,0-.1-1.3,10.76,10.76,0,0,0-1.3-2.9,11.6,11.6,0,0,0-2-2.4,12.42,12.42,0,0,0-1-.8c.1,0,.2.1.3.1.3.2.5.4.8.6a12.06,12.06,0,0,1,2.1,2.4,10.11,10.11,0,0,1,1.3,3v1A.37.37,0,0,1,130.83,171.7Z"
                    style="fill:#263238" />
                <path
                    d="M131.73,161.7h.4a1.61,1.61,0,0,1,.9.3,3.13,3.13,0,0,1,1.1.9,13.58,13.58,0,0,1,1.2,1.2,8.13,8.13,0,0,1,1.2,2.9c.1.3.1.6.2.9v.4s-.1-.5-.3-1.3a7,7,0,0,0-2.4-4.1,10.63,10.63,0,0,0-1.1-.9A5.27,5.27,0,0,0,131.73,161.7Z"
                    style="fill:#263238" />
                <path
                    d="M135.73,158.6h.5a3.7,3.7,0,0,1,1.1.5,7.1,7.1,0,0,1,2.7,3,7.94,7.94,0,0,1,.6,2.2,4.13,4.13,0,0,1-.2,1.9,2,2,0,0,1-.8,1,.76.76,0,0,1-.4.2,2.21,2.21,0,0,0,1-1.3,5.54,5.54,0,0,0,.2-1.8,3.94,3.94,0,0,0-.6-2.1,8.33,8.33,0,0,0-2.6-3,10.91,10.91,0,0,0-1.1-.6C135.93,158.7,135.73,158.7,135.73,158.6Z"
                    style="fill:#263238" />
                <path
                    d="M140.73,158.7h.4a3.55,3.55,0,0,1,.9.4,3.12,3.12,0,0,1,1,4.4,3.18,3.18,0,0,1-1,1,3.55,3.55,0,0,1-.9.4c-.1,0-.2.1-.4.1a2.38,2.38,0,0,0,1.1-.6,3.17,3.17,0,0,0,.9-4.3,3.82,3.82,0,0,0-.9-.9A3.7,3.7,0,0,0,140.73,158.7Z"
                    style="fill:#263238" />
                <path
                    d="M144.93,173s-.1.3-.7.4a1.41,1.41,0,0,1-.9-.1,3,3,0,0,1-.8-.8,2.51,2.51,0,0,1-.1-1.9,2.35,2.35,0,0,1,.2-.8,2.2,2.2,0,0,1-.1.8,2.82,2.82,0,0,0,.2,1.8,1.42,1.42,0,0,0,1.4.9A3.39,3.39,0,0,0,144.93,173Z"
                    style="fill:#263238" />
                <path
                    d="M144.33,174a2.38,2.38,0,0,0-.6,1.1,7.57,7.57,0,0,0-.1,1.5,2,2,0,0,0,1,1.6h0a2.43,2.43,0,0,0,1.1,3.1l.1.1-.1.1a4.5,4.5,0,0,0,.1,5.5h0a14.72,14.72,0,0,0-.4,3.6v.2h0a5.51,5.51,0,0,0-1.7,2,14.24,14.24,0,0,0-1.2,2.5c-.1.4-.2.7-.3,1.1v.1l-.1-.1a1.23,1.23,0,0,0-1-.2,3,3,0,0,0-1,.4l-.9.6a5,5,0,0,0-.7.8,10.14,10.14,0,0,1-3.5,2.3l-6.5,2.6h0a6.71,6.71,0,0,0-4.5,1.8,9,9,0,0,0-.9,1l-.3.4a4.18,4.18,0,0,1,1.1-1.5,6.36,6.36,0,0,1,4.5-1.9h0l6.5-2.7a8.7,8.7,0,0,0,3.4-2.2,5.72,5.72,0,0,1,.7-.8,8.79,8.79,0,0,1,1-.6,3.7,3.7,0,0,1,1.1-.5,1.72,1.72,0,0,1,1.2.2l-.1.1c.1-.4.2-.7.3-1.1a15.08,15.08,0,0,1,1.2-2.6,7.19,7.19,0,0,1,1.8-2.1v.1a11.07,11.07,0,0,1,.4-3.6v.1a4.65,4.65,0,0,1-.1-5.7v.1a2.72,2.72,0,0,1-1.1-3.3v.1a2.06,2.06,0,0,1-1-1.7,3.81,3.81,0,0,1,.1-1.5,2,2,0,0,1,.4-.8C144.13,174.1,144.23,174,144.33,174Z"
                    style="fill:#263238" />
                <path
                    d="M124.33,209.6a1.49,1.49,0,0,1-.7-.3,2.52,2.52,0,0,1-1-1.5,2.77,2.77,0,0,1,0-1.8,1.61,1.61,0,0,1,.4-.7s-.1.3-.2.7a3.22,3.22,0,0,0,.1,1.7,2.43,2.43,0,0,0,1,1.4A1.11,1.11,0,0,0,124.33,209.6Z"
                    style="fill:#263238" />
                <path
                    d="M129.53,206.7a1.47,1.47,0,0,1-.6-.5,3.81,3.81,0,0,1-.8-1.7,3.19,3.19,0,0,1,.3-1.9c.1-.2.2-.5.5-.6a6,6,0,0,1-.3.7,3.72,3.72,0,0,0-.2,1.8,3.63,3.63,0,0,0,.7,1.7A1.13,1.13,0,0,0,129.53,206.7Z"
                    style="fill:#263238" />
                <path
                    d="M132.63,205.8a1.79,1.79,0,0,1-.5-.7,4.76,4.76,0,0,1-.7-2.1,4.87,4.87,0,0,1,.2-2.1,2,2,0,0,1,.4-.8,6.09,6.09,0,0,0,.6,5.7Z"
                    style="fill:#263238" />
                <path
                    d="M138.73,202a1.27,1.27,0,0,1-.6-.1,2.94,2.94,0,0,1-1.2-1,2.82,2.82,0,0,1-.4-1.5,1.42,1.42,0,0,1,.2-.6,2.82,2.82,0,0,0,.4,2A2.86,2.86,0,0,0,138.73,202Z"
                    style="fill:#263238" />
                <path
                    d="M144,197.9a1.27,1.27,0,0,1-.6-.1,2.66,2.66,0,0,1-1.1-1,2.3,2.3,0,0,1-.4-1.4,1.27,1.27,0,0,1,.1-.6,3,3,0,0,0,.5,1.9A3.09,3.09,0,0,0,144,197.9Z"
                    style="fill:#263238" />
                <path d="M147.53,186.6a2.74,2.74,0,0,1-3,.4H146A8.33,8.33,0,0,0,147.53,186.6Z" style="fill:#263238" />
                <path
                    d="M147.23,180.9a2.65,2.65,0,0,1-1.5.9,2.26,2.26,0,0,1-1.8-.1,9.15,9.15,0,0,0,1.7-.1A7.74,7.74,0,0,0,147.23,180.9Z"
                    style="fill:#263238" />
                <path d="M145.93,178c0,.1-.6.1-1.2.4s-1.1.6-1.1.6a2.26,2.26,0,0,1,1.1-.8A2.34,2.34,0,0,1,145.93,178Z"
                    style="fill:#263238" />
                <path d="M145.53,172.9a3,3,0,0,1-1.4,1.3,9.15,9.15,0,0,1-1.7.9,14,14,0,0,1,1.6-1Z"
                    style="fill:#263238" />
                <path
                    d="M144.93,167.7a6.09,6.09,0,0,1-1.6,1.6,5.64,5.64,0,0,1-2,1.1,15.31,15.31,0,0,0,1.9-1.3C144.23,168.3,144.83,167.7,144.93,167.7Z"
                    style="fill:#263238" />
                <path
                    d="M127.33,173l.3.2.8.6a33.29,33.29,0,0,1,2.8,2.5,12,12,0,0,1,2.9,4.7,7.51,7.51,0,0,1,.4,3.3,4.71,4.71,0,0,1-.4,1.7,2.54,2.54,0,0,1-1.2,1.3,3.66,3.66,0,0,1-3.5-.3,12.66,12.66,0,0,1-2.5-2.1c-1.4-1.5-2.5-3-3.6-4.2a10.91,10.91,0,0,0-2.9-2.3,3.08,3.08,0,0,0-.9-.4c-.1,0-.2-.1-.3-.1a6.94,6.94,0,0,1,1.3.5,13.31,13.31,0,0,1,3,2.3c1.1,1.1,2.2,2.6,3.7,4.1a9.58,9.58,0,0,0,2.5,2,3.83,3.83,0,0,0,3.3.3,3.07,3.07,0,0,0,1.5-2.9,6.91,6.91,0,0,0-.4-3.2,12.39,12.39,0,0,0-2.9-4.6c-.9-.9-1.8-1.7-2.7-2.5l-.8-.6A1.38,1.38,0,0,1,127.33,173Z"
                    style="fill:#263238" />
                <path
                    d="M122.13,175.3a17.48,17.48,0,0,0-2.9,1.8,13.63,13.63,0,0,0-2.4,2.4,2.18,2.18,0,0,1,.5-.8A13.65,13.65,0,0,1,119,177a10.71,10.71,0,0,1,2.1-1.3A3,3,0,0,1,122.13,175.3Z"
                    style="fill:#263238" />
                <path
                    d="M129.83,182.5c-.1-.1-.2-.3-.3-.4-.2-.3-.5-.6-.8-1.1a19.28,19.28,0,0,0-3.1-3.3,19,19,0,0,0-3.7-2.6c-.5-.3-.9-.5-1.2-.7s-.3-.1-.4-.3c.2,0,.3.1.5.2a11.82,11.82,0,0,1,1.3.6,19,19,0,0,1,3.7,2.6,20.23,20.23,0,0,1,3.1,3.4,6.29,6.29,0,0,0,.8,1.1A.44.44,0,0,0,129.83,182.5Z"
                    style="fill:#263238" />
                <path
                    d="M139.63,167.6a.76.76,0,0,1,.2.5,3.3,3.3,0,0,1,0,1.4,6.46,6.46,0,0,1-2.9,3.6,10.67,10.67,0,0,1-4.1,2.1l-1.4.3h-.5a12.16,12.16,0,0,0,1.9-.5,15.9,15.9,0,0,0,4.1-2.1,7.32,7.32,0,0,0,2.8-3.5A3.67,3.67,0,0,0,139.63,167.6Z"
                    style="fill:#263238" />
                <path
                    d="M137.23,193.5l.9.3a3.91,3.91,0,0,0,2.4-.2A4,4,0,0,0,143,191a4.34,4.34,0,0,0-1.2-4.3l-.1-.1.1-.1a3.15,3.15,0,0,0,1.3-2.8,3.42,3.42,0,0,0-1.3-2.4l-.1-.1.1-.1a4,4,0,0,0,.9-4.4,5.53,5.53,0,0,0-5.1-3.4h-.9a3.08,3.08,0,0,1,1-.1,5.42,5.42,0,0,1,2.5.6,5.65,5.65,0,0,1,2.7,2.8,4.33,4.33,0,0,1-.9,4.7v-.1a3.55,3.55,0,0,1,1.4,2.5,3.75,3.75,0,0,1-1.4,3v-.1a4.3,4.3,0,0,1,1.2,4.4,4.2,4.2,0,0,1-2.6,2.6,4.27,4.27,0,0,1-2.5.1A1,1,0,0,1,137.23,193.5Z"
                    style="fill:#263238" />
                <path
                    d="M137.33,196.8a7.77,7.77,0,0,0,.2-1.6,7.49,7.49,0,0,0-1-3.6,16.58,16.58,0,0,0-2.3-3.1l-.8-.9-.3-.3.3.3.8.8a11.91,11.91,0,0,1,2.3,3.1,7.87,7.87,0,0,1,1,3.7,5,5,0,0,1-.2,1.2C137.53,196.5,137.43,196.6,137.33,196.8Z"
                    style="fill:#263238" />
                <path
                    d="M138.13,189.8a4.66,4.66,0,0,1-2-.6,4.18,4.18,0,0,1-1.8-1.1s.8.4,1.9.9S138.13,189.8,138.13,189.8Z"
                    style="fill:#263238" />
                <path
                    d="M135.33,184.1a8.41,8.41,0,0,0,1,.4,23.35,23.35,0,0,0,2.5.7,7.71,7.71,0,0,1,2.5,1,2.65,2.65,0,0,1,.6.5l.2.2-.9-.6a11.72,11.72,0,0,0-2.4-.9,10.43,10.43,0,0,1-2.5-.8A3.13,3.13,0,0,1,135.33,184.1Z"
                    style="fill:#263238" />
                <path
                    d="M142.23,181.5a5.24,5.24,0,0,1-1.1-1,5.8,5.8,0,0,0-3-1.8,10.18,10.18,0,0,0-3.5.3c-.5.1-1,.3-1.4.4.1-.1.2-.1.4-.2a6.21,6.21,0,0,1,1-.3,7.39,7.39,0,0,1,3.6-.3,5.37,5.37,0,0,1,3,1.9l.7.8C142,181.3,142.13,181.4,142.23,181.5Z"
                    style="fill:#263238" />
                <path
                    d="M129,194.7c-.2,0-.3-.1-.5-.2a7.46,7.46,0,0,1-1.2-.7,7.31,7.31,0,0,1-2.4-3.8c-.4-1.8.3-3.4.4-4.5a5.46,5.46,0,0,0-.1-1.8c.1.1.1.3.2.5a6.6,6.6,0,0,1,.1,1.4c-.1,1.2-.7,2.7-.3,4.4a7,7,0,0,0,2.2,3.8C127.93,194.1,128.43,194.4,129,194.7Z"
                    style="fill:#263238" />
                <path
                    d="M133.63,197.5s0-.8-.1-2a9.65,9.65,0,0,0-1.8-4.3c-.6-.7-1.2-1.3-1.8-1.9a10.7,10.7,0,0,1-1.4-1.6,3.1,3.1,0,0,1-.6-1.3.9.9,0,0,1-.1-.5,8.86,8.86,0,0,0,.8,1.7,10.7,10.7,0,0,0,1.4,1.6,10.71,10.71,0,0,1,1.8,1.9,9,9,0,0,1,1.8,4.4,7.08,7.08,0,0,1,.1,1.4C133.73,197.2,133.73,197.4,133.63,197.5Z"
                    style="fill:#263238" />
                <path
                    d="M131,200.6a1.58,1.58,0,0,0-.4.1,3.4,3.4,0,0,1-1-.1,4.69,4.69,0,0,1-2.7-1.6,15.1,15.1,0,0,1-1.8-2.6l-.6-1.2a6.73,6.73,0,0,1,.7,1.1,11.78,11.78,0,0,0,1.9,2.5,4.77,4.77,0,0,0,2.6,1.6A2.6,2.6,0,0,0,131,200.6Z"
                    style="fill:#263238" />
                <path
                    d="M122,179.7l-.9.9a9.31,9.31,0,0,1-2.6,1.8,5.52,5.52,0,0,1-3.1.5l-.9-.3a1.24,1.24,0,0,1-.3-.2,5.27,5.27,0,0,0,1.2.3,6.15,6.15,0,0,0,3-.5,15.1,15.1,0,0,0,2.6-1.8A8.65,8.65,0,0,1,122,179.7Z"
                    style="fill:#263238" />
                <path
                    d="M123.73,182l-1.2.7a20.8,20.8,0,0,0-5.1,4.2,6.42,6.42,0,0,0-.9,1.1c0-.1.1-.2.2-.3a3.28,3.28,0,0,1,.6-.8,13.63,13.63,0,0,1,2.4-2.4,27.5,27.5,0,0,1,2.8-1.9,3.08,3.08,0,0,1,.9-.4C123.53,182.1,123.63,182,123.73,182Z"
                    style="fill:#263238" />
                <path
                    d="M122.13,186.9c-.4.2-.9.4-1.3.6a17.87,17.87,0,0,0-2.5,2.2,5.64,5.64,0,0,1-3,1.7,1.7,1.7,0,0,1-1,0c-.1,0-.3-.1-.4-.1a3.3,3.3,0,0,0,1.4,0,5.75,5.75,0,0,0,2.9-1.7,17.83,17.83,0,0,1,2.6-2.2,4.18,4.18,0,0,1,1-.4C121.83,186.9,121.93,186.9,122.13,186.9Z"
                    style="fill:#263238" />
                <path
                    d="M124.73,186.5v.4a4.18,4.18,0,0,1-.4,1,8.51,8.51,0,0,1-2.5,2.5,28.32,28.32,0,0,0-2.8,2,10.63,10.63,0,0,0-.9,1.1c0-.1.1-.2.2-.4a2.7,2.7,0,0,1,.7-.8,18.6,18.6,0,0,1,2.8-2.1,8.16,8.16,0,0,0,2.5-2.4C124.43,187.4,124.63,186.9,124.73,186.5Z"
                    style="fill:#263238" />
                <path
                    d="M119.93,198.7a9.89,9.89,0,0,0,1.8-.8,5.73,5.73,0,0,0,3.1-3.2,3.94,3.94,0,0,0,.1-2.4,3.77,3.77,0,0,0-1.2-1.6,2.83,2.83,0,0,0-1.8-.4.9.9,0,0,1,.5-.1,2.3,2.3,0,0,1,1.4.4,3.64,3.64,0,0,1,1.4,1.6,3.9,3.9,0,0,1-.1,2.6,5.77,5.77,0,0,1-3.3,3.2,6.94,6.94,0,0,1-1.3.5C120.23,198.6,120,198.6,119.93,198.7Z"
                    style="fill:#263238" />
                <path
                    d="M121.53,194.9a1.79,1.79,0,0,1-.5.7,5.82,5.82,0,0,1-3.8,1.7,1.39,1.39,0,0,1-.9,0,8.87,8.87,0,0,0,2.8-.7A8.07,8.07,0,0,0,121.53,194.9Z"
                    style="fill:#263238" />
                <path
                    d="M124.13,203.4s.1-.4.3-1a5.28,5.28,0,0,0,0-2.5,2.87,2.87,0,0,0-1.6-1.8,3.55,3.55,0,0,0-1-.2c.1,0,.2-.1.3-.1a2.2,2.2,0,0,1,.8.1,2.92,2.92,0,0,1,1.8,1.8,3.87,3.87,0,0,1,0,2.6C124.43,202.8,124.33,203.1,124.13,203.4Z"
                    style="fill:#263238" />
                <path
                    d="M127.53,201.8a5.16,5.16,0,0,0,.2-1.1c0-.6-.2-1.1-.1-1.1a1.25,1.25,0,0,1,.3,1.2A1.43,1.43,0,0,1,127.53,201.8Z"
                    style="fill:#263238" />
                <path
                    d="M120.83,201.2c-.3.2-.5.4-.8.6a9.06,9.06,0,0,1-2.2,1.1,2.87,2.87,0,0,1-2.4-.2,2.65,2.65,0,0,1-.6-.5.31.31,0,0,1-.1-.2,5.55,5.55,0,0,0,.8.6,3,3,0,0,0,2.3.1,8.75,8.75,0,0,0,2.2-1A2.18,2.18,0,0,1,120.83,201.2Z"
                    style="fill:#263238" />
                <path
                    d="M121,105.4a9,9,0,0,1-1.6.3v1.7s-5.3,0-5.4,7,.7,8.6,2.9,10.9,3.7,4.8,5.1,5.2a15.48,15.48,0,0,0,4.3,0l2.9-5.7-4.6-11.3Z"
                    style="fill:#285ffa" />
                <path d="M147.13,191.7a5.07,5.07,0,0,0-1.6-.9,5.66,5.66,0,0,0-1.8-.3A3.14,3.14,0,0,1,147.13,191.7Z"
                    style="fill:#263238" />
                <g style="opacity:0.5">
                    <path
                        d="M126.83,88.8s-3.3-.8-3,4v4.4s-2.3.5-2.6,4-.5,8.1-.5,8.1,6.2,15.3,6,16.8-1.9,8.3,1.1,9.9,4.3,1.7,5.2,3.4,3.6,2.9,5.3,3.7,3.2,4,5.1,4.1,3.1-1.8,3.7-6,2.8-25.4-3.1-36.6S126.83,88.8,126.83,88.8Z"
                        style="fill:#fff" />
                </g>
                <path
                    d="M113.73,61.7s4.8-.7,7.9-3.3a62.52,62.52,0,0,0,5.7-5.8l1.1-7.2,2-3.5a2,2,0,0,0-2.1-.9c-1.7.2-3.5,7.2-3.5,7.2L121,50.6l-7,.2Z"
                    style="fill:#455a64" />
                <path
                    d="M115.53,4.6h-2l.1,27.4c.1.7.1.5.1.4a16.07,16.07,0,0,1,4,5,6.07,6.07,0,0,1,.5,1.8,1.47,1.47,0,0,1-1.1,1.4,1.37,1.37,0,0,1-1.2-.4,3.92,3.92,0,0,1-.8-1,12.48,12.48,0,0,1-1.4-5l.2,13,.7-.1s5.5.6,7.3-1.1a21,21,0,0,0,3.1-4.1c.3-.3,4-.8,5.4-1.3a4.66,4.66,0,0,0,2.4-4.6c-.3-1.9-1-2.3-1-2.3s.4-1.9,1-3.9S133.53,5.7,115.53,4.6Zm10.9,29.9a3.51,3.51,0,0,1-3.5.9,7.45,7.45,0,0,1-3.2-2.1,4.45,4.45,0,0,1-1.2-2.1,3.77,3.77,0,0,1,1.4-3.3,4.07,4.07,0,0,1,3.4-1.4,5.79,5.79,0,0,1,2.1.7,6.19,6.19,0,0,1,1.7,3.3A5.2,5.2,0,0,1,126.43,34.5Z"
                    style="fill:#455a64" />
                <path
                    d="M130.33,26.2c.1,0-.1,1.8,0,4a6.18,6.18,0,0,0,.5,2.7,1.6,1.6,0,0,0,.9.7l-.3-.1c-.1-.1-.2-.1-.3-.2a1.38,1.38,0,0,1-.3-.4,6.71,6.71,0,0,1-.6-2.8,26.2,26.2,0,0,1,.1-2.8A4,4,0,0,1,130.33,26.2Z"
                    style="fill:#263238" />
                <polygon
                    points="113.73 60.1 119.13 60.1 120.93 62.2 122.33 62.9 122.33 63.7 120.43 63.7 120.13 65.5 122.73 66.2 122.73 67 120.93 67.4 120.83 68.2 122.73 70.7 122.73 72.1 121.53 71.6 120.93 72.9 119.03 73.5 119.13 79.2 119.13 84.2 113.93 84.2 113.73 60.1"
                    style="fill:#455a64" />
                <path d="M114.53,69.7a2.65,2.65,0,0,0,2.3-.2,13.73,13.73,0,0,0,2-1.3,4.69,4.69,0,0,1,2.2-.9"
                    style="fill:#455a64" />
                <path d="M114.83,64.5a14.66,14.66,0,0,0,5.9-.5" style="fill:#455a64" />
                <path d="M114.23,64a8.4,8.4,0,0,0,6.1-1.5" style="fill:#455a64" />
                <path d="M114.63,74.1a7.09,7.09,0,0,0,5-1.7" style="fill:#455a64" />
                <path d="M114.53,78.9a5.24,5.24,0,0,0,4.8-.9" style="fill:#455a64" />
                <path d="M122.13,84v5.4s-3.5,4.2-3.4,6.6,1,27.2,1,27.8-5.8,10.3-5.8,10.3l.1-51,4.9-1.6Z"
                    style="fill:#455a64" />
                <path
                    d="M134.13,84.1c.9,2.4-.3,5.2-2.3,6.8s-10.8,3.3-13.3.9c.2,1.2-6.5-.7-.7,2.8.7.4,10.5.8,11.4.6,4.1-.9,4.8-1.8,6.7-3.9a9,9,0,0,0,2.4-7.9"
                    style="fill:#455a64" />
                <path
                    d="M125.33,100.1l-7.4-2.6v2.3l7,3a12.74,12.74,0,0,0,11.4-.7,10.91,10.91,0,0,0,2.9-2.3c2.9-3.3,4-5.9,4.3-8s-2.7-7.3-2.7-7.3l-1.6-1a6.33,6.33,0,0,1,1.3,5.3c-.5,2.9-2,7.6-8.2,10.8A8.18,8.18,0,0,1,125.33,100.1Z"
                    style="fill:#455a64" />
                <path
                    d="M133.13,110.2l-14.7-5.1v3.4l13.2,4.5a6.27,6.27,0,0,0,5-.4c2.3-1.2,5.4-3.2,6.8-5.9,2.4-4.6,3.2-4.4,3.3-7.4s-2.5-7.7-2.5-7.7a24.73,24.73,0,0,1-.8,6A17.73,17.73,0,0,1,133.13,110.2Z"
                    style="fill:#455a64" />
                <path
                    d="M120,114.7c0,.3,9,5.3,14.1,4.9s9.6-3.9,11.7-6.6,2.3-9.1,2.3-9.1l-1.4-3.2.1-.9s2.6.3,3.2,5,0,9.1-3.9,12.7-8.5,6.7-12.3,6.6-14.9-6-15.1-6.2C118,116.8,117.83,112.7,120,114.7Z"
                    style="fill:#455a64" />
                <path
                    d="M118.13,120.8s8.5,8.5,14.7,8.1,8.2-.7,11.2-3l.4-.3a13.35,13.35,0,0,0,4.6-11.1l-.3-4.7.5-3.3a53.56,53.56,0,0,1,1.6,8.9c.2,4,.6,7.5-2.8,11.9s-14.1,6-17.6,4.8c0,0-8.9-2.5-12.9-7.8Z"
                    style="fill:#455a64" />
                <path
                    d="M114.53,127.9c-.6-1.4,10.4,10.7,18,13s10.5.1,13.6-2.4,3.2-4.9,4.2-6.8,0-11,0-11l-.8,3a14.11,14.11,0,0,1-.8,6.1c-1.2,3.5-5.1,6.4-10.7,6.6s-17.5-6.6-19.5-10.6l-1.5-1.5Z"
                    style="fill:#455a64" />
                <path
                    d="M124.13,140c.1.6,9.2,17.7,15.3,17.6s7.1-3.4,9.4-7.3,1.6-18.6,1.6-18.6l-1.6.8s1.1,13.6-1.8,17.7-5.1,7.6-10.3,3.3-10.4-17.3-10.4-17.3l-5.1-3Z"
                    style="fill:#455a64" />
                <path d="M125.73,140.4c.3.1,8.4,7.4,14.5,5.7s9.5-9.8,9.5-9.8l.5,4.6s-5.1,7.3-9.9,7.7-12.2-3.3-12.2-3.3Z"
                    style="fill:#455a64" />
                <path d="M130.13,148.6s7.9,4.6,12.2,2.3,7.5-7.7,7.5-7.4-.5,3.3-.5,3.3-5.1,11.1-15,5.9Z"
                    style="fill:#455a64" />
                <polygon points="121.83 132 120.03 137.5 113.83 139.3 113.73 133.3 116.13 127.7 121.83 132"
                    style="fill:#455a64" />
                <path
                    d="M135.73,218s3.4-.5,5.2,6.4,3.2,21.5,3.2,21.5-4.3,56.8-6.3,60.2-9,5.5-7.5,10.2a18.92,18.92,0,0,0,3.4,6.8l15.6-2.9s2.9-5.2,1.4-7.7-2.3-2.5-2.5-6.1,2.9-61.2,2.9-61.2l1.8-17.7s4.5-5.9,3.2-9.5-6.3-6.4-6.3-6.4l-4.2,2.7-3-4.6h-6.9l-4.2,4.9Z"
                    style="fill:#455a64" />
                <path
                    d="M150.63,326.7s1.3-3-.9-3.6-17,1.6-17,1.6a8.32,8.32,0,0,0,0,5.4c.9,3,4.3,8.8,4.3,8.8l-.2,72s-5.2,4.8-3.4,10.4c0,0,.5-2.9,6.3-1.4a39.4,39.4,0,0,1,8.2,2.7v-4.4l1.6-81.8s2-3.8,2-6.6S150.63,326.7,150.63,326.7Zm-4.7,87.3s-2,0-4.1-3.2,2.5-61.4,2.3-68,1.8-8.2,1.8-9Z"
                    style="fill:#455a64" />
                <path
                    d="M135.73,423.1a5.08,5.08,0,0,0-2.2,4.2,16.22,16.22,0,0,0,.8,4.9,13.48,13.48,0,0,1,.6,4.9c-.1,1.2-.6,2.4-.7,3.7a7.28,7.28,0,0,0,3,6.5c.9.6,2.2,1,3,.3s.8-2,.6-3.2c-.7-4.6-1.5-9.2-2.2-13.7,1.4.8,1.6,2.7,1.8,4.4a25.62,25.62,0,0,0,4.8,12.4,1.85,1.85,0,0,0,.8.7c.7.2,1.3-.6,1.3-1.3a4.06,4.06,0,0,0-.8-1.9,12.8,12.8,0,0,1-1.7-4.6c-.1-.4-.1-.9.3-1.1.5-.4,1.2.4,1.4,1,.9,2,1.7,4,2.6,6a2.1,2.1,0,0,0,.8,1.1.83.83,0,0,0,1.2-.2h0a1.39,1.39,0,0,0,0-.9c-.6-1.9-1.2-3.9-1.8-5.8l3.6,5a.78.78,0,0,0,.4.4c.4.2.9-.2.9-.7a2.45,2.45,0,0,0-.4-1.2c-1.3-2-3-3.9-2.8-6.3l4,5.5c.3.4.6.8,1,.7a.87.87,0,0,0,.6-.9,2.1,2.1,0,0,0-.4-1.1L147,426.4a11.26,11.26,0,0,0-3-3.8,6.46,6.46,0,0,0-7.8.3"
                    style="fill:#455a64" />
                <path
                    d="M172.73,159c.3.4,6.5,10.7,7.8,16.8s5,23.1,5,23.1,2.6,16.3,4.1,17.3a3.52,3.52,0,0,0,3.7,0c.4-.3-.5-3.6-.5-3.6s-2.2-1.2-3.1-6.8-5.7-29.9-5.7-29.9,5.1,13.1,6.8,19.6,3.1,15.9,3.1,15.9-.9,4.7,1.1,6,5.7.1,6-.9a36.84,36.84,0,0,0,0-4.7s-2.9-4-3-5-2.4-22.5-7.1-29.5a41.37,41.37,0,0,1-6.5-14.7c-.1-1.1-2-7.9-2-8.3a13.5,13.5,0,0,0-1.7-2.5s-6.9.2-7.8,2.3A13.57,13.57,0,0,0,172.73,159Z"
                    style="fill:#455a64" />
                <path
                    d="M154.13,90c-.9,2.7-.1,4.8,2.5,6a1.79,1.79,0,0,1,1,.9c.4,1.6,7.5,33.6,9.4,38.8s3.1,8.4,2.6,13.3-2.8,6.4-.9,7.8a5.89,5.89,0,0,0,3.9,1s1-5,3.6-5c.8,0,.9-.4,1.9-.6a3,3,0,0,0,2.6-3.5c-.1-.4-.2-.7-.3-1-1.1-1.9-2.5-4.4-3.7-6.5-2.5-4.6-5.6-7.4-6.5-12.1s-4.6-24.6-4.9-27.7,1.3-11.8-.3-14.3-3.4-2.5-3.4-2.5-4.8-1.1-6.6,4.3C155.13,89,154.13,90,154.13,90Z"
                    style="fill:#455a64" />
                <path
                    d="M154.13,90a2.18,2.18,0,0,1,.4-.5,2.65,2.65,0,0,1,.5-.6c.2-.2.2-.7.4-1.1a5.63,5.63,0,0,1,6.3-3.4h0a4.35,4.35,0,0,1,2.5,1.3,5.8,5.8,0,0,1,1,1.2c.1.2.3.5.4.7a2.35,2.35,0,0,1,.2.8,32.77,32.77,0,0,1,.1,7c-.1,2.5-.6,5.2.1,8,.5,2.8,1,5.8,1.5,8.9s1.2,6.4,1.8,9.8c.3,1.7.6,3.4,1,5.1.2.9.3,1.8.5,2.6a10.64,10.64,0,0,0,.9,2.5,33.08,33.08,0,0,0,2.9,4.7,49.43,49.43,0,0,1,3,4.9c.9,1.7,1.9,3.4,2.9,5.1a3.51,3.51,0,0,1,.6,1.4,4.3,4.3,0,0,1,0,1.6,3.45,3.45,0,0,1-2.1,2.3c-.2.1-.4.1-.6.2a4.33,4.33,0,0,0-.5.1,4.87,4.87,0,0,1-1.1.4l-.6.1c-.2,0-.3.1-.5.1a5.55,5.55,0,0,0-.8.6,9.9,9.9,0,0,0-1.8,3.9v.2h-.2a5.89,5.89,0,0,1-3.9-1,2.7,2.7,0,0,1-.8-.7,1.39,1.39,0,0,1-.2-1.1,7,7,0,0,1,.6-1.9,24.18,24.18,0,0,0,1-3.6,22.34,22.34,0,0,0,.2-3.7,27.29,27.29,0,0,0-1.5-7l-1.2-3.3c-.4-1.1-.7-2.2-1-3.3-2.3-8.7-4-16.5-5.5-23-.7-3.3-1.4-6.2-2-8.8-.3-1.3-.5-2.5-.8-3.6-.1-.5-.6-.8-1-1a5.67,5.67,0,0,1-1.3-.8,3.93,3.93,0,0,1-1.4-2.1,3.67,3.67,0,0,1-.1-1.8,5.73,5.73,0,0,1,.4-1.4,5.88,5.88,0,0,0-.3,1.4,5.46,5.46,0,0,0,.1,1.8,3.9,3.9,0,0,0,1.3,2c.4.3.8.5,1.2.8a2,2,0,0,1,1.2,1.2c.3,1.1.5,2.3.9,3.6.6,2.6,1.3,5.5,2,8.8,1.5,6.5,3.3,14.3,5.6,23a29.92,29.92,0,0,0,1,3.2c.4,1,.8,2.2,1.2,3.3a25.18,25.18,0,0,1,1.6,7.1,16.17,16.17,0,0,1-.2,3.8,15.57,15.57,0,0,1-1,3.7,12.09,12.09,0,0,0-.5,1.8,2.2,2.2,0,0,0,.1.8l.6.6a5.59,5.59,0,0,0,3.5.9l-.2.2a9.45,9.45,0,0,1,1.9-4.2,3.92,3.92,0,0,1,1-.8c.2-.1.4-.1.6-.2l.6-.1a3,3,0,0,0,1-.4,1.27,1.27,0,0,1,.6-.1,4.33,4.33,0,0,0,.5-.1,2.67,2.67,0,0,0,1.8-3.2,3.1,3.1,0,0,0-.6-1.3l-2.9-5.1a38.8,38.8,0,0,0-3-4.8,38.8,38.8,0,0,1-3-4.8,20,20,0,0,1-1-2.6c-.2-.9-.4-1.8-.5-2.6-.3-1.7-.6-3.5-1-5.2-.6-3.4-1.2-6.6-1.8-9.8s-1.1-6.1-1.5-8.9l-.3-2.1V99.4q.15-2.1.3-3.9a26.56,26.56,0,0,0,0-6.9,4.45,4.45,0,0,0-1.4-2.5,3.47,3.47,0,0,0-2.3-1.2h0a5.41,5.41,0,0,0-4.1.8,5.2,5.2,0,0,0-2,2.4,6.89,6.89,0,0,0-.4,1,2.65,2.65,0,0,0-.5.6Z"
                    style="fill:#263238" />
                <path
                    d="M206.13,217.9l-3.6-1.9s-5.7-5.7-11.9.2c0,0-2.1,4.3-.5,6.4s1.2,3.4,4.1,2.7,6.3-3,7.1-3.2,2.6-1,3-1.1,2.4-.1,2.4-.5A26.09,26.09,0,0,0,206.13,217.9Z"
                    style="fill:#455a64" />
                <path
                    d="M190.53,223.3s1.5,28.8,2.5,29.6,1.2.3,1.4-1.2a36.88,36.88,0,0,0-.1-4.7c0-1.4.1-8.2.1-9.9s-1.5-7.9-1.4-9.5-.2-3.4,0-3.7S190.53,223.3,190.53,223.3Z"
                    style="fill:#455a64" />
                <path
                    d="M194.73,225.2c-.1,0,4.3,24.7,4.3,24.7s1.7,9,3.1,8.3c1.7-.8,1-3.2.1-8.1a65.58,65.58,0,0,1-1.1-8.9c.1-2.2-2.4-8.7-3.2-12.9s-1.1-5.5-1.1-5.5Z"
                    style="fill:#455a64" />
                <path d="M198.13,222.9s5.3,17.6,7.8,22.1,4.2,11.2,5.5,10.7,1.2-2.6,0-4.6-5.7-13.7-6.7-16-5.7-14-5.7-14Z"
                    style="fill:#455a64" />
                <path
                    d="M200.23,221c.2.6,7.5,12.9,10.3,17.5s7.1,14.4,8.6,13.3,0-4,0-4-16.6-27-16.7-27.3S200.23,221,200.23,221Z"
                    style="fill:#455a64" />
                <path
                    d="M203.83,220.1c.4.9,9.4,5.1,10.3,6.8s7.7,9.4,8.4,9.7,1.5-.7,0-3.1-5-8.9-7.4-10.6-10.1-5-10.1-5l-.5,2.2"
                    style="fill:#455a64" />
                <path
                    d="M113.73,24.6c.5.8,2.5,1.2,3.3,1.3a5.82,5.82,0,0,0,2.6-.3,4,4,0,0,0,1.8-1,2.42,2.42,0,0,0,.6-2,1.23,1.23,0,0,0,.2-1,1.71,1.71,0,0,0,2.1-.9,1,1,0,0,0,1.3.5,1.34,1.34,0,0,0,.8-1.3,1.81,1.81,0,0,0,1.1-2.4c0-.1-.1-.2-.1-.3a2,2,0,0,0-.4-2.1,1.17,1.17,0,0,0-.3-1.7h0A1.08,1.08,0,0,0,126,12c-.1,0-.2,0-.2-.1a1.63,1.63,0,0,0-.3-1.5.93.93,0,0,0-1.3-.1,3.79,3.79,0,0,0-3.8-3.3,3.57,3.57,0,0,0-4-.8c-1.6-1.2-2.4-.5-2.4-.5"
                    style="fill:#285ffa" />
                <g style="opacity:0.30000001192092896">
                    <path
                        d="M113.73,24.6c.5.8,2.5,1.2,3.3,1.3a5.82,5.82,0,0,0,2.6-.3,4,4,0,0,0,1.8-1,2.42,2.42,0,0,0,.6-2,1.23,1.23,0,0,0,.2-1,1.71,1.71,0,0,0,2.1-.9,1,1,0,0,0,1.3.5,1.34,1.34,0,0,0,.8-1.3,1.81,1.81,0,0,0,1.1-2.4c0-.1-.1-.2-.1-.3a2,2,0,0,0-.4-2.1,1.17,1.17,0,0,0-.3-1.7h0A1.08,1.08,0,0,0,126,12c-.1,0-.2,0-.2-.1a1.63,1.63,0,0,0-.3-1.5.93.93,0,0,0-1.3-.1,3.79,3.79,0,0,0-3.8-3.3,3.57,3.57,0,0,0-4-.8,2.35,2.35,0,0,0-2.4-.5"
                        style="fill:#fff" />
                </g>
                <path
                    d="M117.53,22a1.09,1.09,0,0,1-1.2.4,1.22,1.22,0,0,1-.9-.8,2.07,2.07,0,0,0,1,.6A1.54,1.54,0,0,0,117.53,22Z"
                    style="fill:#263238" />
                <path
                    d="M113.73,18.7c.1-.1.2-.3.4-.3a2.84,2.84,0,0,1,1.3-.4,3.75,3.75,0,0,1,1,.1,1.8,1.8,0,0,1,.9.6,7.49,7.49,0,0,1,1.5,2,2.36,2.36,0,0,1-.5,3.2l-.1-.2a1.08,1.08,0,0,1,1.1.6,1,1,0,0,1,.1.9,1.16,1.16,0,0,1-.5.7,1.61,1.61,0,0,0,.4-.7,1.06,1.06,0,0,0-.1-.8,1.05,1.05,0,0,0-.9-.5l-.5.1.4-.3a2.29,2.29,0,0,0,.4-2.9c-.9-1.4-2-2.7-3.2-2.6A2.16,2.16,0,0,0,113.73,18.7Z"
                    style="fill:#263238" />
                <path
                    d="M122.13,21.7s-.1-.4-.3-1a4.47,4.47,0,0,0-1.6-2,3.12,3.12,0,0,0-2.5-.5c-.4.1-.7.2-1,.3a1.24,1.24,0,0,1,.3-.2,6.89,6.89,0,0,1,.8-.3,3.36,3.36,0,0,1,2.6.5,4,4,0,0,1,1.6,2.2c.1.3.1.5.2.8A.31.31,0,0,0,122.13,21.7Z"
                    style="fill:#263238" />
                <path d="M122.13,22.5c.1,0-.3.5-.9.8a1.67,1.67,0,0,1-1.2.1c0-.1.5,0,1.1-.3A2.66,2.66,0,0,0,122.13,22.5Z"
                    style="fill:#263238" />
                <path
                    d="M120.73,21.5a.36.36,0,0,1-.2.3,1.13,1.13,0,0,1-.8-.1,1.27,1.27,0,0,1-.9-.7,3.86,3.86,0,0,0,1,.5,1.7,1.7,0,0,0,.7.1C120.73,21.7,120.73,21.5,120.73,21.5Z"
                    style="fill:#263238" />
                <path
                    d="M127.43,17.5a1.9,1.9,0,0,0-1.1.7l-.1.1v-.1a1.1,1.1,0,0,0-1-.6,1.44,1.44,0,0,0-1.1.9l-.2.3v-.3a1.85,1.85,0,0,0-.5-1.2,1.3,1.3,0,0,0-1.3-.5.91.91,0,0,0-.7.3l-.1.1V17a1.91,1.91,0,0,0-1.6-1.5,1.48,1.48,0,0,0-1.6.7,1.72,1.72,0,0,0-.2,1.2.52.52,0,0,0,.2.4c-.1-.1-.2-.3-.3-.4a2,2,0,0,1,.1-1.3,1.84,1.84,0,0,1,1.8-.8,3.7,3.7,0,0,1,1.1.5,1.43,1.43,0,0,1,.6,1.2l-.2-.1a1.14,1.14,0,0,1,.8-.3,1.54,1.54,0,0,1,1.4.6,2.11,2.11,0,0,1,.5,1.3h-.2a1.7,1.7,0,0,1,1.3-1,1.08,1.08,0,0,1,1.1.7H126A2.1,2.1,0,0,1,127.43,17.5Z"
                    style="fill:#263238" />
                <path
                    d="M122.43,21.2c.2-.1.3-.1.5-.2a3.59,3.59,0,0,0,.7-1,6.72,6.72,0,0,0,.5-1.7,3.92,3.92,0,0,1-.4,1.8,2.1,2.1,0,0,1-.8,1.1Z"
                    style="fill:#263238" />
                <path d="M113.73,16.7a.75.75,0,0,1,.8-.1.79.79,0,0,1,.5.7,2,2,0,0,0-.5-.5A1.26,1.26,0,0,0,113.73,16.7Z"
                    style="fill:#263238" />
                <path d="M115.23,14c-.1,0-.2-.4-.6-.8l-.7-.7a3,3,0,0,1,.9.6A1.27,1.27,0,0,1,115.23,14Z"
                    style="fill:#263238" />
                <path
                    d="M113.73,10.6a.37.37,0,0,1,.1-.3c.1-.2.5-.2.9-.1l-.1.1a1.28,1.28,0,0,1,0-1.2,1.44,1.44,0,0,1,1.2-.9,1.76,1.76,0,0,1,1.5.8,3.59,3.59,0,0,1,.7,1.8,1.34,1.34,0,0,1-.1.9.66.66,0,0,1-.7.2c-.1,0-.1-.1-.2-.2l.2-.1a1.4,1.4,0,0,1-.8,1.8v-.2a1.49,1.49,0,0,1,.7,1.5l-.1-.1a.78.78,0,0,1,.8.2,1,1,0,0,1,.4.5.9.9,0,0,1,.1.5c0-.2-.1-.3-.1-.5a1,1,0,0,0-1.1-.6H117v-.1a1.37,1.37,0,0,0-.6-1.3l-.2-.1.2-.1a1.2,1.2,0,0,0,.6-1.6l.2-.1a.28.28,0,0,0,.5,0,1.06,1.06,0,0,0,.1-.8,3.63,3.63,0,0,0-.7-1.7,1.75,1.75,0,0,0-1.4-.7,1.05,1.05,0,0,0-1,.8,1.7,1.7,0,0,0,0,1l.1.1h-.1c-.4-.1-.7-.1-.8,0C113.73,10.4,113.73,10.5,113.73,10.6Z"
                    style="fill:#263238" />
                <path
                    d="M115.33,9.6a.69.69,0,0,1,.5,0,1.42,1.42,0,0,1,.9.8A2.22,2.22,0,0,1,117,12a8.8,8.8,0,0,0-.5-1.5,2.7,2.7,0,0,0-.7-.8A1.75,1.75,0,0,0,115.33,9.6Z"
                    style="fill:#263238" />
                <path
                    d="M114.43,11.8a1.37,1.37,0,0,1,1.2.4,1.35,1.35,0,0,1,.5,1.2,3.59,3.59,0,0,0-.7-1A1.7,1.7,0,0,0,114.43,11.8Z"
                    style="fill:#263238" />
                <path d="M116.33,17.1a1.48,1.48,0,0,1-.2-1.3,1.37,1.37,0,0,1,.8-1,2.07,2.07,0,0,0-.6,1Z"
                    style="fill:#263238" />
                <path d="M119.43,18l-.2-.6c-.1-.3-.3-.5-.2-.6s.3.2.4.5S119.53,18,119.43,18Z" style="fill:#263238" />
                <path d="M122.43,18.6a.84.84,0,0,1-.4.6c-.4.3-.7.3-.7.2s.3-.2.5-.4A2.88,2.88,0,0,1,122.43,18.6Z"
                    style="fill:#263238" />
                <path
                    d="M122.23,16.7a5,5,0,0,0,.2-1.2,3,3,0,0,0-1.2-2.5h-.1v-.1a2.2,2.2,0,0,0-.2-1.4,1.26,1.26,0,0,0-1-.7h-.1v-.1a2,2,0,0,0-.5-1.5,1.66,1.66,0,0,0-1.2-.5,1.61,1.61,0,0,0-1.1.5,1.15,1.15,0,0,1,1.1-.6,1.54,1.54,0,0,1,1.3.5,2.27,2.27,0,0,1,.6,1.6l-.1-.1a1.55,1.55,0,0,1,1.1.8,2.06,2.06,0,0,1,.3,1.5v-.1a3,3,0,0,1,1.2,2.7A2.66,2.66,0,0,1,122.23,16.7Z"
                    style="fill:#263238" />
                <path d="M117.93,13.6a2.47,2.47,0,0,1,3.3-.7,3.34,3.34,0,0,0-1.7-.1A6,6,0,0,0,117.93,13.6Z"
                    style="fill:#263238" />
                <path d="M118.63,11.4a1.13,1.13,0,0,1,.4-.6,1,1,0,0,1,.7-.1l-.6.2A1.1,1.1,0,0,0,118.63,11.4Z"
                    style="fill:#263238" />
                <path
                    d="M126.53,13.5a.77.77,0,0,1-.3-.1,1.08,1.08,0,0,0-.8.2l-.1.1-.1-.1a2,2,0,0,0-1.1-1.1,2.15,2.15,0,0,0-1.9.2c-.2.2-.4.3-.6.5a1.79,1.79,0,0,1,.5-.7,2.07,2.07,0,0,1,3.2.9h0a1,1,0,0,1,.9-.2C126.53,13.4,126.53,13.5,126.53,13.5Z"
                    style="fill:#263238" />
                <path
                    d="M124.13,17.3a4.19,4.19,0,0,0,.4-1.6,4.71,4.71,0,0,0-.4-1.6,1.83,1.83,0,0,1,.6,1.5A2.2,2.2,0,0,1,124.13,17.3Z"
                    style="fill:#263238" />
                <path
                    d="M126.93,15.2a1.61,1.61,0,0,1-1.1.5,1.72,1.72,0,0,1-1.2-.2c0-.1.5.1,1.2,0A3.91,3.91,0,0,0,126.93,15.2Z"
                    style="fill:#263238" />
                <path
                    d="M121.13,11.7a1.61,1.61,0,0,0,.4-.7,2.25,2.25,0,0,0,0-1.8,1.59,1.59,0,0,0-1-.8h-.1V8.3a.78.78,0,0,0-.2-.8c-.1-.2-.3-.2-.3-.3s.2,0,.3.2a1,1,0,0,1,.3,1l-.1-.1a1.44,1.44,0,0,1,1.1.9,2.33,2.33,0,0,1,0,2C121.53,11.5,121.13,11.7,121.13,11.7Z"
                    style="fill:#263238" />
                <path d="M114.53,9.2a1.73,1.73,0,0,1-.4-.3.91.91,0,0,1-.3-.5c0-.1.2.1.4.3A5.2,5.2,0,0,1,114.53,9.2Z"
                    style="fill:#263238" />
                <path
                    d="M119,8.7a1.61,1.61,0,0,0-.3-.9,1.34,1.34,0,0,0-.7-.6,2.16,2.16,0,0,0-1.1-.1,3.58,3.58,0,0,0-1.1.4h-.1a3.81,3.81,0,0,0-1.7-.8h.6a2.39,2.39,0,0,1,1.3.7h-.1A5.64,5.64,0,0,1,117,7a2,2,0,0,1,1.3.1,1.78,1.78,0,0,1,.8.7C119,8.1,119.13,8.4,119,8.7Z"
                    style="fill:#263238" />
                <path
                    d="M122.83,10.8a1.73,1.73,0,0,1,1.6.7,2.09,2.09,0,0,1,.4.6h-.1a1.18,1.18,0,0,1,1-.1,1.61,1.61,0,0,0-.9.3l-.1.1v-.2c-.1-.2-.3-.4-.4-.6A7.14,7.14,0,0,0,122.83,10.8Z"
                    style="fill:#263238" />
                <path
                    d="M123.43,10.9c-.1,0-.2-.4-.5-.9a4.52,4.52,0,0,0-.6-.8,1.38,1.38,0,0,1,.7.7A1.28,1.28,0,0,1,123.43,10.9Z"
                    style="fill:#263238" />
                <path
                    d="M115.83,20.9a1.85,1.85,0,0,1-.7,1.2,1.68,1.68,0,0,1-1.3.4A6.12,6.12,0,0,0,115,22,7.63,7.63,0,0,0,115.83,20.9Z"
                    style="fill:#263238" />
                <path
                    d="M120.83,80.2a2.32,2.32,0,0,0-2.1,2.4,2.34,2.34,0,0,0,2.1,2.1h.2c3.7-.1,26.4-.8,33.6-1.1a3.06,3.06,0,0,0,2.9-3,1.7,1.7,0,0,0-.1-.7c-.5-1-2.7-1.4-3.7-1.2C152.93,78.9,129.13,79.9,120.83,80.2Z"
                    style="fill:#455a64" />
                <path
                    d="M120.83,80.2c.3,0,.6-.1.8-.1l2.4-.2,8.9-.4,13.2-.6,3.8-.2c1.3-.1,2.6-.1,3.9-.3a4.22,4.22,0,0,1,2.2.3,2.83,2.83,0,0,1,1.8,1.4,3.06,3.06,0,0,1-2.2,3.6,4.25,4.25,0,0,1-1.1.2h-1.1l-2.1.1-4.1.1-7.8.2-13.2.3-5.1.1a2.23,2.23,0,0,1-2.5-1.9v-.5a2,2,0,0,1,1.4-1.9,1.27,1.27,0,0,1,.6-.1l.2-.1a.35.35,0,0,1-.2.1,1.42,1.42,0,0,0-.6.2,2.09,2.09,0,0,0-1.2,1.8,2,2,0,0,0,.5,1.5,2,2,0,0,0,1.8.6l5.1-.2,13.2-.5,7.8-.3,4.1-.1,2.1-.1a6.48,6.48,0,0,0,2-.2,2.73,2.73,0,0,0,1.9-3,2.21,2.21,0,0,0-1.4-1.1,4.13,4.13,0,0,0-1.9-.2c-1.4.2-2.7.2-4,.3l-3.8.2-13.2.5-8.9.3h-2.4A1.49,1.49,0,0,1,120.83,80.2Z"
                    style="fill:#263238" />
                <path
                    d="M118.73,81.6a6.11,6.11,0,0,0,.3,1.3,2.34,2.34,0,0,0,1,1.2,3.73,3.73,0,0,0,2.1.3h.2v5h0c-.6,1.1-1.5,2.1-2.2,3.3a4.55,4.55,0,0,0-.8,1.9,16.35,16.35,0,0,0-.2,2.2c.1,3.1.2,6.5.3,10.1.1,3.9.2,7.7.3,11.1,0,1.7.2,3.3.1,4.9a8.33,8.33,0,0,1-.3,2.2,10.84,10.84,0,0,1-.8,1.9,24.33,24.33,0,0,1-1.9,2.9,10.08,10.08,0,0,0-1.2,2.3,7.8,7.8,0,0,0-.4,2.2v-.6a4.15,4.15,0,0,1,.3-1.6,25.57,25.57,0,0,1,1.1-2.4c.5-.9,1.2-1.8,1.8-3a7.92,7.92,0,0,0,1-4c.1-1.5-.1-3.1-.1-4.8-.1-3.4-.2-7.2-.4-11.1-.1-3.6-.2-6.9-.3-10.1a8.58,8.58,0,0,1,.2-2.3,7.22,7.22,0,0,1,.9-2c.8-1.2,1.7-2.2,2.3-3.3V84.5l.2.2a4.13,4.13,0,0,1-2.2-.4,3.48,3.48,0,0,1-1.3-2.7Z"
                    style="fill:#263238" />
                <path
                    d="M118.73,77.9a3.69,3.69,0,0,1-2.4,1,3.91,3.91,0,0,1-2.6-.4c0-.1,1.2.1,2.5-.1S118.63,77.7,118.73,77.9Z"
                    style="fill:#263238" />
                <path d="M119.13,73.4a4.64,4.64,0,0,1-5.1,1.2c0-.2,1.2,0,2.6-.3S118.93,73.3,119.13,73.4Z"
                    style="fill:#263238" />
                <path
                    d="M120.73,67.4c0,.1-.4.2-.9.6-.3.2-.5.5-.9.8a5.67,5.67,0,0,1-1.3.8,6.26,6.26,0,0,1-2.7.6,2.65,2.65,0,0,1-1.1-.2,11.21,11.21,0,0,0,3.6-.9,8.26,8.26,0,0,0,1.3-.7,3.59,3.59,0,0,1,1-.7C120.23,67.3,120.73,67.3,120.73,67.4Z"
                    style="fill:#263238" />
                <path
                    d="M120.93,62.2a3.23,3.23,0,0,1-.8.9,11.88,11.88,0,0,1-2.5,1.3,8.68,8.68,0,0,1-2.8.5c-.7,0-1.2-.2-1.1-.3s.5,0,1.1-.1a17.92,17.92,0,0,0,5.1-1.8Z"
                    style="fill:#263238" />
                <path
                    d="M172.33,143.8a3.77,3.77,0,0,1,.9,1.5,10,10,0,0,1,1.1,4.1,6.1,6.1,0,0,1-1.3,4.1c-.7.9-1.4,1.1-1.5,1s.5-.4,1.1-1.3a6.48,6.48,0,0,0,1.1-3.8,11.22,11.22,0,0,0-1-4C172.63,144.9,172.43,144.3,172.33,143.8Z"
                    style="fill:#263238" />
                <path
                    d="M183.73,179.1a17.13,17.13,0,0,0,.1-3.2,20.41,20.41,0,0,0-2.5-7.3,21.8,21.8,0,0,1-2.6-7.4,9.64,9.64,0,0,1,0-2.4,2.92,2.92,0,0,1,.2-.9,17.2,17.2,0,0,0,.2,3.2,32.06,32.06,0,0,0,2.7,7.3,20,20,0,0,1,2.4,7.5,6.52,6.52,0,0,1-.2,2.4C183.93,178.6,183.83,178.8,183.73,179.1Z"
                    style="fill:#263238" />
                <path
                    d="M202.83,217.4a7.69,7.69,0,0,0-1.8-1.8,5.51,5.51,0,0,0-2.5-1,4.29,4.29,0,0,0-1.6,0,2,2,0,0,0-1.3.9.37.37,0,0,0-.1.3l-.1.3-.3-.1a4.42,4.42,0,0,0-3,.1,3.75,3.75,0,0,0-1.9,1.6,9,9,0,0,0-.8,2.3,1.73,1.73,0,0,1-.1-.7,4.34,4.34,0,0,1,2.5-3.7,4.46,4.46,0,0,1,3.4-.1l-.3.2c0-.2.1-.3.2-.5a2.27,2.27,0,0,1,1.6-1.1,5.44,5.44,0,0,1,1.8,0,5.68,5.68,0,0,1,2.6,1.2,6.39,6.39,0,0,1,1.3,1.5C202.83,217.1,202.93,217.4,202.83,217.4Z"
                    style="fill:#263238" />
                <path
                    d="M204.73,220a4.85,4.85,0,0,1-1,.9,5.42,5.42,0,0,1-3.3.8l.3-.2a2.48,2.48,0,0,1-2,2.5,2.62,2.62,0,0,1-2.1-.4l.4-.1a4.1,4.1,0,0,1-3.7,1.8,2,2,0,0,1-1.5-.6,7.77,7.77,0,0,0,1.6.2,4.13,4.13,0,0,0,3.3-1.8l.1-.2.2.1a2.49,2.49,0,0,0,1.7.3,2.13,2.13,0,0,0,1.6-2V221h.3a5.58,5.58,0,0,0,3.1-.6C204.33,220.3,204.63,219.9,204.73,220Z"
                    style="fill:#263238" />
                <path
                    d="M146.73,228.8c-.2,0,.3-3.3,0-7.3s-1.3-7.2-1.1-7.3a7.42,7.42,0,0,1,.7,2.1,29.75,29.75,0,0,1,.9,5.2,23.6,23.6,0,0,1-.1,5.3A5.09,5.09,0,0,1,146.73,228.8Z"
                    style="fill:#263238" />
                <path
                    d="M141.23,321a5,5,0,0,0,1.2.2,3.61,3.61,0,0,0,2.8-1.5,8.45,8.45,0,0,0,1.3-4.6,3.53,3.53,0,0,0-.8-2.6,3.78,3.78,0,0,0-2.7-1.2,7.89,7.89,0,0,0-3,.5,4.42,4.42,0,0,0-2.3,1.5,3.41,3.41,0,0,0-.5,2.4,7.94,7.94,0,0,0,.6,2.2,8.6,8.6,0,0,0,2,2.6c.6.5,1,.7,1,.8a2.38,2.38,0,0,1-1.1-.6,7.84,7.84,0,0,1-2.2-2.6,9,9,0,0,1-.8-2.3,4,4,0,0,1,.5-2.8,4.89,4.89,0,0,1,2.5-1.7,7,7,0,0,1,3.2-.5,4.94,4.94,0,0,1,3,1.4,4.12,4.12,0,0,1,.9,3,8.81,8.81,0,0,1-1.5,4.9,3.75,3.75,0,0,1-3.1,1.5,2.92,2.92,0,0,1-.9-.2C141.43,321.1,141.33,321.1,141.23,321Z"
                    style="fill:#263238" />
                <path
                    d="M150.63,326.7a9.06,9.06,0,0,1-1.1,1.6,32.82,32.82,0,0,0-2.7,3.8c-1.8,3.1-2.2,6.2-2.4,6.1a6.8,6.8,0,0,1,.2-2,13,13,0,0,1,1.7-4.4,26.61,26.61,0,0,1,2.8-3.8A17.38,17.38,0,0,1,150.63,326.7Z"
                    style="fill:#263238" />
                <path
                    d="M144.13,420.7a2.37,2.37,0,0,0,1.1-1.3c.3-1-.3-2.5-1-4.1s-1.5-2.9-2-3.9a4.78,4.78,0,0,1-.6-1.8,8.64,8.64,0,0,1,1,1.6,33,33,0,0,1,2.1,3.9,9.17,9.17,0,0,1,.9,2.3,3.75,3.75,0,0,1,0,2.1,2,2,0,0,1-.9,1.1A4.55,4.55,0,0,1,144.13,420.7Z"
                    style="fill:#263238" />
                <path
                    d="M125.93,35.8c-.1.1-.3.2-.4.3a3.26,3.26,0,0,1-1.4.4,4.88,4.88,0,0,1-5.9-3.8,9.7,9.7,0,0,1-.1-1.7,3.71,3.71,0,0,1,.4-1.4c.1-.2.2-.3.3-.5a12.09,12.09,0,0,0-.5,1.8,5,5,0,0,0,4.5,5.4h1.3A3.74,3.74,0,0,0,125.93,35.8Z"
                    style="fill:#263238" />
                <path
                    d="M117.43,34.8a.76.76,0,0,1,.2.4c.2.4.4.7.6,1.1s.6,1.1.9,1.7a3.06,3.06,0,0,1,.1,2.3,2.05,2.05,0,0,1-1.9,1.3,2.79,2.79,0,0,1-1.8-.6,3.92,3.92,0,0,1-.8-1c-.1-.1-.1-.3-.2-.4a6.89,6.89,0,0,0,1.1,1.3,2.16,2.16,0,0,0,1.7.5,1.84,1.84,0,0,0,1.7-1.2,2.81,2.81,0,0,0-.1-2.2,13,13,0,0,0-.8-1.7l-.6-1.2C117.43,35.2,117.43,35,117.43,34.8Z"
                    style="fill:#263238" />
            </g>
        </g>
    </g>
</svg>