<svg xmlns="http://www.w3.org/2000/svg" viewBox="0 0 261.2 348.3">
    <title>Medical prescription</title>
    <g id="Layer_2" data-name="Layer 2">
        <g id="Layer_1-2" data-name="Layer 1">
            <g id="freepik--Clipboard--inject-6">
                <path
                    d="M10.1,3.4h241a10.07,10.07,0,0,1,10.1,10.1V338.2a10.07,10.07,0,0,1-10.1,10.1H10.1A10.07,10.07,0,0,1,0,338.2V13.5A10.07,10.07,0,0,1,10.1,3.4Z"
                    style="fill:#455a64" />
                <rect x="17.5" y="19.7" width="226.2" height="305" style="fill:#fff" />
                <path
                    d="M243.7,324.6c0-2.1-.1-124.4-.2-305l.2.2H17.5l.3-.3v305l-.2-.2,226.1.3-226.1.2h-.2v-.2c0-85.8,0-191.2-.1-305v-.3H244v.2C243.8,200.2,243.7,322.5,243.7,324.6Z"
                    style="fill:#263238" />
                <path
                    d="M65.1,70.8l-5.3-7.9H54v7.9H47.7V42.4H59.5a13.72,13.72,0,0,1,6.3,1.3,10,10,0,0,1,4.1,3.5,9.83,9.83,0,0,1,1.4,5.5,9.72,9.72,0,0,1-1.5,5.5,8.72,8.72,0,0,1-4.1,3.5l6.1,9.2H65.1ZM63.5,49a6.64,6.64,0,0,0-4.3-1.3H54v9.9h5.2a6.47,6.47,0,0,0,4.3-1.3A5.19,5.19,0,0,0,63.5,49Z"
                    style="fill:#285ffa" />
                <path d="M79,90.5l-6.3-9.3-6.1,9.4H59.7l9.6-13.7L60.2,63.6H67l6,8.7,5.8-8.8h6.5l-9,13L86,90.4Z"
                    style="fill:#285ffa" />
                <rect x="126.3" y="49.2" width="38.8" height="9.6" style="fill:#e0e0e0" />
                <path d="M222.1,55.3c0,.2-10.6.3-23.7.3s-23.7-.1-23.7-.3,10.6-.3,23.7-.3S222.1,55.1,222.1,55.3Z"
                    style="fill:#263238" />
                <path d="M221.2,66.8c0,.1-21.2.3-47.4.3s-47.4-.1-47.4-.3,21.2-.3,47.4-.3S221.2,66.6,221.2,66.8Z"
                    style="fill:#263238" />
                <path d="M221.2,78.1c0,.1-21.2.3-47.4.3s-47.4-.1-47.4-.3,21.2-.3,47.4-.3S221.2,77.9,221.2,78.1Z"
                    style="fill:#263238" />
                <path d="M236,108.2c0,.1-47.2.3-105.4.3s-105.4-.1-105.4-.3,47.2-.3,105.4-.3S236,108,236,108.2Z"
                    style="fill:#263238" />
                <path d="M236,278.7c0,.1-47.2.3-105.4.3s-105.4-.1-105.4-.3,47.2-.3,105.4-.3S236,278.5,236,278.7Z"
                    style="fill:#263238" />
                <rect x="42.6" y="125.4" width="65" height="12.2" style="fill:#e0e0e0" />
                <rect x="42.6" y="296.1" width="28.1" height="12.2" style="fill:#e0e0e0" />
                <rect x="137.1" y="296.1" width="28.1" height="12.2" style="fill:#e0e0e0" />
                <path d="M117.9,304.5c0,.1-8.8.3-19.6.3s-19.6-.1-19.6-.3,8.8-.3,19.6-.3S117.9,304.4,117.9,304.5Z"
                    style="fill:#263238" />
                <path d="M219,304.5c0,.1-8.8.3-19.6.3s-19.6-.1-19.6-.3,8.8-.3,19.6-.3S219,304.4,219,304.5Z"
                    style="fill:#263238" />
                <path d="M216.7,156c0,.1-38.5.3-86,.3s-86-.1-86-.3,38.5-.3,86-.3S216.7,155.8,216.7,156Z"
                    style="fill:#263238" />
                <path d="M220,169.9c0,.1-39.3.3-87.7.3s-87.7-.1-87.7-.3,39.3-.3,87.7-.3S220,169.8,220,169.9Z"
                    style="fill:#263238" />
                <path d="M129.6,183.8c0,.1-19.5.3-43.5.3s-43.5-.1-43.5-.3,19.5-.3,43.5-.3S129.6,183.7,129.6,183.8Z"
                    style="fill:#263238" />
                <path
                    d="M218.7,234.3a3.22,3.22,0,0,1-.6.2l-1.7.5a50.27,50.27,0,0,1-6.7,1.6,40.68,40.68,0,0,1-4.9.5,23.24,23.24,0,0,1-5.9-.7,15,15,0,0,1-5.9-3.3,11.66,11.66,0,0,1-3.6-6.7,8.18,8.18,0,0,1,.5-4.1,7.54,7.54,0,0,1,2.8-3.3,5.76,5.76,0,0,1,4.4-.9,5.12,5.12,0,0,1,2.1,1,5.75,5.75,0,0,1,1.5,1.9,11.16,11.16,0,0,1,1.1,4.7,13.72,13.72,0,0,1-.9,4.9,20.12,20.12,0,0,1-6.2,8.2,20.67,20.67,0,0,1-10,4.2,17.49,17.49,0,0,1-5.6-.1,28.64,28.64,0,0,1-2.8-.7,16,16,0,0,1-2.7-1.2,17.79,17.79,0,0,1-4.5-3.7,13.35,13.35,0,0,1-2.7-5.3,8.94,8.94,0,0,1,.7-6,8.58,8.58,0,0,1,4.4-4.2,6.55,6.55,0,0,1,3.1-.5,6.06,6.06,0,0,1,2.9,1.1,9.51,9.51,0,0,1,3.2,5.1,14.71,14.71,0,0,1,.3,5.9,22.45,22.45,0,0,1-1.3,5.7,21.46,21.46,0,0,1-6.3,9.4,17.47,17.47,0,0,1-10,4.1A14.48,14.48,0,0,1,148,242a13.88,13.88,0,0,1,.3-9,6.81,6.81,0,0,1,2.6-3.4,5,5,0,0,1,2-.8,3.19,3.19,0,0,1,2.1.4,4.38,4.38,0,0,1,2,3.4,11.5,11.5,0,0,1-.1,3.7,30.48,30.48,0,0,1-2,6.5,26.24,26.24,0,0,1-3,5.1,29.07,29.07,0,0,1-3.3,3.7,23.51,23.51,0,0,1-5.6,3.9c-.5.3-1.1.5-1.6.8l-.6.2.5-.3c.4-.2.9-.4,1.6-.8a24.22,24.22,0,0,0,5.5-4,27.62,27.62,0,0,0,8.2-15.1,10.89,10.89,0,0,0,.1-3.6,4.17,4.17,0,0,0-1.8-3.1,2.89,2.89,0,0,0-1.8-.3,4.17,4.17,0,0,0-1.8.8,7.47,7.47,0,0,0-2.5,3.3,13,13,0,0,0-.3,8.7,14.12,14.12,0,0,0,14.9,10.3,17.15,17.15,0,0,0,9.7-4,21.29,21.29,0,0,0,6.1-9.2,26.8,26.8,0,0,0,1.3-5.6,18.88,18.88,0,0,0-.3-5.8,8.44,8.44,0,0,0-3-4.8,5.44,5.44,0,0,0-5.5-.5,8.59,8.59,0,0,0-4.2,4,8.32,8.32,0,0,0-.7,5.6,13.74,13.74,0,0,0,6.9,8.7,20.29,20.29,0,0,0,2.6,1.1,17.45,17.45,0,0,0,8.2.7,19.09,19.09,0,0,0,5.2-1.4,18.55,18.55,0,0,0,4.5-2.7,19.28,19.28,0,0,0,6.1-8,12.67,12.67,0,0,0,.9-4.7,9.88,9.88,0,0,0-1-4.5,5.79,5.79,0,0,0-1.4-1.7,4.72,4.72,0,0,0-2-1,5.06,5.06,0,0,0-4.1.9,7,7,0,0,0-2.6,3.1,7.42,7.42,0,0,0-.5,3.9A11.43,11.43,0,0,0,193,233a15.92,15.92,0,0,0,5.8,3.3,22.55,22.55,0,0,0,5.8.8,40.45,40.45,0,0,0,4.9-.4c2.3-.4,4.5-.9,6.7-1.5l1.7-.5Z"
                    style="fill:#263238" />
                <rect x="92.9" y="0.4" width="75.5" height="28.9" style="fill:#e0e0e0" />
                <path
                    d="M168.3,29.3V21.6c0-5-.1-12.2-.1-21.1l.2.2L92.9.8h0l.3-.3V29.4l-.3-.3,54,.1,15.7.1h5.7a.37.37,0,0,0-.3-.1h-5.2l-15.7.1-54.2.1h-.3V.3l.3-.3h0l75.5.1h.2V.3c0,9-.1,16.2-.1,21.2v7.2A.88.88,0,0,1,168.3,29.3Z"
                    style="fill:#263238" />
            </g>
        </g>
    </g>
</svg>