<svg viewBox="0 0 500 500" xmlns="http://www.w3.org/2000/svg"><g fill="none" opacity=".3" stroke="#000" stroke-linecap="round" stroke-linejoin="round"><path d="m123.88 177.63h-75.07l.76-14.49h75.07z"/><path d="m123.88 197.92h-75.07l.76-14.49h75.07z"/><path d="m123.88 218.21h-75.07l.76-14.49h75.07z"/><path d="m123.88 238.5h-75.07l.76-14.49h75.07z"/><path d="m123.88 258.8h-75.07l.76-14.5h75.07z"/><path d="m123.88 279.09h-75.07l.76-14.5h75.07z"/><path d="m123.88 299.38h-75.07l.76-14.5h75.07z"/><path d="m123.88 319.67h-75.07l.76-14.5h75.07z"/><path d="m123.88 339.96h-75.07l.76-14.5h75.07z"/><path d="m123.88 360.25h-75.07l.76-14.5h75.07z"/><path d="m123.88 380.54h-75.07l.76-14.49h75.07z"/><path d="m203.26 177.63h-75.07l.76-14.49h75.07z"/><path d="m203.26 197.92h-75.07l.76-14.49h75.07z"/><path d="m203.26 218.21h-75.07l.76-14.49h75.07z"/><path d="m203.26 238.5h-75.07l.76-14.49h75.07z"/><path d="m203.26 258.8h-75.07l.76-14.5h75.07z"/><path d="m203.26 279.09h-75.07l.76-14.5h75.07z"/><path d="m203.26 299.38h-75.07l.76-14.5h75.07z"/><path d="m203.26 319.67h-75.07l.76-14.5h75.07z"/><path d="m203.26 339.96h-75.07l.76-14.5h75.07z"/><path d="m203.26 360.25h-75.07l.76-14.5h75.07z"/><path d="m203.26 380.54h-75.07l.76-14.49h75.07z"/></g><g fill="none" opacity=".3" stroke="#000" stroke-linecap="round" stroke-linejoin="round"><path d="m337.19 192.63h96.9v73.31h-96.9z"/><path d="m342.44 198.69h86.38v61.2h-86.38z"/><path d="m370.61 208.33h30.05"/><path d="m351.15 217.21h68.97"/><path d="m366.52 234.96h38.23"/><path d="m351.83 252.72h15.03"/><path d="m404.41 252.72h15.02"/></g><g fill="none" opacity=".3" stroke="#000" stroke-linecap="round" stroke-linejoin="round"><path d="m389.08 281.4h71.32v53.96h-71.32z"/><path d="m392.95 285.86h63.58v45.05h-63.58z"/><path d="m413.69 292.96h22.11"/><path d="m399.36 299.49h50.77"/><path d="m410.67 312.56h28.15"/><path d="m399.86 325.63h11.06"/><path d="m438.56 325.63h11.06"/></g><path d="m377.78 319.36-103.53-3.6q-6.4-.22-12.8 0l-96.45 3.6 4.28-135.42q.24-7.69 0-15.4l-4.28-127.78h212.78z" fill="#263238" stroke="#263238" stroke-linecap="round" stroke-linejoin="round"/><path d="m168.42 35.98h212.78v278.6h-212.78z" fill="#fff" stroke="#263238" stroke-linecap="round" stroke-linejoin="round"/><path d="m182.56 111.91h184.49v186.76h-184.49z" fill="#fff" stroke="#263238" stroke-linecap="round" stroke-linejoin="round"/><path d="m184.29 84v-34.15h10a9.68 9.68 0 0 1 5 1.14 6.78 6.78 0 0 1 2.83 3.31 13.65 13.65 0 0 1 .9 5.25 11 11 0 0 1 -1.14 5.37 6.77 6.77 0 0 1 -3.18 3 11.56 11.56 0 0 1 -4.83.93h-3.37v15.15zm6.24-19.56h2.36a5.91 5.91 0 0 0 2.64-.49 2.54 2.54 0 0 0 1.3-1.56 9.39 9.39 0 0 0 .36-2.89 13.69 13.69 0 0 0 -.27-3 2.62 2.62 0 0 0 -1.18-1.71 5.75 5.75 0 0 0 -2.85-.55h-2.36z" fill="#285ffa"/><path d="m191.88 100.47 6.87-18.12-6.66-16h5.82l4.42 10.58 3.88-10.58h5.4l-6.61 17.18 7.08 16.94h-5.78l-4.85-11.47-4.22 11.46z" fill="#285ffa"/><path d="m287.57 60.38h78.87" fill="none" stroke="#263238" stroke-linecap="round" stroke-linejoin="round"/><path d="m287.57 77.4h78.87" fill="none" stroke="#263238" stroke-linecap="round" stroke-linejoin="round"/><path d="m304.6 70.03h61.84" fill="none" stroke="#263238" stroke-linecap="round" stroke-linejoin="round"/><path d="m304.6 85.35h61.84" fill="none" stroke="#263238" stroke-linecap="round" stroke-linejoin="round"/><path d="m188.84 132.44h61.85" fill="none" stroke="#263238" stroke-linecap="round" stroke-linejoin="round"/><path d="m188.84 148.59h61.85" fill="none" stroke="#263238" stroke-linecap="round" stroke-linejoin="round"/><path d="m188.84 140.79h93.63" fill="none" stroke="#263238" stroke-linecap="round" stroke-linejoin="round"/><path d="m188.84 168.27h61.85" fill="none" stroke="#263238" stroke-linecap="round" stroke-linejoin="round"/><path d="m188.84 184.42h61.85" fill="none" stroke="#263238" stroke-linecap="round" stroke-linejoin="round"/><path d="m188.84 176.62h93.63" fill="none" stroke="#263238" stroke-linecap="round" stroke-linejoin="round"/><path d="m187.52 288.6h58.63" fill="none" stroke="#263238" stroke-linecap="round" stroke-linejoin="round"/><path d="m298.7 288.6h58.63" fill="none" stroke="#263238" stroke-linecap="round" stroke-linejoin="round"/><path d="m195.79 224.23a21 21 0 1 0 29 6.51 21 21 0 0 0 -29-6.51zm20.15 31.77a16.59 16.59 0 1 1 5.13-22.9 16.59 16.59 0 0 1 -5.13 22.9z" fill="#285ffa"/><path d="m196.24 240.54h21.17v3.41h-21.17z" fill="#285ffa" transform="matrix(.8447018 -.53523721 .53523721 .8447018 -97.54 148.33)"/><g stroke-linecap="round" stroke-linejoin="round"><path d="m196.91 282s.29 6.66 9-5.22 7.54-11 5.22-4.34a58.76 58.76 0 0 1 -7 13s10.44-16.52 10.44-11.89-9.86 24.35-7.83 22.61 8.41-10.43 8.41-10.43-.87 5.79 1.44 3.18 4.93-7.82 4.64-4.92-4.06 6.37-.29 2.9 6.67-7.83 5.8-4.64-3.19 4.35-.87 3.19 15.36-22.9 11.3-20.29-11.59 25.21-8.11 23.47 7.53-10.43 7.24-6.08.87 4.35 2 2.9" fill="none" stroke="#263238"/><path d="m483.09 465.25h-456.54" fill="none" stroke="#263238"/><path d="m483.09 474.81h-456.54" fill="none" stroke="#263238"/><path d="m458.08 359.8h-96.8a6.35 6.35 0 0 0 -6.29 5.44l-14.48 99h115.11l8.79-97.54a6.35 6.35 0 0 0 -6.33-6.9z" fill="#263238" stroke="#263238"/><path d="m327 343.64s-26.19 13-35.18 16.59-11.2 5.2-12 7.4-35.78 57.17-39.77 62.17-12.6 15.79-11.4 23.18 10.8 13.8 20 13.6 15-2 16-4.6 26.39-48 26.39-48l8 50.57h102.15s8-69.16 8-79.36 2-22.19-2.2-24.79-21.59-8.59-34.39-12.79-16.79-5-19.78-5-25.82 1.03-25.82 1.03z" fill="#fff" stroke="#263238"/><path d="m324.23 344s-3.4 6.4-3.6 11.6-1 14.79-4 20.59-5.2 9-3.6 8.39 10.79-10.79 11.79-13 2.6 2 2.6 2-3 8.59-3.4 9.79 12.59 17.79 12.59 17.79 11.2-8.79 13.8-10.79 1.8-3.6 2-6.2 1-6.39 2.39-8.59 5.41 6.42 8.2 10.42 5.6 5.4 5.2 2.4-1.8-8.8-2.8-19-.8-22.39-3.4-26.19-16.24-4.55-25.19-5.19a13.22 13.22 0 0 0 -12.58 5.98z" fill="#fff" stroke="#263238"/><path d="m283.85 378.05 7.2 35.96-9.3-23.91" fill="none" stroke="#263238"/><path d="m325.23 353.64s2.8 15.59 5.4 27.58a123 123 0 0 0 6 20s13.2-22.19 17-33.78a133.83 133.83 0 0 0 5-19.59h-33.4z" fill="none" stroke="#263238"/><path d="m339.82 359-7.19 9 5 9.6-4.92 11.91a108.59 108.59 0 0 0 3.92 11.67s4.12-6.92 8.41-15l-3.61-8.33 4.4-10z" fill="#285ffa" stroke="#263238"/><path d="m325.23 347.84v5.8s1.93 10.76 4.07 21.27l10.12-10.68 10.67 11.82a84.2 84.2 0 0 0 3.53-8.62 133.83 133.83 0 0 0 5-19.59z" fill="#fff" stroke="#263238"/><path d="m238.08 435.72s18.67-6.82 28.74 9.77" fill="none" stroke="#263238"/><path d="m267.15 440.37s-10.43 2.36-16 11.25 5.76 9.88 8.89 9.88 6.09-2.1 6.26-3.19 4.27-11.63 4.11-14.09a4 4 0 0 0 -3.26-3.85z" fill="#fff" stroke="#263238"/><path d="m262.35 444.05s-5.77 5-5.38 7 8.95 9.7 10.6 8.59a2.54 2.54 0 0 0 1.11-3.42c-.47-.75-6.33-12.17-6.33-12.17z" fill="#fff" stroke="#263238"/><path d="m257 451s-3.39 3.61-2.28 5.26 8.86 5.86 10.87 4.59.71-2.57.71-2.57z" fill="#fff" stroke="#263238"/><path d="m276.86 443.86-6.94-1.2 1.63 9.99 7.09.22z" fill="#fff" stroke="#263238"/><path d="m264.37 428.15 8.13 28.49 3.95 3.59v-5.07l-8.6-28a1.8 1.8 0 0 0 -2.32-1.18 1.81 1.81 0 0 0 -1.16 2.17z" fill="#263238" stroke="#263238"/><path d="m267.15 440.37s-4.8 2.81-4.32 4.94 5.66 12.09 7.53 12.22 3-1 2.73-3.16-2-10-3.17-11.71-1.3-2.39-2.77-2.29z" fill="#fff" stroke="#263238"/><path d="m276.86 443.86s5.11.64 6 2.2-2.68 7.78-3.82 9.2-3.18 1.36-3.24-2.24a54.93 54.93 0 0 1 1.06-9.16z" fill="#fff" stroke="#263238"/><path d="m249.22 455.89h56.07a5.92 5.92 0 0 1 5.91 5.91 5 5 0 0 1 -5 5h-56.2a4.6 4.6 0 0 1 -4.6-4.6v-2.5a3.81 3.81 0 0 1 3.82-3.81z" fill="#fff" stroke="#263238"/><path d="m349 443s-14.59-1.6-18.19-2.8-9.4-2.2-11.4-.6-11.79 13-12 14.39-2.2 6-1.2 7.2a7.25 7.25 0 0 0 3 1.8s13 3.6 14.39 3.8 14.79-.4 14.79-.4l7-2.6 9.79-.2s.2 3.2.4-4.6-6.58-15.99-6.58-15.99z" fill="#fff" stroke="#263238"/><path d="m309.24 463s.2-4.6 1.2-6.6 12.39-12.19 12.39-12.19" fill="none" stroke="#263238"/><path d="m313 464.18s2-5 2.8-5.4 10.19-6.4 10.19-6.4" fill="none" stroke="#263238"/><path d="m319.83 465.58s.4-2 1.4-2.4 9.4-4.2 9.4-4.2" fill="none" stroke="#263238"/><path d="m328.83 466.58 3.8-1-.4-1.8-4 1" fill="none" stroke="#263238"/><path d="m394.79 378.62s-10.59 22.19-10 30 3.21 20.78 3.21 20.78-16.79 6.59-22.59 9-16.41 4.6-16.41 4.6l5.39 21.19-.79 2.2h58.16s4.4-.8 5.2-1.8 1.6-1.4 2-4.6 3-31.18 2.4-39-8.8-48.37-9.8-52.57-2.79-7-4.59-8-9.6-1.79-9.6-1.79" fill="#fff" stroke="#263238"/><path d="m389.4 429.8s15.39.8 23 5.59" fill="none" stroke="#263238"/><path d="m392.19 427.8s10.8-.6 16.6 1.2" fill="none" stroke="#263238"/><path d="m389.2 378s-5.4 12.6-5.6 17.4-.6 7.6-.6 7.6" fill="none" stroke="#263238"/><path d="m364.61 344.64s12.19 17.36 2.39 65.77" fill="none" stroke="#263238" stroke-width="2"/><path d="m372.8 411.81a6 6 0 1 0 -6 6 6 6 0 0 0 6-6z" fill="#fff" stroke="#263238"/><path d="m323 346.44s-6.19 4-7.19 20.19" fill="none" stroke="#263238" stroke-width="2"/><path d="m324.41 391.16c-1.51 10.92-3.57 22.65-4 25.22-1 5.5-7.53 7.42-11.73 5.62" fill="none" stroke="#263238" stroke-width="2"/><path d="m308.75 391.88c-1.37-6.12-2.21-11.43-1.91-13.86 1.4-11.19 9-11.39 9-11.39s9 1.2 9.59 10.8a79.93 79.93 0 0 1 -1 13.73" fill="none" stroke="#263238" stroke-width="2"/><path d="m325.63 421.2s-4.2 2.4-7 .8c-1.89-1.08-7-17.36-9.88-30.12" fill="none" stroke="#263238" stroke-width="2"/><rect fill="none" height="3.19" rx="1.57" stroke="#263238" transform="matrix(.91830825 -.39586608 .39586608 .91830825 -139.9 163.81)" width="4.94" x="324.44" y="419.24"/><rect fill="none" height="3.19" rx="1.57" stroke="#263238" transform="matrix(.85725718 .51488846 -.51488846 .85725718 260.72 -98.27)" width="4.94" x="305.1" y="419.43"/><path d="m315.84 298.07s-3.2 7.59-2.6 12.39 7 10 7 10 2.2-21.39 2.2-22.19-4.01-2.6-6.6-.2z" fill="#263238" stroke="#263238"/><path d="m313.54 325.26 4.25-2.97" fill="none" stroke="#263238" stroke-width="2"/><path d="m318.23 299.47s-.8 21.19-.4 25.18 2 16.79 3.4 20.79 6 16.79 9.6 18.19 10.79 2.4 13.19.8 11.19-7.59 13.59-13.39a39.31 39.31 0 0 0 2.8-10.59 14.73 14.73 0 0 0 7.6-10.6c1.2-7.6-2-9.79-2-9.79l.2-13.2s-2.2-9.19-8-14.19-12.59-5.4-19.59-1.6-20.39 8.4-20.39 8.4z" fill="#fff" stroke="#263238"/><path d="m355.81 298.27s.2-5.2-4.79-3.4-6.2 5.2-13.6 8.2-17.19-.4-20.58-2.4-5.8-4.8-1.2-10 15.39-10.39 27-10.39 20.59 9.59 24.39 13.59 4.4 9 3 12.59-4 13.6-4 13.6-1.6-.2-2.2 2.19-.4 5-3 5.2-2.4-6.79-2.4-6.79-6.39-2-7.19-6.6 4.57-11.39 4.57-15.79z" fill="#263238" stroke="#263238"/><path d="m332 328.52-18.49-3.26 1.07 8.29a2.42 2.42 0 0 0 2 2.08l11.24 1.77a2.41 2.41 0 0 0 2.75-1.92z" fill="none" stroke="#263238" stroke-width="2"/><path d="m335.37 328.87 21.44-.62-2.1 7.76a2.56 2.56 0 0 1 -2.54 1.72l-13 .18a2.81 2.81 0 0 1 -2.94-2.21z" fill="none" stroke="#263238" stroke-width="2"/><path d="m332.03 328.52 3.34.35" fill="none" stroke="#263238" stroke-width="2"/><path d="m356.81 328.25 7-6" fill="#fff" stroke="#263238" stroke-width="2"/><path d="m338.22 326.45s6-4.59 11.6-1.8" fill="none" stroke="#263238" stroke-width="2"/><path d="m329.23 325.45s-4.6-5-9.8-1.6" fill="none" stroke="#263238" stroke-width="2"/><path d="m330.43 342.84s-1 4.2 0 5a8.83 8.83 0 0 0 5.59 1" fill="none" stroke="#263238"/><path d="m327.43 351s4 3 7.8 3.2 8.19-2.6 8.19-2.6" fill="none" stroke="#263238"/><path d="m342.22 330.65s2.4 2.8 6.4-.2" fill="none" stroke="#263238"/><path d="m322.53 329.42s2 3.1 6.36.67" fill="none" stroke="#263238"/><path d="m198.5 298.25s1.27 19.05.31 20.64l-2.81 4.76s1.27 13.66-1.27 15.24a16.73 16.73 0 0 1 -6.35 1.91s-2.54 10.16-3.5 11.43-6.67 5.4-8.57 6-7.94 1-22.23-7.62-19.69-11.43-19.37-16.19 1-10.16 1-10.16 1.59-22.87 4.45-29.85 39.06-10.8 47-8.89 11.34 12.73 11.34 12.73z" fill="#fff" stroke="#263238"/><path d="m161.66 329.68 2.23 1.59s-1.91 7.62-1 11.12" fill="none" stroke="#263238"/></g><path d="m193.41 323.3c-.32 1.46-1.09 2.52-1.71 2.38s-.87-1.42-.54-2.88 1.09-2.52 1.71-2.38.87 1.43.54 2.88z" fill="#263238"/><path d="m190.17 317.47s3.46-3.46 6.35-.19" fill="none" stroke="#263238" stroke-linecap="round" stroke-linejoin="round"/><path d="m185.8 295.71s4.12 7.62 3.81 9.21-13.34 5.4-13.34 5.4-1.27 7.62-3.18 8.57l-1.9.95a33.26 33.26 0 0 1 -3.81-6.67c-2.22-4.76-5.4-6-8.89-1.27s-.64 15.88 1.27 16.83l1.9.95s-1.59 1.59-7.62 2.55-10.48 2.22-14.92.95-10.8-13.34-13-28.9 4.76-28.89 14-33 30.17-.32 31.75.63 12.39-4.12 18.74-.95 6 6.67 7.62 8.89 9.84-.63 10.48 7.31-2.54 12.7-6.67 13.33-16.24-4.78-16.24-4.78z" fill="#263238" stroke="#263238" stroke-linecap="round" stroke-linejoin="round"/><path d="m110.61 345.56s-30.43 16.23-36.23 19.44-6.67 6.09-7 9 0 100.85 0 100.85h164.37s-24.93-74.85-25.75-83.21-2.6-23.19-4.92-24.93-35.08-16.23-35.08-16.23-7.83-8.4-26.37-8.4-29.02 3.48-29.02 3.48z" fill="#285ffa" stroke="#263238" stroke-linecap="round" stroke-linejoin="round"/><path d="m129.45 405.19c.86.34 1.73.65 2.6.94" fill="none" stroke="#263238" stroke-linecap="round" stroke-linejoin="round"/><path d="m97 378.31s12 16.74 28.39 25" fill="none" stroke="#263238" stroke-linecap="round" stroke-linejoin="round"/><path d="m107.42 397.72s6.66 6.67 20.57 10.44" fill="none" stroke="#263238" stroke-linecap="round" stroke-linejoin="round"/><path d="m190 373.7c-4.63 5.26-11.15 13.67-13.31 21.41" fill="none" stroke="#263238" stroke-linecap="round" stroke-linejoin="round"/><path d="m194.94 368.45s-.92.89-2.36 2.42" fill="none" stroke="#263238" stroke-linecap="round" stroke-linejoin="round"/><path d="m178.42 385.84s-4.35 8.4-5.21 13.62" fill="none" stroke="#263238" stroke-linecap="round" stroke-linejoin="round"/><path d="m108.87 347s16.81-.58 32.75-.29 26.38 5.22 26.38 5.22-9.57-11.59-13.91-14.2-17.68-7-28.69-3.48a31.94 31.94 0 0 0 -16.53 12.75z" fill="#285ffa" stroke="#263238" stroke-linecap="round" stroke-linejoin="round"/><path d="m61.07 474.74-15.32-58.74a4.9 4.9 0 0 1 4.8-5.9h121.89a4.92 4.92 0 0 1 4.8 3.86l13.53 60.84" fill="#263238" stroke="#263238" stroke-linecap="round" stroke-linejoin="round"/></svg>