<svg enable-background="new 0 0 500 500" viewBox="0 0 500 500" xmlns="http://www.w3.org/2000/svg" xmlns:xlink="http://www.w3.org/1999/xlink"><clipPath id="a"><path d="m164.4 71.2-29.6 201.8h230.5l-29.7-201.8"/></clipPath><clipPath id="b"><path d="m316.9 91.4-1.1 5.5-11.3 56.2c-.3 1.7-1.9 3-3.6 3h-101.8c-1.8 0-3.3-1.3-3.6-3l-11.5-57.6-.8-4.1c-.2-1 .5-2 1.5-2.2h.3 130c1 0 1.9.8 1.9 1.9z"/></clipPath><clipPath id="c"><path d="m318.5 106.1-1.1 5.3-11.6 56.1c-.4 1.8-1.9 3-3.7 3h-104.2c-1.8 0-3.4-1.2-3.7-3l-11.6-56.3-1.1-5.2c-.2-1 .5-2 1.5-2.2h.4 133.2c1.1 0 1.9.8 1.9 1.9z"/></clipPath><clipPath id="d"><path d="m321.3 142.1h-142.5c-1.1 0-2 .8-2 1.9v.4l3.3 15 10.2 45.9c.5 1.8 2.1 3 4 2.9h111.4c1.9.1 3.5-1.2 4-2.9l5-22.5 8.6-38.4c.2-1.1-.5-2.1-1.6-2.2-.2-.1-.3-.1-.4-.1z"/></clipPath><clipPath id="e"><path d="m328.4 211.7-1.4 7.2-10.6 53.6c-.5 1.9-2.3 3.1-4.2 3.1l-121.1 5.6c-1.9.2-3.8-.9-4.5-2.7l-16.6-56.8-.8-2.8c-.3-1.1.7-2.3 2.1-2.3l154.8-7.1c1.4 0 2.5 1 2.3 2.2z"/></clipPath><clipPath id="f"><path d="m332.6 236.3-3 9.9-15.1 49.3c-.7 1.8-2.6 2.9-4.6 2.7l-123.5-6.5c-2 0-3.7-1.2-4.3-3.1l-10.4-53.3-1.5-7.4c-.2-1.1.9-2.2 2.4-2.1l157.8 8.2c1.5.1 2.5 1.2 2.2 2.3z"/></clipPath><clipPath id="g"><path d="m340.4 393h-180.8l-39.5-112.2h259.8z"/></clipPath><clipPath id="h"><path d="m255.6 123.5-.8-2.3c-.5-1.4-1.8-2.3-3.3-2.5l-22.2-2.9c-1.2-.2-2.3.5-2.5 1.7l-.3 2.3-17.7-2.3c-1.1-.2-2.1.5-2.4 1.5v.5l6.3 65.1 120 15.5 22.6-61.4c.3-1.1-.3-2.2-1.4-2.5-.1 0-.3-.1-.4-.1z"/></clipPath><clipPath id="i"><path d="m356.5 142.4-20.5 55.6-1.6 4.3c-.8 1.8-2.6 2.8-4.5 2.4l-115.7-14.9c-1.9-.2-3.5-1.6-3.7-3.5l-6.1-63.5c0-1.1.9-2 2-2h.5l98.4 12.7 49.5 6.4c1.1.1 2 1 1.9 2.1-.2.1-.2.2-.2.4z"/></clipPath><path d="m330.6 168h-161.2l-20.1-100.1h201.4z" fill="#263238"/><path d="m164.4 71.2-29.6 201.8h230.5l-29.7-201.8" fill="#285ffa"/><g clip-path="url(#a)"><path d="m365.3 273h-230.5l12.4-84.4h205.6z" fill-opacity=".7" opacity=".3"/></g><path d="m164.4 71.2-29.6 201.8h230.5l-29.7-201.8" fill="none" stroke="#263238" stroke-linecap="round" stroke-linejoin="round"/><path d="m329.3 71.2h-158.6l-27.5 201.8h213.6z" fill="#263238"/><path d="m313.6 86.6h-86.1l-1-2.2c-.5-1.2-1.8-2-3.1-2h-19.5c-1.1 0-2 .9-2 2v2.2h-15.6c-1 0-1.9.9-1.9 1.9v.4l12.7 63.3h105.5l12.7-63.3c.2-1-.4-2-1.4-2.3 0 0-.1 0-.3 0z" fill="#bfbfbf" stroke="#263238" stroke-linecap="round" stroke-linejoin="round"/><path d="m316.9 91.4-1.1 5.5-11.3 56.2c-.3 1.7-1.9 3-3.6 3h-101.8c-1.8 0-3.3-1.3-3.6-3l-11.5-57.6-.8-4.1c-.2-1 .5-2 1.5-2.2h.3 130c1 0 1.9.8 1.9 1.9z" fill="#fff"/><g clip-path="url(#b)"><path d="m315.8 96.9-11.3 56.2c-.3 1.7-1.9 3-3.6 3h-101.8c-1.8 0-3.3-1.3-3.6-3l-11.5-57.6z" fill="#285ffa" opacity=".4"/></g><path d="m316.9 91.4-1.1 5.5-11.3 56.2c-.3 1.7-1.9 3-3.6 3h-101.8c-1.8 0-3.3-1.3-3.6-3l-11.5-57.6-.8-4.1c-.2-1 .5-2 1.5-2.2h.3 130c1 0 1.9.8 1.9 1.9z" fill="none" stroke="#263238" stroke-linecap="round" stroke-linejoin="round"/><path d="m315.2 101.1h-88.2l-1-2.2c-.6-1.2-1.8-2-3.2-2h-20c-1.1 0-2 .9-2 2v2.2h-16c-1.1 0-1.9.8-1.9 1.9v.4l13 63.1h108.1l13-63.1c.2-1-.4-2-1.5-2.3-.1 0-.2 0-.3 0z" fill="#bfbfbf" stroke="#263238" stroke-linecap="round" stroke-linejoin="round"/><path d="m318.5 106.1-1.1 5.3-11.6 56.1c-.4 1.8-1.9 3-3.7 3h-104.2c-1.8 0-3.4-1.2-3.7-3l-11.6-56.3-1.1-5.2c-.2-1 .5-2 1.5-2.2h.4 133.2c1.1 0 1.9.8 1.9 1.9z" fill="#fff"/><g clip-path="url(#c)"><path d="m317.4 111.5-11.6 56.1c-.4 1.8-1.9 3-3.7 3h-104.2c-1.8 0-3.4-1.2-3.7-3l-11.6-56.3z" fill="#285ffa" opacity=".4"/></g><path d="m318.5 106.1-1.1 5.3-11.6 56.1c-.4 1.8-1.9 3-3.7 3h-104.2c-1.8 0-3.4-1.2-3.7-3l-11.6-56.3-1.1-5.2c-.2-1 .5-2 1.5-2.2h.4 133.2c1.1 0 1.9.8 1.9 1.9z" fill="none" stroke="#263238" stroke-linecap="round" stroke-linejoin="round"/><path d="m316.7 115.7h-90.2l-1-2.2c-.6-1.2-1.9-2-3.2-2h-20.5c-1.1 0-2 .8-2.1 1.9v.1 2.2h-16.3c-1.1 0-1.9.8-2 1.9v.4l13.3 62.9h110.6l13.3-62.9c.2-1-.5-2.1-1.5-2.3-.1 0-.3 0-.4 0z" fill="#bfbfbf" stroke="#263238" stroke-linecap="round" stroke-linejoin="round"/><path d="m318.1 118.6h-136.2c-1.1 0-1.9.8-2 1.8v.4l13 61.3c.4 1.8 2 3 3.8 3h106.6c1.8 0 3.4-1.2 3.8-3l13-61.3c.2-1-.5-2-1.5-2.2-.2 0-.3 0-.5 0z" fill="#fff" stroke="#263238" stroke-linecap="round" stroke-linejoin="round"/><path d="m318.2 127.3h-92.3l-1.1-2.2c-.6-1.2-1.9-2-3.3-2h-21c-1.1-.1-2 .8-2.1 1.9v.1 2.2h-16.7c-1.1-.1-2 .8-2 1.8v.4l13.6 62.7h113.2l13.6-62.7c.2-1-.5-2.1-1.5-2.3-.1.1-.2.1-.4.1z" fill="#bfbfbf" stroke="#263238" stroke-linecap="round" stroke-linejoin="round"/><path d="m319.7 130.4h-139.4c-1.1-.1-2 .8-2 1.8v.4l13.3 61.1c.4 1.8 2.1 3 3.9 2.9h109c1.8.1 3.4-1.2 3.9-2.9l13.3-61.1c.2-1.1-.5-2-1.6-2.2-.1 0-.3 0-.4 0z" fill="#fff" stroke="#263238" stroke-linecap="round" stroke-linejoin="round"/><path d="m319.7 138.8h-94.3l-1.1-2.2c-.7-1.3-2-2-3.4-2h-21.4c-1.1-.1-2.1.8-2.1 1.9v2.2h-17.1c-1.1 0-2 .9-2 2v.3l13.9 62.5h115.6l13.9-62.5c.1-1.1-.7-2.1-1.8-2.2 0 0-.1 0-.2 0z" fill="#bfbfbf" stroke="#263238" stroke-linecap="round" stroke-linejoin="round"/><path d="m321.3 142.1h-142.5c-1.1 0-2 .8-2 1.9v.4l3.3 15 10.2 45.9c.5 1.8 2.1 3 4 2.9h111.4c1.9.1 3.5-1.2 4-2.9l5-22.5 8.6-38.4c.2-1.1-.5-2.1-1.6-2.2-.2-.1-.3-.1-.4-.1z" fill="#fff"/><g clip-path="url(#d)"><path d="m180.1 159.3 10.2 45.9c.5 1.8 2.1 3 4 2.9h111.4c1.9.1 3.5-1.2 4-2.9l5-22.5z" fill="#285ffa" opacity=".4"/></g><path d="m321.3 142.1h-142.5c-1.1 0-2 .8-2 1.9v.4l3.3 15 10.2 45.9c.5 1.8 2.1 3 4 2.9h111.4c1.9.1 3.5-1.2 4-2.9l5-22.5 8.6-38.4c.2-1.1-.5-2.1-1.6-2.2-.2-.1-.3-.1-.4-.1z" fill="none" stroke="#263238" stroke-linecap="round" stroke-linejoin="round"/><path d="m221.8 210.4-1.3-2.1c-.8-1.2-2.3-1.9-3.8-1.8l-23.3 1.1c-1.2 0-2.2.8-2.3 2l.1 2.2-18.6.9c-1.4.1-2.4 1.2-2.1 2.3l18 61 125.6-5.8 12.3-62.4c.2-1.2-.9-2.2-2.3-2.1z" fill="#bfbfbf" stroke="#263238" stroke-linecap="round" stroke-linejoin="round"/><path d="m328.4 211.7-1.4 7.2-10.6 53.6c-.5 1.9-2.3 3.1-4.2 3.1l-121.1 5.6c-1.9.2-3.8-.9-4.5-2.7l-16.6-56.8-.8-2.8c-.3-1.1.7-2.3 2.1-2.3l154.8-7.1c1.4 0 2.5 1 2.3 2.2z" fill="#fff"/><g clip-path="url(#e)"><path d="m327 218.8-10.6 53.6c-.5 1.9-2.3 3.1-4.2 3.1l-121.1 5.6c-1.9.2-3.8-.9-4.5-2.7l-16.6-56.7z" fill="#285ffa" opacity=".4"/></g><path d="m328.4 211.7-1.4 7.2-10.6 53.6c-.5 1.9-2.3 3.1-4.2 3.1l-121.1 5.6c-1.9.2-3.8-.9-4.5-2.7l-16.6-56.8-.8-2.8c-.3-1.1.7-2.3 2.1-2.3l154.8-7.1c1.4 0 2.5 1 2.3 2.2z" fill="none" stroke="#263238" stroke-linecap="round" stroke-linejoin="round"/><path d="m224.4 224.3-1.1-2.2c-.7-1.3-2.1-2.1-3.7-2.2l-23.7-1.2c-1.2-.2-2.3.6-2.5 1.8l-.1 2.2-18.9-1c-1.4-.1-2.6.9-2.4 2.1l12.2 62.3 128.1 6.7 18.6-60.7c.3-1.1-.7-2.3-2.1-2.3z" fill="#bfbfbf" stroke="#263238" stroke-linecap="round" stroke-linejoin="round"/><path d="m332.6 236.3-3 9.9-15.1 49.3c-.7 1.8-2.6 2.9-4.6 2.7l-123.5-6.5c-2 0-3.7-1.2-4.3-3.1l-10.4-53.3-1.5-7.4c-.2-1.1.9-2.2 2.4-2.1l157.8 8.2c1.5.1 2.5 1.2 2.2 2.3z" fill="#fff"/><g clip-path="url(#f)"><path d="m329.5 246.2-15.1 49.3c-.7 1.8-2.6 2.9-4.6 2.7l-123.5-6.5c-2 0-3.7-1.2-4.3-3.1l-10.4-53.3z" fill="#285ffa" opacity=".4"/></g><path d="m332.6 236.3-3 9.9-15.1 49.3c-.7 1.8-2.6 2.9-4.6 2.7l-123.5-6.5c-2 0-3.7-1.2-4.3-3.1l-10.4-53.3-1.5-7.4c-.2-1.1.9-2.2 2.4-2.1l157.8 8.2c1.5.1 2.5 1.2 2.2 2.3z" fill="none" stroke="#263238" stroke-linecap="round" stroke-linejoin="round"/><path d="m222.2 240.3-1.2-2.1c-.8-1.3-2.3-2.1-3.8-2h-24.3c-1.2-.1-2.3.7-2.4 1.9v2.2h-19.3c-1.5 0-2.6 1.1-2.3 2.2l15.8 61.4h130.8l15.8-61.4c.3-1.1-.8-2.2-2.3-2.2z" fill="#bfbfbf" stroke="#263238" stroke-linecap="round" stroke-linejoin="round"/><path d="m313 309.5h-126c-2.2 0-4.1-1.2-4.5-2.9l-15.4-59.8c-.3-1.1.8-2.2 2.3-2.2h161.2c1.5 0 2.6 1.1 2.3 2.2l-15.4 59.8c-.4 1.7-2.3 2.9-4.5 2.9z" fill="#fff" stroke="#263238" stroke-linecap="round" stroke-linejoin="round"/><path d="m221.6 254.8-1.2-2.1c-.9-1.3-2.4-2-3.9-1.9h-24.7c-1.2-.1-2.3.7-2.5 1.9v2.2h-19.7c-1.5 0-2.6 1.1-2.4 2.2l16.1 61.2h133.4l16.1-61.2c.3-1.1-.8-2.2-2.4-2.2z" fill="#bfbfbf" stroke="#263238" stroke-linecap="round" stroke-linejoin="round"/><path d="m314.3 324h-128.6c-2.2 0-4.1-1.2-4.6-2.9l-15.7-59.6c-.3-1.1.8-2.2 2.4-2.2h164.3c1.5 0 2.6 1.1 2.4 2.2l-15.7 59.6c-.4 1.7-2.3 2.9-4.5 2.9z" fill="#fff" stroke="#263238" stroke-linecap="round" stroke-linejoin="round"/><path d="m340.4 393h-180.8l-39.5-112.2h259.8z" fill="#285ffa"/><g clip-path="url(#g)"><path d="m340.4 393h-180.8l-39.5-112.2h259.8z" fill-opacity=".7" opacity=".3"/></g><path d="m340.4 393h-180.8l-39.5-112.2h259.8z" fill="none" stroke="#263238" stroke-linecap="round" stroke-linejoin="round"/><path d="m376.5 266h-253l-3.4 14.8h259.8z" fill="#285ffa" stroke="#263238" stroke-linecap="round" stroke-linejoin="round"/><path d="m187.3 332.2-2.6 23.9h130.6l-2.6-23.9h-5.7l1.6 17.1h-117.2l1.6-17.1z" fill="#bfbfbf" stroke="#263238" stroke-linecap="round" stroke-linejoin="round"/><path d="m314.3 361.6h-128.6l-1-5.5h130.6z" fill="#757575" stroke="#263238" stroke-linecap="round" stroke-linejoin="round"/><path d="m307 332.2-.8 6.3.8 10.8h1.6z" fill="#757575" stroke="#263238" stroke-linecap="round" stroke-linejoin="round"/><path d="m193 332.2.8 6.3-.8 10.8h-1.6z" fill="#757575" stroke="#263238" stroke-linecap="round" stroke-linejoin="round"/><path d="m292.1 320.2h-84.2l-4-20.4h92.2z" fill="#fff" stroke="#263238" stroke-linecap="round" stroke-linejoin="round"/><path d="m255.6 123.5-.8-2.3c-.5-1.4-1.8-2.3-3.3-2.5l-22.2-2.9c-1.2-.2-2.3.5-2.5 1.7l-.3 2.3-17.7-2.3c-1.1-.2-2.1.5-2.4 1.5v.5l6.3 65.1 120 15.5 22.6-61.4c.3-1.1-.3-2.2-1.4-2.5-.1 0-.3-.1-.4-.1z" fill="#fff"/><g clip-path="url(#h)"><path d="m255.6 123.5-.8-2.3c-.5-1.4-1.8-2.3-3.3-2.5l-22.2-2.9c-1.2-.2-2.3.5-2.5 1.7l-.3 2.3-17.7-2.3c-1.1-.2-2.1.5-2.4 1.5v.5l6.3 65.1 120 15.5 22.6-61.4c.3-1.1-.3-2.2-1.4-2.5-.1 0-.3-.1-.4-.1z" fill="#285ffa" opacity=".4"/></g><path d="m255.6 123.5-.8-2.3c-.5-1.4-1.8-2.3-3.3-2.5l-22.2-2.9c-1.2-.2-2.3.5-2.5 1.7l-.3 2.3-17.7-2.3c-1.1-.2-2.1.5-2.4 1.5v.5l6.3 65.1 120 15.5 22.6-61.4c.3-1.1-.3-2.2-1.4-2.5-.1 0-.3-.1-.4-.1z" fill="none" stroke="#263238" stroke-linecap="round" stroke-linejoin="round"/><path d="m356.5 142.4-20.5 55.6-1.6 4.3c-.8 1.8-2.6 2.8-4.5 2.4l-115.7-14.9c-1.9-.2-3.5-1.6-3.7-3.5l-6.1-63.5c0-1.1.9-2 2-2h.5l98.4 12.7 49.5 6.4c1.1.1 2 1 1.9 2.1-.2.1-.2.2-.2.4z" fill="#fff"/><g clip-path="url(#i)"><path d="m356.5 142.4-20.5 55.6c-14.5-3.4-15.1-12.5-17.5-17.1-2.7-5.2-19.7-7.9-24.4-8.7s-7.6-5.6-7.6-5.6c-4.3-12 18.1-22.5 18.1-22.5-.4-1.6.2-7.1.7-10.5l49.5 6.4c1.1.1 2 1 1.9 2.1-.2 0-.2.2-.2.3z" fill-opacity=".7" opacity=".3"/></g><path d="m356.5 142.4-20.5 55.6-1.6 4.3c-.8 1.8-2.6 2.8-4.5 2.4l-115.7-14.9c-1.9-.2-3.5-1.6-3.7-3.5l-6.1-63.5c0-1.1.9-2 2-2h.5l98.4 12.7 49.5 6.4c1.1.1 2 1 1.9 2.1-.2.1-.2.2-.2.4z" fill="none" stroke="#263238" stroke-linecap="round" stroke-linejoin="round"/><path d="m226.1 139.9 1.6 39.3 14.2 1.8 1.7-39.1z" fill="#285ffa" stroke="#263238" stroke-linecap="round" stroke-linejoin="round"/><path d="m234.8 176.3c.4-1.4.1-2.9-.7-4.1s-1.8-2.3-2.9-3.2c1.7.9 3.5 1.6 5.4 1.8 0-2.1-2-3.5-3.7-4.6.8-.3 1.7-.2 2.4.2.1-.6-.2-1.3-.7-1.7.2.2.6-.1.6-.4-.1-.3-.2-.5-.4-.8-.3-.6-.4-1.3-.3-1.9 0-2.4.1-4.7.1-7.1.1.4.4.8.8.9 0-.9-.1-1.9-.2-2.8-.2-2.4-.4-4.7-.7-7.1" fill="none" stroke="#263238" stroke-linecap="round" stroke-linejoin="round"/><path d="m461 267.7s-80.7-72.2-85.8-76.8-8.9-4.4-11.7-7.1-4.2-4.7-15.4-4.6-26.3-5.9-29.7-8.1-8.1-.6-11.3-1.8-11.3-.1-16.2 0-5.3-4.9-3.4-10.6 17-9.3 19-8.1 9.9-2.2 9.9-2.2c-1.2-4.2-.8-14.3-.8-14.3s-8.3-3.6-11.5-4.7c-2.4-.7-5-1-7.5-.8 0 0 1-4.5 2.6-6.2s9.1-3.3 16.4-8.4 11.9-6.3 13-5.9 9.3 2.8 11.5 2.8 5.3-2 8.5-1.4 8.9 5.5 11.5 6.1 3.4 1.1 6.7 1.1c1.5 0 7.5 4.4 7.5 4.4 2.5.5 5 1.3 7.3 2.4 3.8 1.8 7.7 10.3 9.5 13.1s2 9.5 2 9.5 4.8 2.6 6.5 6.1 67.3 38.8 67.3 38.8 10.4 40.4-5.9 76.7z" fill="#fff"/><path d="m403.5 216.2c-14.5-12.9-26.5-23.7-28.3-25.3-5.1-4.6-8.9-4.4-11.7-7.1s-4.2-4.7-15.4-4.6-26.3-5.9-29.7-8.1-8.1-.6-11.3-1.8-11.3-.1-16.2 0-5.3-4.9-3.4-10.6 17-9.3 19-8.1 9.9-2.2 9.9-2.2c-1.2-4.2-.8-14.3-.8-14.3s-8.3-3.6-11.5-4.7c-2.4-.7-5-1-7.5-.8 0 0 1-4.5 2.6-6.2s9.1-3.3 16.4-8.4 11.9-6.3 13-5.9 9.3 2.8 11.5 2.8c1.6 0 3.9-1.1 6.3-1.4-1.9 1.1-3.3 3.1-2.9 4.2.6 1.7 2.2 6.1 2.3 6.4-.4-.4-10.8-10.7-17.5-10.1-5.8.4-11.7 10.2-10.7 17.4s-1.4 7.2-.1 12.5 2.5 12.9.5 15.8-5.9-2.3-5.9-2.3c-3 1.7-4.9 4.8-5 8.2 0 5.7 6 6.1 9.5 6.7s16.6 7.8 25.5 8.1l8.9.4s-5.1-7-3-7.4 8.7.3 13 7 7.6 8.2 15.6 11.5c4.7 1.8 17.1 15.2 26.9 28.3z" fill="#285ffa" opacity=".4"/><path d="m443.1 177.9c-1.2-.6-40-18.9-42-21.6s-4.4-3.4-6.5-6.1-9.5-4.5-10.5-8.3-2.2-15.2-4-16.6c-1.5-1.1-3.1-2.1-4.7-2.9l2.9 7.3s-6.7-9.5-8.3-9.8 1.7 6.9 1.4 6.7-7.5-7-13.6-12.1c.7.4 1.5.8 2.3 1 2.6.6 3.4 1.1 6.7 1.1 1.5 0 7.5 4.4 7.5 4.4 2.5.5 5 1.3 7.3 2.4 3.8 1.8 7.7 10.3 9.5 13.1s2 9.5 2 9.5 4.8 2.6 6.5 6.1c1.2 2.2 24.6 15.4 43.5 25.8z" fill="#285ffa" opacity=".4"/><g fill="none"><path d="m461 267.7s-80.7-72.2-85.8-76.8-8.9-4.4-11.7-7.1-4.2-4.7-15.4-4.6-26.3-5.9-29.7-8.1-8.1-.6-11.3-1.8-11.3-.1-16.2 0-5.3-4.9-3.4-10.6 17-9.3 19-8.1 9.9-2.2 9.9-2.2c-1.2-4.2-.8-14.3-.8-14.3s-8.3-3.6-11.5-4.7c-2.4-.7-5-1-7.5-.8 0 0 1-4.5 2.6-6.2s9.1-3.3 16.4-8.4 11.9-6.3 13-5.9 9.3 2.8 11.5 2.8 5.3-2 8.5-1.4 8.9 5.5 11.5 6.1 3.4 1.1 6.7 1.1c1.5 0 7.5 4.4 7.5 4.4 2.5.5 5 1.3 7.3 2.4 3.8 1.8 7.7 10.3 9.5 13.1s2 9.5 2 9.5 4.8 2.6 6.5 6.1 67.3 38.8 67.3 38.8" stroke="#263238" stroke-linecap="round" stroke-linejoin="round"/><path d="m315.7 134.2s.9-7.8 0-8.9" stroke="#263238" stroke-linecap="round" stroke-linejoin="round"/><path d="m340 115.1s13.5 11.4 14.5 12.1" stroke="#263238" stroke-linecap="round" stroke-linejoin="round"/><path d="m352.7 111.3c1.9 1.2 16.8 14.4 21.6 17.4" stroke="#263238" stroke-linecap="round" stroke-linejoin="round"/><path d="m393.2 146c-1.5-.9-5.3-2.7-5.7-4.1" stroke="#263238" stroke-linecap="round" stroke-linejoin="round"/><path d="m316.5 148.4s.8 3.2 0 4.8" stroke="#263238" stroke-linecap="round" stroke-linejoin="round"/><path d="m304.6 158.6s-1.8 5.1 2.5 8.6" stroke="#263238" stroke-linecap="round" stroke-linejoin="round"/><path d="m322.5 109.8c-1.4 1.5-2.3 3.3-2.6 5.3" stroke="#263238" stroke-linecap="round" stroke-linejoin="round"/><path d="m302 125.3c.9 2.4 2.8 4.3 5.1 5.3" stroke="#263238" stroke-linecap="round" stroke-linejoin="round"/><path d="m361.1 181.6c-2.6-3.7-5.4-7.3-8.5-10.6" stroke="#263238" stroke-linecap="round" stroke-linejoin="round"/></g><path d="m84.5 445.3s64.6-42.5 68.6-47.9c2-3 4.4-5.6 7.1-8 0 0 1.9-15.8 6.6-24s6.6-14.3 8.7-18.5 12.1-7.4 15-9 7.9-4.8 10.8-4.8c2.2.2 4.4.8 6.3 1.9 0 0 9.8-5 14.2-1.9 0 0 11.1.5 13.7.3s6.6 1.6 6.6 1.6 6.6-4.7 11.1-2.9 6.6 2.6 6.7 5.3-1.1 11.6-1.1 11.6h-2.2s-7.4 9.6-8.2 11.5-5 12.5-5 12.5 5.5-4.2 9-7.4 9.5-9.2 15.8-10.8 10.8 2 10.8 5.7c0 0-7.4 5.9-9 7.7s-4.4 6.6-7.6 10-10.4 17.8-16.8 24.7-34 21.6-40.4 23.7c0 0-38.5 26.9-55.4 49.6.1 0-45.8.2-65.3-30.9z" fill="#fff"/><path d="m209.8 420.8c.6.6 2.8.9 6 1-3.4 1.8-6.9 3.4-10.5 4.8 0 0-25.2 17.6-43.7 36.3 6.4-10.2 18.7-22.9 23.2-25.5 6.4-3.7 18.6-15.6 18.6-15.6s4.5-2.9 6.4-1z" fill="#285ffa" opacity=".4"/><path d="m252.5 365.7c2.7-2.7 5.6-5.1 8.7-7.3-3.3 3.6-5.9 7.7-7.8 12.1-1.2 6.6-12.7 20.3-12.7 20.3 3.7-11.9.5-14.2 1.6-17.7s1.7-11.8 1.7-11.8 2-3.5 4.1-4.2 7.6-14.8 8.7-16.7-6.8-5-8.9-5.2-2.9 3.4-7.1 5.2-9.5 5.1-11.5 7.1-5.3 10.5-5.6 11c.1-.6 2.5-10.2 3.2-12.1.5-1.6 5.6-4.5 7.5-5.6-3.1 1.5-4.9-1.3-7.5-3.8-2.8-2.7-6.9-3.5-11.5-2.1s-7.6 4.8-7.6 4.6-6.8-1.5-9-.8-7.3 3-7.3 3-4.6-2.7-12.2 4.8c-3.2 3.1-13.7 27-12.1 24.1s8.5-11.4 8.9-11.9c-.5 1.1-14.4 32.5-17.3 34.5s-3.7 9.1-14 14.9c-9.8 5.5-47.5 29.2-51.2 31.6 17.9-11.9 56.6-37.9 59.6-42.1 2-3 4.4-5.6 7.1-8 0 0 1.9-15.8 6.6-24s6.6-14.3 8.7-18.5 12.1-7.4 15-9 7.9-4.8 10.8-4.8c2.2.2 4.4.8 6.3 1.9 0 0 9.8-5 14.2-1.9 0 0 11.1.5 13.7.3s6.6 1.6 6.6 1.6 6.6-4.7 11.1-2.9 6.6 2.6 6.7 5.3-1.1 11.6-1.1 11.6h-2.2s-7.4 9.6-8.2 11.5-5 12.5-5 12.5 5.5-4.4 9-7.5z" fill="#285ffa" opacity=".4"/><path d="m279.1 360.6s-7.4 5.9-9 7.7c-1 1.1-2.4 3.3-4 5.6.8-2.7 1.4-5.4 1.7-8.2 1.6-2.3 3.8-4 6.3-5 1.6-.5 3.3-.6 5-.4z" fill="#285ffa" opacity=".4"/><path d="m84.5 445.3s64.6-42.5 68.6-47.9c2-3 4.4-5.6 7.1-8 0 0 1.9-15.8 6.6-24s6.6-14.3 8.7-18.5 12.1-7.4 15-9 7.9-4.8 10.8-4.8c2.2.2 4.4.8 6.3 1.9 0 0 9.8-5 14.2-1.9 0 0 11.1.5 13.7.3s6.6 1.6 6.6 1.6 6.6-4.7 11.1-2.9 6.6 2.6 6.7 5.3-1.1 11.6-1.1 11.6h-2.2s-7.4 9.6-8.2 11.5-5 12.5-5 12.5 5.5-4.2 9-7.4 9.5-9.2 15.8-10.8 10.8 2 10.8 5.7c0 0-7.4 5.9-9 7.7s-4.4 6.6-7.6 10-10.4 17.8-16.8 24.7-34 21.6-40.4 23.7c0 0-38.5 26.9-55.4 49.6" fill="none" stroke="#263238" stroke-linecap="round" stroke-linejoin="round"/><path d="m243.5 373s1.6 7.9-1.6 15" fill="none" stroke="#263238" stroke-linecap="round" stroke-linejoin="round"/><path d="m233.2 341.1c3.3-1.5 6.4-3.6 9-6.1" fill="none" stroke="#263238" stroke-linecap="round" stroke-linejoin="round"/><path d="m256.7 349c.9-1.7 1.4-3.6 1.7-5.5" fill="none" stroke="#263238" stroke-linecap="round" stroke-linejoin="round"/><path d="m221.9 333.2c-3.2-.1-6.3 1-8.8 3" fill="none" stroke="#263238" stroke-linecap="round" stroke-linejoin="round"/><path d="m207.6 335.1s-7.9 3.7-10.7 3.7-7.3 3.7-7.3 4.8" fill="none" stroke="#263238" stroke-linecap="round" stroke-linejoin="round"/><path d="m160.2 389.4c2.3-3.6 4.2-7.4 5.7-11.5" fill="none" stroke="#263238" stroke-linecap="round" stroke-linejoin="round"/><path d="m234.9 343.5s-5 1.3-6.7 5.5-9.6 18.9-9.6 18.9" fill="none" stroke="#263238" stroke-linecap="round" stroke-linejoin="round"/><path d="m209.8 341.1c-1.1 2.5-12.9 24.5-12.9 24.5" fill="none" stroke="#263238" stroke-linecap="round" stroke-linejoin="round"/></svg>