<svg enable-background="new 0 0 500 500" viewBox="0 0 500 500" xmlns="http://www.w3.org/2000/svg"><g fill="#f0f0f0"><path d="m257 67.1v5.2c0 1.6 1.1 2.3 2.6 1.5l23.8-13.7c1.5-1 2.5-2.6 2.6-4.4v-5.2c0-1.6-1.1-2.3-2.6-1.5l-23.8 13.7c-1.5 1-2.5 2.6-2.6 4.4z"/><path d="m459.6 190.3-20.9 12.1c-1.5 1-2.5 2.6-2.6 4.4v5.2c0 1.6 1.1 2.3 2.6 1.5l20.9-12.1z"/><path d="m454.6 218 5-2.9v-11.2l-5 2.9c-1.5 1-2.5 2.6-2.6 4.4v5.2c0 1.7 1.2 2.4 2.6 1.6z"/><path d="m74.4 212.9-23.8 13.7c-.3.2-.6.4-.9.7v10.7c.3 0 .6-.2.9-.3l23.8-13.7c1.5-1 2.5-2.6 2.6-4.4v-5.2c0-1.7-1.2-2.3-2.6-1.5z"/><path d="m74.2 324.7-23.8 13.7c-.2.1-.5.3-.7.5v10.9c.2-.1.5-.1.7-.3l23.8-13.7c1.5-1 2.5-2.6 2.6-4.5v-5.2c0-1.5-1.2-2.2-2.6-1.4z"/><path d="m74.4 267.6-23.8 13.7c-.3.2-.6.4-.9.7v10.7c.3 0 .6-.2.9-.3l23.8-13.7c1.5-1 2.5-2.6 2.6-4.5v-5.2c0-1.6-1.2-2.2-2.6-1.4z"/><path d="m338 87.4-23.8 13.7c-1.5 1-2.5 2.6-2.6 4.4v5.2c0 1.6 1.1 2.3 2.6 1.5l23.8-13.7c1.5-1 2.5-2.6 2.6-4.4v-5.2c-.1-1.7-1.2-2.4-2.6-1.5z"/><path d="m353 65.1-23.8 13.7c-1.5 1-2.5 2.6-2.6 4.4v5.2c0 1.6 1.1 2.3 2.6 1.5l23.8-13.7c1.5-1 2.5-2.6 2.6-4.4v-5.2c-.1-1.7-1.2-2.3-2.6-1.5z"/><path d="m183.2 231.3-23.8 13.7c-1.5 1-2.5 2.6-2.6 4.4v5.2c0 1.6 1.1 2.3 2.6 1.5l23.8-13.7c1.5-1 2.5-2.6 2.6-4.4v-5.2c0-1.7-1.2-2.4-2.6-1.5z"/><path d="m249.7 168.6v5.2c0 1.6 1.1 2.3 2.6 1.5l23.8-13.7c1.5-1 2.5-2.6 2.6-4.4v-5.2c0-1.6-1.1-2.3-2.6-1.5l-23.8 13.7c-1.6.9-2.5 2.6-2.6 4.4z"/><path d="m218.7 147v5.2c0 1.6 1.1 2.3 2.6 1.5l23.8-13.7c1.5-1 2.5-2.6 2.6-4.4v-5.2c0-1.6-1.1-2.3-2.6-1.5l-23.8 13.7c-1.5 1-2.5 2.6-2.6 4.4z"/><path d="m291.1 73.4-23.8 13.7c-1.5 1-2.5 2.6-2.6 4.5v5.2c0 1.6 1.1 2.3 2.6 1.5l23.8-13.7c1.5-1 2.5-2.6 2.6-4.4v-5.2c-.1-1.7-1.2-2.4-2.6-1.6z"/><path d="m167.3 172.1-23.8 13.7c-1.5 1-2.5 2.6-2.6 4.4v5.2c0 1.6 1.1 2.3 2.6 1.5l23.8-13.7c1.5-1 2.5-2.6 2.6-4.4v-5.2c-.1-1.6-1.2-2.3-2.6-1.5z"/><path d="m252.3 230 23.8-13.8c1.5-1 2.5-2.6 2.6-4.5v-5.2c0-1.6-1.1-2.3-2.6-1.5l-23.8 13.7c-1.5 1-2.5 2.6-2.6 4.4v5.2c0 1.8 1.1 2.5 2.6 1.7z"/><path d="m81.6 287.4 23.8-13.7c1.5-1 2.5-2.6 2.6-4.5v-5.2c0-1.6-1.2-2.3-2.6-1.5l-23.8 13.7c-1.5 1-2.5 2.6-2.6 4.5v5.2c0 1.6 1.2 2.3 2.6 1.5z"/><path d="m436.1 139.4v5.2c0 1.6 1.1 2.3 2.6 1.5l20.9-12.1v-11.2l-20.9 12.1c-1.6 1-2.5 2.7-2.6 4.5z"/><path d="m221.3 357.2 23.8-13.7c1.5-1 2.5-2.6 2.6-4.5v-5.2c0-1.6-1.1-2.3-2.6-1.5l-23.8 13.7c-1.5 1-2.5 2.6-2.6 4.5v5.2c0 1.7 1.2 2.3 2.6 1.5z"/><path d="m323.9 301 23.8-13.7c1.5-1 2.5-2.6 2.6-4.5v-5.2c0-1.6-1.1-2.3-2.6-1.5l-23.8 13.7c-1.5 1-2.5 2.6-2.6 4.5v5.2c0 1.6 1.2 2.3 2.6 1.5z"/><path d="m452.3 60.4v-5.2c0-1.6-1.1-2.3-2.6-1.5l-23.8 13.7c-1.5 1-2.5 2.6-2.6 4.5v5.2c0 1.6 1.1 2.3 2.6 1.5l23.8-13.7c1.5-1 2.5-2.7 2.6-4.5z"/><path d="m107.9 405.9v-5.2c0-1.6-1.2-2.3-2.6-1.5l-23.7 13.8c-1.5 1-2.5 2.6-2.6 4.4v5.2c0 1.6 1.2 2.3 2.6 1.5l23.8-13.7c1.5-1 2.4-2.7 2.5-4.5z"/><path d="m156.8 58v5.2c0 1.6 1.1 2.3 2.6 1.5l23.8-13.7c1.5-1 2.5-2.6 2.6-4.5v-5.2c0-1.6-1.1-2.3-2.6-1.5l-23.8 13.7c-1.5 1-2.5 2.7-2.6 4.5z"/><path d="m459.6 163.4-20.9 12.1c-1.5 1-2.5 2.6-2.6 4.4v5.2c0 1.6 1.1 2.3 2.6 1.5l20.9-12.1z"/><path d="m59.4 247.9-9.7 5.6v11.1l9.7-5.6c1.5-1 2.5-2.6 2.6-4.5v-5.2c0-1.5-1.2-2.2-2.6-1.4z"/><path d="m97.5 401.2 23.8-13.7c1.5-1 2.5-2.6 2.6-4.5v-5.2c0-1.6-1.2-2.3-2.6-1.5l-23.8 13.7c-1.5 1-2.5 2.6-2.6 4.5v5.2c0 1.7 1.2 2.3 2.6 1.5z"/><path d="m74.4 362.4-23.8 13.7c-.3.2-.6.4-.9.7v10.7c.3 0 .6-.2.9-.3l23.8-13.7c1.5-1 2.5-2.6 2.6-4.4v-5.2c0-1.7-1.2-2.3-2.6-1.5z"/><path d="m187.8 79.9v5.2c0 1.6 1.1 2.3 2.6 1.5l23.8-13.7c1.5-1 2.5-2.6 2.6-4.4v-5.2c0-1.6-1.1-2.3-2.6-1.5l-23.8 13.7c-1.6 1-2.5 2.6-2.6 4.4z"/><path d="m59.4 165.9-9.7 5.6v11.1l9.7-5.6c1.5-1 2.5-2.6 2.6-4.4v-5.2c0-1.7-1.2-2.3-2.6-1.5z"/><path d="m105.4 125.8-23.8 13.7c-1.5 1-2.5 2.7-2.6 4.5v5.2c0 1.6 1.2 2.3 2.6 1.5l23.8-13.7c1.5-1 2.5-2.6 2.6-4.4v-5.2c-.1-1.8-1.2-2.4-2.6-1.6z"/><path d="m167.3 62.7-23.8 13.7c-1.5 1-2.5 2.6-2.6 4.4v5.2c0 1.6 1.1 2.3 2.6 1.5l23.8-13.7c1.5-1 2.5-2.6 2.6-4.4v-5.2c-.1-1.6-1.2-2.3-2.6-1.5z"/><path d="m159.4 365.5 23.8-13.7c1.5-1 2.5-2.6 2.6-4.5v-5.2c0-1.6-1.1-2.3-2.6-1.5l-23.8 13.7c-1.5 1-2.5 2.6-2.6 4.5v5.2c0 1.7 1.2 2.4 2.6 1.5z"/><path d="m200.8 325.1v-5.2c0-1.6-1.1-2.3-2.6-1.5l-23.8 13.7c-1.5 1-2.5 2.6-2.6 4.5v5.2c0 1.6 1.2 2.3 2.6 1.5l23.8-13.7c1.5-1.1 2.5-2.7 2.6-4.5z"/><path d="m167.3 144.8-23.8 13.7c-1.5 1-2.5 2.7-2.6 4.5v5.2c0 1.6 1.1 2.3 2.6 1.5l23.8-13.7c1.5-1 2.5-2.6 2.6-4.5v-5.2c-.1-1.7-1.2-2.3-2.6-1.5z"/><path d="m198.2 84.6-23.8 13.7c-1.5 1-2.5 2.6-2.6 4.4v5.2c0 1.6 1.2 2.3 2.6 1.5l23.8-13.7c1.5-1 2.5-2.6 2.6-4.5v-5.2c0-1.5-1.2-2.2-2.6-1.4z"/><path d="m94.9 257.8v5.2c0 1.6 1.2 2.3 2.6 1.5l23.8-13.7c1.5-1 2.5-2.6 2.6-4.4v-5.2c0-1.6-1.2-2.3-2.6-1.5l-23.8 13.7c-1.5.9-2.5 2.6-2.6 4.4z"/><path d="m427.2 120.1 23.8-13.7c1.5-1 2.5-2.6 2.6-4.4v-5.2c0-1.6-1.1-2.3-2.6-1.5l-23.8 13.7c-1.5 1-2.5 2.6-2.6 4.4v5.2c.1 1.7 1.2 2.4 2.6 1.5z"/><path d="m97.5 373.9 23.8-13.7c1.5-1 2.5-2.6 2.6-4.5v-5.2c0-1.6-1.2-2.3-2.6-1.5l-23.8 13.7c-1.5 1-2.5 2.6-2.6 4.5v5.2c0 1.6 1.2 2.3 2.6 1.5z"/><path d="m152.2 276.5-23.8 13.7c-1.5 1-2.5 2.6-2.6 4.5v5.2c0 1.6 1.2 2.3 2.6 1.5l23.8-13.7c1.5-1 2.5-2.6 2.6-4.5v-5.2c0-1.7-1.1-2.4-2.6-1.5z"/><path d="m187.8 204.3v5.2c0 1.6 1.1 2.3 2.6 1.5l23.8-13.7c1.5-1 2.5-2.6 2.6-4.4v-5.2c0-1.6-1.1-2.3-2.6-1.5l-23.8 13.7c-1.6.9-2.5 2.6-2.6 4.4z"/><path d="m326 127.1v5.2c0 1.6 1.1 2.3 2.6 1.5l23.8-13.7c1.5-1 2.5-2.6 2.6-4.5v-5.2c0-1.6-1.1-2.3-2.6-1.5l-23.8 13.7c-1.5 1-2.4 2.7-2.6 4.5z"/><path d="m387.5 42.7v5.2c0 1.6 1.1 2.3 2.6 1.5l23.8-13.7c1.5-1 2.5-2.6 2.6-4.5v-5.2c0-1.6-1.1-2.3-2.6-1.5l-23.9 13.7c-1.5 1-2.4 2.7-2.5 4.5z"/><path d="m330.2 168.5v-5.2c0-1.6-1.1-2.3-2.6-1.5l-23.8 13.7c-1.5 1-2.5 2.6-2.6 4.4v5.2c0 1.6 1.1 2.3 2.6 1.5l23.8-13.7c1.6-1 2.5-2.6 2.6-4.4z"/><path d="m361.2 150.6v-5.2c0-1.6-1.1-2.3-2.6-1.5l-23.8 13.7c-1.5 1-2.5 2.6-2.6 4.4v5.2c0 1.6 1.1 2.3 2.6 1.5l23.8-13.7c1.5-.9 2.5-2.6 2.6-4.4z"/><path d="m260.1 133.9-23.8 13.7c-1.5 1-2.5 2.6-2.6 4.4v5.2c0 1.6 1.1 2.3 2.6 1.5l23.8-13.7c1.5-1 2.5-2.6 2.6-4.4v-5.2c0-1.6-1.2-2.3-2.6-1.5z"/><path d="m200.8 243v-5.2c0-1.6-1.1-2.3-2.6-1.5l-23.8 13.7c-1.5 1-2.5 2.6-2.6 4.4v5.2c0 1.6 1.2 2.3 2.6 1.5l23.8-13.7c1.5-.9 2.5-2.6 2.6-4.4z"/><path d="m406.1 217.5 23.8-13.7c1.5-1 2.5-2.6 2.6-4.4v-5.2c0-1.6-1.2-2.3-2.6-1.5l-23.8 13.7c-1.5 1-2.5 2.6-2.6 4.4v5.2c0 1.7 1.2 2.3 2.6 1.5z"/><path d="m416.5 226.4-23.8 13.7c-1.5 1-2.5 2.6-2.6 4.4v5.2c0 1.6 1.1 2.3 2.6 1.5l23.8-13.7c1.5-1 2.5-2.6 2.6-4.4v-5.2c-.1-1.6-1.2-2.3-2.6-1.5z"/><path d="m249.7 281v-5.2c0-1.6-1.1-2.3-2.6-1.5l-23.8 13.7c-1.5 1-2.5 2.6-2.6 4.5v5.2c0 1.6 1.1 2.3 2.6 1.5l23.8-13.7c1.5-1 2.5-2.6 2.6-4.5z"/><path d="m231.7 361.9v-5.2c0-1.6-1.1-2.3-2.6-1.5l-23.7 13.8c-1.5 1-2.5 2.6-2.6 4.5v5.2c0 1.6 1.1 2.3 2.6 1.5l23.8-13.7c1.5-1.1 2.5-2.8 2.5-4.6z"/><path d="m125.9 75.9v5.2c0 1.6 1.2 2.3 2.6 1.5l23.8-13.7c1.5-1 2.5-2.6 2.6-4.4v-5.2c0-1.6-1.1-2.3-2.6-1.5l-23.8 13.7c-1.6.9-2.5 2.5-2.6 4.4z"/><path d="m169.8 397.6v-5.2c0-1.6-1.1-2.3-2.6-1.5l-23.8 13.7c-1.5 1-2.5 2.6-2.6 4.5v5.2c0 1.6 1.1 2.3 2.6 1.5l23.8-13.7c1.6-1 2.5-2.7 2.6-4.5z"/><path d="m59.4 439.4-9.7 5.6v11.1l9.7-5.6c1.5-1 2.5-2.7 2.6-4.5v-5.2c0-1.6-1.2-2.3-2.6-1.4z"/><path d="m74.4 171-23.8 13.7c-.3.2-.6.4-.9.7v10.7c.3 0 .6-.2.9-.3l23.8-13.7c1.5-1 2.5-2.6 2.6-4.5v-5.2c0-1.6-1.2-2.3-2.6-1.4z"/><path d="m190.4 347.7 23.8-13.7c1.5-1 2.5-2.6 2.6-4.5v-5.2c0-1.6-1.1-2.3-2.6-1.5l-23.8 13.7c-1.5 1-2.5 2.6-2.6 4.5v5.2c0 1.6 1.1 2.3 2.6 1.5z"/><path d="m447.4 143.5-23.8 13.7c-1.5 1-2.5 2.6-2.6 4.4v5.2c0 1.6 1.1 2.3 2.6 1.5l23.8-13.7c1.5-1 2.5-2.6 2.6-4.4v-5.2c0-1.7-1.2-2.3-2.6-1.5z"/><path d="m229.2 66.8-23.8 13.7c-1.5 1-2.5 2.6-2.6 4.4v5.2c0 1.6 1.1 2.3 2.6 1.5l23.8-13.6c1.5-1 2.5-2.6 2.6-4.5v-5.2c-.1-1.6-1.2-2.3-2.6-1.5z"/><path d="m345.3 33.9-23.8 13.7c-1.5 1-2.5 2.6-2.6 4.5v5.2c0 1.6 1.1 2.3 2.6 1.5l23.8-13.8c1.5-1 2.5-2.6 2.6-4.5v-5.2c0-1.6-1.2-2.3-2.6-1.4z"/><path d="m112.5 214.8 23.8-13.7c1.5-1 2.5-2.6 2.6-4.4v-5.2c0-1.6-1.1-2.3-2.6-1.5l-23.8 13.7c-1.5 1-2.5 2.6-2.6 4.4v5.2c.1 1.7 1.2 2.4 2.6 1.5z"/><path d="m231.7 279.9v-5.2c0-1.6-1.1-2.3-2.6-1.5l-23.8 13.7c-1.5 1-2.5 2.6-2.6 4.5v5.2c0 1.6 1.1 2.3 2.6 1.5l23.8-13.7c1.6-1.1 2.5-2.7 2.6-4.5z"/><path d="m276.5 304.4 23.8-13.7c1.5-1 2.5-2.6 2.6-4.5v-5.2c0-1.6-1.1-2.3-2.6-1.5l-23.8 13.7c-1.5 1-2.5 2.6-2.6 4.5v5.2c.1 1.6 1.2 2.3 2.6 1.5z"/><path d="m317.9 263.9v-5.2c0-1.6-1.1-2.3-2.6-1.5l-23.7 13.8c-1.5 1-2.5 2.6-2.6 4.5v5.2c0 1.6 1.1 2.3 2.6 1.5l23.8-13.7c1.5-1.1 2.4-2.8 2.5-4.6z"/><path d="m354.7 221v-5.2c0-1.6-1.1-2.3-2.6-1.5l-23.8 13.7c-1.5 1-2.5 2.6-2.6 4.4v5.2c0 1.6 1.1 2.3 2.6 1.5l23.8-13.7c1.5-.9 2.5-2.6 2.6-4.4z"/><path d="m307.5 286.5 23.8-13.7c1.5-1 2.5-2.6 2.6-4.5v-5.2c0-1.6-1.2-2.3-2.6-1.5l-23.8 13.7c-1.5 1-2.5 2.6-2.6 4.5v5.2c0 1.7 1.2 2.4 2.6 1.5z"/><path d="m336.7 219.8v-5.2c0-1.6-1.1-2.3-2.6-1.5l-23.8 13.7c-1.5 1-2.5 2.6-2.6 4.4v5.2c0 1.6 1.1 2.3 2.6 1.5l23.8-13.7c1.6-.9 2.5-2.6 2.6-4.4z"/><path d="m319.8 191.1 23.8-13.7c1.5-1 2.5-2.6 2.6-4.4v-5.2c0-1.6-1.2-2.3-2.6-1.5l-23.8 13.7c-1.5 1-2.5 2.6-2.6 4.4v5.2c0 1.6 1.2 2.3 2.6 1.5z"/><path d="m262.7 207.3v-5.2c0-1.6-1.1-2.3-2.6-1.5l-23.8 13.7c-1.5 1-2.5 2.6-2.6 4.4v5.2c0 1.6 1.1 2.3 2.6 1.5l23.8-13.7c1.5-.9 2.5-2.6 2.6-4.4z"/><path d="m58.3 320.3-8.5 4.9v11.1l8.5-4.9c1.5-1 2.5-2.6 2.6-4.4v-5.2c-.1-1.7-1.2-2.3-2.6-1.5z"/><path d="m75.5 393.4-23.8 13.7c-.9.6-1.6 1.4-2 2.3v8.8c.6.5 1.4.5 2 0l23.8-13.7c1.5-1 2.5-2.6 2.6-4.5v-5.2c0-1.5-1.1-2.2-2.6-1.4z"/><path d="m94.9 148.4v5.2c0 1.6 1.2 2.3 2.6 1.5l23.8-13.7c1.5-1 2.5-2.6 2.6-4.4v-5.2c0-1.6-1.2-2.3-2.6-1.5l-23.8 13.7c-1.5.9-2.5 2.6-2.6 4.4z"/><path d="m459.6 217.6-20.9 12.1c-1.5 1-2.5 2.6-2.6 4.4v5.2c0 1.6 1.1 2.3 2.6 1.5l20.9-12.1z"/></g><path d="m51.8 473 407.6-235.3" fill="none"/><path d="m51.8 473.6c-.2 0-.4-.1-.5-.3-.1-.3-.1-.6.2-.7l407.6-235.3c.3-.1.6-.1.7.2s.1.6-.2.7l-407.5 235.3c-.1 0-.2.1-.3.1z" fill="#e0e0e0"/><path d="m255.3 39.6c0-.2 0-.3-.1-.4s0-.2-.1-.3c0 0 0 0 0-.1s0-.1-.1-.2v-.1c0-.1-.1-.1-.1-.2-.1-.2-.2-.3-.3-.4 0-.1-.1-.1-.1-.2s-.1-.1-.2-.2-.2-.1-.3-.2l-.2-.1c-1-.4-2.1-.2-2.9.4l-149.5 86.2c-1.3.8-2.4 1.9-3.1 3.3-.1.2-.2.4-.3.6s-.2.3-.2.4c-.1.2-.2.4-.2.6-.1.2-.1.4-.2.6s-.1.3-.1.4v.1c0 .1-.1.3-.1.4v.3s0 .2 0 .4 0 .4 0 .6v263 .5s0 .3 0 .4 0 .3.1.4l.1.2c0 .1.1.2.1.3.1.3.3.6.5.8l.2.2.1.1.2.1c.2.1.4.2.6.2h.2.3c.7 0 1.4-.2 2-.6l149.4-86.4c2.6-1.7 4.2-4.5 4.4-7.5v-263c-.1-.3-.1-.5-.1-.6z" opacity=".1"/><path d="m264.7 44.9c0-.2 0-.3-.1-.4s0-.2-.1-.3c0 0 0 0 0-.1s0-.1-.1-.2v-.1c0-.1-.1-.1-.1-.2-.1-.2-.2-.3-.3-.4 0-.1-.1-.1-.1-.2s-.1-.1-.2-.2-.2-.1-.3-.2l-.2-.1c-.9-.5-3.3-1.9-4-2.3-1-.5-2.2-.3-3 .3l-149.5 86.2c-1.3.8-2.4 1.9-3.1 3.3-.2.3-.4.7-.5 1.1-.2.4-.3.7-.4 1.1l-.2.6c-.1.5-.2 1.1-.2 1.6v263 .4s0 .2 0 .4l.1.3c0 .1 0 .2.1.3.1.2.2.5.3.7s.3.4.5.5c.1.1.2.1.3.2l.8.4 1.3.8 1.4.8.4.2.1.1.2.1c.2.1.4.2.6.2h.2.3c.7 0 1.4-.2 2-.6l149.5-86.2c2.6-1.7 4.2-4.5 4.4-7.5v-263c-.1-.3-.1-.4-.1-.6zm-134.2 88.4c0-.1 0-.2 0-.3s0-.3 0-.4c.2-3.1 1.8-6 4.4-7.7l.3-.2c.2-.1.5-.2.7-.3h.1c.1.4.2.8.2 1.3-.2 3.1-1.8 5.9-4.4 7.7-.4.2-.8.4-1.2.5 0-.1-.1-.4-.1-.6zm99.6-58.2c.2-3.1 1.8-6 4.4-7.7.1-.1.3-.1.4-.2l.2-.1.3-.1.3-.1c.1.4.2.8.2 1.3-.2 3.1-1.8 6-4.4 7.7-.4.2-.8.4-1.2.5-.2-.4-.2-.9-.2-1.3z" fill="#37474f"/><path d="m106.5 136.7v263c-.1 1 .3 2 1 2.6l-3.8-2.2c-.9-.6-1.4-1.7-1.3-2.8v-263c.1-1.5.5-3 1.3-4.3l4.1 2.4c-.8 1.3-1.2 2.8-1.3 4.3z" fill="#263238"/><path d="m264.7 44.9c0-.2 0-.3-.1-.4s0-.2-.1-.3c0 0 0 0 0-.1s0-.1-.1-.2v-.1c0-.1-.1-.1-.1-.2-.1-.2-.2-.3-.3-.4 0-.1-.1-.1-.1-.2s-.1-.1-.2-.2-.2-.1-.3-.2l-.2-.1c-1-.4-2.1-.2-2.9.4l-149.5 86.2c-1.3.8-2.4 1.9-3.1 3.3-.1.2-.2.4-.3.6-.1.1-.2.3-.2.4-.1.2-.2.4-.2.6-.1.2-.1.4-.2.6s-.1.3-.1.4v.1c0 .1-.1.3-.1.4v.3s0 .2 0 .4 0 .4 0 .6v263 .5s0 .3 0 .4 0 .3.1.4l.1.2c0 .1.1.2.1.3.1.3.3.6.5.8l.2.2.1.1.2.1c.2.1.4.2.6.2h.2.3c.7 0 1.4-.2 2-.6l149.4-86.4c2.6-1.7 4.2-4.5 4.4-7.5v-263c-.1-.3-.1-.4-.1-.6zm-134.2 88.4c0-.1 0-.2 0-.3s0-.3 0-.4c.2-3.1 1.8-6 4.4-7.7l.3-.2c.2-.1.5-.2.7-.3h.1c.1.4.2.8.2 1.3-.2 3.1-1.8 5.9-4.4 7.7-.4.2-.8.4-1.2.5 0-.1-.1-.4-.1-.6zm99.6-58.2c.2-3.1 1.8-6 4.4-7.7.1-.1.3-.1.4-.2l.2-.1.3-.1.3-.1c.1.4.2.8.2 1.3-.2 3.1-1.8 6-4.4 7.7-.4.2-.8.4-1.2.5-.2-.4-.2-.9-.2-1.3z" fill="#455a64"/><path d="m109.1 351.8 153.1-88.4v-183.6l-153.1 88.4z" fill="#fff"/><path d="m135.1 124.8c.2-.1.5-.2.7-.3-.2.1-.4.2-.7.3z" fill="#263238"/><path d="m139.3 127.5c-.2 3.1-1.8 5.9-4.4 7.6-2 1.2-3.7.6-4.3-1.3.4-.1.8-.3 1.2-.5 2.6-1.7 4.2-4.5 4.4-7.7 0-.4-.1-.9-.2-1.3h-.1c1.9-.3 3.4.8 3.4 3.2z" fill="#263238"/><path d="m235.7 67-.3.1z" fill="#263238"/><path d="m238.9 70c-.2 3.1-1.8 6-4.4 7.7-2 1.2-3.7.6-4.3-1.3.4-.1.8-.3 1.2-.5 2.6-1.7 4.3-4.5 4.4-7.7 0-.4-.1-.8-.2-1.3 1.9-.4 3.3.7 3.3 3.1z" fill="#263238"/><path d="m129.4 211c-.6 0-1.1-.5-1.1-1.1v-36.6c0-.4.2-.7.6-.9l27.5-15.9c.5-.3 1.2-.1 1.5.4s.1 1.2-.4 1.5l-27 15.6v36c-.1.5-.6 1-1.1 1z" fill="#285ffa"/><path d="m129.4 324.3c-.2 0-.4 0-.5-.1-.3-.2-.5-.6-.6-.9v-36.6c.1-.6.6-1 1.2-1 .5 0 .9.5 1 1v34.7l25.9-14.9c.5-.3 1.2-.1 1.5.4.3.5.1 1.2-.4 1.5l-27.5 15.9c-.3-.1-.4 0-.6 0z" fill="#285ffa"/><path d="m241.9 146c-.6 0-1.1-.5-1.1-1.1v-34.7l-25.9 14.9c-.5.3-1.2.1-1.5-.4s-.1-1.2.4-1.5l27.5-15.9c.3-.2.7-.2 1.1 0 .3.2.5.6.6.9v36.6c0 .7-.5 1.2-1.1 1.2z" fill="#285ffa"/><path d="m214.4 275.2c-.4 0-.7-.2-.9-.5-.3-.5-.1-1.2.4-1.5l27-15.6v-36c.1-.6.6-1 1.2-1 .5 0 .9.5 1 1v36.6c0 .4-.2.7-.6.9l-27.6 15.9c-.1.1-.3.2-.5.2z" fill="#285ffa"/><path d="m225 235.5 7.4-4.3v-19.8c-.1 0-.1 0-.1 0l-6.9 4c-.4.2-.4.5-.4.8v8.7c0 .5.1.6.5.4.9-.6 1.8-1 2.7-1.6.4-.3.6-.2.6.4v3.6c.1.4-.2.8-.5 1-.9.5-1.8 1.1-2.8 1.6-.3.2-.5.5-.4.9-.1 1.4-.1 2.8-.1 4.3l-3.8 2.2v-24.9c-1 .6-1.9 1.1-2.8 1.6-1.1.6-.9.8-1-.7 0-1.2 0-2.4 0-3.7l-3.7 2.2v-5c-1 .5-2 1.1-3 1.7-.7.4-.7.4-.7-.5v-3c0-1 0-1 .8-1.5l2.9-1.7v-5c-1.1.6-2.1 1.2-3.2 1.9-.4.2-.5.1-.5-.4 0-1.1 0-2.2 0-3.3s0-1 .8-1.5l2.9-1.7c0-1.5 0-3 0-4.4 0-.6-.2-.6-.5-.3-.9.6-1.8 1-2.7 1.6-.4.2-.5.1-.5-.4 0-1.2 0-2.4 0-3.7 0-.5-.1-.6-.5-.4-.9.6-1.8 1.1-2.7 1.6-.4.2-.6.6-.5 1v3.7c.1.3-.1.6-.4.8-1.1.6-2.2 1.3-3.3 1.9 0-7.8 0-15.6 0-23.5 0-1.4 0-1.4-1.1-.8l-2.6 1.5v-5c1.1-.6 2.1-1.3 3.2-1.8.4-.2.6-.6.5-1 0-2.9 0-5.7 0-8.6 0-.5-.1-.7-.5-.4-.8.5-1.7.9-2.5 1.5-.5.3-.7.3-.7-.5 0-2.8 0-5.5 0-8.2 0-.6-.1-.8-.6-.5-3.3 1.9-6.7 3.9-10 5.8-.5.2-.7.7-.6 1.2v8.3c.1.5-.2 1-.7 1.2-.9.4-1.7 1-2.6 1.5-.4.2-.5.1-.5-.4 0-1.2 0-2.3 0-3.5 0-.6-.1-.8-.6-.5-.9.6-1.8 1.1-2.6 1.5-.4.2-.6.6-.5 1v3.7c0 .3-.1.5-.3.8-1.1.7-2.3 1.3-3.4 2v-9.9c-1.2.7-2.3 1.3-3.5 2-.1.2-.2.4-.3.7v3.7c.1.4-.1.8-.5 1-.9.5-1.8 1.1-2.7 1.6-.4.2-.6.6-.5 1v3.3s0 1 .8.6c2-1.2 4.1-2.4 6.1-3.5.2-.1.5-.1.5.1v4.6c-1.1.6-2.1 1.3-3.2 1.8-.4.2-.6.6-.6 1.1v4.3l3.7-2.1v5l-3.6 2.2v5c1.1-.6 2.1-1.2 3.2-1.9.4-.2.5-.2.5.4v4.3l3.9-2.2c0 1.7-.2 3.4-.1 4.9 2.3-1.3 4.6-2.6 6.9-3.9.2-.1.5-.1.5.1v4.6c-3.6 2.1-7.1 4.1-10.7 6.2-.2.1-.5.1-.5.7v4.6c1.1-.6 2.1-1.2 3.2-1.9.4-.3.6-.2.6.4v3.5c0 .6.1.7.6.4 2.1-1.2 4.2-2.4 6.3-3.7.4-.3.6-.2.6.4v3.5c.1.5-.2.9-.6 1.1-.9.5-1.8 1.1-2.7 1.5-.3.2-.5.5-.5.9v3.4c.1.5-.2 1.1-.7 1.3-.8.4-1.7 1-2.5 1.4-.4.2-.6.6-.6 1.1v9.3l-3.7 2.2v4.3c0 .5.1.6.5.4 1.1-.6 2.1-1.2 3.2-1.9.1 3 0 6.2.1 9.2.1.4-.2.9-.6 1.1-1.1.6-2.1 1.2-3.2 1.9v4.2c.1.5-.2.9-.6 1.1-.8.4-1.6 1-2.5 1.4-.6.3-.7.6-.7 1.4v4c1.1-.6 2.1-1.2 3.2-1.8.4-.3.6-.1.6.4v8.4c.1.5-.2 1-.6 1.2-2.3 1.3-4.6 2.5-6.9 4v4.2c0 .5.1.7.5.4.9-.5 1.8-1 2.7-1.6.4-.2.6-.2.5.4v3.6c0 .4-.2.8-.5 1-.9.5-1.8 1-2.7 1.6-.2.2-.4.4-.4.7v4.5l7.5-4.3c0-1.4 0-2.8 0-4.1-.1-.4.1-.9.6-1.1.9-.5 1.8-1 2.7-1.6.4-.2.5-.1.5.4v3.7c0 .5.1.6.4.4 2.2-1.3 4.4-2.5 6.6-3.8.3-.2.5-.5.4-.9 0-1.2 0-2.5 0-3.6 0-.4.2-.8.5-1l2.7-1.5c.4-.3.5-.1.5.4v3.4c0 .7.1.8.7.5 3.5-2.1 7.1-4 10.6-6.2 0-4.7 0-9.3 0-14 0-.6.1-1 .6-1.2.8-.4 1.7-1 2.5-1.4.4-.2.7-.7.6-1.1 0-1.2 0-2.4 0-3.6-.1-.4.1-.7.5-.9.9-.5 1.9-1.1 2.8-1.6.4-.2.5-.1.5.4v3.8c0 .4.1.5.4.3 1.1-.7 2.2-1.3 3.3-1.9v9.5c0 .3-.1.6-.4.7-.9.5-1.9 1.1-2.9 1.6-.4.2-.5.1-.5-.4 0-1.2 0-2.4 0-3.7 0-.5-.1-.7-.5-.4-.9.6-1.8 1.1-2.7 1.6-.4.2-.6.6-.5 1v3.4c0 .7.1.9.7.5 1-.6 2-1.2 3.1-1.8v4.8l3.7-2.2c0-1.3 0-2.5 0-3.6 0-1.4-.2-1.2.9-1.8 2-1.2 4-2.3 6-3.5.5-.2.7-.7.6-1.2-.1-5.5.8-4.3-3.3-2.3-.2.1-.4 0-.4-.2 0-1.5 0-2.9 0-4.5 2.3-1.4 4.5-2.6 6.7-3.9.8-.4.8-.4.8-1.5-.3-1.6-.3-2.8-.2-4.2zm-48.7-56.7v-5c1.3-.7 2.4-1.5 3.7-2.2 0-1.4.1-2.9.1-4.3-.1-.3.1-.7.4-.9 1-.5 1.9-1.1 2.9-1.6.3-.2.4-.1.4.4v13.8c0 .4-.1.7-.5.9-.9.5-1.8 1-2.8 1.6-.4.2-.5.1-.5-.4 0-1.5 0-2.9 0-4.3zm6.9 11c-1 .6-2 1.2-3.1 1.8-.1-.2-.1-.4-.2-.6 0-1.3 0-2.5 0-3.8-.1-.4.1-.7.5-.9.9-.5 1.9-1 2.8-1.6.4-.2.5-.1.5.4v3.6c.1.4-.1.9-.5 1.1zm27.1 24.2 3.3-1.9v4.9c-1.2.7-2.3 1.4-3.5 2-.1 0-.2-.1-.2-.3 0-1.3 0-2.7 0-4 0-.3.2-.6.4-.7zm-7.5-15.6c1-.6 1.9-1.1 2.9-1.7.3-.2.5-.1.5.3v3.8c0 .4-.1.7-.5.9-.9.5-1.9 1-2.8 1.6-.4.2-.5.1-.5-.4 0-1.4 0-2.8 0-4.1.2-.2.3-.3.4-.4zm-.3 10.7c-.1-.4.1-.7.5-.9.5-.3.9-.5 1.4-.8s.9-.5 1.4-.8c.3-.2.4-.1.4.3v3.9c0 .3-.1.6-.4.8-1 .5-1.9 1.1-2.9 1.6-.3.2-.4.1-.4-.3 0-1.2 0-2.5 0-3.8zm-3.8-28.9c.1.3-.1.7-.4.9-1 .5-1.9 1.1-2.9 1.7-.3.1-.4.1-.4-.3 0-1.5 0-3 0-4.5 1.1-.6 2.1-1.2 3.2-1.9.4-.2.5-.1.5.4zm-7.5 4.2c.1.4-.1.8-.5 1-.9.5-1.8 1-2.7 1.6-.4.2-.5.1-.5-.4 0-2.9 0-5.8 0-8.6 0-.3 0-.6.3-.9l7.2-4.1v5c-1 .6-2.1 1.3-3.2 1.8-.5.2-.7.7-.6 1.3.1 1 0 2.2 0 3.3zm-3.7-21.4c-.1-.4.1-.8.5-1 .8-.4 1.6-.9 2.4-1.4 1-.6.9-.4.9-1.7 0-1 0-2.1 0-3.1 0-.4.2-.8.5-1 .9-.5 1.8-1 2.7-1.6.4-.3.6-.2.6.4v4.2l3.7-2.1v4.6c-.1.3-.3.5-.5.6-2.3 1.4-4.6 2.6-6.9 4.1 0 1.4-.1 2.9-.1 4.3.1.4-.1.7-.5.9-.9.5-1.8 1-2.7 1.6-.4.2-.5.2-.5-.4-.1-2.6-.1-5.5-.1-8.4zm-7.4 68.5c1.1-.7 2.3-1.3 3.4-2 .1 0 .3.1.3.3v4.1c0 .2-.1.4-.3.6-1.1.7-2.3 1.3-3.4 2zm3.7 42.1c.1.4-.1.7-.5.9-.9.5-1.9 1.1-2.8 1.6-.3.2-.5.1-.4-.3 0-.6 0-1.3 0-1.9s0-1.3 0-2c.1-.3.2-.5.4-.7 1-.6 1.9-1.1 2.9-1.7.4-.2.4 0 .4.4zm0-15c0 .3-.1.5-.3.8-1.1.7-2.2 1.3-3.4 2v-3.4c0-1.6 0-1.6 1.2-2.3l2.7-1.5c-.2 1.5-.3 3-.2 4.4zm3.1-6.1c-1 .5-2 1.1-3 1.7-.1-1.4-.2-2.9-.1-4.3 0-.5-.1-.6-.5-.4-.9.6-1.9 1.1-2.8 1.6-.1.1-.4 0-.4-.1 0-1.5 0-2.9 0-4.6l2.9-1.7c.9-.5.8-.4.8-1.6v-8.8l2.4-1.4c1.3-.8 1.3-.8 1.3 1v17.3c0 .7-.1 1-.6 1.3zm7.6 10.6c-4.1 2.1-3.1 3-3.2-2.5 0-.5-.1-.6-.5-.4-4.2 2.3-3.1 2.9-3.3-2.4-.1-.4.2-.9.6-1.1 2.3-1.3 4.6-2.7 6.9-4v9.3c.1.4-.1.9-.5 1.1zm4.3-12.5-3.8 2.2c0-3.1 0-6.3 0-9.4 0-.3.1-.6.4-.8 1-.5 1.9-1.1 2.9-1.7.3-.1.4-.2.4.3 0 3 0 6.1.1 9.4zm0-15.7c0 .4-.2.8-.5 1-.9.5-1.8 1-2.7 1.6-.4.2-.6.2-.5-.4 0-1.2 0-2.4 0-3.6 0-.5-.1-.7-.5-.4-.9.6-1.8 1-2.7 1.6-.4.2-.5.2-.5-.4 0-1.3 0-2.5 0-3.7-.1-.4.1-.7.5-.9.9-.5 1.9-1.1 2.9-1.6.3-.1.5-.5.4-.8 0-1.4 0-2.9 0-4.4-2.3 1.2-4.6 2.6-6.9 3.9-.4.3-.6.2-.6-.4 0-1.2 0-2.4 0-3.6-.1-.4.1-.8.5-1 .9-.5 1.8-1 2.7-1.5.4-.2.6-.6.5-1 0-6.4.1-12.9-.1-19.3-1.1.6-2.1 1.2-3.1 1.8-.5.3-.6.2-.6-.4 0-1.4 0-2.7 0-4.2l7.5-4.3v-4c0-1 0-1 .7-1.4s1.6-.9 2.5-1.4c.4-.3.5-.1.5.4v9.3l3.7-2.1v5.2c-.1 0-.2 0-.4.1-2.4 1.4-4.7 2.6-7.1 4.1v4.9l2.9-1.7c.8-.4.8-.4.8.6v14c2.3-1.4 4.6-2.6 6.9-4 .4-.3.6-.2.6.4v3.4c.1.5-.2 1-.6 1.2-2.3 1.3-4.6 2.6-6.9 3.9 0 3 0 6.1.1 9.1zm14.9 2.1c-3.6 2.1-7.1 4.1-10.6 6.1-.4.3-.6.2-.6-.4 0-4.5 0-8.9 0-13.4-.1-.5.2-1 .6-1.2 3.3-1.9 6.7-3.8 10-5.8.5-.3.6-.2.6.5zm-63.1 16.5c-.4.2-.5.2-.5-.4 0-2.9 0-5.8 0-8.7-.1-.4.2-.8.5-1 2.2-1.2 4.4-2.5 6.5-3.8.4-.2.5-.1.5.4v4.4c2.3-1.3 4.6-2.7 6.9-3.9.4-.2.7-.6.6-1.1 0-1.4 0-2.8 0-4.2-2.5 1.2-5 2.9-7.5 4.2 0-1.5 0-2.9 0-4.3 0-.5-.1-.6-.5-.4-.9.6-1.8 1-2.7 1.6-.4.3-.5.1-.5-.4 0-3.1 0-6.1 0-9.3-2.3 1.3-4.6 2.6-6.9 4-.5.3-.6.2-.6-.5 0-1.2 0-2.3 0-3.4-.1-.5.2-.9.6-1.1 3.6-2.1 7.1-4 10.6-6.2 0-3.2 0-6.3 0-9.4 0-.4-.2-.4-.4-.2-1 .6-1.9 1.1-2.9 1.7-.3.2-.5.5-.4.8v4.4l-2.5 1.4c-1.3.7-1.3.7-1.3-1v-3.3c-1.1.6-2.1 1.3-3.1 1.8-.5.3-.6.6-.6 1.2 0 3 .1 6 0 9.1l-7.4 4.3c-.1 1.5 0 2.9-.1 4.4 0 .6.2.6.6.4.9-.6 1.8-1 2.8-1.6.3-.2.4-.1.4.3v3.7c.1.4-.2.8-.5.9-.9.5-1.8 1-2.6 1.5-.4.2-.7.7-.6 1.1 0 3-.1 6.1 0 9.1 1.1-.6 2.1-1.3 3.2-1.8.1-.1.4 0 .4.1v4.7l-3.7 2.1v5c1.1-.6 2.1-1.2 3.2-1.9.4-.2.5-.1.5.4v3.7c0 .4.1.5.4.4.9-.6 1.9-1.1 2.9-1.6.3-.2.5-.5.4-.9 0-1.4 0-2.9 0-4.4l3.7-2.1c.1 1.4 0 2.8 0 4.2 0 .5.1.7.5.4.9-.6 1.9-1.1 2.8-1.6.4-.2.6-.6.5-1 0-1.4 0-2.9 0-4.3-1 .8-2.1 1.5-3.2 2.1zm-4.3 2.4c-1.2.7-2.3 1.4-3.4 2-.1 0-.3-.1-.3-.3 0-1.5 0-3 0-4.5 1.2-.7 2.3-1.3 3.4-1.9.1-.1.3.1.3.2zm3.3-16.8c-.8.4-1.5.9-2.3 1.3-1.1.6-1 .4-1 1.8v3.1c.1.4-.1.8-.5.9-.9.5-1.9 1-2.8 1.6-.4.2-.5.1-.5-.4 0-1.5 0-2.9 0-4.4s0-2.8 0-4.2c-.1-.4.1-.9.6-1.1 2.1-1.2 4.3-2.4 6.4-3.7.4-.2.5-.2.5.4v3.6c.1.5-.1.9-.4 1.1zm57.3-63 25.5-14.7v-33.9c0-1 0-1-.8-.6l-24.7 14.2c-.7.4-.7.4-.7 1.4v33c0 1 0 1 .7.6zm3.7-32.1c5.8-3.3 11.6-6.7 17.4-10 .6-.3.7-.1.7.6v11.6s0 7.7 0 11.6c.1.5-.2 1.1-.7 1.3-5.8 3.3-11.6 6.7-17.4 10-.5.3-.7.2-.7-.5 0-7.8 0-15.5 0-23.3-.1-.6.2-1.1.7-1.3zm-71 71c8.3-4.8 16.5-9.6 24.8-14.3.7-.4.7-.4.7-1.4v-33c0-.9 0-.9-.7-.5-8.5 4.9-17 9.7-25.4 14.7-.1 11.4 0 22.6 0 34-.1.7 0 .8.6.5zm3-30.9c-.1-.5.2-.9.6-1.1 5.9-3.3 11.7-6.7 17.6-10.1.5-.3.6-.1.6.5v11.8s0 7.7 0 11.6c.1.5-.2 1-.6 1.2-5.8 3.3-11.7 6.7-17.5 10.1-.4.3-.6.2-.6-.4-.1-8-.1-15.9-.1-23.6zm21.8 71.4c-8.5 4.9-17 9.8-25.5 14.7-.1 11.4 0 22.7 0 34 0 .7.1.8.7.5 8.5-4.9 17-9.8 25.5-14.7 0-11.3 0-22.7 0-34 0-.7-.2-.8-.7-.5zm-3.7 32.1c-5.8 3.3-11.6 6.7-17.4 10.1-.5.3-.7.2-.6-.5 0-7.7 0-15.5 0-23.2-.1-.5.2-1.1.7-1.3 2.9-1.7 5.9-3.4 8.8-5s5.8-3.3 8.7-5c.5-.3.6-.2.6.5v23.3c-.1.4-.4.9-.8 1.1zm71.7-116.3-3.7 2.1c0-1.5 0-2.9 0-4.3 0-.5-.1-.6-.5-.4-.9.6-1.9 1.1-2.8 1.6-.3.2-.5.6-.5.9v3.7c0 .5.1.6.5.4.9-.6 1.8-1 2.8-1.6.4-.3.5-.1.5.4v3.6c.1.4-.2.8-.6 1-2.3 1.3-4.6 2.6-6.9 4v4.6c0 .1.3.2.4.1.9-.5 1.7-1 2.6-1.5s.7-.4.7.6v8.3c0 .5.1.7.5.4.9-.5 1.8-1 2.6-1.5.4-.3.6-.2.6.4v3.3c.1.6-.2 1.1-.7 1.4-2.3 1.2-4.5 2.7-6.8 3.9 0-3.1 0-6.1 0-9.1 0-.6-.1-.7-.6-.4-.9.5-1.8 1-2.6 1.5-.4.2-.6.6-.6 1.1 0 3.1-.1 6.2 0 9.2 1.2-.8 2.4-1.4 3.7-2 0 1.6.1 3.2.1 4.9 1.1-.6 2.1-1.1 3-1.8.6-.4.7-.2.7.6v3.4c0 .4.1.6.4.4 1-.6 1.9-1.1 2.9-1.6.3-.2.5-.5.4-.9 0-1.1 0-2.3 0-3.4 0-.9 0-.9.7-1.4l2.9-1.7c.2-4.9 0-9.6.1-14.5 0-.5-.1-.5-.5-.3-.9.5-1.8 1-2.8 1.6-.4.3-.5.1-.5-.4 0-1.2 0-2.4 0-3.6-.1-.4.1-.8.5-1 .9-.5 1.7-1 2.6-1.5.5-.2.7-.7.7-1.2.1-3.2.2-6.3.2-9.3zm-59.9 59.6c0-1.2 0-2.4 0-3.6 0-1.4 0-1.4 1.1-2l2.6-1.5v-9.9l-3.6 2.1c-.1.1-.1.2-.2.2 0 .1.1.2.1.2v9c0 .3-.1.6-.4.8-1 .5-1.9 1.1-2.9 1.6-.4.2-.5.1-.5-.4 0-1.2 0-2.4 0-3.7 0-.5-.1-.6-.5-.4-2.2 1.3-4.3 2.5-6.5 3.7-.4.2-.6.6-.5 1v3.6c0 .5.1.6.5.4.9-.6 1.8-1 2.7-1.6.4-.2.5-.1.5.4v4.4c2.6-1.5 5.1-2.9 7.6-4.3zm56.7 12.1 2.7-1.5c.3-.2.5-.5.5-.9 0-1.3 0-2.5 0-3.8 0-.4-.1-.5-.4-.3-1 .6-1.9 1.1-2.9 1.7-.3.2-.5.5-.4.9v3.6c0 .4-.2.8-.5 1-.9.5-1.8 1-2.7 1.5-.4.2-.6.6-.5.9v8.6c0 .6.2.6.6.4 1.1-.6 2.1-1.2 3.2-1.8l3.3-1.9c.3-.1.5-.5.5-.8 0-1.3 0-2.5 0-3.8 0-.5-.1-.5-.5-.3-.9.6-1.8 1-2.8 1.6-.4.2-.5.1-.5-.4 0-1.2 0-2.4 0-3.5-.2-.5 0-1 .4-1.2zm-56.7-36.6c0-.2 0-.3-.1-.5l-3.3 1.9c-.4.2-.4.5-.4.8v8.7c0 .6.2.6.6.4 1-.7 2-1.2 3.1-1.6 0-.2.1-.4.1-.6zm3.3 37.5-7 4v4.3c0 .6.1.6.5.4 2.3-1.4 4.6-2.7 6.9-4 0-1.5 0-2.9 0-4.4.1-.4-.1-.5-.4-.3zm-11.1-28.5c-1 .6-2 1.1-3 1.7-.3.1-.4.4-.4.7v4c0 .4.2.4.4.3.5-.3 1-.6 1.5-.9s1-.5 1.4-.8c.2-.2.3-.4.4-.7 0-1.4 0-2.7 0-4 .1-.4 0-.5-.3-.3zm-22.5 3c-1 .5-2 1.1-3 1.7-.2.2-.3.4-.4.6v4.6c1.2-.7 2.3-1.3 3.4-2 .2-.2.3-.4.3-.6 0-1.4 0-2.7 0-4 .1-.2-.1-.4-.3-.3zm30.3-18.1c0 .4.1.6.4.4 1-.6 1.9-1.1 2.9-1.7.3-.1.5-.5.4-.8 0-1.5 0-2.9 0-4.4l-3.7 2.1zm-7.9 5.1-2.9 1.7c-.3.2-.5.5-.4.8v3.9c0 .4.1.4.4.3 1-.6 2-1.1 2.9-1.7.3-.1.4-.4.4-.7 0-.6 0-1.3 0-2s0-1.3 0-2c.1-.4-.1-.4-.4-.3zm-10.7 41.2v4.9l3.7-2.1v-5zm15.3-63.7c-.3.2-.5.5-.4.8v3.8c0 .5.2.6.5.3 1.1-.6 2.1-1.2 3.2-1.9v-5c-1.1.7-2.2 1.4-3.3 2zm.1 9.9c-.4.2-.6.6-.5 1v3.7c0 .5.1.6.5.4 1.1-.6 2.1-1.3 3.2-1.9v-5c-1.1.6-2.1 1.2-3.2 1.8zm47.7-17.6c-1 .6-1.9 1.1-2.9 1.7-.3.1-.5.5-.4.8v3.9c0 .2.2.4.3.3 1.1-.6 2.3-1.3 3.4-2 0-1.6 0-3 0-4.5 0-.4-.1-.3-.4-.2zm-48.2 88.2v4.1c0 .1.2.3.3.2 1.1-.6 2.3-1.3 3.4-2v-5l-3.2 1.9c-.4.2-.6.5-.5.8zm40.8-34c-.5.2-1 .6-1.5.8s-1 .6-1.5.9c-.3.1-.4.4-.4.7v4c0 .2.2.3.3.3 1-.5 2-1.1 3-1.7.2-.2.3-.4.3-.7 0-1.4 0-2.7 0-4 .1-.2-.1-.3-.2-.3zm-37.7 11.7c.4-.2.7-.6.6-1.1 0-1.4 0-2.8 0-4.2l3.7-2.2v-4.9l-3.7 2.1v5c-1.1.6-2.1 1.3-3.2 1.8-.4.2-.6.6-.5 1v4.3l-11.2 6.5v4.4c0 .5.1.5.5.3l10.7-6.2c0-1.7 0-3.3 0-5 1-.5 2.1-1.2 3.1-1.8zm42.4-79.3c3.5-2.1 7-4.1 10.6-6.1.1-4.8 0-9.4.1-14.1 0-.7-.2-.8-.7-.5-3.5 2.1-7 4-10.6 6.2v14.1c0 .6.1.7.6.4zm-68 38.5c0 .6.1.7.6.4 1.7-1 3.4-2 5.1-3s3.3-1.9 5-2.9c.4-.2.7-.6.6-1.1 0-4.5 0-9 0-13.5 0-.5-.1-.6-.5-.4-3.4 2-6.8 4-10.2 5.9-.4.2-.6.6-.5 1-.1 4.6-.1 9.1-.1 13.6zm10.7 69.4c-3.5 2.1-7 4.1-10.6 6.1-.1 4.8 0 9.4-.1 14.1 0 .7.1.8.7.5 3.5-2.1 7-4 10.6-6.2 0-4.7 0-9.4 0-14.1 0-.5-.1-.7-.6-.4z" fill="#263238"/><path d="m150.4 351.5c0-1 .2-2 .4-3s.5-1.9.9-2.8.9-1.7 1.5-2.4 1.3-1.3 2.2-1.8c.6-.4 1.4-.7 2.1-.7.6 0 1.1.2 1.5.6.4.5.8 1.1.9 1.7.2.8.3 1.7.4 2.5v1.1s0 .8 0 1.2 0 .8 0 1.2 0 .8 0 1.1c0 1-.2 1.9-.3 2.8-.2.9-.5 1.8-.9 2.7l1.3 2.1v.2c0 .2 0 .3-.1.5-.1.1-.1.2-.3.3l-1.6.9c-.2.1-.3.1-.4 0s-.2-.2-.2-.3l-.5-.9c-.3.3-.6.6-.9.8-.3.3-.6.5-1 .7-.6.4-1.4.7-2.2.7-.6 0-1.1-.2-1.5-.6-.4-.5-.8-1.1-.9-1.7-.2-.8-.3-1.7-.4-2.5 0-.3 0-.7 0-1.1s0-.8 0-1.2 0-.8 0-1.2-.1-.6 0-.9zm7.6-4.3c.1-.9-.2-1.8-.8-2.5-.5-.4-1.1-.4-1.9.1s-1.5 1.2-1.9 2.1c-.5 1-.8 2.2-.8 3.4v2.2s0 1.5 0 2.2c-.1.9.2 1.8.8 2.4.5.4 1.1.4 1.9-.1s1.5-1.2 1.9-2.1c.5-1 .8-2.2.8-3.3 0-.7 0-1.4 0-2.2s0-1.6 0-2.2z" fill="#fafafa"/><path d="m167.3 334.9c1.4-.8 2.5-.9 3.2-.3s1.1 1.8 1.1 3.5c0 1.2-.2 2.4-.6 3.6-.4 1.1-.9 2.1-1.7 2.9l2.3 5.1c0 .1.1.2.1.3 0 .2 0 .3-.1.5 0 .1-.1.2-.3.3l-1.4.8c-.2.1-.4.1-.5 0s-.2-.2-.2-.3l-2.2-4.7-2.2 1.3v6c0 .2-.1.4-.1.6-.1.2-.2.3-.3.4l-1.4.8c-.1.1-.2.1-.3 0s-.2-.3-.1-.4v-16.8c0-.2.1-.4.1-.6.1-.2.2-.3.3-.4zm-2.5 9.6 2.4-1.4c.6-.3 1.1-.8 1.5-1.4.4-.7.6-1.5.6-2.3 0-1-.2-1.5-.6-1.6-.5-.1-1.1.1-1.5.4l-2.4 1.4z" fill="#fafafa"/><path d="m184.9 337.1c0-.2.1-.4.2-.6.1-.1.2-.3.3-.4l1.4-.8c.1-.1.2-.1.3 0s.1.3.1.4c0 .8-.2 1.6-.3 2.3-.2.8-.5 1.7-.9 2.4-.4.8-.9 1.6-1.5 2.3s-1.4 1.4-2.2 1.8c-.6.4-1.3.6-2.1.7-.6 0-1.1-.2-1.5-.6-.5-.5-.8-1.1-1-1.7-.2-.9-.4-1.7-.4-2.6 0-.6 0-1.4 0-2.2s0-1.5 0-2.2c0-1.1.2-2.1.4-3.1s.6-1.9 1-2.8c.4-.8.9-1.6 1.5-2.4.6-.7 1.3-1.3 2.1-1.8.7-.4 1.4-.7 2.2-.8.6 0 1.1.2 1.5.5.4.4.7.9.9 1.4.2.6.3 1.3.3 1.9 0 .2 0 .4-.1.6s-.2.3-.3.4l-1.4.8c-.1.1-.2.1-.3 0-.1 0-.2-.2-.2-.4 0-.3-.1-.6-.2-.9-.1-.2-.3-.4-.5-.6-.2-.1-.5-.2-.8-.2-.4.1-.8.2-1.1.4-.4.3-.8.6-1.1 1s-.6.8-.8 1.3-.4 1-.5 1.5-.2 1.1-.2 1.6v2.2s0 1.5 0 2.2c0 .5.1 1 .2 1.4s.3.7.5.9.5.3.8.4c.4 0 .8-.1 1.1-.4.4-.2.8-.5 1.1-.9.3-.3.6-.7.8-1.1s.4-.8.5-1.2c.1.1.2-.3.2-.7z" fill="#fafafa"/><path d="m188.8 329.3c0-1 .2-2 .4-3s.5-1.9.9-2.8.9-1.7 1.5-2.4 1.3-1.3 2.2-1.8c.6-.4 1.4-.7 2.1-.7.6 0 1.1.2 1.5.6.4.5.8 1.1.9 1.7.2.8.4 1.7.4 2.5v1.1s0 .8 0 1.2 0 .8 0 1.2 0 .8 0 1.1c0 1-.2 2-.4 2.9-.2 1-.5 1.9-.9 2.8s-.9 1.7-1.5 2.4-1.3 1.3-2.1 1.8c-.6.4-1.4.7-2.2.7-.6 0-1.1-.2-1.5-.6-.4-.5-.8-1.1-.9-1.7-.2-.8-.3-1.7-.4-2.5 0-.3 0-.7 0-1.1s0-.8 0-1.2 0-.8 0-1.2 0-.7 0-1zm7.6-4.3c.1-.9-.2-1.8-.8-2.4-.5-.4-1.1-.4-1.9.1s-1.5 1.2-1.9 2.1c-.5 1-.8 2.2-.8 3.4v2.2s0 1.5 0 2.2c-.1.9.2 1.8.8 2.4.5.4 1.1.4 1.9-.1s1.5-1.2 1.9-2.1c.5-1 .8-2.2.8-3.3 0-.7 0-1.4 0-2.2s0-1.7 0-2.3z" fill="#fafafa"/><path d="m205.6 312.8c.7-.4 1.4-.7 2.2-.7.6 0 1.1.2 1.5.6.5.5.8 1.1.9 1.7.2.9.4 1.8.4 2.7.1 1.3.1 2.5 0 3.8 0 1.1-.2 2.1-.4 3.2-.2 1-.5 1.9-.9 2.8-.4.8-.9 1.6-1.5 2.3s-1.3 1.3-2.1 1.7l-4.3 2.5c-.1.1-.2.1-.3 0s-.1-.3-.1-.4v-16.8c0-.2 0-.4.1-.6s.2-.3.3-.4zm2.7 5.6c0-.5-.1-1-.2-1.4s-.3-.7-.5-.9-.5-.3-.9-.3-.9.2-1.3.4l-2.3 1.3v11.7l2.4-1.4c.5-.3.9-.6 1.2-1s.6-.8.8-1.3.4-1 .5-1.5c.1-.6.2-1.1.2-1.7.2-1.4.2-2.7.1-3.9z" fill="#fafafa"/><path d="m220.7 319c.1-.1.2-.1.3 0s.2.3.1.4v1.8c0 .2-.1.4-.1.6-.1.2-.2.3-.3.4l-7.4 4.3c-.1.1-.2.1-.3 0s-.2-.3-.1-.4v-16.7c0-.2.1-.4.1-.6.1-.2.2-.3.3-.4l7.3-4.2c.1-.1.2-.1.3 0s.1.3.1.4v1.8c0 .2 0 .4-.1.6s-.2.3-.3.4l-5.4 3.1v4.1l5.1-2.9c.1-.1.2-.1.3 0s.1.3.1.4v1.8c0 .2 0 .4-.1.6s-.2.3-.3.4l-5.1 2.9v4.3z" fill="#fafafa"/><path d="m62.2 467 8.7-5s5.2-21.5 3.2-40.8c-2.9-27.2-20.8-37.4-27.6-35s-8.8 10.3 2.5 26.4c6.5 9.5 14.7 29.4 13.2 54.4z" fill="#285ffa"/><path d="m62.2 467 8.7-5s5.2-21.5 3.2-40.8c-2.9-27.2-20.8-37.4-27.6-35s-8.8 10.3 2.5 26.4c6.5 9.5 14.7 29.4 13.2 54.4z" fill="#fff" opacity=".65"/><path d="m65.8 456.5c-.4-.1-.6-.4-.6-.7 4.8-25-4-53.2-14.8-64.9-.2-.3-.1-.7.1-.9s.5-.1.7 0c11 11.9 19.9 40.5 15.1 66 0 .3-.3.5-.5.5z" fill="#fff"/><path d="m40.3 479.6c-1.3.7-4.8-2.3-5.7-3-1.6-1.2-2.9-2.9-3.8-4.8-.9-2.2-1.2-4.5-.7-6.8.3-1.2.6-2.4 1-3.6l1.2-3.5c.5-1.1.7-2.3.7-3.5-.2-2.4-2.2-4.2-4.1-5.7-2-1.7-4.2-3.9-4-6.8.3-2.2 1.3-4.3 2.8-5.9 1.5-1.7 3.2-3.1 4.5-4.9 1-1.2 1.6-2.8 1.7-4.4-.1-1-.4-2-.8-2.8-.9-1.9-2.2-3.7-2.8-5.8s-.4-4.5 1.3-5.9c1.3-1.1 3.3-1.2 5-1 1.6.3 3.2.9 4.5 1.9 4.4 2.8 6.8 8.3 11.5 10.5 1.9.7 3.8 1.3 5.8 1.7 1.9.6 3.9 1.7 4.7 3.6 1.6 3.6-1.9 7.9-.9 11.7.9 3.4 4.1 4.8 5.8 7.9.7 1.4.9 2.9.6 4.4-.3 2.5-1 5-2.2 7.3-1.3 2.3-2.8 4.6-4.4 6.7.2.1-21.5 12.6-21.7 12.7z" fill="#285ffa"/><path d="m40.3 479.6c-1.3.7-4.8-2.3-5.7-3-1.6-1.2-2.9-2.9-3.8-4.8-.9-2.2-1.2-4.5-.7-6.8.3-1.2.6-2.4 1-3.6l1.2-3.5c.5-1.1.7-2.3.7-3.5-.2-2.4-2.2-4.2-4.1-5.7-2-1.7-4.2-3.9-4-6.8.3-2.2 1.3-4.3 2.8-5.9 1.5-1.7 3.2-3.1 4.5-4.9 1-1.2 1.6-2.8 1.7-4.4-.1-1-.4-2-.8-2.8-.9-1.9-2.2-3.7-2.8-5.8s-.4-4.5 1.3-5.9c1.3-1.1 3.3-1.2 5-1 1.6.3 3.2.9 4.5 1.9 4.4 2.8 6.8 8.3 11.5 10.5 1.9.7 3.8 1.3 5.8 1.7 1.9.6 3.9 1.7 4.7 3.6 1.6 3.6-1.9 7.9-.9 11.7.9 3.4 4.1 4.8 5.8 7.9.7 1.4.9 2.9.6 4.4-.3 2.5-1 5-2.2 7.3-1.3 2.3-2.8 4.6-4.4 6.7.2.1-21.5 12.6-21.7 12.7z" fill="#fff" opacity=".3"/><path d="m52.9 473.1c-.3 0-.5-.3-.5-.6 2.1-22.5-7.3-48-14.7-55.6-.2-.2-.2-.6 0-.8s.6-.2.8 0c7.5 7.8 17.1 33.7 15 56.5 0 .3-.3.5-.6.5z" fill="#fff"/><path d="m50.6 445.3h-.2c-5.3-1.7-10.7-2.9-16.3-3.5-.3 0-.5-.3-.5-.6 0-.3.3-.5.6-.5 5.6.6 11.2 1.8 16.5 3.5.3.1.4.4.3.7.1.3-.1.4-.4.4z" fill="#fff"/><path d="m361.4 419.5c.1 4.9.5 12.1 0 14.2s-8.7 4-15.2 4.3-14.2-.7-14.6 3.8 3.6 7.6 6.5 9c5 2.3 10.6 1.8 15.6 1.1s7.5-.2 12.8 1.1 8.1.5 10.4-.6c3.3-1.6 2.4-7.3 1.3-11s-1-7-.6-12.1 1.9-12.5 1.9-12.5z" fill="#ffbda7"/><path d="m378.1 441.5s0 1.6-3.4 2.3-9 .5-12.9.8c-5.9.4-10.4 1-17.1 0-5.9-.9-5.7-5.6-.4-6.4-6 .1-12.3-.3-12.7 3.8-.5 4.6 3.6 7.6 6.5 9 5 2.3 10.6 1.8 15.6 1.1s7.5-.2 12.8 1.1 8.1.5 10.4-.6c3.2-1.8 2.4-7.5 1.2-11.1z" fill="#455a64"/><path d="m422.6 407.3c2.8 4 7.3 11.6 8 13.5s1.2 8.9 0 11c-1.7 1.3-4.4 2-6.8 3.1-3.3 1.6-4.1 4.4-1.9 6.5 3 2.9 8 3.3 10.9 3.1 4.3-.7 4.6-5.5 5.2-9.8s-.1-12.7 3.1-17.9 9-5.7 9.8-3.9c-.4-2.6-1.8-2.7-4.9-4.4s-5.8-1.7-7.5-5.8c-2-4.8-3.9-10.6-3.9-10.6z" fill="#ffbda7"/><path d="m428.7 444.6c3.1.5 5.3.5 10.8-2.2 4.8-2.3 6-3.3 6.7-4.6 1.1-2-.1-7.1.9-11.5.7-3.1 1.8-6 3.1-8.9 1.1-2.6 1-3.8.8-4.5-.4-1.6-3.7-1.9-6.9 0s-5.3 5.4-6.3 13.8.6 17.7-9.1 17.9z" fill="#263238"/><path d="m451 412.9c-.4-2.6-1.3-3-4.4-4.8-1.1-.6-2.3-1.1-3.4-1.7-3-.6-7.8 1.8-8 8.1s.8 14.4-1.1 17.3c-1.6 2.5-4.3 2.4-3.7-.1-4.3 1.6-5.8 1.6-8.2 2.9-2.8 1.5-3.7 5.5-1.1 7.1 3.4 2.3 7.5 3.3 11.6 2.7 4.3-.7 4.6-5.5 5.2-9.8s-.1-12.7 3.2-17.9 9.2-5.5 9.9-3.8z" fill="#455a64"/><path d="m423.4 409.8s-15.7-23-24.1-38c-6.2-11-6.8-13.2-8.3-20.4-3.3-15.5-4-19.2-4-19.2l-4.9 31.4c.8 3.4 2.4 10.1 2.4 14.1 0 7.7-.7 15.5-1.9 23.1-1.1 8.6-2.7 17.2-4.8 25.6-1.2.9-4.8 1-7.8.9-3-.2-5.9-.7-8.8-1.6 0 0-2.6-36.9-3.2-47.1-.7-12.2-1-17-1.3-23.7-.6-10.7-2.1-26.1-1.6-45.7.8-39 9.5-56.8 9.5-56.8l44-6.1c3.6 13.1 11.2 14.7 12 32.6.2 4.1-2 12.1-2 18.5-.2 20.5-2.1 52.6-2.1 52.6 4.8 4.5 8.4 8.5 11.7 18.8 2 6.3 6.5 22.1 8.4 28.6-5.5 0-13.2 9.9-13.2 12.4z" fill="#455a64"/><path d="m379 274.9 1.2-.2c1 7.1 2.7 15.1 3.6 15.7 1.6 1.1 7.6 2 9 1.7s2.5-1.4 4.9-4.7c1.7-2.3 1.5-3.7 1.1-6.8-.1-1.2-.3-2.5-.4-4.1l1.2-.1c.1 1.6.3 2.9.4 4.1.4 3.1.6 5-1.3 7.7-2.6 3.5-3.9 4.7-5.6 5.1-.2.1-.5.1-.8.1-2.4.1-7.5-.8-9.1-1.9-1.9-1.3-3.7-13-4.2-16.6z" fill="#37474f"/><path d="m360.9 273.9 1.1.3c-3.3 12-2.6 22.9 3.4 26.3 1.1-8.1 2.6-16.4 4.7-25.4l1.1.3c-6.8 28.8-7.6 51.5-6.7 78.7.7 20.8 2 56.4 2.6 73l-1.2-.2c-.6-16.7-1.9-52.1-2.6-72.8-.6-18.4-.4-34.8 1.9-52.4-6.8-3.4-7.8-15-4.3-27.8z" fill="#37474f"/><path d="m420.2 284.6c-.7.7-1.6 1.2-2.6 1.5-1.9.1-4.9-2.6-5.8-4.5-.4-1.1-.7-2.4-.8-3.6-.2-1.8-.5-3.6-1-5.4l1.1-.3c.5 1.8.8 3.7 1 5.5.1 1.1.3 2.2.6 3.3.7 1.7 3.4 3.9 4.7 3.8 1.1-.6 2.1-1.4 2.9-2.3.1.6 0 1.4-.1 2z" fill="#37474f"/><path d="m427.1 403.6c.3-.3.5-.6.8-.9-7.5-13.1-23.6-41.8-25.1-48.7-1.9-8.9-5-38.8-5.1-54.8h-1.2c.1 16.1 3.3 46.1 5.2 55.1 1.5 7.2 18 36.3 25.4 49.3z" fill="#37474f"/><path d="m404.1 270.2c3 4.8 4.8 13.1.9 22.2l-1-.4c3.7-8.7 2-16.6-.9-21.1z" fill="#37474f"/><path d="m387 332.3 4.8-32.9s12.4-1.7 14.1-13.3c.3 6.9-2.5 12.8-10.1 16l-6.1 30.3 1.4 19z" fill="#37474f"/><path d="m305.9 183.3v-33.9c.1-.6-.2-1.3-.7-1.6-.6-.3-1.3-.3-1.8.2l-14.8 8.6c-.6.4-1 1.1-1 1.8v33.9c-.2.8.4 1.6 1.2 1.8.5.1.9 0 1.3-.3l14.8-8.6c.7-.4 1.1-1.1 1-1.9z" fill="#37474f"/><path d="m305 183.7-15.2 8.8v-34.1l-1.9-1.1c-.2.3-.3.6-.3 1v33.9c-.1.6.2 1.3.7 1.6.6.3 1.3.2 1.8-.2l14.8-8.6c.4-.2.7-.6.9-1h-.1z" fill="#263238"/><path d="m304.9 149.1-14.9 8.6c-.4.3-.7.8-.7 1.3v33.6c0 .7.5 1 1.1.6l14.5-8.4c.5-.3.8-.9.8-1.4v-33.8c0-.5-.4-.7-.8-.5z" fill="#455a64"/><path d="m305 151.3v31.3c0 .6-.3 1.1-.8 1.4l-13.4 7.7c-.4.3-.8 0-.8-.4v-31.6c0-.5.2-.9.6-1.2l.1-.1.2-.1 3.8-2.2.3-.1c.1-.1.2 0 .2.1s.1.2.3.1l4.4-2.5c.1-.1.2-.3.3-.4 0-.2.1-.3.2-.4l3.7-2.1h.1c.3-.4.8-.1.8.5z" fill="#263238"/><path d="m303.9 150.8v31.1c0 .6-.3 1.1-.8 1.4l-13.1 7.6v-31.1c0-.5.2-.9.6-1.2l.1-.1.2-.1 3.8-2.2.3-.1c.1-.1.2 0 .2.1s.1.2.3.1l4.4-2.5c.1-.1.2-.3.3-.4 0-.2.1-.3.2-.4z" fill="#fff"/><path d="m296 155 2-1.2c.1-.1.2 0 .2.1s-.1.3-.2.4l-2 1.2c-.1.1-.2 0-.2-.1 0-.2.1-.3.2-.4z" fill="#263238"/><path d="m299 153.1c.1-.1.3 0 .3.1 0 .2-.1.3-.3.4-.1.1-.2 0-.2-.1s.1-.3.2-.4z" fill="#263238"/><path d="m288.9 162.7c0-.3-.1-.5-.4-.7-.1 0-.2 0-.3 0l-.3.2c-.1.1-.1.2-.1.3v2.9c0 .3.2.5.4.7h.3l.3-.2c.1-.1.1-.2.1-.3z" fill="#455a64"/><path d="m288.6 162.8v2.9c0 .3-.2.4-.4.3-.2-.2-.4-.4-.4-.7v-2.9c0-.3.2-.4.4-.3.3.2.4.4.4.7z" fill="#37474f"/><path d="m288.9 167.8c0-.3-.1-.5-.4-.7-.1 0-.2 0-.3 0l-.3.2c-.1.1-.1.2-.1.3v2.9c0 .3.2.5.4.7h.3l.3-.2c.1-.1.1-.2.1-.3z" fill="#455a64"/><path d="m288.6 167.9v2.9c0 .3-.2.4-.4.3-.2-.2-.4-.4-.4-.7v-2.9c0-.3.2-.4.4-.3.3.2.4.5.4.7z" fill="#37474f"/><path d="m412.4 193.2c8 1.9 12.3 4.1 15.6 15 3.1 10.3 8.3 27.7 9.7 35.1.7 3.6 1 7-4 9.1-11.3 4.8-22.2 8.1-22.2 8.1l-4.4-13.3 12.1-6-3-9.7z" fill="#ffbda7"/><path d="m419.2 241.2c1 2.3 2.8 4.2 5 5.4-2.9.4-5.8-2.7-6.6-4.6z" fill="#f0997a"/><path d="m373.5 153.4c-1.4-1.9-1.2-4.7-.2-6.8s2.9-4.3 8.3-6.6c6.4-2.8 23.8-4.6 30.4 7.1 1 1.7-17.2 32.5-16.8 39.1-4-4.8-17.1-21.8-17.1-21.8-3.3-1.7-5.2-3-5.7-6.3-.2-1.7.2-3.3 1.1-4.7z" fill="#263238"/><path d="m375.4 162.4s-5.1 7.1-4.6 7.8c1 .9 2.1 1.7 3.2 2.5z" fill="#f0997a"/><path d="m382 149.2c-3.2 1.2-6 3.4-7.4 10-.4 1.7.8 4.2 0 6.5-3.4 9.8-.8 18.3 1 20.3 1.2 1.3 8 2.4 11.7 1.6 4.6-.9 14.7-4.7 19.8-11.4 6.1-7.9 8.1-18.9 2.4-23.8-8.1-6.8-24.1-4.5-27.5-3.2z" fill="#ffbda7"/><path d="m403.9 181.8.6 9.9c5.5 3.2-5.9 7.4-18 2.3l-.9-9z" fill="#ffbda7"/><path d="m385.9 189.1c.2 2.3.5 5.7-3.1 6.7-3.4.9-8.8 1.4-14.1 3.4 0 0 19 3 29 1.4s11.7-8.1 11.7-8.1c-3.6-.5-5.1-1.1-5.2-3.4z" fill="#ffbda7"/><path d="m376 186.4c1.5 1 5 1.9 9.8 1.6l-.2-2.5c-1.5.5-3.1.8-4.6 1-1.7.2-3.4.1-5-.1z" fill="#f0997a"/><path d="m377.2 152.5c-.5 4.3 2.2 5.9 4 6.9-.9 1.5-1.3 3.3-1.2 5.1.3 2.2 1 4.1 3.1 5 1.3.5 1.7 0 2.3-1 .8-1.4 1.8-3.7 5-3 3.6.8 4.2 6.4 1.8 9.8-.9 1.5-2.6 2.4-4.3 2.5-1-.1-1.8-.6-2.4-1.4 0 0-.1 4.8 5.9 8.1 0 0 6 4 12.5 2.5 3.1-3 6.1-6.1 8.9-9.5 7.5-9.3 9-26.9-2.3-30.9-.5-.2-9.8-2.5-15-1.8-15.8 2.3-18.2 6.9-18.3 7.7z" fill="#263238"/><path d="m412 147.1c1.8 0 7.2 2.8 7.1 14.7 0 8.1-2 18.9-4.6 23.9-6.9 7.6-27 9.1-35.8 5.9 5.7-2.6 6.8-9.8 6.7-15.3 2.6 4 7.4 4.9 13.2 2s13.4-31.2 13.4-31.2z" fill="#263238"/><path d="m420.1 203.1c-1.7-8.1-6-9.8-8-10.2-3.1-.6-5-.9-5-.9.1 1 .7 3.2-8.2 4.4-5.8.7-15.6-.8-15.6-.8l-8.9 1.2c-3.3 2-11.3 9.7-15.1 18.7-3 7.1-1.9 14.3 3.5 19.5.4 4.4-.3 13.2-.3 13.2-3.1 16-4.8 22.8-4.8 22.8s4.2 6.5 31.3 5.9c21-.5 30.7-9.9 30.7-9.9-.6-3.1-2.8-9.9-6.8-20.3.5-10.2 10.8-26.1 7.2-43.6z" fill="#285ffa"/><path d="m329.3 208.1s-20.3-12.4-21.5-14.1c-1.1-1.4-1-3.2-1.2-4.9-.3-1.9-.9-3.8-1.7-5.6-.5-1.2-1.3-2.3-1.7-3.4s-.4-2.3-.8-3.4-1.5-.8-2.2 0c-.9 1.1-1.2 2.5-1.1 3.9 0 .6.1 1.2.1 1.8.1.6.1 1.1.1 1.7 0 .3-.1.6-.3.8-.5.4-1.3-.2-1.7-.5-2.5-2.1-4.6-4.6-6.1-7.5-.6-1.2-1-2.5-1.8-3.7-.7-1.1-1.5-2.1-2.4-3-.6-.6-1.4-1-2.3-1.2-1.4.1-.6 2.5-.5 3.2.2.9.1 1.7-.2 2.6-.4 1-.4 2 0 3 .3 1 .9 2.2.7 3.3-.1.4-.2.7-.4 1.1-.2 1.2-.1 2.4.4 3.4s.6 2.1.3 3.2c-.5 2.5 1.5 5 3 6.8 1.8 2 3.8 3.7 6 5.2 1.2.8 2.3 1.7 3.4 2.5s2.2 1.3 3.2 2.1c2.4 1.9 11.5 10.7 22 19.3 3.5 2.8 4.6 3.8 11.3 2.6 12.2-2.2 14.9-2.8 22.2-4.1 11.1-2.1 12.5-2.4 12.5-2.4 6.9-3 7.9-11.3 8.1-15.4.2-3-.6-5.9-2.2-8.5-6.3.3-11.8 1.8-21.9 4.7-12.1 3.5-23.3 6.5-23.3 6.5z" fill="#ffbda7"/></svg>