<svg xmlns="http://www.w3.org/2000/svg" width="24.001" height="24" viewBox="0 0 24.001 24">
  <defs>
    <style>
      .cls-1 {
        fill: #285ffa;
      }
    </style>
  </defs>
  <g id="Layer_2" data-name="Layer 2" transform="translate(0.004 -0.004)">
    <g id="Layer_1" data-name="Layer 1" transform="translate(-0.004 0.004)">
      <path id="Path_5658" data-name="Path 5658" class="cls-1" d="M24,5.594a.529.529,0,0,1-.136.31c-.064.07-.131.136-.2.2L6.1,23.672c-.446.445-.588.443-1.041-.01L.271,18.875c-.366-.367-.366-.554,0-.922l7.187-7.187,7.687-7.685L17.967.26c.341-.341.542-.341.882,0l4.91,4.906A.673.673,0,0,1,24,5.594ZM4.756,19.632a.489.489,0,0,1-.284.485A.444.444,0,0,1,3.932,20q-.873-.884-1.745-1.776c-.434-.443-.424-.434-.867-.015-.182.171-.144.261.014.417q2.053,2.034,4.087,4.085c.143.144.215.162.37.006q8.435-8.469,16.884-16.922c.156-.156.162-.238,0-.4-1.284-1.268-2.554-2.547-3.829-3.823-.449-.449-.443-.443-.893,0-.134.133-.129.205,0,.334.668.654,1.327,1.318,1.987,1.979.25.25.28.519.09.72s-.483.184-.741-.076L17.627,2.876c-.5-.5-.494-.494-.992.019-.116.12-.105.185.005.292.258.249.509.505.755.767a.461.461,0,0,1,.013.68.437.437,0,0,1-.652-.05c-.144-.136-.282-.28-.422-.42-.507-.507-.5-.5-.989.023-.108.116-.083.175.015.269.258.249.511.5.762.76a.476.476,0,0,1,.057.7.482.482,0,0,1-.723-.056c-.142-.138-.277-.283-.419-.422s-.313-.417-.468-.417-.3.277-.472.414-.126.227.011.355c.249.232.484.477.718.723a.476.476,0,0,1,.04.7.459.459,0,0,1-.68-.061c-.151-.144-.295-.292-.442-.44-.466-.466-.459-.46-.931,0-.143.14-.138.214,0,.351.668.653,1.326,1.318,1.984,1.982a.482.482,0,0,1,.069.721c-.209.2-.453.178-.718-.082L12.487,8.024c-.517-.518-.514-.515-1.009.029-.091.1-.092.151.005.246q.41.39.8.8a.457.457,0,1,1-.645.644c-.159-.147-.309-.3-.462-.459-.473-.473-.468-.468-.943.011-.121.122-.135.192,0,.314.27.25.529.512.783.78a.453.453,0,0,1,.014.659.465.465,0,0,1-.662-.014c-.151-.141-.295-.292-.441-.44-.517-.517-.513-.514-1.012.022-.1.106-.083.155.009.243q.4.383.782.781a.457.457,0,0,1,.033.7.469.469,0,0,1-.68-.053c-.151-.144-.295-.293-.441-.44-.488-.487-.485-.484-.964.032-.1.106-.114.172,0,.274.16.147.307.307.459.462.529.538,1.064,1.072,1.592,1.614.286.293.218.687-.133.8a.529.529,0,0,1-.546-.208L7.366,13.153c-.5-.5-.5-.5-.99,0-.134.137-.1.2.015.314q.4.374.782.778a.452.452,0,0,1,.014.658.479.479,0,0,1-.644-.025c-.161-.144-.31-.3-.464-.453-.521-.516-.517-.514-1.013.04-.084.094-.08.14.006.227.276.265.551.534.816.815a.455.455,0,1,1-.639.647c-.16-.147-.3-.311-.464-.457s-.3-.446-.487-.419-.321.3-.493.443c-.131.113-.1.186.01.291.267.254.529.514.78.782a.448.448,0,0,1,.008.657.455.455,0,0,1-.659-.023c-.16-.151-.309-.3-.463-.459-.467-.466-.462-.46-.928,0-.134.133-.124.2,0,.328.661.647,1.313,1.3,1.969,1.957C4.652,19.379,4.767,19.5,4.756,19.632Z" transform="translate(0.004 -0.004)"/>
    </g>
  </g>
</svg>
