<svg xmlns="http://www.w3.org/2000/svg" width="9.174" height="24" viewBox="0 0 9.174 24">
  <g id="Layer_2" data-name="Layer 2" transform="translate(0.001 0.008)">
    <g id="Layer_1" data-name="Layer 1" transform="translate(-0.001 -0.008)">
      <path id="Path_839" data-name="Path 839" d="M0,23.992V.306C0-.054-.029,0,.327,0h8.53c.349,0,.314-.052.314.307V23.989ZM7.747,6.364V1.629c0-.126.021-.234-.182-.234-1.98,0-3.966,0-5.95,0-.154,0-.182.056-.178.189v.96c0,.216.056.272.269.269H6.113c.213,0,.265.063.255.265a6.515,6.515,0,0,0,0,.866c.021.244-.063.3-.3.293h-4.4c-.171,0-.237.035-.23.22v.981c0,.168.045.216.213.213H3.288c.2,0,.283.038.269.255a7.213,7.213,0,0,0,0,.911c0,.2-.042.276-.258.269-.555-.017-1.107,0-1.662,0-.157,0-.2.052-.2.2V8.291c0,.171.063.216.22.206s.311,0,.468,0h4c.185,0,.248.052.237.237a7.573,7.573,0,0,0,0,.89c.017.234-.049.3-.293.3h-4.4c-.185,0-.241.052-.234.234a9.294,9.294,0,0,1,0,.936c0,.192.038.251.241.251H7.513c.2,0,.241-.056.241-.248C7.743,9.489,7.747,7.924,7.747,6.364Zm0,11.281V12.914c0-.119.024-.223-.171-.223H1.6c-.143,0-.168.056-.164.178v.985c0,.209.056.258.258.255H6.1c.223,0,.276.07.265.276a6.567,6.567,0,0,0,0,.869c.017.23-.063.283-.286.279h-4.4c-.178,0-.248.038-.241.23v.985c0,.154.049.2.2.2H3.3c.189,0,.265.042.255.244a9.3,9.3,0,0,0,0,.936c0,.189-.042.258-.244.255H1.651c-.168,0-.213.052-.209.213v.89c0,.3,0,.307.3.307H6.12c.2,0,.258.056.248.251a6.833,6.833,0,0,0,0,.887c.017.227-.052.286-.283.286h-4.4c-.2,0-.255.052-.244.248a9.3,9.3,0,0,1,0,.936c0,.178.038.237.23.237H7.523c.192,0,.23-.059.23-.237C7.743,20.787,7.747,19.216,7.747,17.645Z" transform="translate(0.001 0.008)" fill="#fff"/>
    </g>
  </g>
</svg>
