<svg xmlns="http://www.w3.org/2000/svg" viewBox="0 0 24 24">
    <title>StarAsset 1</title>
    <g id="Layer_2" data-name="Layer 2">
        <g id="Layer_1-2" data-name="Layer 1">
            <g id="vuesax_linear_star" data-name="vuesax linear star">
                <g id="star">
                    <path id="Vector"
                        d="M13.73,3.51,15.49,7a2.21,2.21,0,0,0,1.42,1l3.19.53c2,.34,2.52,1.82,1,3.28l-2.48,2.48a2.17,2.17,0,0,0-.52,1.81l.71,3.07c.56,2.43-.73,3.37-2.88,2.1l-3-1.77a2.16,2.16,0,0,0-2,0L8,21.35c-2.14,1.27-3.44.32-2.88-2.1l.71-3.07a2.17,2.17,0,0,0-.52-1.81L2.85,11.89c-1.46-1.46-1-2.94,1-3.28l3.19-.53A2.19,2.19,0,0,0,8.5,7l1.76-3.52C11.22,1.6,12.78,1.6,13.73,3.51Z"
                        style="fill:#ffffff;stroke:#285ffa;stroke-linecap:round;stroke-linejoin:round;stroke-width: 2" />
                    <path id="Vector-2" d="M0,0H24V24H0Z" style="fill:none" />
                </g>
            </g>
        </g>
    </g>
</svg>