<svg xmlns="http://www.w3.org/2000/svg" viewBox="0 0 628 423.21"><title>time outAsset 1</title><g id="Layer_2" data-name="Layer 2"><g id="Layer_1-2" data-name="Layer 1"><g id="freepik--background-simple--inject-99"><path d="M152.32,85,155,80.66C177.56,44,218.34,21.82,261.34,24.51a114,114,0,0,1,16.46,2.23C316.9,35,350.92,64.19,365,101.58c8.29,22,10.61,47.3,26.34,64.76,20.49,22.71,55.26,23.43,85.83,22.49s65.36-.14,85.74,22.66c12.77,14.29,24,48.53,23,67.65-2.73,50.64-33.53,89.5-90.16,110.35C442,409.28,385.67,406,335.93,396c-69.67-13.87-125.74-49.75-165.56-108.58S120.46,148.5,152.32,85Z" style="fill:#ebebeb"/></g><g id="freepik--Plant--inject-99"><path d="M520.75,390.9c-9.13-5.29-14-17.6-14.38-27.67s3.83-20.59,12.1-26.36c8.7-6.09,21.09-6,30-.25s14.18,16.53,13.77,27.14a35.89,35.89,0,0,1-14.74,27" style="fill:#285ffa"/><path d="M535.32,391.88a11.87,11.87,0,0,1-.17-2.31c0-1.64-.11-3.75-.18-6.28-.14-5.31-.35-12.63-.7-20.72s-.79-15.4-1.12-20.7c-.15-2.52-.28-4.63-.38-6.28a11.15,11.15,0,0,1,0-2.31,12.69,12.69,0,0,1,.36,2.29c.19,1.47.41,3.61.65,6.25.48,5.29,1,12.61,1.37,20.71s.47,15.44.45,20.75c0,2.66,0,4.81-.09,6.29A13.67,13.67,0,0,1,535.32,391.88Z" style="fill:#fff"/><path d="M509.07,361c0,.23-1.47.31-3.25.16s-3.2-.46-3.18-.69,1.48-.31,3.25-.16S509.09,360.71,509.07,361Z" style="fill:#263238"/><path d="M509.57,351.91c-.09.21-1.35-.13-2.8-.78s-2.55-1.34-2.46-1.56,1.35.14,2.81.78S509.67,351.69,509.57,351.91Z" style="fill:#263238"/><path d="M514.22,345.2c-.12.19-1.53-.47-3-1.69s-2.38-2.47-2.21-2.63,1.33.8,2.76,2S514.35,345,514.22,345.2Z" style="fill:#263238"/><path d="M518.9,338.87c-.21.09-.89-1-1.51-2.36s-.94-2.61-.73-2.71.9,1,1.51,2.36S519.12,338.77,518.9,338.87Z" style="fill:#263238"/><path d="M526.24,334.38c-.21.09-.94-1-1.42-2.59s-.53-2.9-.3-2.94.65,1.19,1.12,2.69S526.46,334.28,526.24,334.38Z" style="fill:#263238"/><path d="M538.49,329.31c.22.08.08,1-.31,2.15s-.88,1.94-1.11,1.86-.08-1,.31-2.15S538.26,329.23,538.49,329.31Z" style="fill:#263238"/><path d="M547.57,333.21c.16.17-.42,1-1.3,1.79s-1.72,1.33-1.88,1.16.42-1,1.3-1.79S547.41,333,547.57,333.21Z" style="fill:#263238"/><path d="M555.57,338.37c.13.2-.58.91-1.59,1.6s-1.93,1.07-2.07.88.58-.91,1.59-1.59S555.43,338.18,555.57,338.37Z" style="fill:#263238"/><path d="M561.24,346.07c.1.22-1,.91-2.5,1.54s-2.74,1-2.83.74,1-.9,2.5-1.53S561.15,345.86,561.24,346.07Z" style="fill:#263238"/><path d="M563.48,354.47c0,.24-1.11.57-2.54.75s-2.62.13-2.65-.11,1.11-.56,2.54-.74S563.45,354.24,563.48,354.47Z" style="fill:#263238"/><path d="M564.64,364.81c-.09.22-1.3-.1-2.71-.71s-2.46-1.28-2.37-1.5,1.31.1,2.71.71S564.74,364.59,564.64,364.81Z" style="fill:#263238"/><path d="M563.62,373.68c-.08.21-1.61-.15-3.21-1.21s-2.56-2.3-2.4-2.46,1.34.76,2.86,1.75S563.71,373.45,563.62,373.68Z" style="fill:#263238"/><path d="M559,381.75c-.14.19-1.36-.53-2.53-1.8s-1.81-2.53-1.61-2.66,1.11.87,2.23,2.08S559.15,381.56,559,381.75Z" style="fill:#263238"/><path d="M515.15,382.7c.11.21-1.18,1.09-2.87,2s-3.15,1.42-3.26,1.21,1.18-1.09,2.87-2S515,382.49,515.15,382.7Z" style="fill:#263238"/><path d="M511.14,375.4c.1.21-.93.89-2.29,1.51s-2.56,1-2.66.73.94-.89,2.3-1.51S511.05,375.18,511.14,375.4Z" style="fill:#263238"/><path d="M508.2,368.93c0,.23-1.23.61-2.83.83s-2.91.22-3,0,1.23-.61,2.83-.83S508.17,368.7,508.2,368.93Z" style="fill:#263238"/><path d="M517.86,365.36c.07.22-1.17.8-2.82,1s-3-.09-3-.32,1.31-.35,2.87-.53S517.79,365.13,517.86,365.36Z" style="fill:#263238"/><path d="M525.88,357.38c.07.22-.91.72-2.24.85s-2.39-.17-2.36-.4,1-.33,2.28-.46S525.81,357.15,525.88,357.38Z" style="fill:#263238"/><path d="M527.41,351c-.07.23-1.14.06-2.37-.36s-2.18-1-2.1-1.18,1.14-.06,2.38.37S527.49,350.76,527.41,351Z" style="fill:#263238"/><path d="M530.35,344.52c-.16.16-.89-.32-1.41-1.23s-.58-1.78-.35-1.84.62.61,1.09,1.41S530.53,344.35,530.35,344.52Z" style="fill:#263238"/><path d="M526.81,371c.05.23-.87.65-2.06.94a6.76,6.76,0,0,1-1.73.25l-.17-.5a.75.75,0,0,1,.55.05c0,.05-.09.25-.34.44l-.16-.5a8.05,8.05,0,0,1,1.65-.57C525.74,370.82,526.75,370.77,526.81,371Z" style="fill:#263238"/><path d="M528.46,382.33c.09.22-1.09.89-2.62,1.49s-2.85.92-2.94.7,1.09-.89,2.62-1.49S528.38,382.11,528.46,382.33Z" style="fill:#263238"/><path d="M519.4,377.3c.07.22-.71.69-1.75,1s-1.95.47-2,.24.71-.69,1.75-1.05S519.32,377.07,519.4,377.3Z" style="fill:#263238"/><path d="M520.09,354.22c-.05.22-1.42.09-3-.47s-2.73-1.31-2.63-1.52,1.38.17,2.91.71S520.15,354,520.09,354.22Z" style="fill:#263238"/><path d="M542,351.71c.13.2-.63.93-1.71,1.64s-2.06,1.13-2.19.93.64-.93,1.72-1.64S541.89,351.51,542,351.71Z" style="fill:#263238"/><path d="M543.22,363.09c0,.24-.76.6-1.81.82s-1.93.2-2,0,.76-.59,1.8-.81S543.17,362.86,543.22,363.09Z" style="fill:#263238"/><path d="M544.6,375.9c-.1.21-1.26-.12-2.59-.73s-2.34-1.3-2.24-1.51,1.26.11,2.6.73S544.7,375.68,544.6,375.9Z" style="fill:#263238"/><path d="M541.67,388.36c-.18.15-.94-.47-1.69-1.38s-1.2-1.77-1-1.92.94.47,1.68,1.38S541.85,388.21,541.67,388.36Z" style="fill:#263238"/><path d="M541.07,343.33c.14.18-.35.81-1.21,1.23s-1.65.46-1.71.23.56-.6,1.33-1S540.92,343.14,541.07,343.33Z" style="fill:#263238"/><path d="M551.82,354.81c.08.22-.92.76-2.28.95s-2.47-.06-2.45-.29,1.07-.38,2.33-.56S551.74,354.58,551.82,354.81Z" style="fill:#263238"/><path d="M549.68,344.5c.1.21-.89.91-2.29,1.36s-2.62.45-2.65.22,1.06-.61,2.39-1S549.57,344.28,549.68,344.5Z" style="fill:#263238"/><path d="M554.16,370.78c0,.23-1.69.38-3.72,0s-3.57-1.1-3.49-1.31,1.67.12,3.64.47S554.17,370.53,554.16,370.78Z" style="fill:#263238"/><path d="M550.17,385.75c-.14.18-1.39-.55-2.63-1.8s-2-2.49-1.78-2.63,1.19.83,2.39,2S550.32,385.56,550.17,385.75Z" style="fill:#263238"/><path d="M532.61,332.31c.13.19-3.41,1.62-7.5,5.93a36.59,36.59,0,0,0-9.34,20.64,46.23,46.23,0,0,0,.57,12.65,95.14,95.14,0,0,0,2.36,10.15c.83,2.86,1.58,5.15,2.08,6.73a18.18,18.18,0,0,1,.73,2.49,13.36,13.36,0,0,1-1-2.37c-.6-1.56-1.45-3.83-2.34-6.68a84.25,84.25,0,0,1-2.57-10.18,45.66,45.66,0,0,1-.64-12.89,36.2,36.2,0,0,1,9.76-21,26.58,26.58,0,0,1,5.59-4.37,17.29,17.29,0,0,1,1.71-.89A3,3,0,0,1,532.61,332.31Z" style="fill:#fff"/><path d="M544.27,391.45c-.19-.09,1.92-3.33,3.84-9.18a52,52,0,0,0,2.3-23.62,44.35,44.35,0,0,0-3.64-12.59,29.66,29.66,0,0,0-6.21-8.65,22.61,22.61,0,0,0-6.08-3.85c-1.59-.66-2.53-.81-2.52-.88a2.07,2.07,0,0,1,.7.05,12.9,12.9,0,0,1,1.94.52A21.25,21.25,0,0,1,541,337a29.57,29.57,0,0,1,6.52,8.77,43.76,43.76,0,0,1,3.78,12.81,50.37,50.37,0,0,1-2.57,23.94c-.49,1.47-1.11,2.74-1.57,3.88a22.83,22.83,0,0,1-1.43,2.82A16.71,16.71,0,0,1,544.27,391.45Z" style="fill:#fff"/><polygon points="511.14 389.43 558.29 389.43 558.58 398.87 511.14 398.87 511.14 389.43" style="fill:#263238"/><polygon points="515.15 394.15 517.86 422.95 552.32 422.95 555.09 394.46 515.15 394.15" style="fill:#263238"/><path d="M558.58,399c0,.24-10.62.43-23.71.43s-23.72-.19-23.72-.43,10.62-.43,23.72-.43S558.58,398.74,558.58,399Z" style="fill:#455a64"/><path d="M553.79,407.75a7.54,7.54,0,0,1-1,1.8,26.07,26.07,0,0,1-3.66,4.32l-.22.21-.21-.23a68.32,68.32,0,0,0-9.24-8.08H540l-4.1,3.6L531,413.56l-.27.23-.26-.23-7.88-6.62h.46l-4.07,5a11.09,11.09,0,0,1-1.6,1.75,11.53,11.53,0,0,1,1.32-2l3.85-5.14.19-.26.26.21,8,6.47h-.53l4.82-4.23,4.11-3.59.25-.22.27.2a60.25,60.25,0,0,1,9.2,8.35h-.43A48.67,48.67,0,0,0,553.79,407.75Z" style="fill:#455a64"/></g><g id="freepik--Character--inject-99"><path d="M289.51,62.64c1.82-.62-2.37-8-2.67-9.87s-4.71-2-6.64-2.06a3.15,3.15,0,0,0-.95-6c.6-2.26-2.26-4.56-4.33-3.47a2.82,2.82,0,0,0-2.09-3.39,3.11,3.11,0,0,0-.91-.07c.81-1.87-1.86-4-3.53-2.87.84.22,1.53-.88,1.25-1.69a2.78,2.78,0,0,0-2-1.5c-5-1.4-10.34,2.8-15.34,1.36-1.59-.46-3-1.48-4.68-1.6s-3.58,1.38-3,2.91a3,3,0,0,0-4.23.27,3.12,3.12,0,0,0-.62,1.09L231.71,39a21.76,21.76,0,0,0-6.15,3.26,7.33,7.33,0,0,0-2.84,6.09,5.13,5.13,0,0,0-5,5A5.18,5.18,0,0,0,212,57.87s0,.05,0,.08c-1.67-1-3.63.73-4.79,2.31a9.18,9.18,0,0,0-1.82,3.38A3.1,3.1,0,0,0,206.67,67a6,6,0,0,0-1.16,7.17A11,11,0,0,0,202,77.06a3.68,3.68,0,0,0-.15,4.26,6.06,6.06,0,0,0-2.74,8.08c-2.72-.39-2.83-.88-5.52-.3a2.13,2.13,0,0,0-1,2.12,11.71,11.71,0,0,0,1.08,3.38S192,95.73,192.61,97a4.28,4.28,0,0,0,3.22,2.38l-.15,3.89c-.09,2.18,0,4.78,1.87,5.94a4.83,4.83,0,0,0,1.78,4.87,3.6,3.6,0,0,0-.94,5.68c-1.16,1.31-.85,3.34-.3,5a10.7,10.7,0,0,0,2.89,4.83,5.11,5.11,0,0,0,5.3,1c-1.07,1.82-2.17,3.83-1.84,5.91s2.9,3.83,4.59,2.57c-.52-.56-1.43.37-1.25,1.11s.84,1.28,1.09,2c.36,1-.14,2.1-.25,3.16A4.41,4.41,0,0,0,212.5,150a6.39,6.39,0,0,0,6.85,5.89,6,6,0,0,0,.74-.1,7.75,7.75,0,0,0,7.95,7.55h.14a5.48,5.48,0,0,0,5.95,2.19c2.57,3.74,7.66,4.54,12.17,5,3.31.34,7.52.19,8.82-2.86,4.27.92,8.61-3.87,7.28-8" style="fill:#263238"/><path d="M284.82,64.75a13.63,13.63,0,0,1,3.8-14c.88-.78,2.46-1.36,3.07-.35a2.53,2.53,0,0,1,2.5-2.56,2.47,2.47,0,0,1,1.27.32,3.63,3.63,0,0,1,4.1-3.09,3.73,3.73,0,0,1,1.21.39,2.05,2.05,0,1,1,4,.7,2.21,2.21,0,0,1-.21.61,1.78,1.78,0,0,1,2.43.65,1.66,1.66,0,0,1,.13.27,2.64,2.64,0,0,1,3.71-.26,2.52,2.52,0,0,1,.46.52,4.22,4.22,0,0,1,3.9-.35,1.11,1.11,0,0,1,1.33.83,1.14,1.14,0,0,1,0,.41,2.13,2.13,0,0,1,3,0,2.07,2.07,0,0,1,.55.92,2.2,2.2,0,0,1,3.66-1.25c2.66-1.45,4.57,5.75-1.25,8.2L323.65,55c1,2,2.24.86,4.4,1.41a4.18,4.18,0,0,1,3,4.13c.66-1,2.11,0,2.79,1l3.54,5a41.9,41.9,0,0,1,4.38,7.15,14.71,14.71,0,0,1,1.33,7.36,3.61,3.61,0,0,0,.06,1.79c.29.69,1,1.09,1.39,1.76,1.14,2.21-2.78,4.48-2,6.82a3.81,3.81,0,0,1,4.8,2.17,22.19,22.19,0,0,0,.66,2.55c.67,1.45,2.52,2.28,2.69,3.87.09.81-.3,1.68,0,2.43s1.16,1.06,1.67,1.66c.92,1.08.53,2.75-.15,4s-1.65,2.42-1.78,3.83c0,.38.68-.48,1-.28s.2,1.1,0,.79l-3.15,1.08a3.06,3.06,0,0,1,2,3.45,6.69,6.69,0,0,1-2.24,3.65,2.61,2.61,0,0,1,.63,3.63l0,0c-.39.49-1,.83-1.25,1.39-.52,1.08.29,2.29.54,3.46a3.85,3.85,0,0,1-3.26,4.36,3.75,3.75,0,0,1-.82,0c1.05,1.2.65,3,.18,4.55-.26.88-.53,1.76-.79,2.63-.45,1.48-1.63,3.33-3,2.69a3.27,3.27,0,0,1-4.08,4.85c.23,3.49-4.25,6.26-7.26,4.5.63,2.59-2.89,5-5.11,3.57a2,2,0,0,1-1.67,1.79,5.09,5.09,0,0,1-1.35-.09,6.67,6.67,0,0,0-6.31,3c-2.77.27-4.92,2.42-7.37,3.75s-6.23,1.37-7.27-1.21c-.14,1.35-2.19,1.18-3.36.51a22.1,22.1,0,0,1-6.85-6.13" style="fill:#263238"/><path d="M306.26,94.5l.37-7.24-43.26-9.63c-13.37-1.84-28.3,11.16-29.56,24.6-1.41,14.93-2.54,33.22-1.11,44.43,2.86,22.56,20,26,20,26l-.6,22.29,49.62,2.16Z" style="fill:#a36957"/><path d="M242,117.23a2.87,2.87,0,0,0,2.68,3,2.74,2.74,0,0,0,3-2.4s0-.06,0-.1a2.88,2.88,0,0,0-2.68-3,2.75,2.75,0,0,0-3,2.43A.17.17,0,0,0,242,117.23Z" style="fill:#263238"/><path d="M238.26,111.91c.34.39,2.57-1.16,5.67-1s5.32,1.72,5.67,1.35c.17-.16-.18-.85-1.14-1.6a8,8,0,0,0-4.53-1.55,7.67,7.67,0,0,0-4.53,1.31C238.43,111.07,238.09,111.74,238.26,111.91Z" style="fill:#263238"/><path d="M270.86,118.89a2.88,2.88,0,0,0,2.69,3,2.75,2.75,0,0,0,3-2.47v0a2.88,2.88,0,0,0-2.68-3,2.77,2.77,0,0,0-3,2.49Z" style="fill:#263238"/><path d="M268.69,113.44c.34.38,2.58-1.16,5.67-1.06s5.32,1.72,5.67,1.35c.17-.16-.17-.85-1.14-1.6a7.92,7.92,0,0,0-4.52-1.55,7.6,7.6,0,0,0-4.53,1.31C268.86,112.59,268.52,113.26,268.69,113.44Z" style="fill:#263238"/><path d="M256.73,136.06c0-.18-1.89-.57-5-1.06-.79-.11-1.53-.29-1.65-.84a4.06,4.06,0,0,1,.6-2.32q1.2-2.85,2.53-6c3.51-8.48,6.08-15.46,5.74-15.6s-3.47,6.62-7,15.1c-.85,2.09-1.66,4.08-2.43,6a4.57,4.57,0,0,0-.51,3.09,2,2,0,0,0,1.27,1.2,4.63,4.63,0,0,0,1.33.22C254.77,136.16,256.71,136.23,256.73,136.06Z" style="fill:#263238"/><path d="M252.69,172.67a59.33,59.33,0,0,0,31.07-7.11S275.7,181,252.53,178.27Z" style="fill:#7c3b29"/><path d="M257.81,143.56a5.63,5.63,0,0,1,5.07-1.91,5.09,5.09,0,0,1,3.46,2,3.24,3.24,0,0,1,.13,3.7,3.72,3.72,0,0,1-4.09.9,11.48,11.48,0,0,1-3.89-2.48,3.67,3.67,0,0,1-.86-.94,1,1,0,0,1,.05-1.16" style="fill:#7c3b29"/><path d="M265.78,138.48c-.5,0-.61,3.32-3.56,5.62s-6.52,1.82-6.56,2.28c-.06.21.77.68,2.28.77a8.29,8.29,0,0,0,5.48-1.72,7.29,7.29,0,0,0,2.77-4.71C266.36,139.32,266,138.47,265.78,138.48Z" style="fill:#263238"/><path d="M268.26,104.67c.28.85,3.39.54,7,1.09s6.53,1.64,7,.9c.23-.36-.26-1.17-1.42-2a12.35,12.35,0,0,0-10.69-1.52C268.84,103.62,268.14,104.26,268.26,104.67Z" style="fill:#263238"/><path d="M238.68,101.29c.52.72,2.68.06,5.25.1s4.72.62,5.24-.1c.23-.35-.09-1.06-1-1.76a7.64,7.64,0,0,0-8.45,0C238.77,100.23,238.45,100.94,238.68,101.29Z" style="fill:#263238"/><path d="M282.27,78.41a11.18,11.18,0,0,1-2.92,4.68c-1.46,1.16-3.83,1.39-5,0a5,5,0,0,1-7.07-.19,5.43,5.43,0,0,1-.62-.81,6.82,6.82,0,0,1-8.25.32l-6.77,1c-2.45.38-5.48.52-6.85-1.55-.31-.48-.53-1.07-1-1.34a3.11,3.11,0,0,0-1.71-.09,5.75,5.75,0,0,1-4.87-2.66A16.9,16.9,0,0,1,235,72.42c-.8-2.87-1.35-6.53,1.05-8.29a7.54,7.54,0,0,1,3.29-1.08c2.35-.37,4.79-.74,7.08-.1,2.82.79,5,3,6.65,5.46a3.15,3.15,0,0,1,2.16-3.75,6.16,6.16,0,0,1,4.65.7,12.41,12.41,0,0,1,5,4.77,10.13,10.13,0,0,1,8.7,6.08,7.34,7.34,0,0,1,5.81-.68,2.58,2.58,0,0,1,1.67,1.19,1.18,1.18,0,0,1-.48,1.59l-.22.08" style="fill:#263238"/><path d="M260.56,78.44a7.42,7.42,0,0,1-11.85,7.94,6.83,6.83,0,0,1-7.93,3.94,10.75,10.75,0,0,1-6.05,9.08,8.38,8.38,0,0,1-.21,6.13,5.14,5.14,0,0,1-2.71,2.84,5.84,5.84,0,0,1-4.6-.61,8.19,8.19,0,0,1-4.43-4.85c-.6-2.18.36-4.85,2.46-5.67a17.8,17.8,0,0,1-4.09-6.68,5.74,5.74,0,0,1-.1-4.4c.68-1.34,2.67-2,3.75-1A6.61,6.61,0,0,1,232.38,76a5.48,5.48,0,0,1,5.87-5.06,5.54,5.54,0,0,1,3.45,1.57" style="fill:#263238"/><path d="M283.36,78.46c-3.2,5.76.16,14.07,6.46,16a5.63,5.63,0,0,0,.45,10.92,10.54,10.54,0,0,0,1.91,13.39,6.21,6.21,0,0,0-3.52,5.62c.15,2.33,2.46,4.46,4.75,4a8,8,0,0,0,5.15,8,6.49,6.49,0,0,0,1.72,9,6.41,6.41,0,0,0,3.28,1.11c-1.59,1.09-1.26,3.69.07,5.09,2.51,2.64,7.27,2,9.67-.75S316,144,315,140.52c1.66.75,3.7-.53,4.32-2.24a7.57,7.57,0,0,0-.52-5.31,28.17,28.17,0,0,1-2-5.09,2.57,2.57,0,0,1,.08-1.62c.36-.76,1.25-1.08,2-1.5,2.77-1.58,3.66-5.26,3.21-8.41s-1.93-6.07-2.8-9.14a3,3,0,0,1-.08-2c.3-.73,1.09-1.12,1.75-1.57a7,7,0,0,0-1.28-12.22c1.85-.94,2-3.64,1.05-5.46s-2.75-3-4.26-4.47c-2.83-2.68-4.93-6.3-8.47-8a9.61,9.61,0,0,0-10.77,2.07c-2.37-1.35-5-2.57-7.71-2.36s-5.46,2.35-5.41,5.08" style="fill:#263238"/><path d="M337.33,83.66a5.56,5.56,0,0,0,.43-2.73,4.68,4.68,0,0,0-1.39-2.88,4.91,4.91,0,0,0-4-1.33h-.3l.12-.27a3.59,3.59,0,0,0-1.1-3.9,6,6,0,0,0-4.75-1.14H326l.14-.35a3.1,3.1,0,0,0-5-3.39l-.37.34-.05-.51A4.71,4.71,0,0,0,312,65.35l-.45-.25V65a1.88,1.88,0,0,0-.25-1.76,2.87,2.87,0,0,0-1.48-1.15,6.44,6.44,0,0,0-3.83.34l-3.72,1.24a5.15,5.15,0,0,0-1.55.91,1.31,1.31,0,0,0-.48,1.41l-.47.09a2.67,2.67,0,0,0-2-2.29,3.46,3.46,0,0,0-3,.41A5.18,5.18,0,0,0,293,66.55a8.7,8.7,0,0,0-.61,2.75v.28l-.25-.12a6.48,6.48,0,0,0-5-.26,6.21,6.21,0,0,0-3.05,2.41,6.94,6.94,0,0,0-1,2.3c-.12.56-.13.87-.16.87a.88.88,0,0,1,0-.23A3.33,3.33,0,0,1,283,74a6.29,6.29,0,0,1,.92-2.39A6.44,6.44,0,0,1,287,69a6.81,6.81,0,0,1,5.33.2l-.27.16a9,9,0,0,1,.6-2.89,5.69,5.69,0,0,1,2-2.55,3.86,3.86,0,0,1,3.38-.49,3.75,3.75,0,0,1,1.59,1,2.68,2.68,0,0,1,.77,1.75l.07,1.55-.53-1.46a1.52,1.52,0,0,1,0-1.07,2.4,2.4,0,0,1,.6-.85,5.6,5.6,0,0,1,1.7-1L306,62.1a6.93,6.93,0,0,1,4.15-.35,3.47,3.47,0,0,1,1.75,1.36,2.38,2.38,0,0,1,.3,2.25l-.06.13-.45-.26a5.23,5.23,0,0,1,9.58,2.39l-.42-.16a3.58,3.58,0,0,1,5.77,3.92l-.24-.3a6.34,6.34,0,0,1,5.07,1.29,3.93,3.93,0,0,1,1.16,4.32l-.19-.24a5.18,5.18,0,0,1,4.21,1.48A4.81,4.81,0,0,1,338,81a4.68,4.68,0,0,1-.28,2.1A2.53,2.53,0,0,1,337.33,83.66Z" style="fill:#455a64"/><path d="M313.43,51A6.91,6.91,0,0,0,311,50a6.48,6.48,0,0,0-3,.18,5.49,5.49,0,0,0-3.07,2.32l-.13.21-.19-.15a5.52,5.52,0,0,0-5.15-.92,5.44,5.44,0,0,0-3.53,4.66v.56l-.41-.4a1.58,1.58,0,0,0-.53-.35,2.77,2.77,0,0,0-2.38.59,5.8,5.8,0,0,0-1.58,2,7.12,7.12,0,0,0-.6,4.69l.08.39-.37-.11a6.23,6.23,0,0,0-4.71.53,6,6,0,0,0-2.53,2.73,6.78,6.78,0,0,0-.63,2.37v.89a.68.68,0,0,0-.06-.22,3.71,3.71,0,0,1,0-.67,6.32,6.32,0,0,1,3.12-5.43,6.61,6.61,0,0,1,5-.65l-.29.28a7.65,7.65,0,0,1,.59-5,6.3,6.3,0,0,1,1.73-2.21,3.24,3.24,0,0,1,2.87-.67,2,2,0,0,1,.73.48l-.45.16a5.77,5.77,0,0,1,9.48-4h-.33A5.79,5.79,0,0,1,308,49.84a6.54,6.54,0,0,1,3.17-.09,5.3,5.3,0,0,1,1.85.82A3.19,3.19,0,0,1,313.43,51Z" style="fill:#455a64"/><path d="M233.66,42.37s0-.08.14-.22l.47-.61a16.36,16.36,0,0,1,2-2.16,6.89,6.89,0,0,1,4.24-1.89,5.36,5.36,0,0,1,2.84.79A3.55,3.55,0,0,1,245.13,41l-.33-.14a8,8,0,0,1,5.8-2.26,4.87,4.87,0,0,1,3.17,1.56,4,4,0,0,1,1.07,3.55l-.41-.24a5.91,5.91,0,0,1,10,3.57v.14l-.35-.22a5,5,0,0,1,5.71,7.66l-.24-.39a5.51,5.51,0,0,1,3.77,10.17l-.08-.36a6.81,6.81,0,0,1,4.92,2.82,6.54,6.54,0,0,1,.38,6.8,4.67,4.67,0,0,1-.38.6,1,1,0,0,1-.16.19s.17-.29.44-.84a6.68,6.68,0,0,0,.64-2.6,6.16,6.16,0,0,0-1.17-4,6.48,6.48,0,0,0-4.7-2.61h-.62l.54-.32a5.28,5.28,0,0,0,2.3-5.69,5.2,5.2,0,0,0-5.79-3.66l-.62.1.38-.5a4.48,4.48,0,0,0-5.14-6.87l-.31.11v-.46a5.53,5.53,0,0,0-3.7-4.53,5.59,5.59,0,0,0-5.41,1.26l-.61.59.2-.83a3.49,3.49,0,0,0-1-3.11,4.48,4.48,0,0,0-2.85-1.43,7.73,7.73,0,0,0-5.5,2.11l-.32.27V41a3.13,3.13,0,0,0-1.55-2.48,5,5,0,0,0-2.64-.78,5.48,5.48,0,0,0-2.35.59,9.28,9.28,0,0,0-1.75,1.15,22.47,22.47,0,0,0-2.08,2.06A9.11,9.11,0,0,1,233.66,42.37Z" style="fill:#455a64"/><path d="M204,98.12a4.56,4.56,0,0,1-.42-.86,7.4,7.4,0,0,1,.89-6.83,7.61,7.61,0,0,1,4.89-3.06l-.15.18a7.65,7.65,0,0,1,5.69-7.43l-.14.32a4.9,4.9,0,0,1,1.75-6.69,5,5,0,0,1,3.49-.56l-.28.32a6,6,0,0,1,9.85-6.36l-.43.11a10.27,10.27,0,0,1,1.71-3.34A7.23,7.23,0,0,1,236,61a6,6,0,0,1,5.25,2.33l-.46.09a5.15,5.15,0,0,1,9.85-.85h-.43a4.43,4.43,0,0,1,4-2.26,6.11,6.11,0,0,1,4.09,1.46,11.05,11.05,0,0,1,2.5,3.11,35.26,35.26,0,0,1,1.55,3.22l-.2-.09a7.75,7.75,0,0,1,5.39.68,8.59,8.59,0,0,1,3.08,2.66,7.37,7.37,0,0,1,1.07,2.31c.05.21.09.43.12.64a.88.88,0,0,1,0,.23,8,8,0,0,0-1.36-3.07,8.62,8.62,0,0,0-3.05-2.54,7.49,7.49,0,0,0-5.18-.58h-.14l-.06-.13c-.93-2-1.91-4.42-4-6.16a5.78,5.78,0,0,0-3.82-1.33,4,4,0,0,0-3.62,2l-.23.47-.2-.49a4.66,4.66,0,0,0-8.91.78l-.12.59-.34-.49a5.42,5.42,0,0,0-4.8-2.1,6.74,6.74,0,0,0-4.82,2.72,9.35,9.35,0,0,0-1.62,3.17l-.13.41-.31-.3a5.51,5.51,0,0,0-9,5.82l.16.41-.44-.09a4.43,4.43,0,0,0-4.76,6.56l.15.25-.28.07a7.29,7.29,0,0,0-5.44,7v.15h-.15a7.31,7.31,0,0,0-4.73,2.87,7.05,7.05,0,0,0-1.38,4,7.74,7.74,0,0,0,.36,2.66C203.84,97.82,204,98.11,204,98.12Z" style="fill:#455a64"/><path d="M270.22,39.46a2.7,2.7,0,0,1,.77.31,20.58,20.58,0,0,1,2,1.13A22,22,0,0,1,275.76,43a3.39,3.39,0,0,1,1.12,1.88,2.17,2.17,0,0,1-.19,1.21,1.6,1.6,0,0,1-1,.87v-.48a5.17,5.17,0,0,1,2.4,2.15,4.9,4.9,0,0,1,.6,3.24,5,5,0,0,1-1.31,2.7l-.07-.37a4.64,4.64,0,0,1,2.24,2.42,5.1,5.1,0,0,1,.36,2.53,4.08,4.08,0,0,1-.5,1.57,1.68,1.68,0,0,1-.36.47,6.15,6.15,0,0,0,.58-2.06,4.91,4.91,0,0,0-.44-2.35,4.16,4.16,0,0,0-2.08-2.15l-.29-.14.22-.24a4.62,4.62,0,0,0,.6-5.36A4.76,4.76,0,0,0,275.49,47l-.69-.31.73-.17a1.37,1.37,0,0,0,.84-1.53,3,3,0,0,0-.94-1.63,28.84,28.84,0,0,0-2.66-2.13C271.21,40.06,270.18,39.52,270.22,39.46Z" style="fill:#455a64"/><path d="M199.83,112.36a3.2,3.2,0,0,1-.1-.93,9.89,9.89,0,0,1,.3-2.65,7.34,7.34,0,0,1,2-3.63A4.48,4.48,0,0,1,204.4,104a3.62,3.62,0,0,1,2.82.74l-.36.2a5,5,0,0,1,3-4.88,10.75,10.75,0,0,1,6.56-.39l-.3.3a4,4,0,0,1,.36-2.32,5.67,5.67,0,0,1,2.45-2.49A14.44,14.44,0,0,1,222,94a12.69,12.69,0,0,1,3.12-.49,5.22,5.22,0,0,1,2.91.78l-.36.2a3.53,3.53,0,0,1,1.66-2.84,7.27,7.27,0,0,1,2.72-1.14,16.45,16.45,0,0,1,4.75-.25,27.45,27.45,0,0,1,3,.44A4.61,4.61,0,0,1,241,91a8,8,0,0,1-1.08-.13c-.7-.09-1.72-.24-3-.31a16.8,16.8,0,0,0-4.64.35A7.07,7.07,0,0,0,229.72,92a3.11,3.11,0,0,0-1.45,2.48V95l-.36-.24c-1.53-1-3.66-.75-5.65-.19a13.44,13.44,0,0,0-3,1.14A5.2,5.2,0,0,0,217,97.93a3.38,3.38,0,0,0-.32,2l.06.37-.36-.07a10.27,10.27,0,0,0-6.25.33,4.57,4.57,0,0,0-2.78,4.37l.07.58-.44-.38a3.16,3.16,0,0,0-2.48-.68,4.06,4.06,0,0,0-2.18,1,7,7,0,0,0-2,3.43A14.71,14.71,0,0,0,199.83,112.36Z" style="fill:#455a64"/><path d="M326.06,151.9a4.6,4.6,0,0,0,1.05.5,4.39,4.39,0,0,0,3.24-.36,7.2,7.2,0,0,0,3.2-4.1,7.86,7.86,0,0,0,.55-3.26,4.3,4.3,0,0,0-.45-1.71,2.31,2.31,0,0,0-1.36-1.15l-.35-.11.31-.2c.94-.63,1.91-1.34,2.87-2.12.48-.39,1-.8,1.45-1.24a6.86,6.86,0,0,0,1.31-1.38c.33-.52.05-1.13-.33-1.7a9.11,9.11,0,0,0-1.27-1.64,10,10,0,0,0-3.57-2.4l-.33-.14.26-.24a8.27,8.27,0,0,0-6.06-14.24H326l.35-.44a7.88,7.88,0,0,0-7.74-12.61l-.38.07.07-.37a17.53,17.53,0,0,0,.32-5.55A5.66,5.66,0,0,0,316,93.22a7.73,7.73,0,0,0-4.91-.79,25,25,0,0,0-4.74,1.31l-.49.18.21-.48a4.48,4.48,0,0,0-.78-4.47,6.49,6.49,0,0,0-3.72-2.39c-2.87-.65-5.61.07-8,.59l-.37.08.19-.32a3.4,3.4,0,0,0,.09-3,4.78,4.78,0,0,0-1.77-2.13,5.88,5.88,0,0,0-4.32-.67,11,11,0,0,0-2.68.89c-.58.28-.88.45-.89.43a1.1,1.1,0,0,1,.21-.14c.14-.09.35-.22.64-.37a10.76,10.76,0,0,1,2.69-1,6,6,0,0,1,4.5.64,5,5,0,0,1,1.89,2.23,3.68,3.68,0,0,1-.07,3.28l-.18-.24a38.36,38.36,0,0,1,3.81-.77,12.24,12.24,0,0,1,4.31.11,6.84,6.84,0,0,1,4,2.52,4.88,4.88,0,0,1,.87,4.91l-.29-.3A24.56,24.56,0,0,1,311,92a8.24,8.24,0,0,1,5.23.84,6.17,6.17,0,0,1,2.93,4.63,18,18,0,0,1-.31,5.72l-.31-.3a8.39,8.39,0,0,1,8.25,13.44l-.21-.42A8.74,8.74,0,0,1,333,131l-.07-.38a10.56,10.56,0,0,1,3.72,2.53,9.82,9.82,0,0,1,1.31,1.71,3.84,3.84,0,0,1,.48,1,1.46,1.46,0,0,1-.15,1.14,7.07,7.07,0,0,1-1.41,1.48c-.49.43-1,.85-1.47,1.24-1,.78-2,1.49-2.92,2.11v-.32a2.71,2.71,0,0,1,1.51,1.29,4.59,4.59,0,0,1,.46,1.85,8,8,0,0,1-.6,3.38,7.37,7.37,0,0,1-3.37,4.18,4.41,4.41,0,0,1-3.36.27A2.36,2.36,0,0,1,326.06,151.9Z" style="fill:#455a64"/><path d="M305.86,119.56a2.28,2.28,0,0,1-1.06.42,4.4,4.4,0,0,1-3.14-.64,6.52,6.52,0,0,1-2.72-4.1,9.84,9.84,0,0,1-.3-3.06,2.54,2.54,0,0,1,.76-1.56,1.7,1.7,0,0,1,1.83-.34l1.61.77-1.76-.33a8.64,8.64,0,0,1-4.69-2.62,8.2,8.2,0,0,1-2.25-5.37,8.8,8.8,0,0,1,2.13-6.06l.13.42a15.54,15.54,0,0,1-7-4.06,16.22,16.22,0,0,1-3.61-5.34,14.92,14.92,0,0,1-1.07-4.11c-.06-.5,0-.88-.06-1.14a2.67,2.67,0,0,1,0-.4,18.47,18.47,0,0,0,1.41,5.52,16.22,16.22,0,0,0,3.62,5.16,15.15,15.15,0,0,0,6.83,3.87l.4.11-.27.31a8.31,8.31,0,0,0-2,5.7,7.84,7.84,0,0,0,2.1,5.05,8.2,8.2,0,0,0,4.4,2.49l-.15.45a1.26,1.26,0,0,0-1.31.26,2,2,0,0,0-.62,1.28,9.1,9.1,0,0,0,.25,2.9,6.24,6.24,0,0,0,2.49,4,4.37,4.37,0,0,0,3,.73A7.46,7.46,0,0,0,305.86,119.56Z" style="fill:#455a64"/><path d="M205,250.79l13.11,77.06s-36,53.32-36,95.1H351.28s-4.57-57.67-35.46-89.41L356,212.23l-47.23-22.08-2-18.16-57.72,2.65v13.59l-36.56,1.93Z" style="fill:#285ffa"/><path d="M311.49,310.91s-1,.21-2.91.42a54,54,0,0,1-8.43.31,45.63,45.63,0,0,1-13.09-2.44,36.11,36.11,0,0,1-14.74-9.53,34.77,34.77,0,0,1-3.14-4,31.92,31.92,0,0,1-2.57-4.61,29.44,29.44,0,0,1-1.75-5.2,28.38,28.38,0,0,1-.63-5.67,26.72,26.72,0,0,1,2.7-11.61,24.36,24.36,0,0,1,3.48-5.22,22,22,0,0,1,5-4.12,15.33,15.33,0,0,1,6.33-1.94,9.72,9.72,0,0,1,6.54,1.65,7.23,7.23,0,0,1,2.21,2.7,7.81,7.81,0,0,1,.71,3.46,10.56,10.56,0,0,1-2.56,6.54,15.1,15.1,0,0,1-5.93,4,30.76,30.76,0,0,1-7,1.85,50.29,50.29,0,0,1-14.8.24,52.75,52.75,0,0,1-26.53-11.48l-1.38-1c-.44-.39-.85-.81-1.28-1.21l-1.27-1.21-1.17-1.29a37.06,37.06,0,0,1-4.23-5.44,25,25,0,0,1-4.28-12.55,14.7,14.7,0,0,1,1.1-6.35,15.53,15.53,0,0,1,3.56-5.18,13.7,13.7,0,0,1,5.25-3.12A9.68,9.68,0,0,1,241.3,232a12.89,12.89,0,0,1,2.5,4.9,13.74,13.74,0,0,1-1.06,10.1,17,17,0,0,1-6.61,6.56,20.12,20.12,0,0,1-3.93,1.77,23.11,23.11,0,0,1-3.93,1,34.89,34.89,0,0,1-13.27-.69c-3.58-.8-6.28-1.7-8.12-2.28l-2.07-.7-.71-.25.72.2,2.1.65c1.84.55,4.55,1.41,8.12,2.18a34.82,34.82,0,0,0,13.18.6,21.68,21.68,0,0,0,3.88-1,20.45,20.45,0,0,0,3.87-1.76,16.61,16.61,0,0,0,6.44-6.44,13.32,13.32,0,0,0,1-9.83,12.58,12.58,0,0,0-2.43-4.74,9.31,9.31,0,0,0-10.17-3,13.35,13.35,0,0,0-5.06,3,14.47,14.47,0,0,0-4.5,11.19,24.51,24.51,0,0,0,4.21,12.29,36.36,36.36,0,0,0,4.19,5.37l1.17,1.27,1.25,1.2c.42.4.84.81,1.27,1.2l1.35,1.12A52.17,52.17,0,0,0,261,277.27a49.62,49.62,0,0,0,14.65-.23,30.68,30.68,0,0,0,6.92-1.81,14.68,14.68,0,0,0,5.74-3.9,10.19,10.19,0,0,0,2.45-6.22,7.71,7.71,0,0,0-.66-3.24,6.81,6.81,0,0,0-2.06-2.52,9.3,9.3,0,0,0-6.21-1.56,15,15,0,0,0-6.12,1.87,21.52,21.52,0,0,0-4.86,4,23.47,23.47,0,0,0-3.42,5.12,26.22,26.22,0,0,0-2.68,11.4,26.7,26.7,0,0,0,.61,5.57,28.7,28.7,0,0,0,1.71,5.14,31.63,31.63,0,0,0,2.52,4.56,32.37,32.37,0,0,0,3.09,3.91,35.42,35.42,0,0,0,7.12,5.92,36.75,36.75,0,0,0,7.45,3.58,46.16,46.16,0,0,0,13,2.52,56.23,56.23,0,0,0,8.41-.21c1-.09,1.68-.18,2.17-.24Z" style="fill:#fff"/><g style="opacity:0.30000001192092896"><path d="M317.85,327.37c-4.11-.12-7-.49-10.14-3.15a55.06,55.06,0,0,1-8.13-9.25l-23.75-31.42c-4.26-5.64-8.62-11.47-10.47-18.3A28.31,28.31,0,0,1,272,238.93l17.52,32.24Z"/></g><path d="M249.24,285.28a1.82,1.82,0,0,1-.4.11c-.27.05-.66.14-1.18.2a24.7,24.7,0,0,1-4.38.24,28.62,28.62,0,0,1-24-14.16,26.73,26.73,0,0,1-1.92-4c-.19-.48-.3-.87-.38-1.13s-.12-.4-.1-.41a13.69,13.69,0,0,1,.67,1.46,31.76,31.76,0,0,0,2,3.84,29.38,29.38,0,0,0,23.7,14,31.59,31.59,0,0,0,4.35-.07A12.78,12.78,0,0,1,249.24,285.28Z" style="fill:#263238"/><path d="M312.65,333.88h-1l-2.75.15c-2.39.13-5.84.24-10.12.32-8.55.17-20.38.08-33.41-.69s-24.78-2.1-33.25-3.28c-4.24-.59-7.66-1.12-10-1.53l-2.72-.47-.7-.14a.53.53,0,0,1-.24-.06h.25l.71.09,2.73.37c2.36.35,5.79.82,10,1.36,8.47,1.09,20.22,2.35,33.24,3.13s24.82.92,33.36.85c4.28,0,7.74-.1,10.13-.16l2.75-.05h1Z" style="fill:#263238"/><g style="opacity:0.30000001192092896"><path d="M143.53,211.79a63.11,63.11,0,0,0,59.8,6c10.16-4.38,19.86-11.63,30.9-11,6.57.39,12.85,3.64,19.42,3.2,5.82-.38,11-3.6,16.73-4.9,10-2.28,21,1.5,30.56-2.22,2.06-.8,4.2-2.22,4.54-4.41a5.12,5.12,0,0,0-2.71-4.88,15.09,15.09,0,0,0-5.66-1.57q-16.42-2.23-33-3.75c-11.31-1-22.81-1.79-33.94.49-14.66,3-27.68,11.07-41.28,17.32s-29.12,10.8-43.4,6.3"/></g><path d="M238.7,190.19s6.93,7.39,11.49,7.79a86.66,86.66,0,0,0,10.69,0s10.1,4.16,12.87,4,5.94-3,4.16-5-6.54-3.57-6.54-3.57l33.53-.36a4.37,4.37,0,0,0,4.39-4c.06-1-.18-1.75-1.09-2h-2.57s-.2-1.78-1.59-1.78H293.15s1.42-2.33-1.83-2.65c-1.38-.14-18,.54-27.3-2.83s-23.53-4.42-23.53-4.42H228.38l.78,16.49Z" style="fill:#a36957"/><path d="M228.38,175.41h3.14l9-.06h0c2.94.23,6.38.61,10.24,1.21a80.41,80.41,0,0,1,12.64,2.91,53.56,53.56,0,0,0,14.89,2.69c2.69.17,5.47.24,8.33.26H291a3.49,3.49,0,0,1,2.23.66,1.63,1.63,0,0,1,.5,1.17,2.64,2.64,0,0,1-.31,1.2l-.22-.37h10.9a1.63,1.63,0,0,1,1,.32,2.54,2.54,0,0,1,.87,1.69l-.25-.23h2.63a1.55,1.55,0,0,1,1.16,1,3.28,3.28,0,0,1,.1,1.49,4.47,4.47,0,0,1-1.35,2.62,4.72,4.72,0,0,1-2.71,1.29c-1,.09-2,0-2.94.07l-31.14.32.07-.48a30.25,30.25,0,0,1,3.66,1.56,9.37,9.37,0,0,1,3.16,2.34,2.1,2.1,0,0,1,.22,2,4.25,4.25,0,0,1-1.19,1.56,6.35,6.35,0,0,1-3.44,1.48,12.1,12.1,0,0,1-3.58-.6c-1.14-.31-2.23-.68-3.31-1-2.15-.74-4.2-1.53-6.17-2.33H261c-2.6.14-5.07.19-7.43.14a32,32,0,0,1-3.43-.19A9,9,0,0,1,247,197a27.3,27.3,0,0,1-4.75-3.38,45.84,45.84,0,0,1-3.58-3.39h.1L231,191.52l-2,.3-.67.08.66-.15,2-.35,7.66-1.33h.06a47.15,47.15,0,0,0,3.59,3.34,26.21,26.21,0,0,0,4.73,3.3,8.44,8.44,0,0,0,3,1c1.09.12,2.23.15,3.4.18q3.51,0,7.4-.18h.05c1.95.79,4,1.57,6.15,2.3,1.07.37,2.16.73,3.29,1a11.62,11.62,0,0,0,3.41.58,5.9,5.9,0,0,0,3.19-1.38,3.76,3.76,0,0,0,1.05-1.38,1.6,1.6,0,0,0-.17-1.58,9.12,9.12,0,0,0-3-2.18,30.66,30.66,0,0,0-3.59-1.52l-1.34-.47h1.41l31.15-.35c1,0,2,0,2.88-.06a4.32,4.32,0,0,0,2.41-1.15,3.89,3.89,0,0,0,1.19-2.32c.15-.86-.05-1.82-.86-2H305.4V187a2.11,2.11,0,0,0-.67-1.34,1.18,1.18,0,0,0-.65-.22H292.74l.19-.37a1.47,1.47,0,0,0-.09-1.77,3.11,3.11,0,0,0-1.92-.53c-1.44-.06-2.9,0-4.33-.06-2.85,0-5.65-.1-8.35-.28a53.93,53.93,0,0,1-15-2.77,79.82,79.82,0,0,0-12.57-3c-3.84-.62-7.27-1-10.2-1.29h0l-9-.06h-2.34Z" style="fill:#7c3b29"/><path d="M270.49,193.34a3,3,0,0,1-.88.29c-.58.16-1.43.34-2.49.54a32.56,32.56,0,0,1-8.36.45,41.9,41.9,0,0,1-8.23-1.61c-1-.3-1.85-.56-2.42-.76a3.79,3.79,0,0,1-.86-.35,26.19,26.19,0,0,1,3.38.76,53.74,53.74,0,0,0,8.17,1.44,38.14,38.14,0,0,0,8.27-.3C269.18,193.51,270.48,193.26,270.49,193.34Z" style="fill:#7c3b29"/><path d="M293.29,185.35a21,21,0,0,1-3.45.35c-2.14.13-5.1.25-8.37.28s-6.23,0-8.37-.15a21.07,21.07,0,0,1-3.46-.29,26.77,26.77,0,0,1,3.47-.07h8.36l8.35-.13A25.11,25.11,0,0,1,293.29,185.35Z" style="fill:#7c3b29"/><path d="M305.16,185.88a1.57,1.57,0,0,1,.49,1,3.16,3.16,0,0,1,0,1.3,1.57,1.57,0,0,1-.34.78,2.21,2.21,0,0,1-.8.52,6,6,0,0,1-2.05.33l-2.31.07-5.31.12c-3.77.07-7.18.1-9.65.1h-2.92a3.94,3.94,0,0,1-1.08-.08,4.28,4.28,0,0,1,1.07-.12l2.93-.14c2.46-.09,5.87-.18,9.64-.25l5.3-.08a17.3,17.3,0,0,0,4.25-.26,1.88,1.88,0,0,0,.68-.4,1.49,1.49,0,0,0,.31-.63,3.4,3.4,0,0,0-.23-2.2Z" style="fill:#7c3b29"/><path d="M126.94,189.43c-4.35,12-2.81,25.19,12.63,36.85S206.1,252.4,206.1,252.4l4.37-46.17,16.61-6.58a4.93,4.93,0,0,0,2.93-4.32c.3-8.6.25-20.5.25-20.5H212.78S136.45,163.19,126.94,189.43Z" style="fill:#285ffa"/><path d="M230.26,175a1.6,1.6,0,0,1,0,.31v4.29c0,3,.23,7.25.16,12.55a16.33,16.33,0,0,1-.33,4.19,6.26,6.26,0,0,1-3,3.42,34.56,34.56,0,0,1-4.46,1.94l-4.76,1.86-21.24,8.26c-7.53,2.92-14.93,5.38-21.94,6.16a51.27,51.27,0,0,1-18.54-1.36,65.23,65.23,0,0,1-11.8-4.27c-1.34-.64-2.37-1.17-3-1.55l-.77-.43a1.4,1.4,0,0,1-.26-.16,1.36,1.36,0,0,1,.28.11l.8.39c.7.35,1.74.84,3.08,1.45a68.49,68.49,0,0,0,11.81,4.1,51.77,51.77,0,0,0,18.39,1.25c7-.81,14.29-3.26,21.81-6.18l21.25-8.22,4.78-1.84a33.44,33.44,0,0,0,4.4-1.88,5.9,5.9,0,0,0,2.84-3.18,15.86,15.86,0,0,0,.34-4.07c.12-5.28,0-9.57,0-12.54,0-1.48,0-2.63.06-3.41v-.89A1.18,1.18,0,0,1,230.26,175Z" style="fill:#263238"/><path d="M189.34,222.41a9.38,9.38,0,0,1,1.17.81c.37.28.82.62,1.31,1.05s1.07.9,1.65,1.49a39.24,39.24,0,0,1,3.87,4.28,46,46,0,0,1,3.89,5.91,46.68,46.68,0,0,1,2.83,6.49,41.8,41.8,0,0,1,1.47,5.59c.17.8.25,1.54.34,2.19a15.53,15.53,0,0,1,.16,1.66,6.83,6.83,0,0,1,0,1.43,8.31,8.31,0,0,1-.24-1.41,10.12,10.12,0,0,0-.25-1.64c-.12-.64-.22-1.37-.42-2.16a44.06,44.06,0,0,0-1.55-5.5,50.67,50.67,0,0,0-2.84-6.4,48.6,48.6,0,0,0-3.8-5.87,46.6,46.6,0,0,0-3.76-4.31c-.56-.6-1.12-1.08-1.59-1.53s-.89-.81-1.24-1.11A7,7,0,0,1,189.34,222.41Z" style="fill:#263238"/><g style="opacity:0.30000001192092896"><path d="M219,270.85c-.39,5.25-.55,10.69,2.36,15.08a18.13,18.13,0,0,0,12.94,8.15,14.59,14.59,0,0,0,13.62-6.31,2.25,2.25,0,0,0,.4-1,1.69,1.69,0,0,0-1.31-1.54,5.66,5.66,0,0,0-2.17,0c-10.44,1.39-21.05-5-25.84-14.42"/></g><path d="M294.34,300c.38-.76,33.3,41,43.07,45.73s35.74,5.88,36.45-23.05-4.47-74.08-4.47-74.08-1.75-33.05-13.58-36.2c-2.64-.7-6,8.11-6.92,8.57s-13.24,31.41-13.24,31.41L333,292.82l-13.44-10.76Z" style="fill:#285ffa"/><path d="M343.28,301.08a2.43,2.43,0,0,1-.46-.33l-1.3-1-4.88-3.83-17.25-13.69h.28l-22.19,15.85-3,2.13v-.39c10.22,11.19,18.57,21.85,25,29.19,3.18,3.67,5.86,6.54,7.75,8.48.93,1,1.68,1.71,2.17,2.22l.56.58q.19.19.18.21l-.21-.17-.6-.55c-.51-.49-1.29-1.19-2.24-2.16-1.93-1.89-4.66-4.73-7.88-8.38-6.47-7.28-14.86-17.87-25-29L294,300l.24-.17,3-2.13,22.22-15.81.14-.1.14.11c7,5.7,12.95,10.47,17.13,13.84l4.8,3.93,1.25,1.05A4,4,0,0,1,343.28,301.08Z" style="fill:#263238"/><path d="M350.72,215.18a4.57,4.57,0,0,1-.73.44,22.09,22.09,0,0,0-2,1.3,25.43,25.43,0,0,0-6.13,6.33,35.4,35.4,0,0,0-5.13,12,80.52,80.52,0,0,0-1.71,16c-.4,11.47-1,21.86-1.31,29.38-.2,3.72-.36,6.75-.47,8.9-.06,1-.12,1.82-.15,2.42a3.89,3.89,0,0,1-.09.84,4,4,0,0,1,0-.85c0-.6,0-1.41.06-2.42.07-2.16.18-5.19.3-8.91.3-7.56.71-17.92,1.16-29.38a78,78,0,0,1,1.77-16.11A34.58,34.58,0,0,1,341.53,223a24.54,24.54,0,0,1,6.32-6.29,18.1,18.1,0,0,1,2.09-1.22A4.41,4.41,0,0,1,350.72,215.18Z" style="fill:#263238"/><g style="opacity:0.30000001192092896"><path d="M209.65,214.83s-7.39,4.14-11.94,5-31.71,4.55-44.18-3.7c0,0,12.91,2.61,22.75,1.48,10.15-1.17,34.19-11.38,34.19-11.38Z"/></g><path d="M330.79,354.08l-.57.69c-.39.46-1,1.15-1.76,2a50.28,50.28,0,0,1-7.68,6.67,51.83,51.83,0,0,1-14.4,7.15,50.33,50.33,0,0,1-9.85,2.07,28,28,0,0,1-11.22-1.09,16,16,0,0,1-5.35-2.92,12.34,12.34,0,0,1-3.64-5.22,12,12,0,0,1-.3-6.61,15.92,15.92,0,0,1,3-6.22,16.18,16.18,0,0,1,5.46-4.57,13.59,13.59,0,0,1,7.2-1.41,19.17,19.17,0,0,1,13.16,7.26,22.11,22.11,0,0,1,3.86,7,23.55,23.55,0,0,1,1.12,8.08,32.46,32.46,0,0,1-5.14,15.86,39.16,39.16,0,0,1-2.47,3.53c-.43.58-.92,1.11-1.38,1.67s-1,1-1.51,1.56l-1.53,1.57c-.53.51-1.12.94-1.68,1.41l-1.7,1.4c-.57.47-1.21.83-1.82,1.25a47.59,47.59,0,0,1-16.41,7,49.24,49.24,0,0,1-34.3-4.62,46,46,0,0,1-7-4.82,32.84,32.84,0,0,1-5.6-6.17,21,21,0,0,1-3.31-7.45,15,15,0,0,1,.43-8,13.43,13.43,0,0,1,4.35-6.43,10.2,10.2,0,0,1,7.19-2.19,12.51,12.51,0,0,1,6.75,2.89,13.16,13.16,0,0,1,2.45,2.66,11.76,11.76,0,0,1,1.61,3.18,14.39,14.39,0,0,1,.5,6.86,17.78,17.78,0,0,1-2.25,6.24,21.33,21.33,0,0,1-9.12,8.3A34.23,34.23,0,0,1,227,395.88a44.53,44.53,0,0,1-10.06.21,45.91,45.91,0,0,1-8.61-1.64,44.74,44.74,0,0,1-6.9-2.58,43.72,43.72,0,0,1-8.67-5.31,23.73,23.73,0,0,1-2-1.7l-.67-.61s.25.19.7.57a25.45,25.45,0,0,0,2.06,1.66,44,44,0,0,0,8.7,5.2,43.31,43.31,0,0,0,6.88,2.53A46.11,46.11,0,0,0,217,395.8a44.6,44.6,0,0,0,10-.25,33.63,33.63,0,0,0,10.69-3.21,20.88,20.88,0,0,0,8.94-8.17,17.17,17.17,0,0,0,2.19-6.1,13.82,13.82,0,0,0-.5-6.66,12.66,12.66,0,0,0-10.44-8.4,9.71,9.71,0,0,0-6.86,2.1,12.93,12.93,0,0,0-4.19,6.21,14.56,14.56,0,0,0-.4,7.69,20.32,20.32,0,0,0,3.24,7.28,32.14,32.14,0,0,0,5.52,6.07,46.59,46.59,0,0,0,6.91,4.76A48.71,48.71,0,0,0,276,401.66a47.24,47.24,0,0,0,16.23-6.9c.6-.42,1.24-.78,1.8-1.24l1.68-1.38c.55-.47,1.14-.9,1.65-1.4l1.52-1.54c.49-.52,1-1,1.49-1.55s.94-1.08,1.36-1.65a36.78,36.78,0,0,0,2.44-3.48,31.94,31.94,0,0,0,5.09-15.61,23,23,0,0,0-1.06-7.9,21.67,21.67,0,0,0-3.77-6.83,18.7,18.7,0,0,0-12.82-7.1,13,13,0,0,0-7,1.35,15.86,15.86,0,0,0-5.32,4.44,15.55,15.55,0,0,0-2.89,6,11.57,11.57,0,0,0,.27,6.39,12,12,0,0,0,3.51,5.06,15.6,15.6,0,0,0,5.22,2.87,27.83,27.83,0,0,0,11.07,1.1,50.33,50.33,0,0,0,9.79-2,52.19,52.19,0,0,0,22.09-13.61c.83-.83,1.4-1.51,1.8-1.95A8.93,8.93,0,0,1,330.79,354.08Z" style="fill:#fff"/><path d="M165.37,216.74a1.26,1.26,0,0,1-.2-.2l-.57-.62a9,9,0,0,1-.86-1.07,14.64,14.64,0,0,1-1-1.55,22.24,22.24,0,0,1-2.16-4.67,24.71,24.71,0,0,1-1.14-6.72,23.31,23.31,0,0,1,1.19-8.16,20.63,20.63,0,0,1,5-8.06,23.82,23.82,0,0,1,20-6.55,22.94,22.94,0,0,1,5.51,1.61,12,12,0,0,1,4.53,3.28,6.3,6.3,0,0,1,1.29,5.22,4.42,4.42,0,0,1-1.33,2.33,5.06,5.06,0,0,1-2.33,1.2,10.91,10.91,0,0,1-4.92-.16,35.58,35.58,0,0,1-4.41-1.34,19.69,19.69,0,0,1-7.12-4.27,11.69,11.69,0,0,1-2.17-2.91,10.39,10.39,0,0,1-1-3.08,9.77,9.77,0,0,1,.6-5.1,6.43,6.43,0,0,1,2-2.59,4.82,4.82,0,0,1,1-.6,8.87,8.87,0,0,0-.89.69,6.42,6.42,0,0,0-1.9,2.59,9.59,9.59,0,0,0-.5,5,9.91,9.91,0,0,0,1,3,11.22,11.22,0,0,0,2.13,2.8,19.39,19.39,0,0,0,7,4.09,39,39,0,0,0,4.36,1.3,10.85,10.85,0,0,0,4.71.14,4.75,4.75,0,0,0,2.11-1.09,4.13,4.13,0,0,0,1.18-2.09,5.84,5.84,0,0,0-1.21-4.79,11.36,11.36,0,0,0-4.34-3.13,22.34,22.34,0,0,0-5.37-1.56A23.46,23.46,0,0,0,165.88,186a20.47,20.47,0,0,0-4.9,7.86,23.93,23.93,0,0,0-1.23,8,24.89,24.89,0,0,0,1.06,6.64,23.05,23.05,0,0,0,2,4.65A34.75,34.75,0,0,0,165.37,216.74Z" style="fill:#fff"/><path d="M175.84,216.76a3.48,3.48,0,0,1,.24,1,11.35,11.35,0,0,1,.16,1.15c0,.45.1,1,.09,1.54a20.62,20.62,0,0,1-.3,4,22.45,22.45,0,0,1-3.7,9.06,21.07,21.07,0,0,1-2.59,3.06,12.11,12.11,0,0,1-1.15,1,6.27,6.27,0,0,1-.92.71,3.22,3.22,0,0,1-.84.53c-.06-.09,1.09-.9,2.64-2.53a22.07,22.07,0,0,0,2.46-3.07,23.8,23.8,0,0,0,3.63-8.87,24.46,24.46,0,0,0,.4-3.92C176,218.16,175.74,216.77,175.84,216.76Z" style="fill:#fff"/><path d="M334.32,235.46a1.78,1.78,0,0,1-.5-.14c-.31-.12-.8-.25-1.39-.51a28.43,28.43,0,0,1-4.82-2.54A30.38,30.38,0,0,1,314.18,201a28.27,28.27,0,0,1,1.48-5.25c.22-.6.46-1,.59-1.36a2,2,0,0,1,.25-.45l-.65,1.88a32.65,32.65,0,0,0-1.31,5.24A30.84,30.84,0,0,0,327.81,232a31.48,31.48,0,0,0,4.7,2.65A17.16,17.16,0,0,1,334.32,235.46Z" style="fill:#fff"/><path d="M368.32,246.12h-1c-.94,0-1.88.06-2.82.16a23.59,23.59,0,0,0-9.67,3.46,21.57,21.57,0,0,0-9.06,11.94,22.65,22.65,0,0,0-.92,8.92,20.43,20.43,0,0,0,1,4.64,10.4,10.4,0,0,0,2.58,4.06,6.63,6.63,0,0,0,4.33,1.76,4.78,4.78,0,0,0,3.94-2,7.62,7.62,0,0,0,1.29-4.25,11,11,0,0,0-.75-4.28,14.61,14.61,0,0,0-4.79-6.45,11.94,11.94,0,0,0-6.51-2.47,11.28,11.28,0,0,0-5.63,1.34,10.82,10.82,0,0,0-3.31,2.86,10.5,10.5,0,0,0-1.66,3.39.53.53,0,0,1,0-.25,4.1,4.1,0,0,1,.17-.72,9.81,9.81,0,0,1,1.29-2.54,10.72,10.72,0,0,1,3.39-3,11.35,11.35,0,0,1,5.78-1.46,12.22,12.22,0,0,1,6.76,2.5,15,15,0,0,1,5,6.62,11.55,11.55,0,0,1,.8,4.46,8.21,8.21,0,0,1-1.37,4.54,5.31,5.31,0,0,1-4.36,2.2,7.15,7.15,0,0,1-4.68-1.9,10.64,10.64,0,0,1-2.71-4.26,20.44,20.44,0,0,1-1.05-4.77,23.12,23.12,0,0,1,1-9.12,22.51,22.51,0,0,1,3.91-7.32,22.28,22.28,0,0,1,5.41-4.79,23,23,0,0,1,9.85-3.34A16.57,16.57,0,0,1,368.32,246.12Z" style="fill:#fff"/><path d="M369.25,338.71a3,3,0,0,1-.61.38,14.42,14.42,0,0,1-1.84.93,20.34,20.34,0,0,1-7.38,1.54,23.79,23.79,0,0,1-10.9-2.42,26.87,26.87,0,0,1-10.2-9.08,34,34,0,0,1-5.18-12.67,43.63,43.63,0,0,1-.63-11.18,55.48,55.48,0,0,1,1.05-7.47c.19-.87.35-1.54.47-2q.09-.35.21-.69a3.38,3.38,0,0,1-.1.71c-.1.51-.23,1.18-.38,2a62.47,62.47,0,0,0-.89,7.46,45,45,0,0,0,.74,11.06,33.9,33.9,0,0,0,5.14,12.47,26.73,26.73,0,0,0,10,8.94,23.72,23.72,0,0,0,10.68,2.48,21.29,21.29,0,0,0,7.32-1.36,19.2,19.2,0,0,0,1.86-.83C368.82,338.88,369,338.79,369.25,338.71Z" style="fill:#fff"/><path d="M296.05,259.6l.14-.25s-9.82-51.62-10-53c-.49-3.45-4-8-6.39-3.11l-.88-6.21s-5.73-.46-5,6.26c0,0-4-.08-3.32,8.5.57,7.37,1.14,23.39,1.14,23.39s-3.48-7.76-5-11.33-5.21-4-7.53-1c0,0,6.92,16.84,6.25,19.29s.67,17.84,7.14,23a20.82,20.82,0,0,0,3.11,2l16.65,23.54,5.16,7.3,20-14.76Z" style="fill:#a36957"/><path d="M276.87,231.16a3.12,3.12,0,0,1-.13-.69c-.07-.49-.16-1.16-.28-2-.25-1.79-.6-4.35-1-7.56s-.95-7.13-1.44-11.57c-.11-1.11-.23-2.26-.35-3.43a14.09,14.09,0,0,1,0-3.67,6.64,6.64,0,0,1,1.66-3.51,6.33,6.33,0,0,1,3.58-1.89h.25v.26c.52,5.5,1.25,11.5,2,17.74,1.07,9.27,2.13,18,2.68,25.6v.27h-.31a1.11,1.11,0,0,0-.65.36,3.65,3.65,0,0,0-.59.71,12.06,12.06,0,0,0-.89,1.66,27.92,27.92,0,0,0-1.21,3.43c-.66,2.27-1.14,4.44-1.65,6.41-1,3.93-1.79,7.18-2.4,9.59h0a4.21,4.21,0,0,0,.5,2,8.92,8.92,0,0,0,.81,1.28,12.65,12.65,0,0,1,.81,1,6.88,6.88,0,0,1-.89-.9,7.64,7.64,0,0,1-.88-1.28,4.28,4.28,0,0,1-.56-2.07h0l2.27-9.62c.48-2,.95-4.14,1.59-6.44a28.94,28.94,0,0,1,1.21-3.5,10.63,10.63,0,0,1,.92-1.73,5.54,5.54,0,0,1,.65-.8,1.36,1.36,0,0,1,1.09-.46l-.3.23c-.58-7.58-1.66-16.3-2.73-25.57-.73-6.24-1.45-12.24-2-17.75l.27.22a5.93,5.93,0,0,0-3.29,1.73,6.36,6.36,0,0,0-1.55,3.26,13.19,13.19,0,0,0,0,3.55c.11,1.17.22,2.32.33,3.43.45,4.43.93,8.34,1.33,11.58s.68,5.77.89,7.57c.09.86.15,1.53.2,2A5.62,5.62,0,0,1,276.87,231.16Z" style="fill:#7c3b29"/><path d="M269.58,230a5,5,0,0,1,.88,1.31,18.55,18.55,0,0,1,1.5,3.8l-.18-.17a12,12,0,0,1,3.87,1.63,12.58,12.58,0,0,1,4.59,5.19,10.13,10.13,0,0,1,.71,2c.1.49.14.76.1.77a20.58,20.58,0,0,0-1.14-2.59,13.32,13.32,0,0,0-4.54-4.92,12.78,12.78,0,0,0-3.69-1.61h-.14v-.14A35.5,35.5,0,0,0,269.58,230Z" style="fill:#7c3b29"/></g><g id="freepik--Stopwatch--inject-99"><rect x="436.05" y="78.09" width="8" height="12.49" transform="translate(139.43 416.58) rotate(-58.71)" style="fill:#263238"/><path d="M442.29,76l-8.56,14.08-11.5-7A31.39,31.39,0,0,1,430.79,69Z" style="fill:#455a64"/><path d="M435.12,87.69c-.14.23-2.94-1.2-6.26-3.19s-5.91-3.8-5.77-4,2.94,1.2,6.26,3.2S435.29,87.47,435.12,87.69Z" style="fill:#263238"/><path d="M436.75,85c-.15.22-3-1.35-6.3-3.48s-5.94-4-5.85-4.17,3,1.23,6.37,3.36S436.89,84.79,436.75,85Z" style="fill:#263238"/><path d="M438.92,81.44c-.14.22-3-1.38-6.34-3.55s-6-4.1-5.87-4.28,3,1.3,6.39,3.48S439.06,81.22,438.92,81.44Z" style="fill:#263238"/><path d="M440.88,78.11c-.14.23-2.94-1.24-6.25-3.27s-5.88-3.86-5.75-4.08S431.82,72,435.13,74,441,77.85,440.88,78.11Z" style="fill:#263238"/><rect x="528.58" y="50.94" width="12.49" height="8" transform="translate(232.98 499.84) rotate(-61.71)" style="fill:#263238"/><path d="M543.29,56.66,528.8,48.85,535.18,37a31.46,31.46,0,0,1,14.51,7.85Z" style="fill:#455a64"/><path d="M531.23,50.16c-.23-.12,1-3,2.87-6.42s3.48-6.09,3.71-6-1,3-2.87,6.42S531.46,50.28,531.23,50.16Z" style="fill:#263238"/><path d="M534,51.65c-.23-.13,1.19-3,3.14-6.47S540.83,39,541,39.12s-1.07,3.09-3,6.53S534.23,51.78,534,51.65Z" style="fill:#263238"/><path d="M537.68,53.63c-.23-.13,1.22-3,3.21-6.52s3.78-6.18,4-6.08-1.14,3.09-3.14,6.56S537.91,53.76,537.68,53.63Z" style="fill:#263238"/><path d="M541.1,55.41c-.23-.12,1.09-3,2.94-6.41s3.55-6.08,3.78-6-1.09,3-2.94,6.41S541.29,55.54,541.1,55.41Z" style="fill:#263238"/><rect x="477.29" y="41.94" width="9.47" height="14.78" transform="translate(8.37 151.45) rotate(-18.01)" style="fill:#263238"/><path d="M490.44,43.48l-18.55,6L467,34.33a37.07,37.07,0,0,1,18.55-6Z" style="fill:#285ffa"/><path d="M485.76,28.32c.19.13-3.12,3.66-8.65,5.45s-10.27,1-10.19.77,4.62.1,9.89-1.68S485.57,28.08,485.76,28.32Z" style="fill:#263238"/><path d="M478,47.47c-.25.09-1.4-2.76-2.57-6.34s-1.91-6.57-1.66-6.65,1.4,2.76,2.57,6.35S478.29,47.39,478,47.47Z" style="fill:#263238"/><path d="M481.57,46.41c-.26.09-1.41-2.77-2.58-6.37s-1.92-6.6-1.67-6.68,1.41,2.78,2.58,6.38S481.82,46.33,481.57,46.41Z" style="fill:#263238"/><path d="M485.08,45.21c-.25.08-1.41-2.78-2.58-6.38s-1.92-6.59-1.67-6.67,1.41,2.77,2.58,6.38S485.29,45.13,485.08,45.21Z" style="fill:#263238"/><path d="M488,44.25c-.26.08-1.49-3-2.75-6.9s-2.09-7.12-1.84-7.2,1.48,3,2.75,6.9S488.29,44.17,488,44.25Z" style="fill:#263238"/><path d="M474.65,48.5c-.25.08-1.48-3-2.75-6.91s-2.09-7.12-1.84-7.2,1.48,3,2.75,6.91S474.9,48.42,474.65,48.5Z" style="fill:#263238"/><circle cx="503.16" cy="117.93" r="68.91" transform="translate(63.98 390.33) rotate(-45)" style="fill:#285ffa"/><circle cx="502.95" cy="117.38" r="57.87" style="fill:#fafafa"/><path d="M558,99.49s-.15-.28-.39-.86-.58-1.46-1-2.55c-.22-.57-.47-1.2-.75-1.88s-.7-1.4-1.1-2.19a43.2,43.2,0,0,0-3-5.3A55.33,55.33,0,0,0,540.9,74.12a57.78,57.78,0,0,0-45.31-13.71,53,53,0,0,0-7.17,1.46c-1.19.34-2.42.61-3.61,1l-3.52,1.38c-.59.24-1.21.44-1.79.71l-1.73.88c-1.15.59-2.34,1.14-3.48,1.79a63.29,63.29,0,0,0-12.69,10c-1,1-1.82,2.09-2.74,3.14a29.47,29.47,0,0,0-2.55,3.34,67.14,67.14,0,0,0-4.49,7.28,67.23,67.23,0,0,0-3.29,8.07A55.62,55.62,0,0,0,445.62,117a56.85,56.85,0,0,0,11.2,34.45A55.39,55.39,0,0,0,469.51,164a52.36,52.36,0,0,0,15.31,7.84,27.88,27.88,0,0,0,4,1.2c1.36.31,2.7.68,4.06.93a58.45,58.45,0,0,0,8.14.81,61,61,0,0,0,8-.22c1.3-.15,2.59-.41,3.87-.6l1.91-.31c.63-.12,1.25-.32,1.87-.48l3.67-1c1.21-.37,2.36-.88,3.52-1.3a53.65,53.65,0,0,0,6.65-3,57.82,57.82,0,0,0,28.59-37.73,55.3,55.3,0,0,0,1.37-16.57,43.94,43.94,0,0,0-.69-6c-.15-.87-.25-1.68-.4-2.41s-.35-1.37-.5-2c-.29-1.14-.52-2-.68-2.67s-.19-.92-.19-.92.11.3.29.89.43,1.52.76,2.65c.17.59.35,1.24.55,2s.29,1.54.45,2.42a41.31,41.31,0,0,1,.78,6.07,54.82,54.82,0,0,1-1.22,16.7,58.11,58.11,0,0,1-28.73,38.31,53.93,53.93,0,0,1-6.73,3.11c-1.18.44-2.35,1-3.57,1.33l-3.72,1c-.63.16-1.25.36-1.89.49l-1.94.32c-1.3.2-2.61.46-3.93.61a59.21,59.21,0,0,1-8.1.25,60.46,60.46,0,0,1-8.27-.81c-1.38-.25-2.74-.62-4.13-.93a31.05,31.05,0,0,1-4.1-1.21,54,54,0,0,1-15.57-7.95A56.63,56.63,0,0,1,456,152.06a57.69,57.69,0,0,1-11.38-35,56.82,56.82,0,0,1,3-17.86A67.85,67.85,0,0,1,451,91a66.68,66.68,0,0,1,4.56-7.39,31.71,31.71,0,0,1,2.6-3.39c.94-1.06,1.83-2.16,2.79-3.18a61.37,61.37,0,0,1,6.21-5.52,64.77,64.77,0,0,1,6.7-4.56c1.16-.65,2.37-1.21,3.54-1.81l1.76-.88c.59-.28,1.21-.48,1.81-.72l3.61-1.37c1.21-.41,2.45-.68,3.66-1a56.11,56.11,0,0,1,7.28-1.44,58.12,58.12,0,0,1,45.76,14,54.57,54.57,0,0,1,10.81,12.8A39.73,39.73,0,0,1,555,91.85c.38.8.77,1.52,1.06,2.21s.5,1.33.71,1.91c.4,1.11.71,2,.94,2.59A5.51,5.51,0,0,1,558,99.49Z" style="fill:#263238"/><path d="M549.67,101.25c-5,1.71-9.16,2.8-9.29,2.43s3.74-2.23,8.66-4.16,9.07-3,9.28-2.43S554.66,99.54,549.67,101.25Z" style="fill:#263238"/><path d="M547.52,138.76c-4.76-2.3-8.48-4.45-8.32-4.8s4.23,1,9.08,3.13,8.57,4.24,8.31,4.81S552.29,141.06,547.52,138.76Z" style="fill:#263238"/><path d="M519.6,163.93c-1.76-5-2.89-9.13-2.53-9.26s2.27,3.71,4.25,8.61,3.11,9,2.53,9.26S521.37,168.9,519.6,163.93Z" style="fill:#263238"/><path d="M482.06,162.19c2.25-4.78,4.36-8.53,4.72-8.37s-1,4.24-3,9.11-4.15,8.62-4.71,8.36S479.82,167,482.06,162.19Z" style="fill:#263238"/><path d="M456.59,134.55c5-1.82,9.09-3,9.23-2.62s-3.68,2.3-8.56,4.33-9,3.21-9.24,2.63S451.64,136.37,456.59,134.55Z" style="fill:#263238"/><path d="M457.92,97c4.8,2.19,8.57,4.26,8.42,4.62s-4.25-1-9.15-2.94-8.66-4.05-8.41-4.62S453.12,94.85,457.92,97Z" style="fill:#263238"/><path d="M485.29,71.23c1.87,4.93,3.09,9,2.73,9.2s-2.35-3.67-4.43-8.52-3.3-9-2.73-9.2S483.4,66.29,485.29,71.23Z" style="fill:#263238"/><path d="M522.84,72.14c-2.14,4.82-4.17,8.61-4.53,8.46s.91-4.26,2.84-9.17,4-8.7,4.53-8.46S525,67.31,522.84,72.14Z" style="fill:#263238"/><path d="M548.91,99.2c-4.92,1.93-9,3.2-9.18,2.83s3.65-2.38,8.48-4.52,8.93-3.4,9.17-2.83S553.82,97.28,548.91,99.2Z" style="fill:#263238"/><path d="M462.22,64.79A26.88,26.88,0,0,1,459.78,67a70.9,70.9,0,0,0-6.29,6.33,66.68,66.68,0,0,0-16,54.6,74,74,0,0,0,1.88,8.72,31.56,31.56,0,0,1,.86,3.17,5.15,5.15,0,0,1-.37-.77c-.21-.52-.53-1.28-.85-2.29a58.35,58.35,0,0,1-2.18-8.73A64.74,64.74,0,0,1,453,72.85a57.81,57.81,0,0,1,6.55-6.16,23.79,23.79,0,0,1,2-1.48C462,64.87,462.2,64.76,462.22,64.79Z" style="fill:#fff"/><path d="M479.36,55.29c.09.26-2.69,1.55-6.09,3.17s-6.17,3-6.31,2.72,2.45-2,5.9-3.58S479.29,55.05,479.36,55.29Z" style="fill:#fff"/><g style="opacity:0.4000000059604645"><path d="M469.71,164.77s43.16,35.74,79.91-1.7C588,124,544.53,77.12,544.53,77.12s36,36.9.32,80.2c-8.89,10.78-21.1,14.76-30.71,16.85C489.57,179.52,469.71,164.77,469.71,164.77Z"/></g><path d="M508.78,83.15a197.4,197.4,0,0,1,7.13,24.43,31.53,31.53,0,0,1,1,9.12,11.91,11.91,0,0,1-3.62,8.15c-2.31,2-5.93,2.67-8.53,1Z" style="fill:#e0e0e0"/><polygon points="500.34 113.43 509.39 73.25 509.68 115.2 504.11 119.05 500.34 113.43" style="fill:#285ffa"/><g style="opacity:0.4000000059604645"><polygon points="509.39 73.25 505.75 112.49 509.68 115.2 509.39 73.25"/></g><path d="M510.55,117a6.77,6.77,0,1,1-8.53-4.35,6.77,6.77,0,0,1,8.53,4.35Z" style="fill:#fafafa"/><path d="M510.55,117c-.08,0-.27-.55-.87-1.41a6.77,6.77,0,0,0-3.45-2.57,6.36,6.36,0,1,0,3.17,9.73,6.77,6.77,0,0,0,1.28-4.1c0-1-.21-1.63-.13-1.65a3.24,3.24,0,0,1,.5,1.62,6.72,6.72,0,0,1-1.1,4.51,7.08,7.08,0,0,1-6.08,3.16,7.18,7.18,0,0,1-4.19-12.88,7.09,7.09,0,0,1,6.78-1,6.73,6.73,0,0,1,3.54,3A3.23,3.23,0,0,1,510.55,117Z" style="fill:#263238"/><path d="M508.91,117.49a4.83,4.83,0,1,1,0-.07Z" style="fill:#455a64"/><path d="M467.17,0a.85.85,0,0,1-.07.27l-.24.78a24.73,24.73,0,0,1-1.15,3,31.47,31.47,0,0,1-13.79,14.64,29.66,29.66,0,0,1-9.34,3.12A31.76,31.76,0,0,1,420.29,17l.36-.32c3.88,7.81,3.87,18.34-.89,27.07a27.09,27.09,0,0,1-7.5,8.75A30.14,30.14,0,0,1,382.49,56l.23-.39a25.15,25.15,0,0,1,9.57,14.43,24.61,24.61,0,0,1-4.91,21.06,17.29,17.29,0,0,1-2.12,2.24l.12-.15.4-.43c.36-.38.87-1,1.5-1.74a25,25,0,0,0,4.07-7.62,23.88,23.88,0,0,0,.58-13.27A24.73,24.73,0,0,0,382.39,56l-1.8-1.3,2,.91a29.24,29.24,0,0,0,19.56,1.24,29.64,29.64,0,0,0,9.75-4.78,26.63,26.63,0,0,0,7.39-8.58c4.68-8.57,4.7-18.94.91-26.6l-.41-.82.77.51a31.4,31.4,0,0,0,22,4.79,30.47,30.47,0,0,0,16-7.87,31.94,31.94,0,0,0,7-9.54A28.91,28.91,0,0,0,466.78,1l.28-.77C467.12.08,467.16,0,467.17,0Z" style="fill:#263238"/><path d="M523.41,14.85a8,8,0,0,1-1.37.39,10.35,10.35,0,0,1-1.66.32,20.4,20.4,0,0,1-2.21.21h-1.3c-.45,0-.92,0-1.41-.07a26.73,26.73,0,0,1-3.08-.39,28.75,28.75,0,0,1-6.75-2.23,29.35,29.35,0,0,1-5.93-3.93A23.93,23.93,0,0,1,497.5,7c-.32-.36-.65-.7-.92-1.06l-.78-1A17.59,17.59,0,0,1,494.6,3a9.13,9.13,0,0,1-.77-1.49,7.62,7.62,0,0,1-.54-1.32c.11-.06.86,1.86,2.81,4.47l.79,1a12.38,12.38,0,0,0,.93,1A24.47,24.47,0,0,0,500,8.8a30.12,30.12,0,0,0,5.84,3.82,29.76,29.76,0,0,0,6.61,2.23,27.42,27.42,0,0,0,3,.43c.48,0,.94.09,1.39.1h1.27C521.42,15.32,523.39,14.72,523.41,14.85Z" style="fill:#263238"/><path d="M610.51,134.34l-.27.15-.82.39c-.36.16-.81.37-1.32.65s-1.12.58-1.77,1a38.63,38.63,0,0,0-15,16,36.39,36.39,0,0,0-3.28,10.06,38.17,38.17,0,0,0,3.78,24.14l.25.46-.52-.1a32.77,32.77,0,0,0-19.79,2.41,31.56,31.56,0,0,0-8.1,5.3,32.93,32.93,0,0,0-10.62,23.73v.53l-.39-.36a27.47,27.47,0,0,0-8.28-5.19,31.49,31.49,0,0,0-4.35-1.4,34.29,34.29,0,0,0-4.28-.66,31.51,31.51,0,0,0-14.32,2,29,29,0,0,0-8.12,4.74c-.85.69-1.4,1.33-1.83,1.71l-.47.44c-.1.1-.16.15-.17.14a33.68,33.68,0,0,1,2.38-2.4,28.09,28.09,0,0,1,8.11-4.89,31.69,31.69,0,0,1,14.45-2.09,37.23,37.23,0,0,1,4.34.65,32.86,32.86,0,0,1,4.42,1.4A27.89,27.89,0,0,1,553,218.4l-.4.17a33.22,33.22,0,0,1,10.75-24.11,31.61,31.61,0,0,1,8.22-5.4,33.27,33.27,0,0,1,20.11-2.42l-.27.36a38.4,38.4,0,0,1-3.77-24.44A36.15,36.15,0,0,1,591,152.4a39.3,39.3,0,0,1,5.12-7.65,37.81,37.81,0,0,1,10.11-8.3A28.44,28.44,0,0,1,610.51,134.34Z" style="fill:#263238"/><path d="M600.68,107.85a2.5,2.5,0,0,1-.34-.39,10.2,10.2,0,0,1-.86-1.21,15,15,0,0,1-1.09-13.65,15.41,15.41,0,0,1,7.39-7.79v.46a45.42,45.42,0,0,1-11.84-4.66,28.24,28.24,0,0,1-10.87-10.76,22,22,0,0,1-2.46-12.28,17.27,17.27,0,0,1,2.76-8l.8-1.07c.24-.31.49-.53.66-.73a5.12,5.12,0,0,1,.58-.56,6,6,0,0,1-.5.63c-.16.21-.39.44-.62.75s-.47.69-.75,1.09A17.55,17.55,0,0,0,581,57.6a21.76,21.76,0,0,0,2.51,12,28,28,0,0,0,10.8,10.55A46.13,46.13,0,0,0,606,84.78l.66.17-.62.29a15.1,15.1,0,0,0-7.21,7.51,14.61,14.61,0,0,0-1,8.23,15.38,15.38,0,0,0,1.84,5.17C600.29,107.27,600.71,107.85,600.68,107.85Z" style="fill:#263238"/></g><g id="freepik--Table--inject-99"><path d="M628,423c0,.15-140.58.26-314,.26S0,423.1,0,423s140.55-.26,314-.26S628,422.81,628,423Z" style="fill:#263238"/></g></g></g></svg>