<svg xmlns="http://www.w3.org/2000/svg" viewBox="0 0 111.64 119.59"><title>woman2-afterAsset 21</title><g id="Layer_2" data-name="Layer 2"><g id="OBJECTS"><circle cx="55.82" cy="63.77" r="55.82" transform="translate(-28.74 58.15) rotate(-45)" style="fill:#fce8e3"/><path d="M92.34,93.24C108.09,82.56,98.69,65,84.41,41.52a34.58,34.58,0,0,1-4.18-11.05,25,25,0,0,0-49,.28,41.47,41.47,0,0,1-3.95,11.52c-13.14,24.84-26,44.86-7.22,51Z" style="fill:#4c224b"/><rect x="42.72" y="56.42" width="26.15" height="33.36" style="fill:#e2988f"/><path d="M103.79,92.31C91.48,87.13,69,83.24,69,83.24c-8.62,7.26-19.52,7.21-26.3,0,0,0-22.74,3.37-35.57,7.86a55.8,55.8,0,0,0,46.08,28.43c.88,0,1.77.06,2.66.06A55.8,55.8,0,0,0,103.79,92.31Z" style="fill:#f4ba5d"/><path d="M42.72,79.45l-5.15,4.62s3,13,9.14,13.2,9-8.62,9-8.62Q47,86.29,42.72,79.45Z" style="fill:#fff"/><path d="M68.86,79.45,74,84.07s-3,13-9.14,13.2-9.05-8.62-9.05-8.62Q64.63,86.29,68.86,79.45Z" style="fill:#fff"/><circle cx="55.79" cy="12" r="12" transform="translate(35.01 65.15) rotate(-80.78)" style="fill:#4c224b"/><path d="M55.76,16h0C38.9,16,35.07,28.67,35.42,41.38c0,9.16-.64,12.13.21,14.4.47,3.23,7,19.7,20.13,19.7S74.86,59.88,76,55.78c.85-2.27.08-5.24.08-14.4C76.45,28.67,72.61,16,55.76,16Z" style="fill:#e2988f"/><path d="M55.76,75.85c-4.91,0-9.39-2.22-13.32-6.59l.55-.5C46.78,73,51.07,75.1,55.76,75.1s9.1-2.13,12.83-6.33l.56.5C65.28,73.64,60.77,75.85,55.76,75.85Z" style="fill:#c46966"/><path d="M36.16,41.68s-3.39-4.38-6.87-1.82-.09,17.08,6.87,14.52S36.16,41.68,36.16,41.68Z" style="fill:#e2988f"/><path d="M75.42,41.68s3.39-4.38,6.87-1.82.09,17.08-6.87,14.52S75.42,41.68,75.42,41.68Z" style="fill:#e2988f"/><rect x="34.54" y="48.41" width="0.75" height="6.3" transform="translate(-6.79 5.32) rotate(-7.94)" style="fill:#c46966"/><rect x="73.57" y="51.18" width="6.27" height="0.75" transform="translate(18.26 123.16) rotate(-84.69)" style="fill:#c46966"/><path d="M31,47.4c-.77-2.24-.81-3.85-.12-4.76a1.89,1.89,0,0,1,1.51-.73l-.05.75,0-.38,0,.38a1.09,1.09,0,0,0-.88.44c-.36.49-.61,1.59.24,4.06Z" style="fill:#c46966"/><path d="M80.83,47.4l-.7-.24c.85-2.49.59-3.58.22-4.07a1.09,1.09,0,0,0-.86-.43l0-.75a1.89,1.89,0,0,1,1.5.73C81.64,43.55,81.61,45.16,80.83,47.4Z" style="fill:#c46966"/><path d="M80.71,53.79a1.55,1.55,0,1,1-1.55-1.55A1.54,1.54,0,0,1,80.71,53.79Z" style="fill:#fff"/><path d="M34.13,53.79a1.56,1.56,0,1,1-1.56-1.55A1.55,1.55,0,0,1,34.13,53.79Z" style="fill:#fff"/><path d="M34.59,35.28a103.16,103.16,0,0,0,42.41,0S77.27,14.64,56.36,14,34.59,35.28,34.59,35.28Z" style="fill:#4c224b"/><path d="M67.49,13.87a31.34,31.34,0,0,0-23.47,0l-.27-.7a32.09,32.09,0,0,1,24,0Z" style="fill:#703870"/><path d="M77.63,35a27.71,27.71,0,0,0-6.1-15.23l.58-.48a28.48,28.48,0,0,1,6.26,15.64Z" style="fill:#703870"/><path d="M34.5,35l-.74-.07A28.41,28.41,0,0,1,40,19.29l.58.48A27.71,27.71,0,0,0,34.5,35Z" style="fill:#703870"/><path d="M41.29,36.44l-.75-.06a43.26,43.26,0,0,1,2-9.88l.71.23A42.94,42.94,0,0,0,41.29,36.44Z" style="fill:#703870"/><path d="M68.17,36.77l-.75,0a28.17,28.17,0,0,0-1.06-7.84l.73-.19A29.32,29.32,0,0,1,68.17,36.77Z" style="fill:#703870"/><path d="M65.63,26.41c-.55-1.72-1-2.87-1-2.88l.69-.29c0,.05.49,1.18,1.06,2.94Z" style="fill:#703870"/></g></g></svg>