<svg xmlns="http://www.w3.org/2000/svg" viewBox="0 0 105.83 479.96"><title>womanAsset 26</title><g id="Layer_2" data-name="Layer 2"><g id="Layer_1-2" data-name="Layer 1"><g class="cls-1"><path class="cls-2" d="M105.74,246.75a9.33,9.33,0,0,1-1.15,5.53q-2.1,4.11-4.14,8.25A3.16,3.16,0,0,1,99.26,262a20.47,20.47,0,0,1-4.49,2.47,3.21,3.21,0,0,1-1,.17,1.64,1.64,0,0,1-1.56-.95c-.23-.62.23-1.08.64-1.45a13.6,13.6,0,0,1,3-2c.31-.16.79-.34.65-.74s-.58-.07-.9-.05a8.7,8.7,0,0,1-5.93-1.7.75.75,0,0,1-.22-1,1.26,1.26,0,0,1,1.25-.77,10.53,10.53,0,0,1,3.29.52c.37.13.88.53,1,.07.22-.63-.53-.49-.88-.62a8.8,8.8,0,0,1-2.94-1.29c-.28-.24-.57-.46-.47-.89s.47-.53.81-.61a6.9,6.9,0,0,1,3.55.22,1.61,1.61,0,0,0,1.34-.18c2.26-1.09,3-2.71,2.49-5.24-.49-2.38-.51-4.85-.76-7.28,0-.36,0-1-.45-1s-.48.59-.53.94a33.46,33.46,0,0,1-1.72,5.73,5.86,5.86,0,0,1-1.92,3,1.24,1.24,0,0,1-1.45.19,1.1,1.1,0,0,1-.47-1.37c.76-2.67.49-5.39.41-8.11,0-1.31,0-2.64,0-3.95a9.45,9.45,0,0,1,2-5.78,8.16,8.16,0,0,0,1.69-6.92C94.55,217.32,94,211.1,92.93,205s-1.9-12.14-3.32-18.13a56.23,56.23,0,0,1-1.36-10.33c-.2-4.27-.77-8.54-.47-12.82.4-5.47-1-10.69-1.88-16-1.08-6.25-2.68-12.42-3.06-18.79-.13-2.19-.61-4.35-.93-6.53a.66.66,0,0,0-.5-.65c-.44,2-.85,3.87-1.27,5.77-1.35,6.08-2.55,12.2-3.83,18.29-.44,2.07-.74,4.18-1.37,6.19-.85,2.71-.17,5.1.93,7.5,2.06,4.5,4,9.05,6.19,13.51a83.6,83.6,0,0,1,6.06,18.64,73.37,73.37,0,0,1,2.23,14.9c.1,8-.61,16-1.08,24-.3,5.23-.6,10.46-1,15.68-.45,5.7-1.39,11.34-2.1,17-.54,4.28-.8,8.6-1.39,12.88-.88,6.41-1.47,12.87-2.09,19.31-.66,6.83-2.16,13.59-2.07,20.51.07,5.81.24,11.64,1.67,17.27,2.16,8.5,1.61,17.07,1.38,25.65S82,375.76,80.76,384.18c-.52,3.48-.91,7-1.42,10.45-.71,4.79-1.42,9.57-2,14.36-.91,7.3-2.24,14.54-2.78,21.88a4.45,4.45,0,0,0,.48,2.3,4.23,4.23,0,0,1-.36,4.83,2,2,0,0,0-.33,2.18c1.56,5.12,3.14,10.24,4.24,15.48.33,1.57.64,3.14,1,4.69,1.09,4.14.23,7.95-1.74,11.66a20.76,20.76,0,0,1-4.62,5.76c-3.2,2.84-6.13,3-9.27-.18a14.1,14.1,0,0,1-3.84-8.71,81.45,81.45,0,0,1,.36-18.66c.46-3.61,1.12-7.19,1.7-10.78a1.44,1.44,0,0,0,0-.94c-1.14-2.07-.56-4,.43-5.93a4.3,4.3,0,0,0,.45-1.7c.91-8,0-16-.47-23.95-.37-6.63-.68-13.26-1.05-19.89-.52-9.34-1.11-18.68-1.59-28-.17-3.31-.58-6.61-.59-9.93,0-6.38.9-12.68,1.38-19,.26-3.39.59-6.71-.05-10.13-.8-4.31-.39-8.69-.07-13a112.77,112.77,0,0,0-.37-14C59.88,285.42,58.9,278,58,270.59c-1.08-9.31-1.12-18.67-1.83-28-.65-8.58-1-17.17-1.4-25.75,0-.86-.15-1.46-1.25-1a1.8,1.8,0,0,1-1.29.06c-1.19-.5-1.11.19-1.14,1-.36,7.43-.72,14.85-1.13,22.28-.37,6.9-.8,13.81-1.14,20.72-.39,8.15-1.59,16.23-2.45,24.33-.69,6.41-1,12.83-1.28,19.26a31.36,31.36,0,0,0,.26,5.39,37.11,37.11,0,0,1-.2,10.63,41.07,41.07,0,0,0,0,9.91c.44,4.74.91,9.47,1.26,14.22A109.16,109.16,0,0,1,46,359.22c-.48,7-.7,14-1.14,21-.62,9.9-1.11,19.81-1.63,29.71-.19,3.67-.53,7.34-.75,11a52.91,52.91,0,0,0,.59,8.71,29.28,29.28,0,0,0,1.35,5.8,2.18,2.18,0,0,1,0,1.77c-.91,1.41-.53,2.86-.25,4.29a106,106,0,0,1,2.17,22.4c-.06,4-.46,8.06-2.61,11.67a9.72,9.72,0,0,1-4.24,3.94c-2.37,1.12-4.42.13-6.2-1.31a19.74,19.74,0,0,1-7.3-12.95c-.33-2.35.5-4.6.94-6.86,1-5,2.38-9.94,3.75-14.86.33-1.2.7-2.38,1.09-3.55a2,2,0,0,0-.38-2A4.24,4.24,0,0,1,31.1,433a3.74,3.74,0,0,0,.36-2c-.26-4.64-1-9.22-1.66-13.8q-1.55-10.92-3.08-21.83c-1.16-8.31-2.41-16.61-3.46-24.93a168.57,168.57,0,0,1-1.06-28.85,34.31,34.31,0,0,1,1.08-6.74,68,68,0,0,0,1.88-16.51c0-2.24,0-4.48-.06-6.72-.08-4.57-1.24-9-1.58-13.56-.49-6.49-1.47-12.94-2-19.44-.38-4.53-1.09-9-1.53-13.57-.53-5.57-1.45-11.09-2.15-16.64-1.1-8.57-1.54-17.2-2.15-25.8a84,84,0,0,1,.39-18.54c.89-5.89,1.82-11.76,3.14-17.57a71.21,71.21,0,0,1,5.24-14.87c1.9-4,3.5-8.07,5.52-12,1.82-3.5,1.38-6.89.5-10.45q-1.41-5.69-2.41-11.49c-.67-4-1.76-7.85-2.65-11.78-.37-1.62-.68-3.25-1-5-.57.42-.45.94-.49,1.39-.57,5.73-1.16,11.46-2.26,17.11-.82,4.19-1.69,8.36-2.46,12.56a52.13,52.13,0,0,0-1,11.43,124.39,124.39,0,0,1-1.25,20.22c-.45,3.67-1.49,7.27-2.17,10.92-.52,2.74-.8,5.54-1.34,8.28-1,4.86-1.39,9.8-2.34,14.66a73.29,73.29,0,0,0-.94,8,5.18,5.18,0,0,0,1.2,3.81,11.86,11.86,0,0,1,2.69,8.8,51.25,51.25,0,0,0-.07,8,7.91,7.91,0,0,0,.27,1.53c.22.67.53,1.35-.31,1.77a1.55,1.55,0,0,1-2.07-.68,10,10,0,0,1-1.19-2.2c-.69-2-1.27-3.95-1.91-5.93-.11-.36-.06-.95-.56-.93s-.31.58-.36.91c-.47,3-.47,6.14-.81,9.2a2.43,2.43,0,0,0,1.21,2.39,4.1,4.1,0,0,0,4.05.88,3.92,3.92,0,0,1,2.37.08c.82.25.92.87.25,1.4a8.81,8.81,0,0,1-3.28,1.42c-.29.08-.9-.06-.71.49s.6.12.94,0c1-.22,1.95-.41,2.93-.59a2.08,2.08,0,0,1,1.18.14c1,.42,1.13,1.24.21,1.78-2,1.15-4,2.05-6.4,1.29-.15-.05-.31-.14-.44,0s0,.39.13.5a10,10,0,0,0,1.31.83,9.12,9.12,0,0,1,2.58,1.94c.78.79.55,1.65-.51,2a1.63,1.63,0,0,1-.94.1c-2.78-.94-5.54-1.91-6.81-4.95-1.07-2.59-2.47-5-3.76-7.5a10.21,10.21,0,0,1-1.11-5.89c.63-6.52,1.51-13,1.63-19.59a98.15,98.15,0,0,0-.44-11.37A243.05,243.05,0,0,1,.24,179.63a62,62,0,0,1,3-15.38c2.17-7,2.73-14.07,2.93-21.28.29-10.43.48-20.86,1-31.28C7.59,104,8.06,96.28,9,88.63c.51-3.95,1.61-7.76,4.5-10.77a11.36,11.36,0,0,1,4.84-3c4.72-1.51,9.51-2.74,14.27-4.11a35.5,35.5,0,0,0,7.46-2.54,4.76,4.76,0,0,0,2.55-3.93c.55-4.63-.13-9.26,0-13.9a1.78,1.78,0,0,0-.36-1.12,32,32,0,0,1-4.22-8.82c-.2-.69-.4-1.38-.58-2.07a3.42,3.42,0,0,0-1.67-2.43c-1-.58-1.12-2-1.57-3a15.2,15.2,0,0,1-1-4.06c-.21-1.51.07-2,1.51-2.45.69-.2.57-.64.54-1.12A50.64,50.64,0,0,1,35.39,15c.84-6.16,4-10.7,9.71-13.26A19.2,19.2,0,0,1,57.76.59a15.92,15.92,0,0,1,9.33,6.74,18.93,18.93,0,0,1,3.21,10.5,55.75,55.75,0,0,1-.22,7.31c-.09.76,0,1.2.9,1.31a1.37,1.37,0,0,1,1.25,1.49,16.43,16.43,0,0,1-1.42,7.12c-.22.5-.51,1.08-1.09,1.2-.92.2-1.14.83-1.36,1.61-1.12,3.88-2.28,7.75-4.64,11.11a2.33,2.33,0,0,0-.43,1.35c-.1,4-.24,8.08-.15,12.12.11,4.4,1,5.51,5.63,6.93,6.1,1.86,12.28,3.5,18.39,5.35C91.4,76,94,79,95.56,83.12c1.23,3.28,1.41,6.7,1.82,10.11.72,6,1.07,11.94,1.33,17.93.44,10.39,1,20.77,1.12,31.16A78.94,78.94,0,0,0,101,157.37c.6,2.89,1.48,5.72,2.32,8.55a69.92,69.92,0,0,1,2.55,20.15c0,7.64,0,15.27-.72,22.89-.4,4.58-.8,9.16-1.06,13.75-.35,5.9.72,11.72,1.11,17.58C105.31,242.45,105.47,244.6,105.74,246.75Z"/></g></g></g></svg>