<svg xmlns="http://www.w3.org/2000/svg" viewBox="0 0 111.64 114.22"><title>woman1-beforeAsset 18</title><g id="Layer_2" data-name="Layer 2"><g id="OBJECTS"><circle cx="55.82" cy="58.4" r="55.82" transform="translate(-15.69 20.82) rotate(-18.57)" style="fill:#fce8e3"/><path d="M88.33,54c4-23-5.46-52.2-31.47-53.9-8.31-.54-16.42,2.5-20.62,8.38C21.87,14.08,20.64,39.3,22.23,48,26.6,71.78,5.39,67.67,10.75,90l44.34-2.39h1.7l43.54.62C104,71.39,86.52,72.5,88.33,54Z" style="fill:#4c224b"/><rect x="42.71" y="51.05" width="26.15" height="33.36" transform="translate(0.08 -0.07) rotate(0.07)" style="fill:#e2988f"/><path d="M103.76,87C91.46,81.81,69,77.89,69,77.89c-8.64,7.24-19.54,7.18-26.31,0,0,0-22.74,3.34-35.58,7.82a55.79,55.79,0,0,0,46.05,28.48c.88,0,1.77.07,2.66.07A55.79,55.79,0,0,0,103.76,87Z" style="fill:#d85d63"/><path d="M79,47.05c-1,0-1.77,1.4-1.77,3.14S78,53.33,79,53.33s1.77-1.4,1.77-3.14S79.93,47.05,79,47.05ZM79,52c-.67,0-1.21-1-1.21-2.16s.55-2.16,1.22-2.16,1.21,1,1.21,2.16S79.62,52,79,52Z" style="fill:#fff"/><path d="M30.81,50.13c0,1.73.79,3.14,1.76,3.14s1.77-1.4,1.77-3.14S33.56,47,32.58,47,30.81,48.39,30.81,50.13Zm.55-.4c0-1.19.55-2.16,1.22-2.16s1.21,1,1.21,2.17-.54,2.16-1.22,2.16S31.36,50.93,31.36,49.73Z" style="fill:#fff"/><path d="M55.83,10.65h0C39,10.65,35.12,23.27,35.46,36c0,9.17-.08,15.92.77,18.19S43,70.07,55.75,70.11h0c12.79,0,18.71-13.63,19.56-15.9s.81-9,.82-18.18C76.5,23.32,72.68,10.69,55.83,10.65Z" style="fill:#e2988f"/><path d="M55.75,70.48c-5,0-9.53-2-13.43-6.07l.54-.52a17.19,17.19,0,0,0,25.62.22l.53.53A18.36,18.36,0,0,1,55.75,70.48Z" style="fill:#c46966"/><path d="M36.2,35.55s-3.38-5-6.87-2.08S29.21,53,36.18,50,36.2,35.55,36.2,35.55Z" style="fill:#e2988f"/><path d="M75.45,35.6s3.4-5,6.88-2.07S82.4,53,75.44,50.09,75.45,35.6,75.45,35.6Z" style="fill:#e2988f"/><rect x="35.07" y="44.87" width="0.75" height="5.37" transform="translate(-3.37 2.71) rotate(-4.17)" style="fill:#c46966"/><rect x="73.2" y="46.93" width="5.94" height="0.75" transform="translate(23.24 119.69) rotate(-85.67)" style="fill:#c46966"/><path d="M31.05,42c-.79-2.66-.8-4.5,0-5.49a1.79,1.79,0,0,1,1.41-.69l0,.75,0-.37,0,.37a1,1,0,0,0-.8.42c-.34.45-.78,1.66.16,4.8Z" style="fill:#c46966"/><path d="M80.87,42.1l-.72-.21c.95-3.14.51-4.35.17-4.8a1,1,0,0,0-.8-.42l0-.75a1.79,1.79,0,0,1,1.41.69C81.68,37.6,81.67,39.45,80.87,42.1Z" style="fill:#c46966"/><path d="M34.06,51a1.55,1.55,0,0,1-.37,0l-.08,0c-.22.62-.6,1-1,1-.67,0-1.21-1-1.21-2.17s.54-2.15,1.21-2.15a.3.3,0,0,0,0-.59c-1,0-1.76,1.41-1.76,3.14s.79,3.14,1.76,3.14,1.5-1,1.7-2.32Z" style="fill:#fff"/><path d="M79,47.05a.29.29,0,0,0,0,.58c.66,0,1.2,1,1.2,2.16S79.62,52,79,52c-.37,0-.7-.31-.92-.79a1.39,1.39,0,0,1-.19.15l-.46.26c.29,1,.88,1.76,1.57,1.76,1,0,1.77-1.4,1.77-3.14S79.94,47.06,79,47.05Z" style="fill:#fff"/><path d="M35.35,34.52A16.9,16.9,0,0,1,41.87,21c6,10.52,22.53,14.12,37.64,8.91,0,0-1.44-25.27-25-23.82S35.35,34.52,35.35,34.52Z" style="fill:#4c224b"/></g></g></svg>