<svg xmlns="http://www.w3.org/2000/svg" viewBox="0 0 111.64 114.22"><title>woman1-beforeAsset 19</title><g id="Layer_2" data-name="Layer 2"><g id="OBJECTS"><g style="opacity:0.5"><circle cx="55.82" cy="58.4" r="55.82" style="fill:#ededed"/><path d="M88.32,53.92c4-23-5.51-52.19-31.54-53.86-8.3-.53-16.41,2.52-20.6,8.4C21.82,14.12,20.61,39.34,22.22,48c4.4,23.8-16.81,19.71-11.43,42l44.34-2.44h1.7l43.54.56C104,71.33,86.53,72.46,88.32,53.92Z" style="fill:#333"/><rect x="42.72" y="51.05" width="26.15" height="33.36" style="fill:#adadad"/><path d="M103.79,86.93C91.49,81.76,69,77.87,69,77.87c-8.62,7.25-19.52,7.21-26.31,0,0,0-22.73,3.36-35.57,7.86a55.8,55.8,0,0,0,46.08,28.42c.89,0,1.78.07,2.67.07A55.76,55.76,0,0,0,103.79,86.93Z" style="fill:#838383"/><path d="M78.94,47c-1,0-1.76,1.4-1.76,3.14S78,53.3,78.94,53.3s1.77-1.41,1.77-3.14S79.92,47,78.94,47Zm0,4.9c-.67,0-1.21-1-1.21-2.16s.54-2.16,1.21-2.16,1.22,1,1.22,2.16S79.61,51.92,78.94,51.92Z" style="fill:#fff"/><path d="M30.8,50.16c0,1.73.79,3.14,1.77,3.14s1.76-1.41,1.76-3.14S33.54,47,32.57,47,30.8,48.42,30.8,50.16Zm.55-.4c0-1.19.55-2.16,1.22-2.16s1.21,1,1.21,2.16-.54,2.16-1.21,2.16S31.35,51,31.35,49.76Z" style="fill:#fff"/><path d="M55.77,10.65h0C38.91,10.67,35.08,23.3,35.43,36c0,9.16-.06,15.91.79,18.18S43,70.08,55.77,70.11h0c12.78,0,18.69-13.66,19.54-15.92s.79-9,.79-18.18C76.46,23.3,72.62,10.67,55.77,10.65Z" style="fill:#adadad"/><path d="M55.77,70.48c-5,0-9.53-2-13.44-6l.54-.52a17.17,17.17,0,0,0,25.61.18l.54.53A18.36,18.36,0,0,1,55.77,70.48Z" style="fill:#848484"/><path d="M36.17,35.57s-3.39-5-6.87-2.07S29.21,53,36.17,50.06,36.17,35.57,36.17,35.57Z" style="fill:#adadad"/><path d="M75.43,35.57s3.39-5,6.87-2.07S82.39,53,75.43,50.06,75.43,35.57,75.43,35.57Z" style="fill:#adadad"/><rect x="35.06" y="44.89" width="0.75" height="5.37" transform="matrix(1, -0.07, 0.07, 1, -3.42, 2.75)" style="fill:#848484"/><rect x="73.18" y="46.91" width="5.94" height="0.75" transform="translate(23.34 119.71) rotate(-85.74)" style="fill:#848484"/><path d="M31,42.07c-.8-2.66-.8-4.5,0-5.49a1.77,1.77,0,0,1,1.42-.69l0,.75,0-.38,0,.38a1,1,0,0,0-.79.42c-.35.44-.78,1.66.16,4.8Z" style="fill:#848484"/><path d="M80.85,42.07l-.72-.21c.94-3.14.51-4.36.16-4.8a1,1,0,0,0-.8-.42l0-.75a1.78,1.78,0,0,1,1.42.69C81.65,37.57,81.65,39.41,80.85,42.07Z" style="fill:#848484"/><path d="M34.05,51a2.33,2.33,0,0,1-.37,0l-.08,0c-.21.62-.59,1-1,1-.67,0-1.22-1-1.22-2.16s.54-2.15,1.21-2.16a.29.29,0,0,0,0-.58c-1,0-1.76,1.41-1.76,3.14s.79,3.14,1.77,3.14c.81,0,1.49-1,1.69-2.32Z" style="fill:#fff"/><path d="M79,47a.29.29,0,0,0,0,.58c.67,0,1.21,1,1.21,2.16s-.55,2.16-1.22,2.16c-.37,0-.7-.31-.92-.78-.06,0-.12.1-.19.14s-.3.18-.46.27c.29,1,.88,1.75,1.57,1.75,1,0,1.77-1.41,1.77-3.14S79.92,47,79,47Z" style="fill:#fff"/><path d="M35.32,34.55A16.91,16.91,0,0,1,41.83,21c6,10.52,22.54,14.1,37.64,8.87,0,0-1.46-25.27-25.06-23.79S35.32,34.55,35.32,34.55Z" style="fill:#333"/></g></g></g></svg>