<svg xmlns="http://www.w3.org/2000/svg" viewBox="0 0 111.64 113.71"><title>woman3-beforeAsset 22</title><g id="Layer_2" data-name="Layer 2"><g id="OBJECTS"><g style="opacity:0.5"><circle cx="55.82" cy="57.75" r="55.82" transform="translate(-13.21 98.81) rotate(-76.72)" style="fill:#ededed"/><path d="M66.31,74.38a113.08,113.08,0,0,0,11.28-1c7-1,13.15-2.73,16.41-9.49,3.31-7.27-.48-18.2-4.2-25A90.08,90.08,0,0,1,83.52,26c-2.26-6.3-4-13.08-8.74-18l-.57-.57A26.6,26.6,0,0,0,32,14.8C29,21,28,27.82,25.19,34c-3,6.51-6.5,12.84-7.71,20a14.64,14.64,0,0,0,3.7,12.64c3.89,4.12,9.07,5.85,14.45,6.59A173.89,173.89,0,0,0,66.31,74.38Z" style="fill:#333"/><rect x="42.78" y="50.54" width="26.15" height="33.36" style="fill:#adadad"/><path d="M103.85,86.42c-12.31-5.17-34.77-9.06-34.77-9.06-8.62,7.25-19.52,7.21-26.3,0,0,0-22.74,3.36-35.57,7.86a55.79,55.79,0,0,0,46.08,28.42c.89,0,1.77.07,2.67.07A55.79,55.79,0,0,0,103.85,86.42Z" style="fill:#fff"/><path d="M37.47,78.22c-7.5,1.27-21.29,3.86-30.26,7A55.87,55.87,0,0,0,47.2,113,91.41,91.41,0,0,1,37.47,78.22Z" style="fill:#838383"/><path d="M74.17,78.22c7.5,1.27,21.29,3.86,30.26,7a55.87,55.87,0,0,1-40,27.81A91.41,91.41,0,0,0,74.17,78.22Z" style="fill:#838383"/><path d="M55.82,10.14h0C39,10.16,35.13,22.79,35.48,35.5c0,9.16-.64,12.13.21,14.4.47,3.23,7,19.7,20.13,19.7S74.92,54,76.08,49.9c.85-2.27.08-5.24.08-14.4C76.51,22.79,72.68,10.16,55.82,10.14Z" style="fill:#adadad"/><path d="M55.82,70c-4.49,0-9.72-2.59-13.32-6.6l.56-.5c3.46,3.86,8.47,6.35,12.76,6.35s9.47-2.54,12.83-6.33l.56.5C65.72,67.33,60.34,70,55.82,70Z" style="fill:#848484"/><path d="M35.86,36.71s-3.45-4.06-7-1.68-.1,15.86,7,13.49S35.86,36.71,35.86,36.71Z" style="fill:#adadad"/><path d="M75.85,36.71s3.45-4.06,7-1.68.1,15.86-7,13.49S75.85,36.71,75.85,36.71Z" style="fill:#adadad"/><rect x="34.6" y="42.53" width="0.75" height="6.3" transform="translate(-5.97 5.27) rotate(-7.94)" style="fill:#848484"/><rect x="73.64" y="45.3" width="6.27" height="0.75" transform="translate(24.18 117.89) rotate(-84.69)" style="fill:#848484"/><path d="M30.64,42.05c-.77-2-.83-3.5-.19-4.38A2,2,0,0,1,32,36.9l0,.75a1.19,1.19,0,0,0-.95.47c-.32.46-.54,1.46.29,3.67Z" style="fill:#848484"/><path d="M81.36,42.05l-.71-.26c.83-2.21.62-3.21.29-3.67a1.17,1.17,0,0,0-1-.47l0-.75a2,2,0,0,1,1.59.77C82.18,38.55,82.12,40,81.36,42.05Z" style="fill:#848484"/><path d="M33.23,34.72c3.14-5.61,18-4.87,22.62-17.68C60.3,31.66,73.43,27.38,79.22,35.2c0,0-2.76-29.46-23.37-29.46S33.23,34.72,33.23,34.72Z" style="fill:#333"/></g></g></g></svg>