<svg enable-background="new 0 0 500 500" viewBox="0 0 500 500" xmlns="http://www.w3.org/2000/svg"><path d="m114.4 250.4c-2.3-29.8-60.2-78.8-39.8-103.6 25.3-30.9 121.5 12.9 164.5 4.5 46.1-9 126.4-93 167-73.5 48.2 23.2-17.6 135.7-10.9 182.6 3.8 26.4 50 84.8 29.1 105-33.1 32-134.8-20.1-184.4-16.5-38.6 2.8-128 53.3-154.8 30.1-27.6-24 32-94.8 29.3-128.6z" fill="#285ffa"/><path d="m114.4 250.4c-2.3-29.8-60.2-78.8-39.8-103.6 25.3-30.9 121.5 12.9 164.5 4.5 46.1-9 126.4-93 167-73.5 48.2 23.2-17.6 135.7-10.9 182.6 3.8 26.4 50 84.8 29.1 105-33.1 32-134.8-20.1-184.4-16.5-38.6 2.8-128 53.3-154.8 30.1-27.6-24 32-94.8 29.3-128.6z" fill="#fff" opacity=".9"/><ellipse cx="250" cy="416.2" fill="#f5f5f5" rx="193.9" ry="11.3"/><g fill="#285ffa"><path d="m412 133.6-.2-.2c-.5-.4-.9-.3-1.1-1.1-.2-.6 0-1.2-.2-1.8-.5-1-1-2-1.6-2.9l-2.5-4.4c-1.1-2-3.7-2.8-5.8-1.6l-22.6 12.6c-.1.8-.7 1.3-.9 2-.1.4.1.9.4 1.2-.3 0-.5-.1-.7-.3-1.4-.8-1.7-1.4-3.1-.6-.6.3-1.2.7-1.8 1l-6 3.4-18.8 10.5-22 12.3-18.3 10.2c-2.5 1.4-5.5 2.6-7.8 4.4.6.3.7.8.2 1.3l-1 .9c0 .3.4.3.6.1l1.2-.5c-.9 1.1-1.9 2-3.1 2.8-2 1.1-4.1 2-6.3 2.6l1.1-1.3c.1-.1.2-.3.1-.4s-.2-.1-.3-.1c-.5-.1-1.1 0-1.5-.4-3.4 2-7 3.9-10.5 5.8-2 1.1-2.8 3.7-1.6 5.8l22.8 41c1.1 2 3.7 2.8 5.8 1.6l6-3.4c0-.7.6-1.5.1-2.1-.1-.1-.1-.2-.1-.3s.1-.2.2-.3c.6-.4 1.3-.6 2-.7.3 0 .6.1.5.4 0-.2 1.3-.7 1.5-.8.1.5-.3 1.1.4 1.2s1.6-1 2-1.2l6-3.4 19-10.6 20.8-11.6 14.1-7.7c.5-.3 1.1-.6 1.6-.9.2-.9.6-1.8 1.3-2.4 1-.7 2.6.1 3.4-.9.2-.2.3-.4.4-.6.3-.3.6-.6 1-.8.2-.2.5-.3.8-.3s.6.3.6.6c2.1-.5 3.9-1.9 5.7-2.9.7-.4 6.5-3.1 6.4-3.5-.1-1.3.7-2.5.7-3.8 0-.3-.5-2-.3-2.1-5.2 3.1-10.6 5.9-15.9 8.9-.2.1-.9.3-1 .5 0 0 0 .1-.1.1l-.1.3v.1c-.2.7-.5 1.3-.8 2 0 .1-1.1 1.5-1.2 1.2-.4-1.6-1-1.9-2.2-1.2l-1.8 1-5.6 3.1-18.8 10.5-22.1 12.2-18.5 10.3-7.8 4.3c-1.5-2.8-3.1-5.6-4.7-8.4l-3-5.4c-.3-.7-.8-1.4-1.3-2-.4-.3-1.2-.2-1.5-.5-.9-.7-1.6-2-2.5-2.8-.6-.6-1.5-2.2-1.3-3.2.3.1.6.3.9.3-.2-.6-.1-1.3.1-1.9-3-5.1-5.8-10.3-8.6-15.5l-.2-.3 7-3.9 5.1-2.9c1.1-.5 2.1-1 3-1.6.6-.6 1.3-1.3 2-1.9.5-.4 1-.6 1.5-.9l1.9-.9c.1-.1.2-.1.3-.1s.2 0 .3.1c1 .2 3.5-1.6 4.4-2.1l5.8-3.2 17.6-9.8 21.9-12.2 21.9-12.2 17.6-9.8 9-5 .4-.2 9.7 17.5c.6 1.2 1.6 2.1 2.8 2.7.4.1.9.4.8.8s-.6.8-.5 1.2.9.3 1.1.6-.3 1-.3 1.5c.2.6.5 1.2.9 1.7l2.8 5.1c1.6 2.8 3.1 5.6 4.7 8.5l-17.3 9.6c.1.1.2.2.2.3l.1.2c.3.1.7.3 1 .4.3.2.5.5.4.8 0 .3-.2.6-.5.8l-1.1.6c-.1.5-.4.9-.9.9-.1 0-.2 0-.4 0-.2.2-.5.2-.7.1-.5-.1-.7-.6-.6-1.1 0-.1.1-.2.2-.3-.2-.3-.1-.7.1-.9h-.3c-.2 0-.3-.1-.5-.1-.9.6-1.6 1.4-2 2.4 0 .1-.1.1-.1.2s.2.1.4.2c.3.1.2.6.1.9s-.3.7-.1.9c.1.1.2.2.3.2.4.5-.2 1.9.8 1.3-.1-.3 0-.6.1-.9.2-.3.5-.5.8-.6.8-.2 1.6-.3 2.4-.3l20.9-11.7c2-1.1 2.8-3.7 1.6-5.8l-.1-.2-9.4-16.9-5.4-9.8c-.5-.9-1-1.9-1.6-2.8-.2-.2-.4-.5-.7-.8z"/><path d="m315.7 188.8c-.7-.8-.5-.9-.6-1.8 0 0 0 0 0-.1l-.1-.1-.1-.1c-.5.2-.9.4-1.4.7l-9.2 5.1 3.7 6.6c-.5-.9 1.3-.6 1.4-.7.2-.1.4-.1.6-.1s.4.2.5.3c.4.7.5 1.5.3 2.2-.1 1 .4 2-.1 3 .5.8 4.9 8.9 4.9 8.9l9.2-5.1c.5-.3 1.8-.8 2.1-1.4s-.2-1.4.4-1.6c.4-.2.9-.1 1.3.1 3.6-3.6 4.3-9.1 1.8-13.5-2.6-4.6-8.5-7.4-13.6-5.3-.4.1.1 1.8-.7 1.9.2-.3.4-.6.7-.8m5.5 17-4.3 2.4c-.4-.6-.7-1.3-1-1.9.5.8-.8.5-1 .4-.6-.4-.8-1.6-.8-2.3 0-1.2-.4-2.3-1-3.3-1-1.8-2-3.6-3-5.5l4.3-2.4c4-2.2 8-1.3 10.2 2.6s.7 7.8-3.4 10z"/><path d="m346.1 171.8c.2.5.3 1 .2 1.5 0 .3-.5 1-.4 1.2.2.4.3.8.5 1.2 0 .1.1.1.1.2.1.1.2.1.3.1 1.6.1 1.5.3 1.6 1.6.1 1.1 1.1 1.8 1.6 2.8 2 3.5.8 8-2.7 10-1.9 1.1-4.2 1.3-6.3.5 0 0-.1.1-.1.1-.2.1-.5.1-.7.1-1.1-.3-1.9-1.2-2.1-2.2 0-.1 0-.2 0-.2-.3-.4-.5-.7-.8-1.1-2.1-3.3-1-7.7 2.3-9.7.1-.1.3-.2.5-.3 1.3-.7 2.7-1 4.1-.9l-.1-.1c-.9-1.1 2.2-1.6.8-2.4-.6-.3-.5-1.8-.6-2.4-2.3.1-4.5.7-6.5 1.8-6.4 3.6-8.6 10.6-5.3 16.7 1.4 2.6 3.8 4.6 6.5 5.5.7.3 1.4.4 2.1.5.8-.1.4 0 .8-.5s.1-.7.7-1.2 1.1-.8 1.3-1.6c0 .4.4.6.4 1v.3c0 .1.1.3.2.4.3.5.9 1 .9 1.5 1.5-.2 2.9-.8 4.1-1.5 6.4-3.6 8.6-10.6 5.3-16.7-1.8-3.3-5.1-6-8.7-6.2z"/><path d="m366.6 157.9 6.9 12.3-16.9-6.7-3.9 2.2c2.6 4.7 5.4 9.4 7.9 14.1.2-.5.6-.6 1-.7.9-.1.9.3 1.4 1.2.1.1.1.2.2.2s.3-.2.5-.1.3.2.2.4-.1.3-.3.5c-.3.6.2.9.1 1.4 0 .3-.9 1.3-.8 1.5l1 1.7 4.6-2.6-1.2-2.2h-.2c-1.4.2-.8-1.6-1-2.3-.5-1-1-2-1.6-3l-2.7-4.8 13.8 5.4c0-.4 0-.8.1-1.2.1-.2 1-.6 1-.8.1.6.4 1.2.8 1.7.5.5.5.4.4 1.2l.8.3 3.9-2.1-11.3-20.3z"/><path d="m389.9 166.5-2.6-4.7 9.4-5.3-2-3.6-9.4 5.3-2.5-4.4 6.4-3.5c.3-.3.6-.6 1-.8.2-.1.4-.1.6-.1l2.7-1.5s-1.9-3.4-2.1-3.8c-.9.4 0 1.6-.9 2.1.2.2.5.9 0 1-.3 0-.5-.3-.7-.3s-.3.2-.4.1c-.1 0-.2-.1-.2-.2-.1-.3-.3-.6-.5-.9-.6-.6-6.4 3.2-7.2 3.7l-5.4 3 11.3 20.3 4.5-2.5.1-.1c.3-.4.6-.9 1-1.2.3-.3.7-.3 1.1-.1.1 0 .2.1.2.2l8.8-4.9-2.1-3.8z"/><path d="m401.9 382.2s-6.6-14.3.9-28.5 9.7-17.5 4.9-20.4-7 11.3-7 11.3-4-9.8-.7-20 5.4-26.9.9-28.7-.9 20.8-4.8 28.5c-2-5.4-3.3-11-3.9-16.8-.5-8.2.3-21.3-3.3-24.7s-5.9-1-2.4 17.1c2.1 10.8 3.3 21.8 3.5 32.9 0 0-7.8-23.8-13-24.5s-5.2 7-.7 13.7 13.1 18.6 14.5 24.8c0 0-8.6-17.9-16.3-12.4s6.7 16.3 13.1 20.2 10.9 28.4 10.9 28.4z"/></g><path d="m401.9 382.2s-6.6-14.3.9-28.5 9.7-17.5 4.9-20.4-7 11.3-7 11.3-4-9.8-.7-20 5.4-26.9.9-28.7-.9 20.8-4.8 28.5c-2-5.4-3.3-11-3.9-16.8-.5-8.2.3-21.3-3.3-24.7s-5.9-1-2.4 17.1c2.1 10.8 3.3 21.8 3.5 32.9 0 0-7.8-23.8-13-24.5s-5.2 7-.7 13.7 13.1 18.6 14.5 24.8c0 0-8.6-17.9-16.3-12.4s6.7 16.3 13.1 20.2 10.9 28.4 10.9 28.4z" opacity=".2"/><path d="m396.7 388.1s6.4-14.5-1.3-28.5-9.9-17.3-5.1-20.3 7.1 11.2 7.1 11.2 3.9-9.8.5-20-5.8-26.8-1.2-28.7 1.1 20.8 5.2 28.4c2-5.4 3.2-11.1 3.7-16.8.5-8.2-.6-21.3 3-24.8s5.9-1.1 2.6 17.1c-2 10.9-3 21.9-3.1 32.9 0 0 7.5-23.9 12.8-24.7s5.3 6.9.9 13.7-12.9 18.9-14.3 25c0 0 8.4-18 16.1-12.6s-6.5 16.4-12.9 20.4-10.7 28.6-10.7 28.6z" fill="#285ffa"/><path d="m426.2 377.8h-52.9l4.3 37.9h44.4z" fill="#263238"/><path d="m155.6 139.7h-34.9c-2.8 0-5.1 2.3-5.1 5.1v33.9c0 2.8 2.3 5.1 5.1 5.1h11.2l-7.5 10.2 13-10.2h18.3c2.8 0 5.1-2.3 5.1-5.1v-33.9c-.1-2.8-2.4-5-5.2-5.1z" fill="#285ffa"/><path d="m155.6 139.7h-34.9c-2.8 0-5.1 2.3-5.1 5.1v33.9c0 2.8 2.3 5.1 5.1 5.1h11.2l-7.5 10.2 13-10.2h18.3c2.8 0 5.1-2.3 5.1-5.1v-33.9c-.1-2.8-2.4-5-5.2-5.1z" fill="#fff" opacity=".6"/><circle cx="138.2" cy="161.8" fill="#285ffa" r="15.9"/><circle cx="138.2" cy="161.8" opacity=".2" r="13.6"/><path d="m136.5 168.3c-.4 0-.7-.1-1-.4l-5.8-5.6c-.6-.5-.6-1.4 0-2s1.4-.6 2 0l4.7 4.6 8.2-9.1c.5-.5 1.4-.5 2 0 .5.5.6 1.3.1 1.9l-9.1 10.2c-.4.2-.7.4-1.1.4z" fill="#fff"/><path d="m92.9 392.9 28.8-2.8v-32.5h11.4v32.5l28.9 2.9c2.9.3 5.1 2.7 5.1 5.6v4.3h-79.3v-4.3c0-3 2.2-5.4 5.1-5.7z" fill="#263238"/><path d="m92.9 392.9 28.8-2.8v-32.5h11.4v32.5l28.9 2.9c2.9.3 5.1 2.7 5.1 5.6v4.3h-79.3v-4.3c0-3 2.2-5.4 5.1-5.7z" fill="#fff" opacity=".1"/><circle cx="164.1" cy="408.2" fill="#263238" r="7.5"/><circle cx="90.9" cy="408.2" fill="#263238" r="7.5"/><path d="m131 366.3h-7.1c-2.3 0-4.1-1.8-4.1-4.1v-31.9h15.4v31.9c-.1 2.2-2 4.1-4.2 4.1z" fill="#263238"/><path d="m131 366.3h-7.1c-2.3 0-4.1-1.8-4.1-4.1v-31.9h15.4v31.9c-.1 2.2-2 4.1-4.2 4.1z" fill="#fff" opacity=".2"/><path d="m87.5 267.6s8.6 53.4 25.5 62.6h-17.2s-17-18.2-22.1-62.6z" fill="#263238"/><path d="m87.5 267.6s8.6 53.4 25.5 62.6h-17.2s-17-18.2-22.1-62.6z" fill="#fff" opacity=".1"/><path d="m95 322.7h66.9c2.8 0 5 2.2 5 5v6.7h-76.9v-6.7c0-2.8 2.2-5 5-5z" fill="#285ffa"/><path d="m88.8 328.5h79.3c1.1 0 2 .9 2 2v1.8c0 1.1-.9 2-2 2h-79.3c-1.1 0-2-.9-2-2v-1.8c0-1.1.9-2 2-2z" fill="#263238"/><path d="m88.8 328.5h79.3c1.1 0 2 .9 2 2v1.8c0 1.1-.9 2-2 2h-79.3c-1.1 0-2-.9-2-2v-1.8c0-1.1.9-2 2-2z" fill="#fff" opacity=".6"/><path d="m71.7 278.5h27.5c8.1 0 13.3-6.5 11.7-14.4l-2.1-10.6c-1.6-8-9.4-14.4-17.5-14.4h-27.6c-8.1 0-13.3 6.5-11.7 14.4l2.1 10.6c1.7 7.9 9.5 14.4 17.6 14.4z" fill="#285ffa"/><path d="m217.5 367.9-6.3 2.5-4.5-8.6-4.1-7.8 7-4.1 4.2 9.5z" fill="#e4897b"/><path d="m213.8 359.4-7.1 2.4-4.1-7.8 7-4.1z" opacity=".2"/><path d="m212.5 354.7-8.6 4.6s-32.4-57-37.4-56.5-52.2 30.6-66.6 19.5-.4-44.6-.4-44.6 29.8-8.5 33-2c.8 2 1.6 4 2.1 6 .6 2 1.1 3.8 1.1 3.8.9-.4 30.4-12.4 43.5-6 13.5 6.6 33.3 75.2 33.3 75.2z" fill="#263238"/><path d="m212.5 354.7-8.6 4.6s-32.4-57-37.4-56.5-52.2 30.6-66.6 19.5-.4-44.6-.4-44.6 29.8-8.5 33-2c.8 2 1.6 4 2.1 6 .6 2 1.1 3.8 1.1 3.8.9-.4 30.4-12.4 43.5-6 13.5 6.6 33.3 75.2 33.3 75.2z" fill="#fff" opacity=".3"/><path d="m165.9 401.2-6.7-.8v-9.5l-.1-8.7 8.2-.3-.7 10.2z" fill="#e4897b"/><path d="m166.5 392.3-7.4-1.2v-8.8l8.2-.4z" opacity=".2"/><path d="m199.7 356.5 12.6-6.3 1.3 5.3-9.5 5z" fill="#285ffa"/><path d="m122.2 322.4s2.1-.2 33.8-6.1c0 0 .7 40.5 2.2 70.7l9.8.3s14-67 12.4-77.2-13.7-11.5-13.7-11.5-21.1 16.4-44.5 23.8z" fill="#263238"/><path d="m122.2 322.4s2.1-.2 33.8-6.1c0 0 .7 40.5 2.2 70.7l9.8.3s14-67 12.4-77.2-13.7-11.5-13.7-11.5-21.1 16.4-44.5 23.8z" fill="#fff" opacity=".4"/><path d="m122.2 322.4s2.1-.2 33.8-6.1c0 0 .7 40.5 2.2 70.7l9.8.3s14-67 12.4-77.2-13.7-11.5-13.7-11.5-21.1 16.4-44.5 23.8z" opacity=".3"/><path d="m156.3 384.4 13.3-.4-1.8 5.5-10.8.1z" fill="#285ffa"/><path d="m135.8 285.5-17.3 6.1s9.1-6.8 16.2-9.9c.6 2.1 1.1 3.8 1.1 3.8z" opacity=".3"/><path d="m97.5 275.7.7 4.8 32.3-6.9-.7-5.7z" fill="#263238"/><path d="m97.5 275.7.7 4.8 32.3-6.9-.7-5.7z" opacity=".2"/><path d="m107.4 272.3h1.6v8.4h-1.6z" fill="#263238" transform="matrix(.9832 -.1824 .1824 .9832 -48.6103 24.3726)"/><path d="m115.8 270.8h7.2v5.5h-7.2z" fill="#fff" transform="matrix(.9755 -.2198 .2198 .9755 -57.225 32.948)"/><path d="m126 266.8h1.6v8.3h-1.6z" fill="#263238" transform="matrix(.9835 -.1807 .1807 .9835 -46.8709 27.3726)"/><path d="m107.4 272.3h1.6v8.4h-1.6z" fill="#fff" opacity=".3" transform="matrix(.9832 -.1824 .1824 .9832 -48.6103 24.3726)"/><path d="m126 266.8h1.6v8.3h-1.6z" fill="#fff" opacity=".3" transform="matrix(.9835 -.1807 .1807 .9835 -46.8709 27.3726)"/><path d="m230.1 379.1c-1.1-.3-2.2-.4-3.3-.4s-4.1-1.7-9-9.8l-4.2.5c-1.4.2-2.6 1.3-2.9 2.8v.6c.2 1 .4 2 .7 3 1.1 3.3 2.3 6.4 3.8 9.5l.7-.3-2.2-6.1c-.7-2.1 1.8-.3 3.1 1.7s3.2 3.9 7.7 2.2c5.3-1.9 7.4-3 5.6-3.7z" fill="#263238"/><path d="m216.8 366.8s6.7 10.2 10.1 11.9c0 0-3.7 3-8.7-1.8-6.4-6.2-7.5-4.1-7.5-4.1-.1-1.2 0-2.4.2-3.6.5-2.4 5.9-2.4 5.9-2.4z" fill="#e4897b"/><path d="m176 413.1c-1-.6-2-.9-3.1-1.1s-3.6-2.6-6.4-11.6l-4.2-.5c-1.5-.1-2.9.7-3.5 2-.1.2-.2.4-.2.6-.1 1-.1 2 0 3.1.3 3.4.8 6.8 1.4 10.2l.7-.1-.6-6.4c-.2-2.2 1.8.1 2.6 2.4s2.2 4.6 6.9 4c5.7-.9 8-1.4 6.4-2.6z" fill="#263238"/><path d="m166 398s4.1 11.5 6.9 14c0 0-4.3 2-8-3.8-4.8-7.5-6.3-5.7-6.3-5.7.2-1.2.6-2.4 1-3.5 1.1-2.2 6.4-1 6.4-1z" fill="#e4897b"/><path d="m90.5 194-8.5 1.7c-.7.6-1.6.8-2.4.6-2.5-1-6.2-3.9-6.6-5-.7-1.5 0-5.9 1.8-6.7s7.9 6.6 7.9 6.6l9.1-2.1z" fill="#e4897b"/><path d="m117.1 222.1s-.8-27.4-3.9-28.6-27 2.1-27 2.1l-.6-6.3s27.7-4.3 33.1-1.7 7.1 43.4 6.2 51.3z" fill="#285ffa"/><path d="m117.1 222.1s-.8-27.4-3.9-28.6-27 2.1-27 2.1l-.6-6.3s27.7-4.3 33.1-1.7 7.1 43.4 6.2 51.3z" fill="#fff" opacity=".6"/><path d="m86.6 196.2-1.7-6.8 2.4-.9 1.5 7.9z" fill="#285ffa"/><path d="m86.6 196.2-1.7-6.8 2.4-.9 1.5 7.9z" fill="#fff" opacity=".7"/><path d="m117 218.7s-2.1 8.3-12.4 11-21.6-4.3-21.6-4.3l2.3 19.9 12.6 31.4 32.1-8.4c-.1 0-2-36.5-13-49.6z" fill="#285ffa"/><path d="m117 218.7s-2.1 8.3-12.4 11-21.6-4.3-21.6-4.3l2.3 19.9 12.6 31.4 32.1-8.4c-.1 0-2-36.5-13-49.6z" fill="#fff" opacity=".7"/><path d="m126.3 250.6-3.8 1.2c-.4.1-.9-.1-1-.5l-2.2-7.1c-.1-.4.1-.9.5-1l3.8-1.2c.4-.1.9.1 1 .5l2.2 7.1c.2.4 0 .9-.5 1z" fill="#285ffa" opacity=".6"/><path d="m120.8 242.9h4.5v6.1h-4.5z" opacity=".2" transform="matrix(.9537 -.3009 .3009 .9537 -68.3169 48.4146)"/><path d="m121.2 240.4h1v3.6h-1z" fill="#263238" transform="matrix(.9537 -.3009 .3009 .9537 -67.2211 47.8497)"/><path d="m95.2 187.5c-7.9 0-13.1 8.4-11.3 21.7s9.3 17.1 9.3 17.1l-.5-3.2c8.2 1.9 16.7 2.3 25.1 1.4 0 0-3.8-10.8-2.6-21.9 0 0 2.5-15.1-20-15.1z" fill="#263238"/><path d="m110.9 227 3.2 12-5.7-4.3s5.5 12.6 7 20c0 0-4.8-12.5-8.9-19.4l-2.4 6.9-9.7-9.9s8.6-6.6 16.5-5.3z" opacity=".2"/><path d="m106.2 230.9-9.9.3c4.4-5.6-3.5-15.3-3.5-15.3l9.7 2.1c2.3 9.6 6.3 9.9 6.3 9.9z" fill="#e4897b"/><path d="m105.2 224.9c-3.8-.3-7.3-2.1-9.8-4.9-.8-1.4-1.7-2.8-2.7-4.1l9.7 2.1c.6 2.4 1.6 4.7 2.8 6.9z" opacity=".2"/><path d="m102.5 191.6c8.5.7 10.8 5.5 10.7 14.3-.1 11-3.2 18.6-13.6 15.4-14.1-4.4-11.2-30.9 2.9-29.7z" fill="#e4897b"/><path d="m107.8 205c.6 1.3 1.3 2.6 2.2 3.7-.6.7-1.5 1-2.3.8z" fill="#de5753"/><path d="m102.1 203.6 1.8-.6s-1 1.4-1.8.6z" fill="#263238"/><path d="m102.7 203.4c-.7-.3-1.6-.1-2 .5.6-.3 1.4-.3 2 0z" fill="#263238"/><path d="m99.3 199.3c-.1 0-.2 0-.3-.1s-.1-.4 0-.5c1.1-1 2.7-1.4 4.1-1.1.2 0 .3.2.3.4s-.2.3-.4.3c-1.2-.3-2.5.1-3.5.9 0 .1-.1.1-.2.1z" fill="#263238"/><path d="m112.6 199.5c-.1 0-.2 0-.2-.1-.8-.7-1.9-1.1-3-.9-.2.1-.4-.1-.4-.3-.1-.2.1-.4.3-.4 1.3-.2 2.7.2 3.7 1.1.2.1.2.4.1.5-.3 0-.4.1-.5.1z" fill="#263238"/><path d="m92 205.2s4.6-6.6 4.4-12.1c0 0 17.4-5.5 16.8 11.7 0 0 2.9-15-11.7-16.6s-16.2 19.8-9.2 26.8c0 0-3.1-5.7-.3-9.8z" fill="#263238"/><path d="m93.3 207.1c0-2.1-1.7-3.7-3.7-3.7-2.7.1-4.4 5.4 2.1 7.2.8.2 1.5-.7 1.6-3.5z" fill="#e4897b"/><path d="m107.7 212c-.6.8-1.2 1.7-1.7 2.6-.2-.1-.3-.1-.5-.2-2.3-.8-3.2-2-3.4-3-.1-.5-.1-1 .1-1.5.1-.3.2-.6.4-.8 1.2 1.2 2.7 2 4.3 2.6.5.2.8.3.8.3z" fill="#263238"/><path d="m106.9 211.7-.5.8c-2.2-.8-3.7-1.6-4.1-2.6.1-.3.2-.6.4-.8 1.2 1.2 2.6 2.1 4.2 2.6z" fill="#fff"/><path d="m105.5 214.5c-2.3-.8-3.2-2-3.4-3 .9.3 1.7.8 2.4 1.4.6.4.9 1 1 1.6z" fill="#de5753"/><path d="m102.3 192.2s-4.6 13.7-13.4 12.8 6.3-17.5 6.3-17.5 14.8-4.2 21.3 4-3.2 13.2-3.2 13.2 1.4-10.7-11-12.5z" fill="#263238"/><path d="m95.3 203.9c-.1 0-.2-.1-.2-.2s0-.3.2-.3c7-2.7 6.8-12.1 6.8-12.2s.1-.2.2-.2c.1 0 .2.1.3.2-.1.1.1 9.9-7.3 12.7z" fill="#263238"/><path d="m110.7 204.4 1.8-.6s-1 1.5-1.8.6z" fill="#263238"/><path d="m111.3 204.2c-.7-.4-1.6-.1-2 .6.6-.3 1.4-.3 2-.1z" fill="#263238"/><path d="m97.7 227.1 7.4 3.8-.1 7.5-10.6-6.2z" fill="#285ffa"/><path d="m106.3 225.7.4 4.6 4.9 5.1-.7-8.4z" fill="#285ffa"/><path d="m71.9 174-3.1-8c.1-.9-.2-1.7-.8-2.4-2.2-1.6-6.6-3.1-7.7-2.9-1.6.2-5 3.2-4.7 5.1s9.8 3.1 9.8 3.1l3.2 8.8z" fill="#e4897b"/><path d="m85.3 245.3s6-4.8 3.6-15.3l-6.4-29.2-11.1-30.1-5.4 2.7s9.1 29.4 9.9 31.4c.4 1 2.1 16.3 4.5 26.5 2.1 9.5 4.9 14 4.9 14z" fill="#285ffa"/><path d="m85.3 245.3s6-4.8 3.6-15.3l-6.4-29.2-11.1-30.1-5.4 2.7s9.1 29.4 9.9 31.4c.4 1 2.1 16.3 4.5 26.5 2.1 9.5 4.9 14 4.9 14z" fill="#fff" opacity=".6"/><path d="m65 172.6 6.3-3.2 1.4 2.1-7.4 3.3z" fill="#285ffa"/><path d="m65 172.6 6.3-3.2 1.4 2.1-7.4 3.3z" fill="#fff" opacity=".7"/><path d="m97.7 227.1 7.4 3.8-.1 7.5-10.6-6.2z" fill="#fff" opacity=".6"/><path d="m106.3 225.7.4 4.6 4.9 5.1-.7-8.4z" fill="#fff" opacity=".6"/><path d="m287.3 211.4h30v23.3h-30z" fill="#fff"/><path d="m309.6 211.4h7.7v23.3h-7.7z" opacity=".1"/><path d="m285.6 255.2h33.9v-42.2h-11l-22.9 11z" fill="#285ffa"/><path d="m308.5 213h10.9v42.3h-10.9z" opacity=".2"/><path d="m289.1 232.3h15.9v7.6h-15.9z" fill="#fff" opacity=".7"/><path d="m289.1 242.5h15.9v1.1h-15.9z" fill="#fff" opacity=".7"/><path d="m309.6 245.6h8.8v6.4h-8.8z" fill="#fff" opacity=".7"/><path d="m274.6 210.1h30v24.6h-30z" fill="#fff"/><path d="m296.9 210.1h7.7v24.6h-7.7z" opacity=".1"/><path d="m272.9 255.2h33.8v-42.2h-10.9l-22.9 11z" fill="#285ffa"/><path d="m295.8 213h10.9v42.3h-10.9z" opacity=".2"/><path d="m276.3 232.3h15.9v7.6h-15.9z" fill="#fff" opacity=".7"/><path d="m276.3 242.5h15.9v1.1h-15.9z" fill="#fff" opacity=".7"/><path d="m296.9 245.6h8.8v6.4h-8.8z" fill="#fff" opacity=".7"/><path d="m251.8 415.7h6.1l11-153.3h-8.1z" fill="#263238"/><path d="m251.8 415.7h6.1l10.5-145.7.5-7.3h-8.1l-.4 7.3z" fill="#fff" opacity=".1"/><path d="m260.4 269.7h8l.5-7h-8.1z" opacity=".2"/><path d="m206.9 415.7h6.1l1-153.3h-8.1z" fill="#263238"/><path d="m205.8 262.7.2 24.7.8 128.3h6.2l.8-128.3.2-24.7z" fill="#fff" opacity=".1"/><path d="m205.8 262.7.2 25h7.8l.2-25z" opacity=".2"/><path d="m141.8 415.7h6.1l11-153.3h-8.1z" fill="#263238"/><path d="m141.8 415.7h6.1l10.5-145.7.5-7.3h-8.1l-.4 7.3z" fill="#fff" opacity=".1"/><path d="m150.4 269.7h8l.5-7h-8.1z" opacity=".2"/><path d="m321.9 415.7h6.1l-9-153.3h-8.1z" fill="#263238"/><path d="m310.9 262.7.5 7.3 10.5 145.7h6.1l-8.5-145.7-.5-7.3z" fill="#fff" opacity=".1"/><path d="m319 262.7h-8.1l.5 7h8.1z" opacity=".2"/><path d="m323.3 266.3h-176.8c-1.2 0-2.2-1-2.2-2.2v-5.5h181.1v5.5c.1 1.2-.9 2.2-2.1 2.2z" fill="#285ffa"/><path d="m323.3 266.3h-176.8c-1.2 0-2.2-1-2.2-2.2v-5.5h181.1v5.5c.1 1.2-.9 2.2-2.1 2.2z" fill="#fff" opacity=".4"/><path d="m144.4 258.6h181.1v3.8h-181.1z" opacity=".2"/><path d="m140.6 259.6h188.7c1.2 0 2.2-1 2.2-2.1 0-1.2-1-2.2-2.2-2.2h-188.7c-1.2 0-2.2 1-2.2 2.2 0 1.1 1 2.1 2.2 2.1z" fill="#285ffa"/><path d="m140.6 259.6h188.7c1.2 0 2.2-1 2.2-2.1 0-1.2-1-2.2-2.2-2.2h-188.7c-1.2 0-2.2 1-2.2 2.2 0 1.1 1 2.1 2.2 2.1z" fill="#fff" opacity=".4"/><path d="m288.7 255.2v-3.4h2.3l-2.3-1.3h1.7l-2.3-1.5h-2.1v-1.7h2.5l-2.5-.9v-3.7h2.5v-2.4h2.5l-2.5-.9v-1.7h1.8l-1.5-1.5-1.3-1.2h-38.6v1.7h-2.5l2.8 1.3v1.4h-5.2v2.7h-2.3l2.3 1.1v3h1.6v1.4h3.3v4.2h-1.8l1.5 1.6v1.8z" fill="#285ffa"/><path d="m288.7 255.2v-3.4h2.3l-2.3-1.3h1.7l-2.3-1.5h-2.1v-1.7h2.5l-2.5-.9v-3.7h2.5v-2.4h2.5l-2.5-.9v-1.7h1.8l-1.5-1.5-1.3-1.2h-38.6v1.7h-2.5l2.8 1.3v1.4h-5.2v2.7h-2.3l2.3 1.1v3h1.6v1.4h3.3v4.2h-1.8l1.5 1.6v1.8z" fill="#fff" opacity=".7"/><path d="m288.7 255.2v-3.4h2.3l-2.3-1.3h1.7l-2.3-1.5h-2.1v-1.7h2.5l-2.5-.9v-3.7h2.5v-2.4h2.5l-2.5-.9v-1.7h1.8l-1.5-1.5-1.3-1.2h-20.3v1.7h-2.6l2.9 1.3v1.4h-5.2v2.7h-2.3l2.3 1.1v3h1.6v1.4h3.3v4.2h-1.8l1.5 1.6v1.8z" opacity=".1"/><path d="m249.2 239.4h18.3l-18.3-.6z" opacity=".1"/><path d="m248.9 247.6h18.3l.1 1.3z" opacity=".1"/><path d="m245.6 246.2h18.3l-18.3.6z" opacity=".1"/><path d="m248.9 251.8h18.3l-18.3-.6z" opacity=".1"/><path d="m248.6 253.4h18.3v.7z" opacity=".1"/><path d="m244 242.1h18.3l-18.3-.6z" opacity=".1"/><path d="m248.9 236.7h18.3l-18.3-.6z" opacity=".1"/><path d="m288.5 237.7h-18.6l18.6.6z" opacity=".1"/><path d="m267.5 239.4h21l-19.1.6z" opacity=".1"/><path d="m262.3 242.1 26.2.6v-.6z" opacity=".1"/><path d="m262.3 243.2h12.9l-12.9.7z" opacity=".1"/><path d="m286 246.4-18.8-.2 18.8-.4z" opacity=".1"/><path d="m286 247.3h-19.1l19.1.7z" opacity=".1"/><path d="m288.7 250.5h-21.2v.7z" opacity=".1"/><path d="m288.7 251.8h-15.4l15.4.5z" opacity=".1"/><path d="m239.5 250.9v3.2c0 .8-1 1.2-1.8 1.2h-64.1c-.8 0-1.8-.3-1.8-1.2v-3.2z" fill="#263238"/><path d="m239.5 250.9v3.2c0 .8-1 1.2-1.8 1.2h-64.1c-.8 0-1.8-.3-1.8-1.2v-3.2z" fill="#fff" opacity=".4"/><path d="m239.5 250.9v3.2c0 .8-1 1.2-1.8 1.2h-42.3c-.8 0-1.8-.3-1.8-1.2v-3.2z" opacity=".2"/><path d="m250.2 217.5-7.6 34.6c-.3 1.2-1.3 2-2.5 2h-41.7c-.9 0-1.7-.8-1.6-1.7 0-.2 0-.3.1-.5l7.6-34.4c.3-1.1 1.4-1.8 2.5-1.7h41.7c1.1.1 1.8.6 1.5 1.7z" fill="#263238"/><path d="m250.2 217.5-7.6 34.6c-.3 1.2-1.3 2-2.5 2h-40.3c-.9 0-1.7-.8-1.6-1.7 0-.2 0-.3.1-.5l7.6-34.4c.3-1.1 1.4-1.8 2.5-1.7h40.3c1.1.1 1.8.6 1.5 1.7z" fill="#fff" opacity=".4"/><path d="m229.7 235.1c0 3-3.2 5.4-5.5 5.4s-3.7-2.4-3-5.4 3-5.3 5.3-5.4c-.7 3 .8 5.4 3.1 5.4z" opacity=".2"/></svg>