<svg xmlns="http://www.w3.org/2000/svg" viewBox="0 0 124.94 478.73"><title>man</title><g id="Layer_2" data-name="Layer 2"><g id="Layer_1-2" data-name="Layer 1"><path d="M44.39,35.29c-.24.08-.36-.12-.43-.31Q42.9,32,41.85,29a1.25,1.25,0,0,1-.06-.37,2.24,2.24,0,0,1,.43-1.32.85.85,0,0,1,.89-.46c.47.09.48.49.48.84a25.88,25.88,0,0,0,.94,7C44.59,34.9,44.71,35.17,44.39,35.29Z" style="fill:#e9efff"/><path d="M83.58,28.49C83.47,31,81.78,33,81,35.29c.14-2,.72-3.93.76-5.92,0-.52,0-1,.07-1.56s-.08-.85.49-.93a.89.89,0,0,1,1,.6A2.38,2.38,0,0,1,83.58,28.49Z" style="fill:#e9efff"/><path d="M111.33,252.34a3,3,0,0,1-1,2.4,31.84,31.84,0,0,1-7.39,5c-.22.11-.44.24-.66.06a.56.56,0,0,1-.16-.66c.26-.71.47-1.46,1.5-1.4a3.23,3.23,0,0,0,2.5-1.22C107.65,255,109.65,254.08,111.33,252.34Z" style="fill:#e9efff"/><path d="M110.22,256.93c-2,2.24-4,4.44-6.73,5.8-.14.07-.3.11-.4.15a.79.79,0,0,1-.81-.48,1,1,0,0,1,.35-1.28,14.33,14.33,0,0,1,2.33-1.44,16.15,16.15,0,0,0,4.58-3.18c.22-.21.45-.55.79-.29S110.39,256.74,110.22,256.93Z" style="fill:#e9efff"/><path d="M22.56,262.79c-.35.45-.76.33-1.17.1a25.27,25.27,0,0,1-6.51-5.59.77.77,0,0,1-.23-.87c0-.07.18-.1.28-.14a1.63,1.63,0,0,1,.32.22c1.74,2.08,4.29,3,6.49,4.39a3,3,0,0,1,.83.67A1,1,0,0,1,22.56,262.79Z" style="fill:#e9efff"/><path d="M22.79,259.38c0,.56-.18.9-.8.58a32.56,32.56,0,0,1-7.72-5.37c-.09-.08-.21-.16-.24-.27-.17-.53-1-1.06-.46-1.53.3-.29.77.49,1.18.78a49.06,49.06,0,0,1,5,3.87,1.78,1.78,0,0,0,1.45.44C22.42,257.69,22.54,258.6,22.79,259.38Z" style="fill:#e9efff"/><path d="M80.84,25.85a38.89,38.89,0,0,1-1.26,9.59,89.51,89.51,0,0,1-3.51,10.8,8.11,8.11,0,0,1-4.25,4.62,40.54,40.54,0,0,1-7.59,2.9,4.47,4.47,0,0,1-2.24,0A55.44,55.44,0,0,1,52,50a5,5,0,0,1-2-2.18,21.84,21.84,0,0,1-1.59-3.35A54.49,54.49,0,0,1,44.79,21,42.66,42.66,0,0,1,46.6,10.85a14,14,0,0,1,7-8.47,8,8,0,0,1,2-.69C61.68.35,67.68.13,73.28,3.39,76.43,5.22,78,8.29,79,11.65A43.7,43.7,0,0,1,80.84,25.85Z" style="fill:#e9efff"/><path d="M123.89,220.66a115.17,115.17,0,0,0-.44-15.21,148.9,148.9,0,0,1-.86-17c0-6.57.15-13.11-.79-19.63-.42-2.92-.93-5.83-1.6-8.7a29.92,29.92,0,0,1-1.06-7c.06-8.4-.53-16.78-1.18-25.14a131.08,131.08,0,0,1,0-21,43,43,0,0,0-.32-11.83c-.6-3.21-2.12-6-3.58-8.85a13,13,0,0,0-6.43-6,86,86,0,0,0-10.77-4c-1.45-.41-2.93-.8-4.33-1.34a62.13,62.13,0,0,1-9.93-5.28,64.32,64.32,0,0,0-6.25-3.31,2.8,2.8,0,0,1-1.86-2.74c-.07-3.8-.3-7.59-.48-11.39-.06-1.35-.11-1.36-1.26-.76a51.67,51.67,0,0,1-8,3.26,5.48,5.48,0,0,1-3.53-.09c-3-1-5.88-2.06-8.75-3.28-1-.41-1.11-.17-1.12.8,0,4-.2,7.92-.29,11.88A1.7,1.7,0,0,1,50,65.76c-2.63,1.15-5.26,2.33-7.82,3.63-4.47,2.28-8.67,5-13.65,6.29a66,66,0,0,0-11.29,4.24,10.76,10.76,0,0,0-4.3,3.34,37.46,37.46,0,0,0-4.81,9.48c-1.9,4.94-1.46,10.1-1.08,15.18a111.32,111.32,0,0,1,.37,13.9c-.44,8.22-1,16.44-1.32,24.67-.11,2.79-.15,5.59-.32,8.38-.25,4-1.56,7.74-2.15,11.65a88.64,88.64,0,0,0-1.28,16c.2,6.41-.06,12.79-.43,19.18s-.9,12.52-.76,18.81c0,2.59,0,5.19,0,7.79-.11,5.61.8,11.16.95,16.76a4.78,4.78,0,0,0,1.2,3.07A39.82,39.82,0,0,1,9.15,257c1.95,3.85,5.3,6,9.2,7.52.71.26,1.46.42,2.19.61.45.12,1,.4,1.28-.16s-.27-.88-.67-1.11a23.11,23.11,0,0,1-4.21-3.15c-1.78-1.67-3.44-3.32-3.87-6a33.87,33.87,0,0,0-1.53-6,8.46,8.46,0,0,1-.41-4.84,1.69,1.69,0,0,1,1.24-1.34c.63-.14,1,.3,1.42.73a7.89,7.89,0,0,1,1.31,2.13,53.43,53.43,0,0,1,1.82,6.06c.63,2,1.27,4.05,3.29,5.23a1.58,1.58,0,0,0,1.58.09c.53-.25.5-.77.48-1.26-.1-1.69-1-3.1-1.65-4.59a10.42,10.42,0,0,1-1.35-3.81c-.09-3.46-1.1-6.77-1.53-10.18a5.1,5.1,0,0,0-.61-2.05c-1.11-1.7-2.32-3.35-3.55-5A11.86,11.86,0,0,1,11.12,224c-.85-7.18.58-14.09,2.31-21,1.23-4.92,2.74-9.76,4-14.68.86-3.36,1.38-6.81,2.4-10.13a60.33,60.33,0,0,0,2.34-16.07c.14-4.44.23-8.87,1.34-13.22.9-3.52,1.71-7.06,2.56-10.59.9-3.68,1.85-7.36,2.68-11.06.23-1,.86-2.06.32-3.15-1.13-2.29-1.62-4.8-2.52-7.16-.6-1.57-1.08-3.18-1.77-4.72-.14-.32-.32-.75.1-1s.7.2.91.55a2.14,2.14,0,0,1,.18.44c1.56,4.61,3.43,9.11,4.72,13.81.81,2.92,1.57,5.86,2.15,8.84.8,4,2,8,2.16,12.14.21,4.92.06,9.83,0,14.75A33.12,33.12,0,0,1,32.66,173a39.18,39.18,0,0,0-2.45,7.25c-.66,3.9-1.56,7.76-2.12,11.67-.46,3.2-1.25,6.36-1.46,9.6-.4,6.52-.29,13.07-1.15,19.57a51.17,51.17,0,0,0-.13,6.44c0,5.8.27,11.59.52,17.38.33,7.87.47,15.73,1.78,23.54,1.06,6.38,1.91,12.79,3,19.17.82,4.81,1.55,9.62,2.36,14.43.42,2.52,1,5,1.31,7.55a96.93,96.93,0,0,1,.25,13.42,16.27,16.27,0,0,1-.39,3.81,109.92,109.92,0,0,0-2.19,11c-.71,4.34-1.06,8.73-1.44,13.11a92.09,92.09,0,0,0,.35,21.76c1,6.64,2.27,13.23,3.47,19.83,1.33,7.35,3.14,14.6,4.29,22a73.66,73.66,0,0,1,.94,14.21,6.9,6.9,0,0,1-1.08,4A3.92,3.92,0,0,0,38.9,438a3.49,3.49,0,0,1,.78,3.55c-.46,1.61-1,3.21-1.38,4.83-1.21,4.76-2.93,9.38-3.79,14.23a31.17,31.17,0,0,0-.89,6.87A4.73,4.73,0,0,0,35,470.92a45.93,45.93,0,0,0,6.63,5.31,8.76,8.76,0,0,0,12.1-2.63A13,13,0,0,0,55.21,467c.12-5.38-1-10.64-1.62-16-.4-3.52-1.17-7-.54-10.61.3-1.7,1.13-3.23,1.33-5s0-3.1-1.35-4.23a3.37,3.37,0,0,1-1.36-2.07c-.29-2.25-.67-4.49-.82-6.78-.23-3.4.09-6.79,0-10.19-.31-10.5,1.15-20.9,1.86-31.34.36-5.27,1-10.5,1.39-15.77.55-8.26.68-16.53,1-24.8a64.46,64.46,0,0,1,1-10c.63-3.17,1.42-6.31,1.75-9.54.23-2.3,1-4.58.8-6.89q-.59-7-.86-14c-.42-10.46-1.42-20.9-.87-31.4.47-8.86,1.33-17.69,2.44-26.5a50.31,50.31,0,0,0-.5-18.06,3.7,3.7,0,0,0-.66-1.66,14,14,0,0,1-2.81-4.55c-.1-.27-.52-.47-.3-.82s.5-.22.77-.19.46.37.53.69c1,4.8,5.23,6.17,8.84,5.06a4.74,4.74,0,0,0,2.7-2.16c.8-1.22.7-2.69,1.45-3.88.23-.36.29-1,.87-.72s.32.89.12,1.26c-.66,1.19-1,2.52-1.74,3.67a7.84,7.84,0,0,0-1.36,2.78,43.09,43.09,0,0,0-1,8.39,88.55,88.55,0,0,0,.9,12.18c.71,4.47,1,9,1.45,13.47q.91,8.49,1,17c.1,10.44-.86,20.84-1.46,31.26-.39,6.81-.43,13.56,1.21,20.25a66.06,66.06,0,0,1,1.48,8.37c1,8.87.43,17.82,1.15,26.71.48,5.94.82,11.9,1.44,17.81.87,8.28,1.57,16.57,2,24.86.44,7.68.7,15.43-.44,23.1-.2,1.39,0,3-1.28,4-2.19,1.75-2.14,3.93-1.37,6.29a17.67,17.67,0,0,1,.87,3.6c.47,4.59-.22,9.1-.86,13.61-.75,5.3-1.58,10.56-.94,16s7,8.72,11.49,6.82c3-1.26,5.2-3.38,7.62-5.33a5.81,5.81,0,0,0,2.17-5.18,38.92,38.92,0,0,0-1.26-8c-1.35-5.09-2.66-10.2-4.25-15.22-.75-2.39-.89-4.4.86-6.39a2.89,2.89,0,0,0,.09-3.57,6.87,6.87,0,0,1-1.31-3.17,75.43,75.43,0,0,1,.86-16c.94-5.18,2.06-10.33,3.09-15.49,1.73-8.7,3.42-17.41,4.69-26.19a96.34,96.34,0,0,0,.54-16.64,122.09,122.09,0,0,0-1.3-15.39c-.47-2.88-.73-5.81-1.47-8.62-1.79-6.8-1.81-13.68-1.31-20.6.27-3.6,1.13-7.1,1.69-10.65.42-2.68.82-5.38,1.33-8,.81-4.24,1.29-8.53,2.09-12.77.45-2.38.63-4.83,1-7.23a139.4,139.4,0,0,0,1.85-14.37c.69-9.82.85-19.66.92-29.49a45.24,45.24,0,0,0-.22-6.58c-.21-1.53,0-3.13-.22-4.68-.28-2.06-.63-4.1-.89-6.16-.51-4-.88-7.95-1.47-11.9-.71-4.73-1.6-9.44-2.39-14.17A40.21,40.21,0,0,0,93,174.91a33.5,33.5,0,0,1-2.54-8.7,33.93,33.93,0,0,1-.43-5.56c0-3.32,0-6.64,0-10a21.35,21.35,0,0,1,.21-3.83c.63-3.58,1.21-7.16,2-10.71a120,120,0,0,1,4.51-16.36c.93-2.43,1.74-4.89,2.62-7.34.13-.36.23-.87.79-.66s.34.67.22,1c-.18.53-.41,1-.6,1.56-1,2.62-1.93,5.24-2.86,7.87-.64,1.81-1.22,3.59-.64,5.6.79,2.67,1.38,5.41,2,8.12,1.23,5.05,2.52,10.08,3.68,15.15a54,54,0,0,1,.86,11.22,46.09,46.09,0,0,0,.73,9c1.19,5.54,2.6,11,4,16.52s2.87,11.05,4.32,16.57A59.81,59.81,0,0,1,114.12,221a14.9,14.9,0,0,1-3.87,10.27,10.14,10.14,0,0,0-2.49,3.92,50,50,0,0,0-1.38,6.43c-.45,2.94-.32,6-1.81,8.74-.36.67-.63,1.38-1,2.05a7.39,7.39,0,0,0-.83,3.1,1.19,1.19,0,0,0,1.71,1.14,5.48,5.48,0,0,0,2.67-2.66c.58-1.61,1.13-3.24,1.55-4.9a18.9,18.9,0,0,1,2-5.36c.45-.72.91-1.49,2-1.25s1.25,1.08,1.4,1.9a4.28,4.28,0,0,1-.08,1.78c-.8,3.33-1.65,6.65-2.47,10a4.49,4.49,0,0,1-1.27,2.26c-1.24,1.19-2.43,2.43-3.74,3.54-.93.78-2,1.29-3,2-.31.23-.56.51-.39.91s.47.31.82.25a17.92,17.92,0,0,0,9.51-4.92,10,10,0,0,0,2.27-2.9c1.32-2.64,2.58-5.36,4.65-7.5a9.27,9.27,0,0,0,2.68-7.16,4,4,0,0,1,0-.84,97.46,97.46,0,0,0,.91-12.3C124,226.5,123.82,223.58,123.89,220.66ZM19.31,161.92c-.48.21-.65-.28-.8-.66-1-2.61-3.09-3.62-5.75-3.73a2.17,2.17,0,0,1-.36,0c-.43,0-1.16.16-1.12-.5s.75-.41,1.21-.43a3.87,3.87,0,0,1,.48,0,7.43,7.43,0,0,1,6.41,4.16C19.58,161.15,19.89,161.67,19.31,161.92Zm31.12,159.9a5.38,5.38,0,0,1-4.14,2.44c-3,.12-5-1.39-6.26-4-.16-.34-.59-.72-.06-1s.79.17.93.6a5.13,5.13,0,0,0,3.33,3.32,4.87,4.87,0,0,0,5.53-1.88c.28-.46.53-1.41,1.15-1S50.75,321.39,50.43,321.82ZM56,124.68c-2.64,2.22-5.49,3.88-9.13,3.45a7.67,7.67,0,0,0-1,0,29.49,29.49,0,0,1-7.5-.69A11.56,11.56,0,0,1,31.6,123a5.37,5.37,0,0,0-.9-1,.72.72,0,0,1,0-1.15c.36-.28.63.1.83.42a11.5,11.5,0,0,0,9,5.54c3.36.32,6.65.73,10,0A9.74,9.74,0,0,0,55.24,124c.2-.19.18-.66.65-.51.22.07.5.13.54.41S56.2,124.47,56,124.68Zm8.12,38.94a1,1,0,0,1-1.31.48c-.65-.28-1.3-.65-1.32-1.08,0-1.41.65-2.2,1.43-2.18.26,0,.49.07.57.34a.38.38,0,0,1-.28.46.8.8,0,0,0-.58,1.12c.22.59.69.38,1.1.22.19-.07.43-.14.51.08A.78.78,0,0,1,64.07,163.62ZM85.88,321.14a6.17,6.17,0,0,1-5.5,3.11,5.41,5.41,0,0,1-4.64-2.85c-.18-.35-.42-.86,0-1.08s.54.37.73.67a4.58,4.58,0,0,0,4.17,2.54,5.32,5.32,0,0,0,4.67-2.88c.25-.46.32-1.57.91-1.25C87,319.82,86.2,320.65,85.88,321.14Zm8.38-198.45a16,16,0,0,1-4.54,4.19c-2.16,1.26-4.54,1.37-6.91,1.61a27.46,27.46,0,0,1-2.87,0v.07c-.72,0-1.44,0-2.16,0-3.33.22-6-1.19-8.41-3.33-.24-.21-.73-.41-.36-.83s.59,0,.84.15.58.43.86.66a9.13,9.13,0,0,0,5.66,2.42,48.08,48.08,0,0,0,9.68-.38,9.8,9.8,0,0,0,7-4.7,2.27,2.27,0,0,1,.29-.51c.38-.36.76-1.11,1.33-.62S94.54,122.34,94.26,122.69Zm18.7,35c-2.25.19-4.36.67-5.52,2.93-.18.35-.4.69-.59,1s-.38.58-.74.4-.24-.55-.08-.82a8.38,8.38,0,0,1,2.56-3.12,9.63,9.63,0,0,1,4.39-1.44c.5,0,1.24-.11,1.22.58S113.41,157.61,113,157.69Z" style="fill:#e9efff"/><path d="M96.89,76.29c-1.45-.41-2.93-.8-4.33-1.34a62.13,62.13,0,0,1-9.93-5.28,64.32,64.32,0,0,0-6.25-3.31,2.85,2.85,0,0,1-1.65-1.61H51a1.7,1.7,0,0,1-1,1c-2.63,1.15-5.26,2.33-7.82,3.63-4.47,2.28-8.67,5-13.65,6.29a37.27,37.27,0,0,0-3.6,1.08v34.57c.48-.24.7.2.91.55a2.14,2.14,0,0,1,.18.44c1.56,4.61,3.43,9.11,4.72,13.81.63,2.26,1.22,4.53,1.72,6.82H93a98.38,98.38,0,0,1,3.78-13.16c.93-2.43,1.74-4.89,2.62-7.34.13-.36.23-.87.79-.66V77.33C99.08,77,98,76.6,96.89,76.29ZM56,124.68c-2.64,2.22-5.49,3.88-9.13,3.45a7.67,7.67,0,0,0-1,0,29.49,29.49,0,0,1-7.5-.69A11.56,11.56,0,0,1,31.6,123a5.37,5.37,0,0,0-.9-1,.72.72,0,0,1,0-1.15c.36-.28.63.1.83.42a11.5,11.5,0,0,0,9,5.54c3.36.32,6.65.73,10,0A9.74,9.74,0,0,0,55.24,124c.2-.19.18-.66.65-.51.22.07.5.13.54.41S56.2,124.47,56,124.68Zm38.31-2a16,16,0,0,1-4.54,4.19c-2.16,1.26-4.54,1.37-6.91,1.61a27.46,27.46,0,0,1-2.87,0v.07c-.72,0-1.44,0-2.16,0-3.33.22-6-1.19-8.41-3.33-.24-.21-.73-.41-.36-.83s.59,0,.84.15.58.43.86.66a9.13,9.13,0,0,0,5.66,2.42,48.08,48.08,0,0,0,9.68-.38,9.8,9.8,0,0,0,7-4.7,2.27,2.27,0,0,1,.29-.51c.38-.36.76-1.11,1.33-.62S94.54,122.34,94.26,122.69Z" style="fill:#90a7e6;opacity:0"/><g style="opacity:0"><path d="M44.39,35.29c-.24.08-.36-.12-.43-.31Q42.9,32,41.85,29a1.25,1.25,0,0,1-.06-.37,2.24,2.24,0,0,1,.43-1.32.85.85,0,0,1,.89-.46c.47.09.48.49.48.84a25.88,25.88,0,0,0,.94,7C44.59,34.9,44.71,35.17,44.39,35.29Z" style="fill:#90a7e6"/><path d="M83.58,28.49C83.47,31,81.78,33,81,35.29c.14-2,.72-3.93.76-5.92,0-.52,0-1,.07-1.56s-.08-.85.49-.93a.89.89,0,0,1,1,.6A2.38,2.38,0,0,1,83.58,28.49Z" style="fill:#90a7e6"/><path d="M80.84,25.85a38.89,38.89,0,0,1-1.26,9.59,89.51,89.51,0,0,1-3.51,10.8,8.11,8.11,0,0,1-4.25,4.62,40.54,40.54,0,0,1-7.59,2.9,4.47,4.47,0,0,1-2.24,0A55.44,55.44,0,0,1,52,50a5,5,0,0,1-2-2.18,21.84,21.84,0,0,1-1.59-3.35A54.49,54.49,0,0,1,44.79,21,42.66,42.66,0,0,1,46.6,10.85a14,14,0,0,1,7-8.47,8,8,0,0,1,2-.69C61.68.35,67.68.13,73.28,3.39,76.43,5.22,78,8.29,79,11.65A43.7,43.7,0,0,1,80.84,25.85Z" style="fill:#90a7e6"/><path d="M74.73,64.75H51a2.15,2.15,0,0,0,.12-.71c.09-4,.24-7.92.29-11.88,0-1,.16-1.21,1.12-.8,2.87,1.22,5.79,2.3,8.75,3.28a5.48,5.48,0,0,0,3.53.09,51.67,51.67,0,0,0,8-3.26c1.15-.6,1.2-.59,1.26.76.18,3.8.41,7.59.48,11.39A3,3,0,0,0,74.73,64.75Z" style="fill:#90a7e6"/></g><g style="opacity:0"><path d="M59.41,242a53.64,53.64,0,0,0,0-15.34H25.34c0,.31,0,.63,0,.94,0,5.8.27,11.59.52,17.38.33,7.87.47,15.73,1.78,23.54,1.06,6.38,1.91,12.79,3,19.17.82,4.81,1.55,9.62,2.36,14.43.42,2.52,1,5,1.31,7.55a96.93,96.93,0,0,1,.25,13.42c0,.85,0,1.69-.15,2.53h22.7c.32-1.6.6-3.2.77-4.83.23-2.3,1-4.58.8-6.89q-.59-7-.86-14c-.42-10.46-1.42-20.9-.87-31.4C57.44,259.61,58.3,250.78,59.41,242Zm-9,79.85a5.38,5.38,0,0,1-4.14,2.44c-3,.12-5-1.39-6.26-4-.16-.34-.59-.72-.06-1s.79.17.93.6a5.13,5.13,0,0,0,3.33,3.32,4.87,4.87,0,0,0,5.53-1.88c.28-.46.53-1.41,1.15-1S50.75,321.39,50.43,321.82Z" style="fill:#90a7e6"/><path d="M66.76,226.63a30.5,30.5,0,0,0-.42,5.15,88.55,88.55,0,0,0,.9,12.18c.71,4.47,1,9,1.45,13.47q.91,8.49,1,17c.1,10.44-.86,20.84-1.46,31.26-.38,6.69-.43,13.32,1.13,19.9H92.18A74.15,74.15,0,0,1,92,311.22c.27-3.6,1.13-7.1,1.69-10.65.42-2.68.82-5.38,1.33-8,.81-4.24,1.29-8.53,2.09-12.77.45-2.38.63-4.83,1-7.23a139.4,139.4,0,0,0,1.85-14.37c.69-9.82.85-19.66.92-29.49,0-.68,0-1.37,0-2Zm19.12,94.51a6.17,6.17,0,0,1-5.5,3.11,5.41,5.41,0,0,1-4.64-2.85c-.18-.35-.42-.86,0-1.08s.54.37.73.67a4.58,4.58,0,0,0,4.17,2.54,5.32,5.32,0,0,0,4.67-2.88c.25-.46.32-1.57.91-1.25C87,319.82,86.2,320.65,85.88,321.14Z" style="fill:#90a7e6"/></g><path d="M68.68,220.61a7.84,7.84,0,0,0-1.36,2.78c-.19,1.08-.39,2.16-.56,3.24H101a33,33,0,0,0-.24-4.54c-.21-1.53,0-3.13-.22-4.68-.28-2.06-.63-4.1-.89-6.16-.51-4-.88-7.95-1.47-11.9-.71-4.73-1.6-9.44-2.39-14.17A40.21,40.21,0,0,0,93,174.91a33.5,33.5,0,0,1-2.54-8.7,33.93,33.93,0,0,1-.43-5.56c0-3.32,0-6.64,0-10a21.35,21.35,0,0,1,.21-3.83c.63-3.58,1.21-7.16,2-10.71.24-1.07.49-2.14.73-3.2H32.41c.16.67.3,1.35.43,2,.8,4,2,8,2.16,12.14.21,4.92.06,9.83,0,14.75A33.12,33.12,0,0,1,32.66,173a39.18,39.18,0,0,0-2.45,7.25c-.66,3.9-1.56,7.76-2.12,11.67-.46,3.2-1.25,6.36-1.46,9.6-.4,6.52-.29,13.07-1.15,19.57a38.75,38.75,0,0,0-.14,5.5h34.1c-.14-.91-.32-1.81-.53-2.72a3.7,3.7,0,0,0-.66-1.66,14,14,0,0,1-2.81-4.55c-.1-.27-.52-.47-.3-.82s.5-.22.77-.19.46.37.53.69c1,4.8,5.23,6.17,8.84,5.06a4.74,4.74,0,0,0,2.7-2.16c.8-1.22.7-2.69,1.45-3.88.23-.36.29-1,.87-.72s.32.89.12,1.26C69.76,218.13,69.43,219.46,68.68,220.61Zm-4.61-57a1,1,0,0,1-1.31.48c-.65-.28-1.3-.65-1.32-1.08,0-1.41.65-2.2,1.43-2.18.26,0,.49.07.57.34a.38.38,0,0,1-.28.46.8.8,0,0,0-.58,1.12c.22.59.69.38,1.1.22.19-.07.43-.14.51.08A.78.78,0,0,1,64.07,163.62Z" style="fill:#90a7e6;opacity:0"/><g style="opacity:0"><path d="M55.21,467a13,13,0,0,1-1.51,6.59,8.76,8.76,0,0,1-12.1,2.63A45.93,45.93,0,0,1,35,470.92a4.73,4.73,0,0,1-1.35-3.49,31.17,31.17,0,0,1,.89-6.87c.86-4.85,2.58-9.47,3.79-14.23.41-1.62.92-3.22,1.38-4.83A3.49,3.49,0,0,0,38.9,438a3.92,3.92,0,0,1-.37-5.19,6.9,6.9,0,0,0,1.08-4c0-.92,0-1.83,0-2.74h11.6c.14,1,.3,2.08.43,3.12A3.37,3.37,0,0,0,53,431.25c1.38,1.13,1.54,2.59,1.35,4.23s-1,3.26-1.33,5c-.63,3.59.14,7.09.54,10.61C54.19,456.37,55.33,461.63,55.21,467Z" style="fill:#90a7e6"/><path d="M90.64,471.75c-2.42,1.95-4.67,4.07-7.62,5.33-4.45,1.9-10.83-1.32-11.49-6.82s.19-10.66.94-16c.64-4.51,1.33-9,.86-13.61a17.67,17.67,0,0,0-.87-3.6c-.77-2.36-.82-4.54,1.37-6.29,1.27-1,1.08-2.62,1.28-4,0-.24.07-.49.1-.73H86.86c0,1.37,0,2.75.08,4.12a6.87,6.87,0,0,0,1.31,3.17,2.89,2.89,0,0,1-.09,3.57c-1.75,2-1.61,4-.86,6.39,1.59,5,2.9,10.13,4.25,15.22a38.92,38.92,0,0,1,1.26,8A5.81,5.81,0,0,1,90.64,471.75Z" style="fill:#90a7e6"/></g><g style="opacity:0"><path d="M22.56,262.79c-.35.45-.76.33-1.17.1a25.27,25.27,0,0,1-6.51-5.59.77.77,0,0,1-.23-.87c0-.07.18-.1.28-.14a1.63,1.63,0,0,1,.32.22c1.74,2.08,4.29,3,6.49,4.39a3,3,0,0,1,.83.67A1,1,0,0,1,22.56,262.79Z" style="fill:#90a7e6"/><path d="M22.79,259.38c0,.56-.18.9-.8.58a32.56,32.56,0,0,1-7.72-5.37c-.09-.08-.21-.16-.24-.27-.17-.53-1-1.06-.46-1.53.3-.29.77.49,1.18.78a49.06,49.06,0,0,1,5,3.87,1.78,1.78,0,0,0,1.45.44C22.42,257.69,22.54,258.6,22.79,259.38Z" style="fill:#90a7e6"/><path d="M111.33,252.34a3,3,0,0,1-1,2.4,31.84,31.84,0,0,1-7.39,5c-.22.11-.44.24-.66.06a.56.56,0,0,1-.16-.66c.26-.71.47-1.46,1.5-1.4a3.23,3.23,0,0,0,2.5-1.22C107.65,255,109.65,254.08,111.33,252.34Z" style="fill:#90a7e6"/><path d="M110.22,256.93c-2,2.24-4,4.44-6.73,5.8-.14.07-.3.11-.4.15a.79.79,0,0,1-.81-.48,1,1,0,0,1,.35-1.28,14.33,14.33,0,0,1,2.33-1.44,16.15,16.15,0,0,0,4.58-3.18c.22-.21.45-.55.79-.29S110.39,256.74,110.22,256.93Z" style="fill:#90a7e6"/><path d="M124,229.42a97.46,97.46,0,0,1-.91,12.3,4,4,0,0,0,0,.84,9.27,9.27,0,0,1-2.68,7.16c-2.07,2.14-3.33,4.86-4.65,7.5a10,10,0,0,1-2.27,2.9A17.92,17.92,0,0,1,103.9,265c-.35.06-.66.11-.82-.25s.08-.68.39-.91c1-.7,2.06-1.21,3-2,1.31-1.11,2.5-2.35,3.74-3.54a4.49,4.49,0,0,0,1.27-2.26c.82-3.32,1.67-6.64,2.47-10a4.28,4.28,0,0,0,.08-1.78c-.15-.82-.41-1.68-1.4-1.9s-1.5.53-2,1.25a18.9,18.9,0,0,0-2,5.36c-.42,1.66-1,3.29-1.55,4.9a5.48,5.48,0,0,1-2.67,2.66,1.19,1.19,0,0,1-1.71-1.14,7.39,7.39,0,0,1,.83-3.1c.35-.67.62-1.38,1-2.05,1.49-2.73,1.36-5.8,1.81-8.74a50,50,0,0,1,1.38-6.43,10.14,10.14,0,0,1,2.49-3.92,14.46,14.46,0,0,0,3.8-9h9.82C123.88,224.63,124,227,124,229.42Z" style="fill:#90a7e6"/><path d="M11.13,243.87a8.46,8.46,0,0,0,.41,4.84,33.87,33.87,0,0,1,1.53,6c.43,2.66,2.09,4.31,3.87,6a23.11,23.11,0,0,0,4.21,3.15c.4.23.92.58.67,1.11s-.83.28-1.28.16c-.73-.19-1.48-.35-2.19-.61-3.9-1.48-7.25-3.67-9.2-7.52a39.82,39.82,0,0,0-5.9-8.85,4.78,4.78,0,0,1-1.2-3.07C1.9,239.46,1,233.91,1.1,228.3c0-2,0-4.05,0-6.07H11c0,.6.09,1.2.16,1.8a11.86,11.86,0,0,0,2.46,5.88c1.23,1.62,2.44,3.27,3.55,5a5.1,5.1,0,0,1,.61,2.05c.43,3.41,1.44,6.72,1.53,10.18a10.42,10.42,0,0,0,1.35,3.81c.66,1.49,1.55,2.9,1.65,4.59,0,.49.05,1-.48,1.26a1.58,1.58,0,0,1-1.58-.09c-2-1.18-2.66-3.22-3.29-5.23a53.43,53.43,0,0,0-1.82-6.06,7.89,7.89,0,0,0-1.31-2.13c-.38-.43-.79-.87-1.42-.73A1.69,1.69,0,0,0,11.13,243.87Z" style="fill:#90a7e6"/></g><path d="M100.7,262.54c-.49,3.36-.91,6.72-1.46,10.07-.82,4.92-1.41,9.88-2.35,14.79-.53,2.7-.76,5.47-1.27,8.17-.79,4.2-1.31,8.45-2.22,12.63a28.61,28.61,0,0,0-.4,5.25A92.79,92.79,0,0,0,93.22,326c.24,2.17.89,4.29,1.32,6.44a153.86,153.86,0,0,1,2.67,22.83,94,94,0,0,1,0,11.51,105.93,105.93,0,0,1-2.06,14.58c-.56,2.56-.81,5.2-1.37,7.78q-1.11,5.22-2,10.47c-.87,4.92-2.08,9.76-2.88,14.69A77.66,77.66,0,0,0,88,429.87a4,4,0,0,0,.74,2.22c1.51,2.18,1.5,4-.13,6.05a3.48,3.48,0,0,0-.7,3.34c1.5,5.22,3.1,10.42,4.4,15.68.91,3.66,1.9,7.36,1.48,11.22a4.62,4.62,0,0,1-1.29,2.91c-2.76,2.67-5.58,5.27-9.21,6.78a7.51,7.51,0,0,1-5.39.29c-4.09-1.37-6.67-4-7.36-8.52-.65-4.26,0-8.37.46-12.53.55-5.12,1.8-10.16,1.54-15.37a14.33,14.33,0,0,0-.9-4.19c-1.16-3.2-1.15-5.41,1.48-7.58a2.09,2.09,0,0,0,.72-1.44c1.44-9.07,1-18.19.53-27.29s-1.47-18.17-2.26-27.24c-.75-8.53-1.39-17.06-1.44-25.62,0-4.64-.28-9.28-.64-13.9a64.64,64.64,0,0,0-1.23-7c-.56-3.1-1.16-6.2-1.48-9.34a38.15,38.15,0,0,0-.53-4.52,3.55,3.55,0,0,1,0-1.08c.7-5.4.71-10.84,1-16.26.37-7.07.93-14.13.93-21.21s-.68-14-1.22-20.95c-.45-5.94-1.71-11.79-2-17.75a49.44,49.44,0,0,1,.23-10.17,7,7,0,0,1,.33-2.28c.32-.61-.12-1-.73-.68a5.65,5.65,0,0,1-4.54,0c-.62-.22-1-.18-.73.71,1.56,6.2,1.2,12.43.34,18.69-.57,4.16-1,8.33-1.41,12.51-.58,6.09-.92,12.2-1.09,18.32-.09,3.2.06,6.39.21,9.59.26,5.59.65,11.17.83,16.77.11,3.32.43,6.62.7,9.92a44.33,44.33,0,0,1-.85,11.45c-.54,3-.9,6.08-1.55,9.09-1.36,6.29-1,12.72-1.24,19.1q-.28,8.56-1,17.12c-.82,9.71-1.57,19.44-2.49,29.15a225.69,225.69,0,0,0-.67,26,57.84,57.84,0,0,0,1,7.24,1.65,1.65,0,0,0,.66,1.11c2.28,1.67,2.47,4,1.68,6.37-1.44,4.2-1.16,8.37-.73,12.67.59,5.8,2.05,11.5,1.87,17.39a16.41,16.41,0,0,1-1.42,6.85c-2.08,4.31-8.19,6.32-12.44,4.16a38.49,38.49,0,0,1-7.94-5.93c-1.72-1.53-2-3.47-1.91-5.56A35.71,35.71,0,0,1,33.76,459c.83-3.42,1.81-6.79,2.74-10.18.73-2.65,1.49-5.3,2.26-7.94a1.73,1.73,0,0,0-.27-1.79c-.21-.24-.34-.55-.54-.8a4.71,4.71,0,0,1-.22-6.24,4.09,4.09,0,0,0,.69-2.25,67.86,67.86,0,0,0-1.11-17.19c-.9-4.83-2-9.61-2.88-14.44-.68-3.77-1.41-7.54-2.13-11.3-.75-4-1.31-7.95-2.11-11.9a39.65,39.65,0,0,1-.84-6.77c-.23-8-.33-16.09.75-24.08.6-4.34,1.12-8.7,2.13-13a62.91,62.91,0,0,0,.39-25.24c-.73-4.29-1.41-8.59-2.15-12.87-.95-5.48-1.81-11-2.67-16.44-.94-6-2.09-12.06-2.47-18.16s-.75-12.45-.79-18.69-.21-12.48-.11-18.71c.06-3.47.67-6.92.76-10.4a104.56,104.56,0,0,1,1.26-15.41c.82-4.72,1.79-9.42,2.6-14.14.58-3.34,2-6.39,3.13-9.53A39.43,39.43,0,0,0,33.61,165c1-5.56.45-11.17.49-16.76,0-3.24-1-6.38-1.49-9.57s-1.68-6.41-2.16-9.69a2.46,2.46,0,0,0-.71-1.38c-.45,1.75-.91,3.4-1.3,5.07-.87,3.7-1.51,7.46-2.59,11.09a69.54,69.54,0,0,0-2.71,19.49,62.76,62.76,0,0,1-2.74,16.86c-1.06,3.67-1.75,7.45-2.7,11.16-1.31,5.06-2.78,10.08-4,15.15a51.16,51.16,0,0,0-1.47,17.94A10.09,10.09,0,0,0,15,230.1c3.79,4.12,4.51,9.3,5,14.52a18.52,18.52,0,0,0,2,7c.91,1.71,1.78,3.43,1.13,5.46-.11.33.11.61.27.89a2.21,2.21,0,0,1,.24,2.47.15.15,0,0,0,0,.11c.58,1.6-.45,3-.64,4.43-.14,1.09-.54,1.49-1.64,1.34a18.15,18.15,0,0,1-8.85-4,16.27,16.27,0,0,1-4.83-6.12,34.49,34.49,0,0,0-5.36-7.77A4.11,4.11,0,0,1,1.22,246C.72,238.92-.25,231.9.06,224.79c.17-4.06-.18-8.16,0-12.23.33-6.5,1.11-13,1.15-19.51,0-4.84,0-9.68.06-14.52a67.79,67.79,0,0,1,.9-9.41A58.76,58.76,0,0,1,3.64,161c1.6-5.24,1-10.63,1.32-16q.86-12.74,1.44-25.5c.22-5.08-.33-10.15-.56-15.22-.24-5.51.26-10.81,3-15.79,1-1.85,1.88-3.78,3-5.54,1.92-2.87,5-4,8-5.29,4.37-2,9.13-2.9,13.55-4.77A52.44,52.44,0,0,0,38.89,70a95.38,95.38,0,0,1,9.8-4.78,2.11,2.11,0,0,0,1.41-2.09c.29-4.07.26-8.15.33-12.23a2.12,2.12,0,0,0-.33-1.35,32.49,32.49,0,0,1-4.45-10.66c-.26-1.05-.43-2.09-1.74-2.47-.75-.22-.95-1.06-1.12-1.75a13.48,13.48,0,0,0-1.22-3.12,6.18,6.18,0,0,1-.76-3.35,2.21,2.21,0,0,1,2-2.33c.8-.14,1-.53.94-1.22a43.05,43.05,0,0,1,1.19-11.54C45.9,9.2,47.48,5.58,50.86,3A13,13,0,0,1,58.12.21c3.71-.2,7.42-.49,11.1.4a14,14,0,0,1,8.16,5.48c2.3,3.07,3.2,6.67,3.83,10.35a43.77,43.77,0,0,1,.58,8.48c0,.55,0,.88.71,1a2.33,2.33,0,0,1,2.2,2.39,4.26,4.26,0,0,1-.2,1.78c-.71,1.81-1.61,3.55-2.2,5.43-.14.44-.49,1-.94,1-1.25.18-1.33,1.12-1.6,2-1.15,3.86-2.23,7.75-4.55,11.14A1.8,1.8,0,0,0,75,50.87c.16,4.35.22,8.71.66,13.05a1.45,1.45,0,0,0,.82,1.34c4,1.89,7.71,4.21,11.49,6.44,4.26,2.52,9.12,3.36,13.64,5.1a63.42,63.42,0,0,1,7.07,2.94A15.67,15.67,0,0,1,115,86a31.3,31.3,0,0,1,4.21,19.07,124.42,124.42,0,0,0-.23,22.51q1.14,12.84,1.17,25.76c0,3,.91,5.84,1.49,8.73.67,3.29,1.17,6.6,1.58,9.93,1,8.3.1,16.64.66,24.93.48,7.19,1.1,14.36,1.06,21.56,0,8.12,0,16.24-.73,24.33-.24,2.68-.77,5.17-2.83,7.17a20,20,0,0,0-4.15,6.41,16.52,16.52,0,0,1-5.17,6.14,18.18,18.18,0,0,1-8,3.56c-1.49.3-2-.14-2-1.64C102.08,263.51,101.33,263.12,100.7,262.54Zm-99.59-42c0,2.59,0,5.19,0,7.79-.12,5.61.79,11.16.95,16.76a4.78,4.78,0,0,0,1.2,3.07A40.17,40.17,0,0,1,9.15,257c1.95,3.85,5.3,6,9.2,7.52a22.05,22.05,0,0,0,2.19.61c.45.12,1,.4,1.28-.16s-.27-.88-.68-1.11a23.39,23.39,0,0,1-4.2-3.15c-1.79-1.67-3.44-3.32-3.87-6a34.76,34.76,0,0,0-1.53-6,8.38,8.38,0,0,1-.41-4.84,1.69,1.69,0,0,1,1.24-1.34c.62-.14,1,.3,1.42.73a8.14,8.14,0,0,1,1.31,2.13,53.43,53.43,0,0,1,1.82,6.06c.63,2,1.27,4.05,3.29,5.23a1.58,1.58,0,0,0,1.58.09c.52-.25.5-.77.47-1.26-.09-1.69-1-3.1-1.64-4.59a10.42,10.42,0,0,1-1.35-3.81c-.09-3.46-1.1-6.77-1.53-10.18a4.86,4.86,0,0,0-.62-2c-1.11-1.71-2.31-3.36-3.54-5A12,12,0,0,1,11.11,224c-.84-7.18.58-14.09,2.31-21,1.24-4.92,2.75-9.76,4-14.67.86-3.37,1.37-6.82,2.4-10.14a60.33,60.33,0,0,0,2.34-16.07c.13-4.43.23-8.87,1.34-13.22.9-3.52,1.71-7.06,2.56-10.59.9-3.68,1.84-7.36,2.68-11.06.23-1,.85-2.06.32-3.15-1.13-2.29-1.62-4.8-2.53-7.16-.59-1.57-1.07-3.18-1.76-4.72-.14-.32-.32-.75.1-1s.7.21.9.55a1.72,1.72,0,0,1,.19.44c1.56,4.61,3.43,9.11,4.72,13.81.8,2.92,1.57,5.86,2.15,8.84.8,4,2,8,2.16,12.14.21,4.92.06,9.84,0,14.75A33.36,33.36,0,0,1,32.66,173a39.18,39.18,0,0,0-2.45,7.25c-.66,3.9-1.56,7.76-2.12,11.67-.46,3.2-1.26,6.36-1.46,9.6-.41,6.52-.3,13.07-1.15,19.57a53.12,53.12,0,0,0-.14,6.44c0,5.8.28,11.59.53,17.38.33,7.87.47,15.73,1.77,23.54,1.07,6.38,1.92,12.8,3,19.17.83,4.81,1.56,9.62,2.36,14.43.42,2.52,1.05,5,1.32,7.55a96.93,96.93,0,0,1,.25,13.42,16.27,16.27,0,0,1-.39,3.81,109.92,109.92,0,0,0-2.19,11c-.72,4.34-1.07,8.73-1.44,13.11a92.09,92.09,0,0,0,.35,21.76c1,6.64,2.27,13.23,3.47,19.83,1.33,7.35,3.14,14.6,4.29,22a73.66,73.66,0,0,1,.94,14.21,7,7,0,0,1-1.08,4A3.92,3.92,0,0,0,38.9,438a3.51,3.51,0,0,1,.78,3.55c-.46,1.61-1,3.21-1.39,4.83-1.2,4.76-2.92,9.38-3.78,14.23a31.17,31.17,0,0,0-.89,6.87A4.73,4.73,0,0,0,35,470.92a44.87,44.87,0,0,0,6.63,5.31,8.76,8.76,0,0,0,12.1-2.63A13,13,0,0,0,55.21,467c.12-5.38-1-10.64-1.63-16-.4-3.52-1.16-7-.53-10.61.29-1.7,1.13-3.23,1.33-5s0-3.1-1.35-4.23a3.37,3.37,0,0,1-1.36-2.07c-.29-2.25-.67-4.49-.82-6.78-.23-3.4.08-6.79,0-10.19-.3-10.5,1.16-20.9,1.87-31.34.36-5.27,1-10.5,1.39-15.77.55-8.26.68-16.53,1-24.8a65.69,65.69,0,0,1,1-10c.63-3.17,1.43-6.31,1.76-9.54.23-2.3,1-4.58.8-6.89-.4-4.66-.67-9.33-.86-14-.42-10.46-1.42-20.9-.87-31.4.47-8.86,1.33-17.69,2.44-26.5a50.31,50.31,0,0,0-.5-18.06,3.62,3.62,0,0,0-.66-1.65,14.2,14.2,0,0,1-2.81-4.55c-.1-.28-.53-.48-.31-.83s.5-.22.78-.19.46.37.53.69c1,4.8,5.23,6.17,8.84,5.06a4.7,4.7,0,0,0,2.7-2.16c.8-1.22.7-2.69,1.45-3.88.22-.35.29-1,.87-.72s.32.89.11,1.26c-.65,1.19-1,2.52-1.73,3.67a7.68,7.68,0,0,0-1.36,2.78,42.35,42.35,0,0,0-1,8.4,87,87,0,0,0,.9,12.17c.71,4.47,1,9,1.45,13.47q.91,8.49,1,17c.1,10.44-.86,20.84-1.46,31.26-.4,6.81-.43,13.56,1.2,20.25a67.91,67.91,0,0,1,1.49,8.37c1,8.88.43,17.82,1.15,26.71.48,5.94.82,11.9,1.44,17.81.86,8.28,1.57,16.57,2,24.86.44,7.68.7,15.43-.44,23.11-.2,1.38,0,3-1.28,4-2.19,1.75-2.14,3.93-1.37,6.29a17.67,17.67,0,0,1,.87,3.6c.47,4.59-.23,9.1-.86,13.61-.75,5.3-1.58,10.56-.94,16s7,8.72,11.49,6.82c2.94-1.26,5.2-3.38,7.62-5.33a5.81,5.81,0,0,0,2.17-5.18,38.92,38.92,0,0,0-1.26-8c-1.35-5.09-2.66-10.2-4.25-15.22-.75-2.39-.89-4.4.86-6.39a2.89,2.89,0,0,0,.09-3.57,6.87,6.87,0,0,1-1.31-3.17,75.43,75.43,0,0,1,.86-16c.93-5.18,2.06-10.33,3.09-15.49,1.73-8.7,3.41-17.41,4.68-26.19a95.36,95.36,0,0,0,.55-16.64,122.11,122.11,0,0,0-1.31-15.39c-.46-2.88-.72-5.81-1.46-8.62-1.79-6.8-1.82-13.68-1.31-20.6.26-3.6,1.13-7.1,1.69-10.65.42-2.68.82-5.37,1.33-8,.81-4.24,1.29-8.53,2.09-12.76.45-2.39.63-4.84,1-7.24a139.4,139.4,0,0,0,1.85-14.37c.69-9.82.85-19.66.92-29.49a45.24,45.24,0,0,0-.22-6.58c-.21-1.53,0-3.13-.22-4.68-.28-2.06-.63-4.1-.9-6.16-.5-4-.87-7.95-1.46-11.9-.71-4.73-1.6-9.44-2.39-14.17A40.63,40.63,0,0,0,93,174.91a33.5,33.5,0,0,1-2.54-8.7,33.83,33.83,0,0,1-.44-5.56c0-3.32,0-6.64,0-10a22.31,22.31,0,0,1,.2-3.83c.64-3.58,1.21-7.15,2-10.71a120,120,0,0,1,4.51-16.36c.93-2.43,1.74-4.89,2.62-7.34.13-.36.23-.87.78-.66s.34.67.22,1c-.17.53-.4,1-.6,1.56-1,2.62-1.93,5.24-2.85,7.87-.64,1.81-1.23,3.59-.64,5.6.78,2.68,1.37,5.41,2,8.13,1.23,5,2.52,10.07,3.68,15.14a54,54,0,0,1,.86,11.22,46.09,46.09,0,0,0,.73,9c1.19,5.54,2.6,11,4,16.52s2.87,11.05,4.31,16.57A59.45,59.45,0,0,1,114.12,221a14.86,14.86,0,0,1-3.88,10.27,10.26,10.26,0,0,0-2.49,3.92,51.75,51.75,0,0,0-1.37,6.43c-.45,2.94-.32,6-1.81,8.74-.36.67-.63,1.38-1,2.05a7.39,7.39,0,0,0-.83,3.11,1.19,1.19,0,0,0,1.71,1.13,5.42,5.42,0,0,0,2.66-2.66,49.79,49.79,0,0,0,1.56-4.9,18.9,18.9,0,0,1,2-5.36c.45-.72.91-1.49,2-1.25s1.24,1.08,1.4,1.9a4.46,4.46,0,0,1-.08,1.78c-.8,3.33-1.65,6.65-2.47,10a4.49,4.49,0,0,1-1.27,2.26c-1.24,1.19-2.43,2.43-3.74,3.54-.93.78-2,1.29-3,2-.31.23-.56.51-.39.91s.46.31.82.26a18,18,0,0,0,9.51-4.93,10,10,0,0,0,2.27-2.9c1.31-2.64,2.58-5.36,4.65-7.5a9.27,9.27,0,0,0,2.68-7.16,3.94,3.94,0,0,1,0-.84,95.65,95.65,0,0,0,.92-12.3c0-2.92-.15-5.84-.08-8.76a115.17,115.17,0,0,0-.44-15.21,148.9,148.9,0,0,1-.86-17c0-6.57.15-13.11-.79-19.63-.42-2.92-.93-5.83-1.61-8.7a30.44,30.44,0,0,1-1-7c.06-8.4-.53-16.78-1.18-25.14a131.08,131.08,0,0,1,0-21,43,43,0,0,0-.32-11.83c-.6-3.21-2.12-6-3.58-8.85a13,13,0,0,0-6.43-6,86,86,0,0,0-10.77-4c-1.46-.41-2.93-.8-4.34-1.34a62.46,62.46,0,0,1-9.92-5.28,65.5,65.5,0,0,0-6.25-3.31,2.8,2.8,0,0,1-1.86-2.74c-.07-3.8-.3-7.59-.48-11.39-.06-1.35-.11-1.36-1.26-.76a52.08,52.08,0,0,1-8,3.26,5.48,5.48,0,0,1-3.53-.09c-3-1-5.88-2.06-8.75-3.28-1-.41-1.11-.16-1.12.8,0,4-.2,7.92-.29,11.88A1.7,1.7,0,0,1,50,65.76c-2.63,1.16-5.26,2.33-7.82,3.63-4.47,2.28-8.67,5.06-13.65,6.29a65.68,65.68,0,0,0-11.29,4.24,10.76,10.76,0,0,0-4.3,3.34,37.46,37.46,0,0,0-4.81,9.48c-1.9,4.94-1.46,10.1-1.09,15.18a107.61,107.61,0,0,1,.37,13.9c-.43,8.22-1,16.44-1.31,24.67-.11,2.79-.15,5.59-.33,8.38-.24,4-1.55,7.74-2.14,11.65a87.74,87.74,0,0,0-1.28,16c.19,6.41-.06,12.79-.43,19.18S1,214.22,1.11,220.51ZM80.84,25.85A43.7,43.7,0,0,0,79,11.65c-1-3.36-2.59-6.43-5.74-8.26-5.6-3.26-11.6-3-17.67-1.7a8,8,0,0,0-2,.69,14,14,0,0,0-7,8.47A41.76,41.76,0,0,0,44.79,21a54.34,54.34,0,0,0,3.66,23.47A21.84,21.84,0,0,0,50,47.78,5,5,0,0,0,52,50,55.63,55.63,0,0,0,62,53.73a4.51,4.51,0,0,0,2.25,0,40.54,40.54,0,0,0,7.59-2.9,8.12,8.12,0,0,0,4.25-4.62,89.51,89.51,0,0,0,3.51-10.8A38.89,38.89,0,0,0,80.84,25.85ZM101.12,258c.86-.55,1.07-1,.68-1.66a1.82,1.82,0,0,1-.09-1.48,20.28,20.28,0,0,1,2-5c1.32-2.72,1.39-5.75,1.71-8.65a20.63,20.63,0,0,1,5-11.81,8.64,8.64,0,0,0,2.24-4.43c1.19-8.07-.47-15.83-2.45-23.55-1.28-5-2.81-9.91-4-14.9-.74-3-1.33-6.08-2.2-9.07a50.44,50.44,0,0,1-2-13,76,76,0,0,0-1.16-13.72c-1-4.77-2.3-9.46-3.36-14.21-.59-2.65-1.57-5.21-1.91-7.92a.52.52,0,0,0-.45-.55c-.34,1.55-.64,3.1-1,4.63a129.18,129.18,0,0,0-2.72,13.62,90,90,0,0,0-.27,11.14,44.92,44.92,0,0,0,2.1,15c.84,2.4,1.91,4.73,2.57,7.2.55,2.1.67,4.27,1.13,6.37,1,4.57,1.66,9.19,2.4,13.8.55,3.47.75,7,1.24,10.47A115.94,115.94,0,0,1,102.1,225c.12,8.32-.43,16.62-.57,24.93C101.49,252.51,101.27,255.12,101.12,258Zm-84.55-4.34c-.75-2-.94-4.09-1.63-6.07a10.72,10.72,0,0,0-1.87-3.82c-.49-.55-.73-.45-1,.17-.45.95-.05,1.87,0,2.81A8.35,8.35,0,0,0,16.57,253.66Zm91.76,0c1.67-1.38,3.57-2.44,4.07-4.77a15.1,15.1,0,0,0,.55-4.73.86.86,0,0,0-.53-.86.57.57,0,0,0-.71.31,13.53,13.53,0,0,0-1.77,3.89,36.44,36.44,0,0,1-1.24,4.61C108.54,252.61,108,253,108.33,253.7Zm-85.54,5.68c-.26-.78-.38-1.69-1.59-1.5a1.8,1.8,0,0,1-1.46-.44,47.86,47.86,0,0,0-5-3.87c-.41-.29-.88-1.07-1.19-.78-.49.47.3,1,.47,1.53,0,.11.15.19.23.27A32.82,32.82,0,0,0,22,260C22.61,260.28,22.77,259.94,22.79,259.38Zm88.54-7c-1.68,1.74-3.68,2.62-5.18,4.18a3.19,3.19,0,0,1-2.49,1.22c-1-.06-1.25.69-1.51,1.4a.59.59,0,0,0,.16.66c.22.18.45.05.67-.06a31.84,31.84,0,0,0,7.39-5A3,3,0,0,0,111.33,252.34Zm-8.24,10.54c.1,0,.26-.08.4-.15,2.74-1.36,4.75-3.56,6.73-5.8.17-.19.41-.5.11-.72s-.57.08-.79.29a16.15,16.15,0,0,1-4.58,3.18,14.33,14.33,0,0,0-2.33,1.44,1,1,0,0,0-.35,1.28A.79.79,0,0,0,103.09,262.88Zm-88.17-6.59c-.09,0-.24.07-.27.15a.76.76,0,0,0,.23.86,25.39,25.39,0,0,0,6.5,5.59c.42.23.83.35,1.18-.1a1,1,0,0,0,0-1.22,3,3,0,0,0-.83-.67c-2.2-1.4-4.75-2.31-6.49-4.39A1.45,1.45,0,0,0,14.92,256.29ZM41.79,28.67a1.57,1.57,0,0,0,.05.37q1,3,2.12,5.94c.07.19.19.39.43.31s.2-.39.13-.61a25.87,25.87,0,0,1-.93-6.95c0-.35,0-.75-.48-.84a.85.85,0,0,0-.89.46A2.24,2.24,0,0,0,41.79,28.67ZM81,35.29c.75-2.32,2.44-4.26,2.56-6.8a2.26,2.26,0,0,0-.3-1,.87.87,0,0,0-.94-.6c-.57.08-.47.55-.49.93s-.06,1-.07,1.56C81.73,31.36,81.16,33.27,81,35.29Z" style="fill:#285ffa"/><path d="M79.94,128.58c-.72,0-1.44,0-2.16,0-3.34.22-6-1.19-8.41-3.33-.24-.21-.73-.41-.37-.83s.59,0,.85.15.58.43.86.66a9.2,9.2,0,0,0,5.66,2.43,48.86,48.86,0,0,0,9.68-.39,9.8,9.8,0,0,0,7-4.7,1.94,1.94,0,0,1,.29-.51c.38-.36.75-1.11,1.33-.62s-.18.89-.46,1.24a16.08,16.08,0,0,1-4.54,4.19c-2.16,1.26-4.54,1.37-6.91,1.62-1,.09-1.92,0-2.87,0Z" style="fill:#285ffa"/><path d="M45.86,128.12a29.45,29.45,0,0,1-7.5-.69A11.56,11.56,0,0,1,31.6,123a5.76,5.76,0,0,0-.9-1,.72.72,0,0,1,0-1.15c.36-.28.62.1.83.42a11.48,11.48,0,0,0,9,5.54c3.37.32,6.66.73,10,0A9.71,9.71,0,0,0,55.23,124c.21-.2.19-.67.66-.52.22.07.5.13.53.41s-.23.57-.47.78c-2.64,2.22-5.49,3.88-9.13,3.45A7.69,7.69,0,0,0,45.86,128.12Z" style="fill:#285ffa"/><path d="M46.29,324.26c-3,.12-5-1.39-6.26-4-.16-.34-.59-.72-.06-1s.79.17.93.6a5.13,5.13,0,0,0,3.33,3.32,4.87,4.87,0,0,0,5.53-1.88c.28-.46.53-1.41,1.15-1s-.16,1.08-.48,1.51A5.4,5.4,0,0,1,46.29,324.26Z" style="fill:#285ffa"/><path d="M80.38,324.25a5.41,5.41,0,0,1-4.64-2.85c-.19-.35-.42-.86,0-1.08.57-.29.55.37.74.67a4.58,4.58,0,0,0,4.17,2.54,5.32,5.32,0,0,0,4.67-2.88c.25-.46.32-1.57.91-1.25.76.42,0,1.25-.35,1.74A6.17,6.17,0,0,1,80.38,324.25Z" style="fill:#285ffa"/><path d="M13,156.64a7.43,7.43,0,0,1,6.42,4.16c.2.35.51.87-.07,1.12s-.65-.28-.8-.66c-1-2.61-3.1-3.62-5.75-3.73a2.17,2.17,0,0,1-.36,0c-.44,0-1.16.16-1.12-.5s.75-.41,1.21-.43A3.83,3.83,0,0,1,13,156.64Z" style="fill:#285ffa"/><path d="M113,157.69c-2.24.19-4.35.67-5.51,2.93-.18.35-.4.69-.59,1s-.38.58-.75.4-.23-.55-.07-.82a8.38,8.38,0,0,1,2.56-3.12,9.6,9.6,0,0,1,4.39-1.44c.49,0,1.24-.11,1.22.58S113.41,157.61,113,157.69Z" style="fill:#285ffa"/><path d="M61.44,163c0-1.41.64-2.2,1.43-2.18.25,0,.49.07.57.34a.38.38,0,0,1-.28.46.81.81,0,0,0-.59,1.12c.22.6.7.38,1.11.23.19-.08.43-.15.51.07a.83.83,0,0,1-.12.56,1,1,0,0,1-1.31.48C62.11,163.82,61.46,163.46,61.44,163Z" style="fill:#285ffa"/></g></g></svg>