<svg xmlns="http://www.w3.org/2000/svg" viewBox="0 0 194.01 294.26"><title>Card</title><g id="Layer_2" data-name="Layer 2"><g id="Layer_1-2" data-name="Layer 1"><path d="M0,0V294.26H194V0ZM119.92,21.08H74.09V12.86h45.83Z" style="fill:#ebebeb"/><polygon points="194.01 77.22 194.01 294.26 0 294.26 0 188.21 194.01 77.22" style="fill:#285ffa"/><polygon points="194.01 77.22 194.01 294.26 0 294.26 0 188.21 194.01 77.22" style="opacity:0.100000001490116;isolation:isolate"/><polygon points="194.01 41.68 194.01 63.31 0 174.17 0 173.46 194.01 41.68" style="fill:#285ffa"/><rect x="29.42" y="40.99" width="135.16" height="161.67" style="fill:#fff"/><rect x="75.77" y="229.44" width="41.54" height="2.29"/><path d="M71.12,216.12a4.09,4.09,0,0,1,1.55-1.51,4.26,4.26,0,0,1,2.14-.55,4.39,4.39,0,0,1,2.37.65,3.76,3.76,0,0,1,1.51,1.86H77a2.17,2.17,0,0,0-.9-1,2.7,2.7,0,0,0-1.33-.32,2.87,2.87,0,0,0-1.47.37,2.63,2.63,0,0,0-1,1.07,3.82,3.82,0,0,0,0,3.24,2.63,2.63,0,0,0,1,1.07,2.78,2.78,0,0,0,1.47.38,2.7,2.7,0,0,0,1.33-.32,2.17,2.17,0,0,0,.9-1h1.65a3.7,3.7,0,0,1-1.51,1.85,4.39,4.39,0,0,1-2.37.65,4.27,4.27,0,0,1-2.15-.55,4.13,4.13,0,0,1-1.54-1.51,4.53,4.53,0,0,1,0-4.4Z"/><path d="M80.24,217.41a3.11,3.11,0,0,1,1.13-1.2,3.06,3.06,0,0,1,1.58-.42,2.93,2.93,0,0,1,1.36.3,2.74,2.74,0,0,1,.93.77v-1h1.38v6.61H85.24v-1a2.55,2.55,0,0,1-.95.78,3,3,0,0,1-2.93-.12A3.11,3.11,0,0,1,80.24,221a3.8,3.8,0,0,1-.41-1.78A3.72,3.72,0,0,1,80.24,217.41ZM85,218a2,2,0,0,0-.74-.77,1.89,1.89,0,0,0-1-.26,2,2,0,0,0-1,.25,2.08,2.08,0,0,0-.74.76,2.45,2.45,0,0,0-.28,1.18,2.53,2.53,0,0,0,.28,1.2,2,2,0,0,0,.75.79,1.88,1.88,0,0,0,1,.27,1.9,1.9,0,0,0,1-.27,2,2,0,0,0,.74-.77,2.52,2.52,0,0,0,.28-1.19A2.46,2.46,0,0,0,85,218Z"/><path d="M90.58,216.07a2.38,2.38,0,0,1,1.19-.28v1.41h-.35a1.68,1.68,0,0,0-1.22.41,1.94,1.94,0,0,0-.41,1.42v3.48H88.42V215.9h1.37v1A2.14,2.14,0,0,1,90.58,216.07Z"/><path d="M99,219.71H94a1.8,1.8,0,0,0,.59,1.27,1.84,1.84,0,0,0,1.29.48,1.58,1.58,0,0,0,1.56-.92h1.48A3,3,0,0,1,97.82,222a3.16,3.16,0,0,1-1.95.59,3.43,3.43,0,0,1-1.7-.43A2.94,2.94,0,0,1,93,221a3.59,3.59,0,0,1-.43-1.79,3.85,3.85,0,0,1,.41-1.8,3,3,0,0,1,1.17-1.19,3.45,3.45,0,0,1,1.72-.42,3.31,3.31,0,0,1,1.67.41,2.84,2.84,0,0,1,1.14,1.14,3.48,3.48,0,0,1,.41,1.7A4.47,4.47,0,0,1,99,219.71Zm-1.38-1.1a1.55,1.55,0,0,0-.54-1.21,1.91,1.91,0,0,0-1.31-.46,1.75,1.75,0,0,0-1.21.45,1.85,1.85,0,0,0-.6,1.22Z"/><path d="M107.09,214.17v8.34h-1.37v-3.65H101.8v3.65h-1.37v-8.34h1.37v3.57h3.92v-3.57Z"/><path d="M114.88,215.9v6.61h-1.37v-.78a2.3,2.3,0,0,1-.85.64,2.57,2.57,0,0,1-1.11.23,2.88,2.88,0,0,1-1.39-.32,2.38,2.38,0,0,1-1-1,3.19,3.19,0,0,1-.35-1.54V215.9h1.36v3.68a1.89,1.89,0,0,0,.44,1.36,1.57,1.57,0,0,0,1.21.48,1.6,1.6,0,0,0,1.22-.48,1.89,1.89,0,0,0,.45-1.36V215.9Z"/><path d="M119,216.09a3,3,0,0,1,1.35-.3,3,3,0,0,1,1.58.42,2.92,2.92,0,0,1,1.12,1.19,4,4,0,0,1,0,3.55,3,3,0,0,1-1.12,1.23,3.13,3.13,0,0,1-2.94.14,2.58,2.58,0,0,1-.94-.77v1h-1.37v-8.88h1.37v3.25A2.67,2.67,0,0,1,119,216.09Zm2.78,1.9a1.93,1.93,0,0,0-.74-.76,2,2,0,0,0-1-.25,1.92,1.92,0,0,0-1,.26,2,2,0,0,0-.74.77,2.35,2.35,0,0,0-.28,1.19,2.41,2.41,0,0,0,.28,1.19,1.9,1.9,0,0,0,.74.77,1.93,1.93,0,0,0,2,0,1.89,1.89,0,0,0,.74-.79,2.42,2.42,0,0,0,.29-1.2A2.34,2.34,0,0,0,121.78,218Z"/><rect x="59" y="3.7" width="77.36" height="32.94" style="fill:#ebebeb"/><path d="M29.36,54.18H164.65V189.47H29.36Zm75,30.08h4.84v-5h-4.76v-5h4.75V69.62H99.66v9.61h4.86l-.06,5.09H99.61v5h4.77v5H99.44v4.86l.06-.06h-5v4.8h-4.9V89.21h4.81V69.58H89.54v4.93H84.77v9.84h4.85v4.93H84.68v19.77H74.92v4.88h9.76v10h4.95v9.83H84.79v9.7h4.77V133.7h4.81v15H89.71v4.92H84.82v4.82h4.81v5.08H84.77v9.63h4.92v-4.87h4.7v-9.78H89.56l.08-4.93h9.93v4.86h4.88v5h5v5H99.63v4.76h9.71v-4.82h10v4.86h14.77V153.48H144v10h-4.85v9.63h4.93v-4.88h4.69V153.54h-4.84v-5.07h4.88V143.6h-4.9v-4.74H139v9.57H134v-9.72h-4.91v-5.07H134v-4.87h-4.9v-4.89h-4.91v-4.82h-4.89v4.82h-5v-4.82h-9.77v4.82H99.51v5h-5v-10H89.55v-4.89h10v-5h9.62V89.36h-4.86C104.35,87.66,104.37,86,104.39,84.26ZM139,123.88v-4.83h-4.76v4.77h4.82v5.07h5v4.71h4.73V114H144v-4.84h-9.7v4.77H144v9.95ZM55,113.92,55,114v-4.79h-9.8V123.9h4.93v4.77H55V124h5v4.62h5v-4.87H79.55v-5H69.73v-4.89h-5v-4.78H59.88v4.79ZM45.28,69.56V104h34.3V69.56ZM79.55,173.18V138.86H45.24v34.32Zm35-103.62V104h34.3V69.56Zm-.09,44.25H129v-4.68H114.41ZM79.66,128.93H70v4.62h9.68Z" style="fill:#fff"/><path d="M45.28,69.56h34.3V104H45.28ZM50.12,99H74.61V74.6H50.12Z"/><path d="M79.55,173.18H45.24V138.86H79.55Zm-4.93-4.94V143.81H50.19v24.43Z"/><path d="M114.5,69.56h34.3V104H114.5Zm29.41,5H119.4V99h24.51Z"/><path d="M89.55,113.93v4.89h4.92v10h5l-.06-.07v5h5v5.07H99.59v4.87h14.79v4.74h5v-4.62H124v9.64H109.35v-4.69h-5v9.77l.06-.07H99.57v-4.86H89.64l.07.06v-4.93h4.66v-15H89.56l.07.06v-9.83H84.68v-10l-.07.06h5Z"/><path d="M144,153.48h-9.86v19.69H119.37v-4.86h-10l.06.06v-5l-.07.06h10v-5.09h9.84V138.65l-.06.06H134v9.72H139v-9.57h4.95v4.74h4.9v4.87h-4.88v5.07Zm-14.94,10h-4.74v4.69h4.74Z"/><path d="M55,113.92h4.93v-4.79h4.89v4.78h5v4.89h9.82v5H65v4.87H60V124H55v4.65H50.15V123.9H45.22V109.19H55V114H50.18v4.76H55Z"/><path d="M104.32,89.36h4.86V108.9H99.56v5h-10l.07.06v-5h-5l.07.07V89.28h4.94l-.07-.07v14.68h4.9v-4.8h5v4.83h4.76V99.15H99.44V94.29h4.94v-5Z"/><path d="M89.62,89.28V84.35H84.77V74.51h4.77V69.58h4.82V89.21H89.55Z"/><path d="M124.17,123.88h4.91v4.89H134v4.87h-4.87v5.07l.06-.06h-9.89v-9.89l-.06.06h5v-5Z"/><path d="M144,114h4.82v19.6H144v-4.71h-5v-5.07l-.06.06h5v-9.95Z"/><path d="M143.93,153.54h4.84v14.72h-4.69v4.88h-4.93v-9.63H144v-10Z"/><path d="M104.46,123.88v-4.82h9.77v4.82h5l-.06-.06v5l.06-.06-9.94.07v-5h-5Z"/><path d="M89.56,158.49h4.83v9.78h-4.7v4.87H84.77v-9.63h4.86v-5.08Z"/><path d="M104.53,79.23H99.66V69.62h9.56v4.71h-4.75c0,1.76,0,3.36,0,5Z"/><path d="M114.41,113.81v-4.68H129v4.68Z"/><path d="M84.68,113.93H74.92v-4.88h9.76l-.07-.07v5Z"/><path d="M144,113.93h-9.76v-4.77H144V114Z"/><path d="M89.56,133.7v9.76H84.79v-9.7h4.84Z"/><path d="M79.66,128.93v4.62H70v-4.62Z"/><path d="M109.34,168.31v4.82H99.63v-4.76h9.77Z"/><path d="M104.46,84.32l.06-5.09-.06.07h4.77v5h-4.84Z"/><path d="M104.39,84.26c0,1.7,0,3.4-.07,5.1l.06-.07H99.61v-5h4.85Z"/><path d="M139.07,123.82h-4.82v-4.77H139v4.83Z"/><path d="M119.28,123.88v-4.82h4.89v4.82l.06-.06h-5Z"/><path d="M99.51,128.83v-5h4.95l-.07-.06.06,5-5-.07Z"/><path d="M89.63,158.43H84.82v-4.82h4.89l-.07-.06c0,1.64,0,3.29-.08,4.93Z"/><path d="M109.4,163.37h-5v-5l-.06.07h4.94v4.94Z"/><path d="M50.12,99V74.6H74.61V99ZM69.64,94.1V79.47H55.12V94.1Z" style="fill:#fff"/><path d="M74.62,168.24H50.19V143.81H74.62ZM55.1,148.67v14.59H69.65V148.67Z" style="fill:#fff"/><path d="M143.91,74.58V99H119.4V74.58Zm-5,4.93H124.38V94.06h14.55Z" style="fill:#fff"/><path d="M109.33,163.43v-4.94h-4.94v-9.77h5v4.69H124v-9.64h-4.69v4.62h-5v-4.74H99.59v-4.87h4.87v-5.07l-.07.06h5v-5l-.06.07,9.94-.07v9.89h9.89v19.69h-9.84v5.09Z" style="fill:#fff"/><path d="M84.61,114v-5h5v5Z" style="fill:#fff"/><path d="M99.45,128.76l5,.07-.06-.07v5l.07-.06h-5Z" style="fill:#fff"/><path d="M129.06,163.51v4.69h-4.74v-4.69Z" style="fill:#fff"/><path d="M55,113.92v4.82H50.18V114H55Z" style="fill:#fff"/><path d="M99.44,99.15h4.82v4.77H99.5V99.09Z" style="fill:#fff"/><path d="M119.22,123.82h5v5h-5Z" style="fill:#fff"/><path d="M104.45,128.83l-.06-5h5v5l.06-.07h-5Z" style="fill:#fff"/><path d="M69.64,94.1H55.12V79.47H69.64Z"/><path d="M55.1,148.67H69.65v14.59H55.1Z"/><path d="M138.93,79.51V94.06H124.38V79.51Z"/><path d="M104.39,128.76h5v5h-5Z"/></g></g></svg>