<svg xmlns="http://www.w3.org/2000/svg" xmlns:xlink="http://www.w3.org/1999/xlink" viewBox="0 0 81.22 112.96"><defs><clipPath id="clip-path"><path d="M76.66,90,21.18,107.61,7.62,36.85l-.79-4L56.24,8.93a1.83,1.83,0,0,1,2.4,1,2.49,2.49,0,0,1,.11.29l1,4,18.55,72.7A2.53,2.53,0,0,1,76.66,90Z" style="fill:none"/></clipPath></defs><title>folder</title><g id="Layer_2" data-name="Layer 2"><g id="Layer_1-2" data-name="Layer 1"><g id="Folder"><g id="freepik--left-hand--inject-2"><path id="Path_3323" data-name="Path 3323" d="M69.56,32.58l3.37-4.16A4.15,4.15,0,0,0,73.76,25l-3.2-14.86a2.43,2.43,0,0,0-2.44-1.94H61.91a4.06,4.06,0,0,0-1.29.22L.5,33l15.22,79.1C17.87,115.35,78,94.57,78,94.57a4.09,4.09,0,0,0,2.65-4.78L68.34,38A6.29,6.29,0,0,1,69.56,32.58Z" style="fill:#285ffa;stroke:#263238;stroke-linecap:round;stroke-linejoin:round"/><path id="Path_3324" data-name="Path 3324" d="M60.76,9.94l19,81.53s-64.31,24-61.3,16.54c0,0-15.32-72.84-14-73.1S60.76,9.94,60.76,9.94Z" style="opacity:0.30000001192092896;isolation:isolate"/><path id="Path_3325" data-name="Path 3325" d="M76.66,90,21.18,107.61,7.62,36.85l-.79-4L56.24,8.93a1.83,1.83,0,0,1,2.4,1,2.49,2.49,0,0,1,.11.29l1,4,18.55,72.7A2.53,2.53,0,0,1,76.66,90Z" style="fill:#fff"/><g id="Group_1482" data-name="Group 1482"><g style="clip-path:url(#clip-path)"><g id="Group_1481" data-name="Group 1481"><path id="Path_3326" data-name="Path 3326" d="M59.8,14.17,8,37.89l-1.18-5L56.24,9a1.83,1.83,0,0,1,2.4,1c0,.1.08.19.11.29Z" style="fill:#263238"/><path id="Path_3327" data-name="Path 3327" d="M57.21,12.41a1.13,1.13,0,0,1-1,1.22h-.11a1.37,1.37,0,0,1-1.15-1.4A1.17,1.17,0,0,1,56,11h.1A1.36,1.36,0,0,1,57.21,12.41Z" style="fill:#285ffa;stroke:#263238;stroke-linecap:round;stroke-linejoin:round"/><path id="Path_3328" data-name="Path 3328" d="M54.23,13.88a1.08,1.08,0,0,1-1,1.15h-.07a1.23,1.23,0,0,1-1.08-1.29,1.1,1.1,0,0,1,1-1.15h.08A1.23,1.23,0,0,1,54.23,13.88Z" style="fill:#285ffa;stroke:#263238;stroke-linecap:round;stroke-linejoin:round"/><path id="Path_3329" data-name="Path 3329" d="M51.43,15.14a1,1,0,0,1-.9,1.08h-.1a1.21,1.21,0,0,1-1-1.22,1,1,0,0,1,.9-1.08h.11A1.18,1.18,0,0,1,51.43,15.14Z" style="fill:#285ffa;stroke:#263238;stroke-linecap:round;stroke-linejoin:round"/><path id="Path_3330" data-name="Path 3330" d="M76.66,90,21.18,107.61,7.62,36.85l-.79-4L56.24,8.93a1.83,1.83,0,0,1,2.4,1,2.49,2.49,0,0,1,.11.29l1,4,18.55,72.7A2.53,2.53,0,0,1,76.66,90Z" style="opacity:0.30000001192092896;isolation:isolate"/></g></g></g><path id="Path_3332" data-name="Path 3332" d="M76.66,90,21.18,107.61,7.62,36.85l-.79-4L56.24,8.93a1.83,1.83,0,0,1,2.4,1,2.49,2.49,0,0,1,.11.29l1,4,18.55,72.7A2.53,2.53,0,0,1,76.66,90Z" style="fill:none;stroke:#263238;stroke-linecap:round;stroke-linejoin:round"/><path id="Path_3333" data-name="Path 3333" d="M73.35,86.51,18.67,108,5.28,38.21l-.75-4L53.26,6.85a1.71,1.71,0,0,1,2.33.64h0a3.25,3.25,0,0,1,.18.43l1,3.91,18.3,71.42A2.83,2.83,0,0,1,73.35,86.51Z" style="fill:#fff;stroke:#263238;stroke-linecap:round;stroke-linejoin:round"/><path id="Path_3334" data-name="Path 3334" d="M56.86,11.85,5.64,39.22l-1.15-5L53.33,6.85a1.72,1.72,0,0,1,2.34.64h0a1.78,1.78,0,0,1,.18.43Z" style="fill:#263238"/><path id="Path_3335" data-name="Path 3335" d="M54.2,10.3A1.15,1.15,0,1,1,53.08,9,1.22,1.22,0,0,1,54.2,10.3Z" style="fill:#285ffa;stroke:#263238;stroke-linecap:round;stroke-linejoin:round"/><path id="Path_3336" data-name="Path 3336" d="M51.25,12a1.09,1.09,0,1,1-1.07-1.22A1.18,1.18,0,0,1,51.25,12Z" style="fill:#285ffa;stroke:#263238;stroke-linecap:round;stroke-linejoin:round"/><path id="Path_3337" data-name="Path 3337" d="M48.49,13.43a1,1,0,0,1-1.09.86,1,1,0,0,1-.86-1.1.11.11,0,0,1,0,0,1,1,0,0,1,1-.86A1.1,1.1,0,0,1,48.49,13.43Z" style="fill:#285ffa;stroke:#263238;stroke-linecap:round;stroke-linejoin:round"/><path id="Path_3338" data-name="Path 3338" d="M56.12,13.64,72.27,76.87a.56.56,0,0,1-.33.65l-1.47.64a.55.55,0,0,1-.72-.28.12.12,0,0,0,0-.08L54,14.94a.77.77,0,0,1,.36-.83l1.22-.68a.31.31,0,0,1,.44.09l0,.05A.08.08,0,0,1,56.12,13.64Z" style="opacity:0.30000001192092896;isolation:isolate"/><path id="Path_3339" data-name="Path 3339" d="M54.77,15.44l.9-.5a.62.62,0,0,1,.84.21.05.05,0,0,0,0,0s0,.11.07.15L58.26,22a.75.75,0,0,1-.36.82l-1.08.58a.47.47,0,0,1-.61-.18.12.12,0,0,1,0-.11l-1.69-6.83A.66.66,0,0,1,54.77,15.44Z" style="fill:#bfbfbf;stroke:#263238;stroke-linecap:round;stroke-linejoin:round"/><line id="Line_173" data-name="Line 173" x1="62.84" y1="86.03" x2="27.52" y2="100.56" style="fill:none;stroke:#000;stroke-linecap:round;stroke-linejoin:round;stroke-width:2px;opacity:0.4000000059604645;isolation:isolate"/><line id="Line_174" data-name="Line 174" x1="67.62" y1="81.61" x2="22.77" y2="100.56" style="fill:none;stroke:#000;stroke-linecap:round;stroke-linejoin:round;stroke-width:2px;opacity:0.4000000059604645;isolation:isolate"/><path id="Path_3340" data-name="Path 3340" d="M63.21,62.62,59.58,47.23,49.76,51.9l3.6,15.36Z" style="opacity:0.30000001192092896;isolation:isolate"/><path id="Path_3341" data-name="Path 3341" d="M45.78,34.83l3.42,14.6L59,44.68l-3.53-15Z" style="opacity:0.30000001192092896;isolation:isolate"/><path id="Path_3342" data-name="Path 3342" d="M55.17,28.5,52.3,16.27l-9.68,5.07,2.88,12.3Z" style="opacity:0.30000001192092896;isolation:isolate"/><path id="Path_3343" data-name="Path 3343" d="M53.71,68.73,57,82.87l9.92-4.36L63.6,64.31Z" style="opacity:0.30000001192092896;isolation:isolate"/><path id="Path_3344" data-name="Path 3344" d="M.5,33l15.25,79.11C20.64,106.54,55.53,81,55.53,81a8.34,8.34,0,0,0,3.23-8.61L42.65,3.24A3.55,3.55,0,0,0,38.4.59a3.49,3.49,0,0,0-1.54.79S4.35,21.73.5,33Z" style="fill:#285ffa;stroke:#263238;stroke-linecap:round;stroke-linejoin:round"/><g id="Group_1483" data-name="Group 1483" style="opacity:0.699999988079071"><path id="Path_3345" data-name="Path 3345" d="M55.92,74.89a1,1,0,0,1-1-.79c-.29-1.12-.54-2.27-.83-3.42a1,1,0,0,1,.66-1.28,1,1,0,0,1,1.27.66s0,0,0,0,0,.07,0,.1c.25,1.12.54,2.27.79,3.38a1,1,0,0,1-.72,1.22h0S56,74.89,55.92,74.89Z" style="fill:#fff"/></g><g id="Group_1484" data-name="Group 1484" style="opacity:0.699999988079071"><path id="Path_3346" data-name="Path 3346" d="M54,65.9a1,1,0,0,1-1-.79L39,3.65s0-.08-.07-.11a.08.08,0,0,0-.1,0s0,0,0,0C35.17,6,23,14.08,17.37,18.61A76.13,76.13,0,0,0,6.72,29.72a1,1,0,0,1-1.58-1.29A74.68,74.68,0,0,1,16.11,17C21.68,12.53,33.05,4.9,37.65,1.81a2.15,2.15,0,0,1,3,.57h0a2.27,2.27,0,0,1,.32.75L55,64.61a1,1,0,0,1-.76,1.22h0A.34.34,0,0,1,54,65.9Z" style="fill:#fff"/></g></g></g></g></g></svg>