<svg xmlns="http://www.w3.org/2000/svg" viewBox="0 0 232.17 409.59"><title>mobileAsset 1</title><g id="Layer_2" data-name="Layer 2"><g id="Layer_1-2" data-name="Layer 1"><path d="M20.14,409.59c-6.38-2.21-12.24-5.18-16-11.15a26.64,26.64,0,0,1-4-14.78c.08-17.2,0-34.4,0-51.6Q.09,179.47,0,26.88C0,12.78,8.83,2.92,19.39.57A30.73,30.73,0,0,1,26.14,0q90,0,180,0c15.64,0,26,10.33,26,26.06q0,178.59,0,357.19c0,13.22-6,21.37-18.65,25.57a7.68,7.68,0,0,0-1.37.76ZM13.73,191.18q0,65.77-.09,131.55c0,3.74.74,4.9,4.72,4.89q97.77-.21,195.53,0c3.93,0,4.76-1.07,4.75-4.86q-.16-131.76,0-263.51c0-3.5-.69-4.71-4.51-4.7q-98,.2-195.93,0c-3.76,0-4.55,1.11-4.54,4.67Q13.83,125.2,13.73,191.18ZM116.12,341.47c-32.78,0-65.56.06-98.33-.08-3.37,0-4.2.9-4.15,4.2.21,12.39.06,24.78.09,37.17,0,8.9,4.32,13.19,13.29,13.19q89.15,0,178.28,0c8.95,0,13.23-4.3,13.25-13.23,0-12.39-.12-24.78.09-37.17.06-3.36-.88-4.17-4.19-4.15C181.68,341.52,148.9,341.47,116.12,341.47ZM115.8,40.84q49.41,0,98.8.07c3,0,4.36-.56,4-3.88a85.84,85.84,0,0,1-.07-8.79c0-10.79-3.85-14.62-14.68-14.62H28.28c-1.06,0-2.13,0-3.2,0C18.33,14.05,14,18.4,13.76,25.17c-.13,3.86.2,7.75-.11,11.59-.27,3.37.84,4.18,4.16,4.16C50.48,40.79,83.14,40.84,115.8,40.84Z"/><path d="M116.94,348c3.74.24,8.15-.45,12.48.74,9.91,2.74,14.78,10.89,13.88,23.41a18.37,18.37,0,0,1-16.57,16.65,97.88,97.88,0,0,1-21.91-.07A18.38,18.38,0,0,1,89,371.86c-.95-16,6.49-23.81,22.55-23.82Zm-.89,27.24c2.79,0,5.57.07,8.35,0,3.61-.1,5.13-2.3,5.36-5.65.31-4.57-1-7.13-4.61-7.48a83,83,0,0,0-18.24.05c-4.16.5-4.52,3.87-4.38,7.25s1.55,5.65,5.17,5.81C110.48,375.38,113.27,375.28,116.05,375.28Z"/><path d="M116.18,34.27q-16.17,0-32.33,0c-3.42,0-6.38-.88-8-4.14A6.67,6.67,0,0,1,80,20.87a16.61,16.61,0,0,1,4.33-.52q31.74,0,63.46,0c5.6,0,8.54,2,9.08,5.83.68,4.89-2.51,8-8.41,8.08C137.73,34.32,127,34.27,116.18,34.27Z"/><path d="M194.39,34.27c-.53,0-1.07,0-1.6,0-5.07-.16-8.25-2.69-8.44-6.73s3.09-7,8.35-7.19a32.45,32.45,0,0,1,5.58.17c4.07.54,6.57,3.19,6.6,6.73s-2.74,6.47-6.9,7a33,33,0,0,1-3.59,0Z"/></g></g></svg>