<svg xmlns="http://www.w3.org/2000/svg" viewBox="0 0 318.4 360.8"><title>no dates</title><g id="Layer_2" data-name="Layer 2"><g id="Layer_1-2" data-name="Layer 1"><g id="freepik--Clock--inject-26"><rect x="153.29" y="26.13" width="19.3" height="30.1" style="fill:#263238"/><path d="M182.89,35.13h-39.8V2.63c13.9-3.4,27.2-3.6,39.8,0Z" style="fill:#285ffa"/><path d="M183.39,2.83a10.09,10.09,0,0,1-1.5.7c-1.3.6-2.7,1.1-4.1,1.6a36.06,36.06,0,0,1-6.5,1.5,55.36,55.36,0,0,1-8.1.7,55.2,55.2,0,0,1-8.1-.6,38.13,38.13,0,0,1-6.5-1.5,35.23,35.23,0,0,1-4.2-1.5,10.09,10.09,0,0,1-1.5-.7c0-.1,2.2.8,5.8,1.8a48.41,48.41,0,0,0,6.4,1.3,53.72,53.72,0,0,0,8,.5,52.87,52.87,0,0,0,8-.6,45.56,45.56,0,0,0,6.4-1.4C181.19,3.63,183.39,2.73,183.39,2.83Z" style="fill:#263238"/><path d="M156.29,35.13c-.2,0-.3-6.2-.3-13.9s.1-13.9.3-13.9.3,6.2.3,13.9S156.49,35.13,156.29,35.13Z" style="fill:#263238"/><path d="M163.89,35.23c-.2,0-.3-6.3-.3-14s.1-14,.3-14,.3,6.3.3,14S164.09,35.23,163.89,35.23Z" style="fill:#263238"/><path d="M171.39,35.13c-.2,0-.3-6.3-.3-14s.1-14,.3-14,.3,6.3.3,14S171.59,35.13,171.39,35.13Z" style="fill:#263238"/><path d="M177.69,35.13c-.2,0-.3-6.8-.3-15.1s.1-15.1.3-15.1.3,6.8.3,15.1S177.89,35.13,177.69,35.13Z" style="fill:#263238"/><path d="M149.09,34.93c-.2,0-.3-6.8-.3-15.1s.1-15.1.3-15.1.3,6.8.3,15.1S149.29,34.93,149.09,34.93Z" style="fill:#263238"/><rect x="259.02" y="70.49" width="21.8" height="14" transform="translate(21.23 207.95) rotate(-43.7)" style="fill:#263238"/><path d="M283,84.93l-19.8-20.8,17-16.2c8.8,5.6,15.5,12.4,19.9,20.8Z" style="fill:#285ffa"/><path d="M266.49,67.63c-.1-.1,3.7-4,8.6-8.7s8.9-8.4,9-8.3-3.7,4-8.6,8.7S266.59,67.73,266.49,67.63Z" style="fill:#263238"/><path d="M270.29,71.63a31.89,31.89,0,0,1,2.6-2.6c1.6-1.6,3.9-3.7,6.5-6l6.6-5.9,2-1.8c.5-.4.7-.6.7-.6.2.2-3.8,4.1-8.9,8.8-2.5,2.3-4.9,4.4-6.6,5.9C272.19,70.13,271.29,70.93,270.29,71.63Z" style="fill:#263238"/><path d="M275.29,76.83a31.89,31.89,0,0,1,2.6-2.6c1.7-1.6,4-3.7,6.6-6.1l6.7-6,2-1.8a5.55,5.55,0,0,1,.8-.6,16,16,0,0,1-2.5,2.7c-1.6,1.6-4,3.7-6.6,6.1s-5,4.4-6.7,5.9A21.72,21.72,0,0,1,275.29,76.83Z" style="fill:#263238"/><path d="M280,81.63c-.1-.1,3.8-4,8.7-8.7s9-8.4,9.1-8.2-3.8,4-8.7,8.7S280.09,81.83,280,81.63Z" style="fill:#263238"/><rect x="34.18" y="75.41" width="14" height="21.8" transform="translate(-46.8 48.84) rotate(-41.43)" style="fill:#263238"/><path d="M49.09,73.53l-21.6,19L12,74.93c5.9-8.5,13-15,21.6-19Z" style="fill:#285ffa"/><path d="M31.19,89.33c-.1.1-3.9-3.9-8.4-8.9s-8-9.2-7.9-9.3,3.9,3.9,8.4,8.9S31.29,89.23,31.19,89.33Z" style="fill:#263238"/><path d="M35.29,85.73a21.6,21.6,0,0,1-2.5-2.7c-1.5-1.7-3.5-4.1-5.8-6.7l-5.7-6.8-1.8-2.1c-.4-.5-.6-.7-.6-.8.2-.2,4,4,8.4,9.3,2.2,2.7,4.2,5.1,5.6,6.8A16.63,16.63,0,0,1,35.29,85.73Z" style="fill:#263238"/><path d="M40.69,80.83a16,16,0,0,1-2.5-2.7c-1.5-1.7-3.6-4.1-5.8-6.8l-5.7-6.9L25,62.33a5.55,5.55,0,0,1-.6-.8,16.61,16.61,0,0,1,2.6,2.7c1.5,1.7,3.6,4.1,5.8,6.8s4.2,5.1,5.7,6.9A20.14,20.14,0,0,1,40.69,80.83Z" style="fill:#263238"/><path d="M45.69,76.33c-.1.1-3.9-4-8.3-9s-8-9.3-7.9-9.4,3.8,3.9,8.3,9S45.89,76.23,45.69,76.33Z" style="fill:#263238"/><circle cx="159.2" cy="201.6" r="159.2" transform="translate(-95.93 171.62) rotate(-45)" style="fill:#285ffa"/><circle cx="159.2" cy="201.6" r="146.3" transform="translate(-95.93 171.62) rotate(-45)" style="fill:#fff"/><path d="M159.19,348.43c-80.9,0-146.8-65.9-146.8-146.8s65.8-146.8,146.8-146.8A146.9,146.9,0,0,1,306,201.63C306,282.63,240.09,348.43,159.19,348.43Zm0-292.6c-80.4,0-145.8,65.4-145.8,145.8s65.4,145.8,145.8,145.8S305,282,305,201.63s-65.4-145.8-145.8-145.8Z" style="fill:#263238"/><polygon points="148.79 204.23 82.99 153.13 159.99 188.63 162.29 202.13 148.79 204.23" style="fill:#285ffa"/><g style="opacity:0.4000000059604645"><polygon points="82.99 153.13 151.69 193.53 159.99 188.63 82.99 153.13"/></g><circle cx="162.29" cy="202.43" r="13.7" transform="translate(-63.52 330.19) rotate(-80.78)" style="fill:#fafafa"/><path d="M162.29,188.63a19.09,19.09,0,0,0-3.3.6,13.58,13.58,0,0,0-9.9,10.7,13.89,13.89,0,0,0,.6,7,11.12,11.12,0,0,0,1.8,3.4,12.4,12.4,0,0,0,2.8,2.8,13.2,13.2,0,0,0,15.8,0,12.85,12.85,0,0,0,2.9-2.8,11.12,11.12,0,0,0,1.8-3.4,13.89,13.89,0,0,0,.6-7,13.3,13.3,0,0,0-2.5-5.7,13.68,13.68,0,0,0-7.4-5c-1-.2-2.1-.4-3.2-.6a9.82,9.82,0,0,1,3.4.3,14,14,0,0,1,10.4,10.8,13.35,13.35,0,0,1-.6,7.4,13.16,13.16,0,0,1-4.9,6.5,14.11,14.11,0,0,1-16.6,0,10.71,10.71,0,0,1-3-3,14.32,14.32,0,0,1-2.5-11,13.75,13.75,0,0,1,10.3-10.8A21.14,21.14,0,0,1,162.29,188.63Z" style="fill:#263238"/><path d="M162.29,192.13a10.2,10.2,0,1,1-10.2,10.2h0A10.31,10.31,0,0,1,162.29,192.13Z" style="fill:#263238"/><path d="M161.69,198.33s-2.8-88.2,1.3-106.8C162.89,91.63,169.79,145,161.69,198.33Z" style="fill:#263238"/><path d="M153.69,336.83h-.2l.4-11h.3Zm54.9-8.9-4.1-10.2.3-.1,4,10.3Zm-108.9-5.3-.2-.1,4.9-9.9.3.1Zm155.5-25.2-7.8-7.7.2-.2,7.8,7.8Zm-199-9.6-.2-.2,8.5-7,.1.2Zm229.3-37.3-10.3-3.8.1-.3,10.3,4Zm-254.9-12.3-.1-.3,10.6-2.8v.2ZM283,195.93v-.2l11-.7v.3Zm0-.2v-.3l11-.7v.3Zm-244.8-11.5-10.9-1.6v-.3l10.9,1.7Zm231.3-37.9-.1-.2,9.8-5.1.1.2Zm-213.2-10-9.3-6,.1-.2,9.3,5.9Zm180.8-29.6-.2-.1,6.9-8.6.2.2Zm-144.8-6.9-6-9.2.2-.1,6.1,9.2Zm99.1-16.2-.2-.1,2.8-10.7.3.1ZM140,81.23l-1.8-10.9h.2l1.8,10.9Z" style="fill:#263238"/></g></g></g></svg>