<svg xmlns="http://www.w3.org/2000/svg" viewBox="0 0 613.6 406.43"><title>time</title><g id="Layer_2" data-name="Layer 2"><g id="Layer_1-2" data-name="Layer 1"><g id="freepik--background-simple--inject-40"><path d="M590.3,108.83c-12.4-46.3-49.2-84.8-94.1-97.1s-96,2.5-127.8,37.8c-15.5,17.3-26.6,39-45.1,52.7-22.5,16.7-52.1,18.7-79.7,16.9s-55.4-6.6-82.6-1.4c-43.6,8.4-81,44.8-92,89.2s5.2,94.6,39.6,123.2l38.1,31.5c34.9,25.4,167.2,35.9,249.5,29.7,58.3-4.4,98.1-26.8,133.2-61.7,27.2-27,43.3-63.9,54-101.2C594.7,189.63,600.8,147.73,590.3,108.83Z" style="fill:#f5f5f5"/></g><g id="freepik--Floor--inject-40"><path d="M613.6,401.13c0,.1-137.4.3-306.8.3S0,401.33,0,401.13s137.4-.3,306.9-.3S613.6,401,613.6,401.13Z" style="fill:#263238"/></g><g id="freepik--Stopwatch--inject-40"><rect x="421.28" y="54.83" width="12.5" height="19.5" transform="translate(60.65 293.38) rotate(-40.54)" style="fill:#263238"/><path d="M434.2,52l-19.6,16.8-13.7-16c5.4-7.6,11.8-13.3,19.5-16.8Z" style="fill:#455a64"/><path d="M417.9,66c-.1.1-3.4-3.5-7.4-8.1s-7.1-8.3-7-8.4,3.4,3.5,7.4,8.1S418,65.93,417.9,66Z" style="fill:#263238"/><path d="M421.6,62.83a26.22,26.22,0,0,1-2.2-2.5c-1.3-1.6-3.1-3.7-5.1-6.1l-5-6.2-1.5-1.9a4.89,4.89,0,0,1-.5-.7c.2-.2,3.5,3.6,7.5,8.4,2,2.4,3.7,4.6,5,6.2A26.75,26.75,0,0,1,421.6,62.83Z" style="fill:#263238"/><path d="M426.6,58.53a26.22,26.22,0,0,1-2.2-2.5c-1.3-1.6-3.1-3.8-5.1-6.2l-5-6.3-1.5-1.9a3,3,0,0,1-.5-.7,13.08,13.08,0,0,1,2.3,2.4c1.4,1.6,3.2,3.7,5.1,6.2s3.7,4.7,5,6.3A18.48,18.48,0,0,1,426.6,58.53Z" style="fill:#263238"/><path d="M431.1,54.53c-.1.1-3.4-3.6-7.4-8.2s-7-8.4-6.9-8.6,3.4,3.6,7.3,8.2S431.2,54.43,431.1,54.53Z" style="fill:#263238"/><rect x="572.41" y="59.2" width="19.5" height="12.5" transform="translate(116.05 420.33) rotate(-43.7)" style="fill:#263238"/><path d="M593.9,72.13l-17.8-18.7,15.2-14.6c7.8,5,13.9,11.1,17.8,18.7Z" style="fill:#455a64"/><path d="M579.1,56.63a102.9,102.9,0,0,1,7.7-7.8c4.4-4.2,8-7.5,8.1-7.4a102.9,102.9,0,0,1-7.7,7.8C582.8,53.43,579.2,56.73,579.1,56.63Z" style="fill:#263238"/><path d="M582.5,60.23a25,25,0,0,1,2.3-2.3c1.5-1.4,3.5-3.3,5.8-5.4l5.9-5.3,1.8-1.6c.4-.4.6-.6.7-.6.2.2-3.4,3.7-8,7.9-2.3,2.1-4.4,4-5.9,5.3C584.3,58.93,583.4,59.53,582.5,60.23Z" style="fill:#263238"/><path d="M587,64.93c.7-.8,1.5-1.6,2.3-2.4,1.5-1.4,3.6-3.3,5.9-5.4l6-5.3,1.8-1.6c.2-.2.5-.4.7-.6a13.08,13.08,0,0,1-2.3,2.4c-1.5,1.4-3.6,3.4-5.9,5.5s-4.5,4-6,5.3A12.66,12.66,0,0,1,587,64.93Z" style="fill:#263238"/><path d="M591.2,69.23c-.1-.1,3.4-3.6,7.8-7.8a108.45,108.45,0,0,1,8.2-7.4c.1.1-3.4,3.6-7.8,7.8A108.45,108.45,0,0,1,591.2,69.23Z" style="fill:#263238"/><rect x="498.9" y="20.03" width="14.8" height="23.1" style="fill:#263238"/><path d="M521.6,26.93H491.1V2c10.7-2.6,20.9-2.8,30.5,0Z" style="fill:#285ffa"/><path d="M522,2.13c-.4.2-.7.4-1.1.6a17.55,17.55,0,0,1-3.2,1.2,40.5,40.5,0,0,1-5,1.2,43.18,43.18,0,0,1-6.2.5,42.05,42.05,0,0,1-6.2-.5,40.33,40.33,0,0,1-5-1.1,17.55,17.55,0,0,1-3.2-1.2,3.7,3.7,0,0,1-1.1-.5c0-.1,1.7.6,4.5,1.3a42.58,42.58,0,0,0,4.9,1,41.67,41.67,0,0,0,6.1.4,40.71,40.71,0,0,0,6.1-.5,38.64,38.64,0,0,0,4.9-1C520.3,2.73,521.9,2,522,2.13Z" style="fill:#263238"/><path d="M501.2,26.93c-.1,0-.3-4.8-.3-10.7s.1-10.7.3-10.7.3,4.8.3,10.7S501.3,26.93,501.2,26.93Z" style="fill:#263238"/><path d="M507,27c-.1,0-.3-4.8-.3-10.7s.1-10.7.3-10.7.3,4.8.3,10.7S507.1,27,507,27Z" style="fill:#263238"/><path d="M512.8,26.93c-.1,0-.3-4.8-.3-10.7s.1-10.7.3-10.7.3,4.8.3,10.7S512.9,26.93,512.8,26.93Z" style="fill:#263238"/><path d="M517.6,26.93c-.2,0-.3-5.2-.3-11.6s.1-11.6.3-11.6.3,5.2.3,11.6S517.8,26.93,517.6,26.93Z" style="fill:#263238"/><path d="M495.7,26.83c-.1,0-.3-5.2-.3-11.6s.1-11.6.3-11.6.3,5.2.3,11.6S495.8,26.83,495.7,26.83Z" style="fill:#263238"/><circle cx="504.47" cy="143.82" r="107.8" style="fill:#285ffa"/><circle cx="504.5" cy="143.03" r="90.6" style="fill:#fafafa"/><path d="M595,143s0-.5-.1-1.5,0-2.4-.2-4.3a91.62,91.62,0,0,0-6.3-27.7,93.8,93.8,0,0,0-6.3-12.7,92.62,92.62,0,0,0-23-25.7,90.63,90.63,0,0,0-38-16.9,91.69,91.69,0,0,0-35.4.4A103.67,103.67,0,0,0,473.6,58a90.69,90.69,0,0,0-49.4,43.4c-1.1,2.1-2.1,4.2-3,6.4s-1.8,4.4-2.5,6.7a84.06,84.06,0,0,0-3.4,14,88.65,88.65,0,0,0-1.2,14.5,87.75,87.75,0,0,0,1.2,14.5,95.25,95.25,0,0,0,3.4,14c.7,2.3,1.6,4.5,2.5,6.7s1.9,4.3,3,6.4a87.08,87.08,0,0,0,7.4,11.9,90.62,90.62,0,0,0,42,31.5,87.46,87.46,0,0,0,24.2,5.2,86.74,86.74,0,0,0,23.3-1.3,90.08,90.08,0,0,0,38-16.9,91.24,91.24,0,0,0,23-25.7,100,100,0,0,0,6.3-12.7,87.9,87.9,0,0,0,6.3-27.7c.2-1.9.1-3.3.2-4.3s.1-1.6.1-1.6v1.5c0,1,0,2.4-.1,4.3a86.27,86.27,0,0,1-6.2,27.8,80,80,0,0,1-6.3,12.8,91.64,91.64,0,0,1-23,25.8,89.8,89.8,0,0,1-38.2,17,87.48,87.48,0,0,1-23.4,1.3,99.46,99.46,0,0,1-12.2-1.7,89,89,0,0,1-12.2-3.5,91.17,91.17,0,0,1-42.3-31.7,87.08,87.08,0,0,1-7.4-11.9c-1.1-2.1-2.1-4.3-3.1-6.4a48.63,48.63,0,0,1-2.5-6.7,96.83,96.83,0,0,1-3.5-14.1,89.42,89.42,0,0,1,0-29.2,84.33,84.33,0,0,1,3.5-14c.7-2.3,1.6-4.5,2.5-6.7s1.9-4.3,3-6.4a90.82,90.82,0,0,1,49.6-43.5,104.18,104.18,0,0,1,12.1-3.5,99.46,99.46,0,0,1,12.2-1.7,91.8,91.8,0,0,1,23.4,1.3,89.8,89.8,0,0,1,38.2,17,93,93,0,0,1,23,25.8,89.15,89.15,0,0,1,12.5,40.6,33.63,33.63,0,0,1,.1,4.3A3.12,3.12,0,0,0,595,143Z" style="fill:#263238"/><path d="M581.8,139.73c-2.9.1-5.2,0-5.2-.3s2.3-.6,5.2-.8,5.2-.1,5.2.2S584.6,139.63,581.8,139.73Z" style="fill:#263238"/><path d="M579.8,160.53c-2.8-.7-5-1.4-5-1.6s2.4.1,5.2.7,5,1.4,5,1.6S582.6,161.23,579.8,160.53Z" style="fill:#263238"/><path d="M572.4,180.13c-2.5-1.4-4.5-2.7-4.3-2.9s2.3.7,4.8,2,4.5,2.7,4.3,2.9S574.9,181.53,572.4,180.13Z" style="fill:#263238"/><path d="M559.9,196.93c-2.1-2-3.6-3.8-3.4-4s2,1.3,4.1,3.3,3.6,3.8,3.4,4S561.9,198.93,559.9,196.93Z" style="fill:#263238"/><path d="M543.4,209.83c-1.4-2.5-2.4-4.6-2.2-4.7s1.6,1.8,3.1,4.2,2.5,4.6,2.2,4.7S544.9,212.33,543.4,209.83Z" style="fill:#263238"/><path d="M524.1,217.83c-.7-2.8-1.1-5.1-.9-5.2s1.1,2.1,1.8,4.9,1.2,5.1.9,5.2S524.8,220.63,524.1,217.83Z" style="fill:#263238"/><path d="M503.3,220.33c0-2.9.3-5.2.5-5.2s.5,2.3.5,5.2-.3,5.2-.5,5.2S503.2,223.23,503.3,220.33Z" style="fill:#263238"/><path d="M482.6,217.23c.8-2.8,1.7-4.9,1.9-4.9s-.2,2.4-1,5.1-1.6,5-1.9,4.9S481.7,219.93,482.6,217.23Z" style="fill:#263238"/><path d="M463.5,208.63c1.5-2.4,2.9-4.3,3.2-4.2s-.8,2.2-2.3,4.7-2.9,4.3-3.2,4.2S461.9,211,463.5,208.63Z" style="fill:#263238"/><path d="M447.4,195.23c2.1-1.9,4-3.4,4.2-3.2s-1.4,1.9-3.5,3.9-4,3.4-4.2,3.2S445.3,197.13,447.4,195.23Z" style="fill:#263238"/><path d="M435.5,177.93c2.6-1.3,4.8-2.2,4.9-1.9s-1.9,1.5-4.4,2.8-4.7,2.2-4.9,1.9S432.9,179.23,435.5,177.93Z" style="fill:#263238"/><path d="M428.6,158.23c2.8-.6,5.2-.8,5.2-.6s-2.2.9-5,1.5-5.1.9-5.2.6S425.8,158.73,428.6,158.23Z" style="fill:#263238"/><path d="M427.3,137.33c2.9.2,5.2.6,5.2.8s-2.4.3-5.2.1-5.2-.5-5.2-.8S424.5,137,427.3,137.33Z" style="fill:#263238"/><path d="M431.7,116.83c2.7,1,4.8,2,4.8,2.2s-2.4-.3-5.1-1.3-4.8-1.9-4.8-2.2S429,115.83,431.7,116.83Z" style="fill:#263238"/><path d="M441.4,98.23c2.3,1.7,4.1,3.2,4,3.4s-2.2-.9-4.5-2.6-4.1-3.1-4-3.4S439,96.53,441.4,98.23Z" style="fill:#263238"/><path d="M455.7,82.93c1.8,2.2,3.1,4.2,2.9,4.3s-1.9-1.5-3.7-3.7-3.2-4.1-2.9-4.3S453.9,80.73,455.7,82.93Z" style="fill:#263238"/><path d="M473.6,72c1.1,2.6,1.9,4.9,1.7,5s-1.4-1.9-2.6-4.6-1.9-4.8-1.7-5S472.4,69.43,473.6,72Z" style="fill:#263238"/><path d="M493.7,66.43c.4,2.8.5,5.2.3,5.2s-.8-2.2-1.2-5.1-.5-5.2-.3-5.2S493.4,63.53,493.7,66.43Z" style="fill:#263238"/><path d="M514.7,66.33c-.4,2.8-.9,5.1-1.1,5.1s-.2-2.4.2-5.2.8-5.2,1.1-5.1S515.1,63.43,514.7,66.33Z" style="fill:#263238"/><path d="M534.9,71.83c-1.1,2.6-2.2,4.7-2.5,4.6s.5-2.3,1.6-5,2.2-4.7,2.5-4.6S536,69.23,534.9,71.83Z" style="fill:#263238"/><path d="M552.8,82.63c-1.8,2.3-3.4,3.9-3.6,3.8s1.1-2.1,2.8-4.4,3.4-4,3.6-3.8S554.6,80.43,552.8,82.63Z" style="fill:#263238"/><path d="M567.3,97.83c-2.3,1.7-4.3,2.9-4.5,2.7s1.6-1.8,3.9-3.5,4.3-2.9,4.5-2.7S569.6,96.13,567.3,97.83Z" style="fill:#263238"/><path d="M577.1,116.33c-2.7,1-5,1.6-5.1,1.4s2-1.3,4.7-2.3,4.9-1.6,5-1.4S579.8,115.33,577.1,116.33Z" style="fill:#263238"/><path d="M581.6,136.73c-2.9.2-5.2.2-5.2,0s2.3-.7,5.1-1,5.2-.3,5.2.1S584.4,136.53,581.6,136.73Z" style="fill:#263238"/><path d="M469.3,45l-.3.1-.9.4c-.8.3-2,.8-3.5,1.4a97.49,97.49,0,0,0-12.5,6.3c-2.6,1.5-5.3,3.3-8.1,5.2a84.5,84.5,0,0,0-8.7,6.9,102.53,102.53,0,0,0-28.4,41.5,105.8,105.8,0,0,0-3.3,10.6,79.67,79.67,0,0,0-1.9,9.5,108.86,108.86,0,0,0-1.3,13.9c-.1,1.7,0,2.9,0,3.8v0c0-.9-.1-2.1-.1-3.8a93.29,93.29,0,0,1,1.1-14c.4-2.9,1.1-6.1,1.9-9.5a93.16,93.16,0,0,1,3.3-10.6,103.3,103.3,0,0,1,37.2-48.6,78.61,78.61,0,0,1,8.2-5.2,104.27,104.27,0,0,1,12.6-6.1c1.5-.6,2.8-1,3.6-1.3l.9-.3C469.2,45.13,469.2,45,469.3,45Z" style="fill:#fff"/><path d="M499.4,39.23a16.45,16.45,0,0,1-3.1.4c-1.9.2-4.6.5-7.5.9s-5.6.8-7.5,1.1c-1,.2-2.1.3-3.1.4a28.06,28.06,0,0,1,3.1-.8c1.9-.4,4.6-.8,7.5-1.2s5.6-.6,7.6-.7A10,10,0,0,1,499.4,39.23Z" style="fill:#fff"/><g style="opacity:0.4000000059604645"><path d="M432.1,197.43s46.9,74.1,119.7,36.1c76-39.6,34-130.4,34-130.4s35.8,72.3-38.3,119.5c-18.5,11.8-38.5,11.8-53.9,10.2C454.5,229,432.1,197.43,432.1,197.43Z"/></g><path d="M529.7,94.83a310.79,310.79,0,0,1-1.2,39.8c-.5,4.8-1,9.6-2.8,14.1s-5,8.5-9.4,10.4-10.1,1.1-13.2-2.6Z" style="fill:#e0e0e0"/><polygon points="502.5 135.83 535.4 80.43 515.6 143.03 505.4 146.03 502.5 135.83" style="fill:#285ffa"/><g style="opacity:0.4000000059604645"><polygon points="535.4 80.43 511 137.03 515.6 143.03 535.4 80.43"/></g><circle cx="505.4" cy="146.03" r="10.6" style="fill:#fafafa"/><path d="M516,146a23.36,23.36,0,0,0-.4-2.6,10.35,10.35,0,0,0-3.9-5.7,10.15,10.15,0,0,0-9.8-1.4,9.39,9.39,0,0,0-2.6,1.4,11.46,11.46,0,0,0-2.2,2.2,10.2,10.2,0,0,0,0,12.2,10.74,10.74,0,0,0,4.8,3.6,10.45,10.45,0,0,0,13.4-6.2c.1-.3.2-.6.3-1a18.66,18.66,0,0,0,.4-2.5,7.44,7.44,0,0,1-.2,2.6,10.41,10.41,0,0,1-3.8,6,12.38,12.38,0,0,1-4.5,2.1,11,11,0,0,1-5.7-.4,8.48,8.48,0,0,1-2.8-1.5,8.39,8.39,0,0,1-2.3-2.3,10.8,10.8,0,0,1,0-12.8,8.39,8.39,0,0,1,2.3-2.3,12.47,12.47,0,0,1,2.8-1.5,10.06,10.06,0,0,1,5.7-.4,10.76,10.76,0,0,1,8.4,8A10.27,10.27,0,0,1,516,146Z" style="fill:#263238"/><circle cx="505.4" cy="146.03" r="7.9" style="fill:#455a64"/></g><g id="freepik--Calendar--inject-40"><polygon points="421.9 400.23 474 400.23 449.7 190.83 421.9 400.23" style="fill:#e0e0e0"/><polygon points="165.6 190.83 131.6 402.73 421.1 406.43 449.7 190.83 165.6 190.83" style="fill:#fafafa"/><polygon points="436.8 287.93 150 287.93 156.3 248.93 442 248.93 436.8 287.93" style="fill:#ebebeb"/><path d="M436.9,287.93H150l6.3-39H442.1Zm-286.8,0H436.9l5.2-39H156.3Z" style="fill:#263238"/><polygon points="165.6 190.83 156.3 248.93 442 248.93 449.7 190.83 165.6 190.83" style="fill:#285ffa"/><path d="M165.6,190.83l284.2-.2h.3v.3c-8.4,63.1-17.9,134.7-27.9,210.3v.2h-3.6l-286.7-.1h-.3V401l34-210.2c-.3,1.7-13.2,83-33.5,210.3l-.2-.3h290l-.3.2c10-75.6,19.6-147.1,28-210.3l.2.3Z" style="fill:#263238"/><path d="M442,248.93c0,.1-64,.3-142.9.3s-142.9-.1-142.9-.3,64-.3,142.9-.3S442,248.73,442,248.93Z" style="fill:#263238"/><path d="M436.8,287.93c0,.1-64.3.3-143.7.3s-143.7-.1-143.7-.3,64.3-.3,143.7-.3S436.8,287.73,436.8,287.93Z" style="fill:#263238"/><path d="M431,323.83c0,.1-64.3.3-143.7.3s-143.7-.2-143.7-.3,64.3-.3,143.7-.3S431,323.63,431,323.83Z" style="fill:#263238"/><path d="M425.2,359.73c0,.1-64.3.3-143.7.3s-143.7-.1-143.7-.3,64.3-.3,143.7-.3S425.2,359.53,425.2,359.73Z" style="fill:#263238"/><path d="M172.3,401.43c-.1,0,5.1-34.2,11.7-76.3s12.1-76.3,12.2-76.2-5.1,34.2-11.7,76.3S172.4,401.53,172.3,401.43Z" style="fill:#263238"/><path d="M216.5,401.43c-.1,0,5.1-34.2,11.7-76.3s12.1-76.3,12.3-76.2-5.1,34.2-11.7,76.3S216.6,401.53,216.5,401.43Z" style="fill:#263238"/><path d="M257.6,399.93c-.1,0,5.1-33.9,11.6-75.5s12-75.5,12.1-75.5-5.1,33.8-11.6,75.6S257.7,399.93,257.6,399.93Z" style="fill:#263238"/><path d="M298.2,401.13c-.1,0,5.1-34.1,11.7-76.2s12.1-76.1,12.2-76.1-5.1,34.1-11.7,76.2S298.4,401.13,298.2,401.13Z" style="fill:#263238"/><path d="M339.1,401.13c-.1,0,5.1-34.1,11.7-76.2s12.1-76.1,12.2-76.1-5.1,34.1-11.7,76.2S339.2,401.13,339.1,401.13Z" style="fill:#263238"/><path d="M379.9,401.33c-.1,0,5.1-34.2,11.7-76.3s12.1-76.2,12.2-76.2-5.1,34.2-11.7,76.3S380.1,401.43,379.9,401.33Z" style="fill:#263238"/><g style="opacity:0.20000000298023224"><path d="M354.2,251.63c4.9-2.2,8-7.3,9.3-12.5s1.1-10.7,1.3-16.1.8-10.9,3.6-15.6c1.6-2.7,3.9-5,5.7-7.6s3.1-5.8,2.5-9l-30.8.2Z"/></g><path d="M235,300s.1-.3.3-.8a11.25,11.25,0,0,1,1.2-2.1,14.54,14.54,0,0,1,7.4-5.5,15.16,15.16,0,0,1,6.7-.9,17.24,17.24,0,0,1,7.6,2.6,19.25,19.25,0,0,1,6.5,6.5,16.48,16.48,0,0,1,2.7,9.9,11.06,11.06,0,0,1-1.7,5.3,14.92,14.92,0,0,1-4.1,4.2,19.23,19.23,0,0,1-11.9,3.1,19.83,19.83,0,0,1-6.4-1.4,15.08,15.08,0,0,1-5.6-3.8,13.16,13.16,0,0,1-1.9-2.9,13.31,13.31,0,0,1-1-3.4,17,17,0,0,1,.6-7.1,19.6,19.6,0,0,1,9.3-11.3,17.19,17.19,0,0,1,15-.7,15.18,15.18,0,0,1,8,20.4,11.65,11.65,0,0,1-2.4,3.4,16.44,16.44,0,0,1-3.3,2.6,20.14,20.14,0,0,1-16.1,1.5,18.8,18.8,0,0,1-7-4,12.64,12.64,0,0,1-3.9-6.9,11.44,11.44,0,0,1,1-7.7,9.13,9.13,0,0,1,2.5-3,11.12,11.12,0,0,1,3.4-1.8,20.7,20.7,0,0,1,7.4-1,29.88,29.88,0,0,1,7.3,1,15.5,15.5,0,0,1,6.3,3.4,11.58,11.58,0,0,1,3.4,6.1,13.14,13.14,0,0,1-.4,6.8,13.3,13.3,0,0,1-3.5,5.5,17.41,17.41,0,0,1-11.2,4.9,16.29,16.29,0,0,1-5.8-.8,11.38,11.38,0,0,1-4.7-3.1,13.31,13.31,0,0,1-2.7-4.6,12.15,12.15,0,0,1-.7-5,13.22,13.22,0,0,1,3.5-8.4,16,16,0,0,1,6.7-4.4,15.33,15.33,0,0,1,6.7-.6,18.09,18.09,0,0,1,8.6,3.5,14.62,14.62,0,0,1,1.9,1.6l.6.6-.6-.6a9,9,0,0,0-1.9-1.5,19,19,0,0,0-8.6-3.4,15.23,15.23,0,0,0-13.2,5,12.85,12.85,0,0,0-3.4,8.3,13.54,13.54,0,0,0,.7,4.9,14.34,14.34,0,0,0,2.6,4.5,12.27,12.27,0,0,0,4.5,3,15.22,15.22,0,0,0,5.6.8,16.56,16.56,0,0,0,10.9-4.8,13.8,13.8,0,0,0,3.4-5.4,13.08,13.08,0,0,0,.4-6.5,11,11,0,0,0-3.3-5.8,16.51,16.51,0,0,0-6.1-3.3,28.3,28.3,0,0,0-7.1-1,20.16,20.16,0,0,0-7.3,1,9.81,9.81,0,0,0-5.7,4.5,11.18,11.18,0,0,0-1,7.4,11.38,11.38,0,0,0,3.8,6.6,17.79,17.79,0,0,0,6.8,3.9,19.6,19.6,0,0,0,15.7-1.5,15.36,15.36,0,0,0,3.2-2.5A15,15,0,0,0,267,312a13.92,13.92,0,0,0,1.3-7.8,14.72,14.72,0,0,0-9-11.9,16.33,16.33,0,0,0-14.6.7,19.26,19.26,0,0,0-9,11,16.1,16.1,0,0,0-.6,6.9,13.85,13.85,0,0,0,1,3.3A10.65,10.65,0,0,0,238,317a15.33,15.33,0,0,0,5.4,3.7,19.24,19.24,0,0,0,6.3,1.4,18.92,18.92,0,0,0,11.6-3,12.08,12.08,0,0,0,5.7-9.2,17.48,17.48,0,0,0-2.6-9.7,19.57,19.57,0,0,0-6.4-6.4,18.17,18.17,0,0,0-7.5-2.6,16.44,16.44,0,0,0-6.6.8,15.39,15.39,0,0,0-7.4,5.4,8.78,8.78,0,0,0-1.2,2.1A1.46,1.46,0,0,0,235,300Z" style="fill:#285ffa"/><path d="M401.6,221c-7.1,0-14.2-4.4-17.9-11.4a34,34,0,0,1-3.2-22.6c2.1-10,8.7-18.2,16.9-20.8,7-2.2,19.4-1,25.2,8.8a29.33,29.33,0,0,1,4,15.8,3,3,0,0,1-6-.4,24.66,24.66,0,0,0-3.2-12.4c-4.5-7.6-14.4-7.4-18.3-6.2-7,2.2-11.5,9.8-12.8,16.3a27.89,27.89,0,0,0,2.6,18.6c3,5.5,8.9,8.9,14.2,8.1a3,3,0,0,1,3.4,2.6,3.09,3.09,0,0,1-2.5,3.4A9.74,9.74,0,0,1,401.6,221Z" style="fill:#263238"/><path d="M207.9,221c-7.1,0-14.2-4.4-17.9-11.4a34,34,0,0,1-3.2-22.6c1.8-8.4,7.7-18.2,17-20.8a21.81,21.81,0,0,1,13.6.7l-2.2,5.6a15.66,15.66,0,0,0-9.8-.5c-6.9,2-11.4,9.6-12.7,16.3a27.89,27.89,0,0,0,2.6,18.6c3,5.5,8.9,8.9,14.2,8.1l.9,5.9A20.08,20.08,0,0,1,207.9,221Z" style="fill:#263238"/><polygon points="399.1 191.03 396.4 206.13 437 206.13 440.6 191.23 399.1 191.03" style="fill:#285ffa"/><path d="M218.2,218.73a6.5,6.5,0,1,1-6.5-6.5h0A6.49,6.49,0,0,1,218.2,218.73Z" style="fill:#263238"/><path d="M411.7,218.73a6.5,6.5,0,1,1-6.5-6.5h0A6.49,6.49,0,0,1,411.7,218.73Z" style="fill:#263238"/></g><g id="freepik--Character--inject-40"><polygon points="305.1 93.63 294.5 133.93 257.9 137.83 257.9 144.33 309.4 146.13 319.1 101.03 305.1 93.63" style="fill:#ffbe9d"/><path d="M320.6,147.23s-57.3-2.7-73.6,10-8.4,33.6-8.4,33.6l92.2-.2,8.1-46.7Z" style="fill:#263238"/><path d="M330.4,178a2,2,0,0,1-.8-.1c-.5-.1-1.3-.1-2.4-.3-2-.3-5-.7-8.6-1.3a242,242,0,0,1-28-6.5c-5.4-1.6-10.5-3.2-15.2-4.4a67.23,67.23,0,0,0-12.7-2,35.24,35.24,0,0,0-8.6.5,17,17,0,0,0-2.3.5,2.2,2.2,0,0,1-.8.1c.3-.1.5-.2.8-.3l2.3-.6a36.52,36.52,0,0,1,8.7-.7,63.81,63.81,0,0,1,12.9,1.9c4.7,1.1,9.8,2.7,15.2,4.3a261.3,261.3,0,0,0,27.8,6.6c3.6.7,6.5,1.1,8.6,1.4l2.3.4A.82.82,0,0,0,330.4,178Z" style="fill:#455a64"/><path d="M277.1,165.33a35.44,35.44,0,0,0-5.1-3.5,40.65,40.65,0,0,0-5.8-2.2,3.72,3.72,0,0,1,1.8.2,15,15,0,0,1,4.2,1.5,18.31,18.31,0,0,1,3.6,2.6A4.27,4.27,0,0,1,277.1,165.33Z" style="fill:#455a64"/><path d="M326.7,271.73l.8,24.1L322.7,315a2.57,2.57,0,0,0,1.8,3h.2a2.58,2.58,0,0,0,2.2-.7c3.6-3.6,17-16.7,16.8-18.5-.2-2,.9-25.5.9-25.5Z" style="fill:#285ffa"/><g style="opacity:0.6000000238418579"><path d="M324.5,318.13l19-20.8v1a3.58,3.58,0,0,1-.9,2.4c-1.5,1.8-5.8,6.7-15.9,16.7a2.48,2.48,0,0,1-2.2.7Z" style="fill:#fff"/></g><g style="opacity:0.6000000238418579"><path d="M338.5,289.63a1.55,1.55,0,0,0-.4,2,1.42,1.42,0,0,0,1.9.4,1.69,1.69,0,0,0,.4-2.1,1.43,1.43,0,0,0-2-.2" style="fill:#fff"/></g><path d="M329.9,307.53a8.14,8.14,0,0,0-2.1-1.9,8.68,8.68,0,0,0-2.8-.5c0-.1.3-.3.8-.3a3.87,3.87,0,0,1,3.8,1.8C329.9,307.13,330,307.53,329.9,307.53Z" style="fill:#263238"/><path d="M328.2,310.73a20,20,0,0,0-2.1-1l-2.4-.3a2.49,2.49,0,0,1,2.5-.2C327.6,309.63,328.4,310.73,328.2,310.73Z" style="fill:#263238"/><path d="M333.1,303.33a20.16,20.16,0,0,0-3.2-1.8,23.25,23.25,0,0,0-3.6-.8A6.86,6.86,0,0,1,333.1,303.33Z" style="fill:#263238"/><path d="M333.5,296a26.33,26.33,0,0,0-3.1-.4c-1.7,0-3.1.4-3.2.2A6.19,6.19,0,0,1,333.5,296Z" style="fill:#263238"/><path d="M333.4,288.93a12,12,0,0,0-3.3-.5,11.56,11.56,0,0,0-3.2.8,1.81,1.81,0,0,1,.8-.7,5.62,5.62,0,0,1,4.9-.2C333.1,288.63,333.4,288.83,333.4,288.93Z" style="fill:#263238"/><path d="M330.2,287a1.39,1.39,0,0,1,0-.9,7.28,7.28,0,0,1,.7-2.4,3.23,3.23,0,0,1,1.2-1.4.91.91,0,0,1,1.1.2,1.5,1.5,0,0,1,.4,1.1,3.62,3.62,0,0,1-3,3.3,4,4,0,0,1-4-2.1,1.67,1.67,0,0,1-.1-1.2.88.88,0,0,1,1-.5,3.46,3.46,0,0,1,1.6.8,6.27,6.27,0,0,1,1.7,1.9,3,3,0,0,1,.4.8,10.44,10.44,0,0,0-2.3-2.4,3.69,3.69,0,0,0-1.4-.7.71.71,0,0,0-.6.3,1.13,1.13,0,0,0,.1.8,3.77,3.77,0,0,0,3.5,1.8,3,3,0,0,0,2.6-2.7,2.35,2.35,0,0,0-.2-.8.47.47,0,0,0-.6-.1,3.46,3.46,0,0,0-1,1.1A8.86,8.86,0,0,0,330.2,287Z" style="fill:#263238"/><path d="M338.9,143.93s-24.8,46.8-25.1,55,0,83.5,0,83.5h38.3c1,0,6.8-33.9,5.6-41.7s-5.3-49.8-5.3-49.8h22.1s6-6.5,5.8-14.7c-.1-4.5-3.1-13.8-6-18.7-1.9-3.1-14-19.6-14-19.6Z" style="fill:#263238"/><path d="M337.2,147c0,.1-.1.2-.1.3l-.4.8-1.4,2.9c-.6,1.3-1.4,2.8-2.3,4.6l-1.4,2.9-1.5,3.3-7.4,16.1c-1.4,3-2.9,6.2-4.4,9.5l-2.3,5a24.27,24.27,0,0,0-1.7,5.4,26.66,26.66,0,0,0-.6,5.6c-.1,1.9-.1,3.7-.1,5.5,0,3.6-.1,7.1-.1,10.5,0,6.7.1,12.7.1,17.8s.1,9.1.2,12v3.4c0-.8-.1-1.9-.1-3.3-.1-2.8-.2-6.9-.3-12s-.2-11.1-.3-17.8V209c0-1.8.1-3.7.1-5.5a27.6,27.6,0,0,1,.6-5.7,35,35,0,0,1,1.7-5.5l2.3-5,4.5-9.5,7.6-16.1,1.5-3.3c.5-1,1-2,1.5-2.9l2.4-4.6c.6-1.2,1.2-2.2,1.5-2.9a5.74,5.74,0,0,0,.4-.7C337.3,147.13,337.2,147,337.2,147Z" style="fill:#455a64"/><path d="M329.2,163a41,41,0,0,1-2-5.9,39.83,39.83,0,0,1-1.7-5.9,28.91,28.91,0,0,1,2.2,5.8A31,31,0,0,1,329.2,163Z" style="fill:#455a64"/><path d="M357.8,239.23a.9.9,0,0,1-.1-.5,10.4,10.4,0,0,0-.2-1.5c-.2-1.4-.4-3.3-.7-5.7-.5-4.8-1.3-11.4-2.1-18.7s-1.5-13.9-1.9-18.7c-.2-2.3-.4-4.3-.5-5.7,0-.6-.1-1.1-.1-1.6v-.5a.9.9,0,0,1,.1.5,10.4,10.4,0,0,0,.2,1.5q.3,2.1.6,5.7c.5,4.8,1.3,11.4,2,18.7s1.5,13.8,2,18.7c.2,2.3.4,4.3.5,5.7,0,.6.1,1.1.1,1.5A1.27,1.27,0,0,1,357.8,239.23Z" style="fill:#455a64"/><path d="M348,18.53c-.6-4,2.8-7.8,6.8-8.3a10,10,0,0,1,9.8,5.6,14.63,14.63,0,0,1,.3,11.6c-1,2.5-2.9,5.1-5.5,5.3s-4.8-1.8-6.5-3.7" style="fill:#263238"/><path d="M319.9,38.33c-8-17.5,11-26.3,21.3-23.4,9.7,2.8,13.9,7.6,15.5,14.1a31.63,31.63,0,0,1-1,19.7c-1.3,3.1-3.5,6.2-6.8,6.5" style="fill:#263238"/><path d="M347.4,24.63a3.35,3.35,0,0,1,3,3.3h0l-1.9,44.6c-.1,5.3-7.8,8.3-13.4,8.1h0c-5.7-.1-5.9-2.9-6-7.9-.1-8.4-.1-11.5-.1-11.5s-7.2-1.2-8.7-10.6c-.8-4.7-.5-12.3-.1-18.6.4-5.6,4.1-12.6,9.7-12Z" style="fill:#ffbe9d"/><path d="M323.8,37.53a1.16,1.16,0,0,0,1.2,1.2,1.07,1.07,0,0,0,1.2-1.1h0a1.16,1.16,0,0,0-1.2-1.2c-.6-.1-1.1.4-1.2,1.1Z" style="fill:#263238"/><path d="M321.8,36.13c.1.2,1.1-.5,2.4-.5s2.3.7,2.4.5-.1-.3-.5-.7a3.31,3.31,0,0,0-3.8,0C321.9,35.83,321.7,36,321.8,36.13Z" style="fill:#263238"/><path d="M336.5,37.53a1.2,1.2,0,0,0,1.1,1.2,1.07,1.07,0,0,0,1.2-1.1h0a1.16,1.16,0,0,0-1.2-1.2A1,1,0,0,0,336.5,37.53Z" style="fill:#263238"/><path d="M334.6,36.43c.1.2,1.1-.5,2.4-.5s2.3.7,2.4.5-.1-.4-.5-.7a3.31,3.31,0,0,0-3.8,0C334.6,36,334.5,36.33,334.6,36.43Z" style="fill:#263238"/><path d="M329.9,46a15.52,15.52,0,0,0-2.1-.4.78.78,0,0,1-.7-.3,1.8,1.8,0,0,1,.2-1c.3-.8.6-1.6,1-2.5a46.44,46.44,0,0,0,2.2-6.6,39.55,39.55,0,0,0-2.7,6.4l-.9,2.5a2,2,0,0,0-.2,1.3,1.21,1.21,0,0,0,.5.5c.2,0,.4.1.6.1A7.39,7.39,0,0,0,329.9,46Z" style="fill:#263238"/><path d="M329,61.33A24.24,24.24,0,0,0,341.6,58s-3.1,6.5-12.5,5.6Z" style="fill:#eb996e"/><path d="M330.4,49.13a2.43,2.43,0,0,1,2.1-.9,1.9,1.9,0,0,1,1.5.8,1.21,1.21,0,0,1,.1,1.5,1.53,1.53,0,0,1-1.7.4,5.85,5.85,0,0,1-1.7-1c-.1-.1-.3-.2-.4-.4a1,1,0,0,1,.1-.4" style="fill:#eb996e"/><path d="M333.7,46.93c-.2,0-.2,1.4-1.4,2.4s-2.7.8-2.7,1,.3.3,1,.3a4,4,0,0,0,2.3-.8,3.09,3.09,0,0,0,1.1-2Q333.85,46.93,333.7,46.93Z" style="fill:#263238"/><path d="M334,34.13c.1.3,1.4.2,3,.4s2.8.6,3,.3-.1-.5-.6-.8a5.84,5.84,0,0,0-2.2-.8,4.45,4.45,0,0,0-2.3.3C334.2,33.63,333.9,33.93,334,34.13Z" style="fill:#263238"/><path d="M322.3,32.43c.2.3,1.1,0,2.2,0s2,.2,2.2-.1,0-.4-.5-.7a3.45,3.45,0,0,0-1.8-.5,3.23,3.23,0,0,0-1.8.6A.59.59,0,0,0,322.3,32.43Z" style="fill:#263238"/><path d="M334.5,17a19,19,0,0,0-9,2.8,12.6,12.6,0,0,0-6.4,7.7,2.55,2.55,0,0,0,.1,2.1,2.15,2.15,0,0,0,2.6.6,6.39,6.39,0,0,0,2.1-1.9,4.07,4.07,0,0,0,4.8,3,4,4,0,0,0,3-3,3.38,3.38,0,0,0,3.6,3.2,4.75,4.75,0,0,0,4-3.2,12.62,12.62,0,0,0,1.6,4.6,4,4,0,0,0,4.3,1.7,8.54,8.54,0,0,0,.1,4.2c.5,1.3,2.5,23.9,3.8,23.4s1.3-23.5,1.6-24.8a30,30,0,0,0,1-7.9,11.61,11.61,0,0,0-9.3-11.7,32.16,32.16,0,0,0-8.2-.8" style="fill:#263238"/><path d="M353.4,58.23a.44.44,0,0,1-.3.1,2.92,2.92,0,0,1-.9.2,7.33,7.33,0,0,1-7.2-3.4,9.31,9.31,0,0,1-1.2-5.9,46,46,0,0,1,.9-5.9,38.84,38.84,0,0,0,.4-4.8V34a5,5,0,0,1,.2,1.2c.1,1.1.2,2.2.2,3.3a40.28,40.28,0,0,1-.3,4.9c-.2,1.8-.7,3.8-.8,5.9a9.92,9.92,0,0,0,1.1,5.6,6.46,6.46,0,0,0,3.6,2.9,8.4,8.4,0,0,0,3.1.5C352.9,58.33,353.3,58.13,353.4,58.23Z" style="fill:#263238"/><path d="M331.2,15.83a4.42,4.42,0,0,1,.5,2.2,7.21,7.21,0,0,1-7,7.3,4.13,4.13,0,0,1-2.2-.4,13,13,0,0,0,2.2,0,7.23,7.23,0,0,0,6.7-6.9C331.4,16.73,331.1,15.93,331.2,15.83Z" style="fill:#455a64"/><path d="M332.6,26.93a2.7,2.7,0,0,1-.8,1.3,4.57,4.57,0,0,1-3.5,1.2,7,7,0,0,1-3.5-1.2c-.8-.5-1.3-.9-1.2-1,.5.2.9.4,1.4.6a10.24,10.24,0,0,0,3.4,1,5,5,0,0,0,3.3-1C332.3,27.43,332.5,26.93,332.6,26.93Z" style="fill:#455a64"/><path d="M355.2,24a7.63,7.63,0,0,1-.2,2.6,13.37,13.37,0,0,1-2.3,5.8,8.09,8.09,0,0,1-5.4,3.1,4.13,4.13,0,0,1-1.9-.2,1.36,1.36,0,0,1-.6-.3,10.48,10.48,0,0,0,2.5.1,7.71,7.71,0,0,0,5-3,14.23,14.23,0,0,0,2.4-5.5A23.81,23.81,0,0,1,355.2,24Z" style="fill:#455a64"/><path d="M357,28.63a2.2,2.2,0,0,1,.1.8,8.1,8.1,0,0,1,0,2.2,10.86,10.86,0,0,1-2.5,6.7,8.56,8.56,0,0,1-3.3,2.3,7.39,7.39,0,0,1-3.3.2,4,4,0,0,1-2-.9q-.6-.45-.6-.6a8.08,8.08,0,0,0,2.7,1.1,8.2,8.2,0,0,0,3.1-.3,6.82,6.82,0,0,0,3.1-2.2,10.87,10.87,0,0,0,2.5-6.4C357,29.73,356.9,28.63,357,28.63Z" style="fill:#455a64"/><polygon points="225.2 149.43 207 191.03 232 191.03 249.8 149.13 225.2 149.43" style="fill:#455a64"/><path d="M212,105.33l20.5,40.3h64.6l-2.6-5.3-18.7-.6-15.3-33.9a5.84,5.84,0,0,0-5.4-3.5H213.8a2.08,2.08,0,0,0-2.1,1.9A2,2,0,0,0,212,105.33Z" style="fill:#e0e0e0"/><path d="M244.3,123.33a2.5,2.5,0,1,1-2.5-2.5A2.61,2.61,0,0,1,244.3,123.33Z" style="fill:#263238"/><rect x="225" y="145.63" width="78.9" height="3.9" style="fill:#455a64"/><polygon points="279.6 147.63 303.6 191.03 315.1 191.03 317.6 186.03 319.9 180.83 303.9 149.53 279.6 147.63" style="fill:#455a64"/><path d="M321.3,73.13s-13.9,4.9-16.9,20.5l14.7,7.3Z" style="fill:#285ffa"/><path d="M321.3,73.13s-9.8,21.9-9.4,33.8c.1,4.1,2.9,15,2.9,15l5.1,26.9s38.8-5.3,39.7-5.3-1.3-22.1-1.3-22.1L364.6,79s-2.9-5.8-16-7.8C340.7,70.13,321.3,73.13,321.3,73.13Z" style="fill:#285ffa"/><path d="M317.6,85.83c.1.1-.9,1.7-2.2,4.5a44,44,0,0,0-1.8,5.1,46.74,46.74,0,0,0-1.3,6.5,48.52,48.52,0,0,0-.2,6.6,49.54,49.54,0,0,0,.6,5.4c.6,3,1.2,4.8,1.1,4.9a5,5,0,0,1-.5-1.3c-.2-.5-.3-1-.5-1.5a11.7,11.7,0,0,1-.5-2,33.27,33.27,0,0,1-.7-5.4,37.53,37.53,0,0,1,.2-6.7,51.3,51.3,0,0,1,1.3-6.6,52.71,52.71,0,0,1,1.9-5.1c.3-.6.6-1.3.9-1.9a10,10,0,0,1,.8-1.4A8.7,8.7,0,0,0,317.6,85.83Z" style="fill:#263238"/><path d="M326,72.93l.6-6a2.51,2.51,0,0,1,2.5-2.3l19.1-.3a2.29,2.29,0,0,1,2.3,2.1l.5,6.5a16.64,16.64,0,0,1-7.7,7.8c-5.6,2.7-14.4,2.8-14.4,2.8Z" style="fill:#285ffa"/><path d="M331,64.73c.1,0-.2.4-.3,1a12.19,12.19,0,0,0,0,2.7,12.75,12.75,0,0,1,0,3.9,16.52,16.52,0,0,1-.5-3.8,8.78,8.78,0,0,1,.1-2.8C330.6,64.93,331,64.63,331,64.73Z" style="fill:#263238"/><path d="M335.6,72.13a15.83,15.83,0,0,1-.5-3.8,12.19,12.19,0,0,1,0-2.7c.1-.7.4-1.1.5-1s-.1.4-.1,1.1.1,1.6.1,2.6A12.11,12.11,0,0,1,335.6,72.13Z" style="fill:#263238"/><path d="M341.4,71.93a15.53,15.53,0,0,1-.8-3.6,15.33,15.33,0,0,1-.2-3.7,15.25,15.25,0,0,1,.8,3.7A21.14,21.14,0,0,1,341.4,71.93Z" style="fill:#263238"/><path d="M346.3,72.33a10.88,10.88,0,0,1-.7-4,11.31,11.31,0,0,1,.1-4.1,18.1,18.1,0,0,1,.4,4A18.8,18.8,0,0,1,346.3,72.33Z" style="fill:#263238"/><g style="opacity:0.30000001192092896"><path d="M350.1,95.23c-.8,6.7-.3,18.3,2.1,24.7l11.2-18.5Z"/></g><path d="M363.5,77.73h0a29.22,29.22,0,0,1,6.8,11.8l2.1,9.4-22,3.4a27,27,0,0,1-.8-12.3C350.6,83,363.5,77.73,363.5,77.73Z" style="fill:#285ffa"/><path d="M372.4,98.93a.6.6,0,0,1-.4.1l-1.3.2-4.7.8-15.9,2.4h-.3v-.3c0-1.3-.1-2.7-.1-4.1,0-3.7,0-7.2.2-10.4a16.51,16.51,0,0,1,2.6-8.1,12.08,12.08,0,0,1,4.1-4,6.11,6.11,0,0,1,1.4-.7.9.9,0,0,1,.5-.1,14.12,14.12,0,0,0-1.8,1,12.42,12.42,0,0,0-3.9,4,17.35,17.35,0,0,0-2.4,8c-.2,3.2-.2,6.7-.2,10.4,0,1.4.1,2.8.1,4.1l-.3-.3,16-2.3,4.7-.6,1.3-.1Z" style="fill:#263238"/><path d="M325.9,85.23a17.22,17.22,0,0,1-3.1-2.4,14.38,14.38,0,0,1-2.7-2.8,28.78,28.78,0,0,1,5.8,5.2Z" style="fill:#fafafa"/><path d="M322.9,96.73a10.52,10.52,0,0,1-2.7,2,8.47,8.47,0,0,1-3,1.5,23.59,23.59,0,0,1,5.7-3.5Z" style="fill:#fafafa"/><path d="M335.2,99.63a15.48,15.48,0,0,1,0-4.3,19.31,19.31,0,0,1,.5-4.2,15.48,15.48,0,0,1,0,4.3A20.07,20.07,0,0,1,335.2,99.63Z" style="fill:#fafafa"/><path d="M347.1,111.13a26.82,26.82,0,0,1-2.8-3,26.82,26.82,0,0,1-2.8-3,10.09,10.09,0,0,1,3.1,2.7A11.09,11.09,0,0,1,347.1,111.13Z" style="fill:#fafafa"/><path d="M348.8,87a12.78,12.78,0,0,1-2.9,2.3,11.37,11.37,0,0,1-3.2,1.8,12.78,12.78,0,0,1,2.9-2.3A11.37,11.37,0,0,1,348.8,87Z" style="fill:#fafafa"/><path d="M338,78.23a15.74,15.74,0,0,1-3.2,2.4,14.79,14.79,0,0,1-3.5,1.9,19.1,19.1,0,0,1,3.2-2.4A17,17,0,0,1,338,78.23Z" style="fill:#fafafa"/><path d="M347.7,81.73a9.87,9.87,0,0,1-1.5-3.1,13.85,13.85,0,0,1-1-3.3,9.87,9.87,0,0,1,1.5,3.1A9.07,9.07,0,0,1,347.7,81.73Z" style="fill:#fafafa"/><path d="M361.1,86.13A16,16,0,0,1,357,82a7.94,7.94,0,0,1,2.2,1.9A6.74,6.74,0,0,1,361.1,86.13Z" style="fill:#fafafa"/><path d="M355.6,95.83a8,8,0,0,1-.4-3.1,10.75,10.75,0,0,1,.1-3.1A21.71,21.71,0,0,1,355.6,95.83Z" style="fill:#fafafa"/><path d="M366.7,93.83a10.22,10.22,0,0,1-3.5-.1,10.08,10.08,0,0,1-3.4-.9,20.85,20.85,0,0,1,3.5.4A20.21,20.21,0,0,1,366.7,93.83Z" style="fill:#fafafa"/><path d="M321.9,114a18.25,18.25,0,0,1-2-3.6,13.16,13.16,0,0,1-1.5-3.9,18.25,18.25,0,0,1,2,3.6A16.61,16.61,0,0,1,321.9,114Z" style="fill:#fafafa"/><path d="M336.6,129.73a13.24,13.24,0,0,1-2.4-2.9,15.5,15.5,0,0,1-2-3.2,13.24,13.24,0,0,1,2.4,2.9A15.5,15.5,0,0,1,336.6,129.73Z" style="fill:#fafafa"/><path d="M348.7,123.13a12.62,12.62,0,0,1-3.3,1.6,14.25,14.25,0,0,1-3.5,1.1,26.82,26.82,0,0,1,6.8-2.7Z" style="fill:#fafafa"/><path d="M318.8,135.93a17,17,0,0,1,2.4-5.3,9.38,9.38,0,0,1-1,2.8A8.87,8.87,0,0,1,318.8,135.93Z" style="fill:#fafafa"/><path d="M309.4,90.73a4.61,4.61,0,0,1-1-2.6,4.93,4.93,0,0,1,.1-2.7c.2.9.3,1.8.4,2.6A12.82,12.82,0,0,1,309.4,90.73Z" style="fill:#fafafa"/><path d="M326.1,125.83a8.26,8.26,0,0,1-3-1.4,12.71,12.71,0,0,1-2.7-1.8,8.26,8.26,0,0,1,3,1.4A8,8,0,0,1,326.1,125.83Z" style="fill:#fafafa"/><path d="M335.8,109.13a23.17,23.17,0,0,1-5.7,5.1,17.89,17.89,0,0,1,2.7-2.8A23.72,23.72,0,0,1,335.8,109.13Z" style="fill:#fafafa"/><g style="opacity:0.30000001192092896"><path d="M329.9,108.83a16.64,16.64,0,0,0,4.5,9.3c2.5,2.4,6.4,3.7,9.6,2.4a2.12,2.12,0,0,0,1.5-1.4,1.85,1.85,0,0,0-1.3-2,7.27,7.27,0,0,0-2.5-.4,14.53,14.53,0,0,1-11.7-7.5"/></g><path d="M342.9,116.93a1.73,1.73,0,0,1-.7.1,6,6,0,0,1-1.9,0,13.1,13.1,0,0,1-2.7-.6,14,14,0,0,1-5.5-3.8,11.35,11.35,0,0,1-1.5-2.3,8.65,8.65,0,0,1-.7-1.7,1.48,1.48,0,0,1-.1-.7c.1,0,.4.9,1.1,2.2a17.68,17.68,0,0,0,1.6,2.2,17.87,17.87,0,0,0,2.5,2.2,15.93,15.93,0,0,0,2.9,1.5,11.07,11.07,0,0,0,2.6.7A13.52,13.52,0,0,1,342.9,116.93Z" style="fill:#263238"/><path d="M287.8,133l14.5-1.7,10.2,6.7,39-9.4.9-26.7,17.3-2.3v32.3a14.92,14.92,0,0,1-15.2,14.5l-57.2-1.6-2.4-4.9-12.3-.4Z" style="fill:#ffbe9d"/><path d="M351.1,128.63a1.85,1.85,0,0,1-.7.2l-2.1.6-7.8,1.9-25.9,6.3-2.4.6H312l-10.2-6.7h.1l-14.5,1.7.1-.1-3.8,4.9-1,1.3a.78.78,0,0,1-.4.4c.1-.2.2-.3.3-.5l1-1.3,3.7-4.9h.1l14.5-1.8h.2l10.2,6.7h-.2l2.4-.6,25.9-6.1,7.9-1.8,2.1-.5A.78.78,0,0,1,351.1,128.63Z" style="fill:#eb996e"/><path d="M295.7,137.13a35.38,35.38,0,0,1-5.6.2h-1l.1-.1a31.66,31.66,0,0,1-3.6,2.8,25,25,0,0,1,3.4-3.1l.1-.1h1.1A50.68,50.68,0,0,1,295.7,137.13Z" style="fill:#eb996e"/><path d="M358.2,132.93a9.22,9.22,0,0,0-2.9-3,10.58,10.58,0,0,0-3.9-1.3,2.77,2.77,0,0,1,1.3-.1,6.58,6.58,0,0,1,5,3.2A2.08,2.08,0,0,1,358.2,132.93Z" style="fill:#eb996e"/></g><g id="freepik--Plant--inject-40"><rect x="42.9" y="346.63" width="65.3" height="9" style="fill:#263238"/><path d="M108.3,355.73H42.8v-9.2h65.5Zm-65.3-.3h65.1v-8.8H43Z" style="fill:#263238"/><polygon points="48.9 352.63 58.3 398.93 93.1 398.93 102.2 355.63 48.9 352.63" style="fill:#263238"/><polygon points="48.9 394.53 53.9 401.43 96.2 401.43 102.2 394.53 48.9 394.53" style="fill:#455a64"/><path d="M73,353.93c-.1,0-.3-21.5-.4-48s0-48,.1-48,.3,21.5.4,48S73.2,353.93,73,353.93Z" style="fill:#263238"/><path d="M87.6,300.23c0,.2-.1.3-.2.5-.1.4-.4.8-.6,1.4a10.37,10.37,0,0,0-.4,1c-.1.4-.3.8-.4,1.2l-.5,1.4c-.2.5-.3,1-.5,1.6a54.45,54.45,0,0,0-1.8,8c-.5,3.3-.8,6.7-1,10a139.84,139.84,0,0,0,.5,18.3c.2,2.3.4,4.2.6,5.5.1.6.1,1.1.2,1.5v.5a.9.9,0,0,1-.1-.5,13.12,13.12,0,0,0-.3-1.5c-.2-1.3-.5-3.2-.7-5.5a112,112,0,0,1-.6-18.3,82.6,82.6,0,0,1,1-10,71.61,71.61,0,0,1,1.9-8c.2-.6.3-1.1.5-1.6l.5-1.4.5-1.2a9.29,9.29,0,0,1,.5-1l.7-1.4A.76.76,0,0,1,87.6,300.23Z" style="fill:#263238"/><path d="M85.9,282.83c-.1.2-.1.5-.2.7-.2.5-.4,1.2-.7,2l-.5,1.4c-.2.5-.3,1.1-.5,1.7q-.6,1.8-1.2,4.2l-.7,2.5-.6,2.7c-.5,1.9-.8,3.9-1.2,6-.7,4.3-1.4,9-1.8,14s-.6,9.7-.6,14.1,0,8.2.2,11.5c.1,1.6.2,3.1.2,4.4s.2,2.4.2,3.3a10.61,10.61,0,0,0,.2,2.1v.7a1.7,1.7,0,0,1-.1-.7c-.1-.5-.1-1.2-.3-2.1A26.77,26.77,0,0,1,78,348c-.1-1.3-.2-2.8-.3-4.4-.2-3.3-.3-7.2-.3-11.5s.2-9.1.6-14.1,1.1-9.7,1.8-14c.4-2.1.8-4.2,1.3-6,.2-.9.4-1.9.6-2.7l.7-2.5c.4-1.6.9-3,1.3-4.2.2-.6.4-1.2.6-1.7a12.13,12.13,0,0,0,.5-1.4l.8-2A4.88,4.88,0,0,1,85.9,282.83Z" style="fill:#263238"/><path d="M68.9,357.73v-.3a2,2,0,0,0-.1-.7c-.1-.7-.1-1.6-.2-2.8-.2-2.5-.4-6.1-.7-10.5-.6-8.8-1.4-21-2.9-34.5-.8-6.7-1.6-13.1-2.6-18.9-.5-2.9-.9-5.6-1.4-8.2s-1-4.9-1.4-7.1-.9-4.1-1.3-5.8-.7-3.2-1-4.4-.5-2.1-.7-2.8a6.37,6.37,0,0,0-.2-.7v-.3a.35.35,0,0,0,.1.2l.2.7c.2.7.4,1.6.8,2.8s.7,2.6,1.1,4.4.9,3.6,1.4,5.8,1,4.5,1.5,7.1,1,5.3,1.5,8.2c.9,5.8,1.8,12.2,2.6,18.9,1.5,13.4,2.3,25.6,2.7,34.5.2,4.4.4,8,.5,10.5,0,1.2.1,2.2.1,2.9v.7A.19.19,0,0,1,68.9,357.73Z" style="fill:#263238"/><path d="M72.5,268.33c-.3-3-3.4-5.3-6.4-5.4a10.1,10.1,0,0,0-7.8,4.2,25.07,25.07,0,0,0-3.8,8.3,55.33,55.33,0,0,0-2.3,22.1c.9,7.4,3.9,14.7,9.2,19.9a3.91,3.91,0,0,0,3.2,1.5,4.25,4.25,0,0,0,1.7-1,49.77,49.77,0,0,0,16.1-37.7c-.1-2.8-.4-5.8-2-8.1s-5.2-4.7-7.9-3.8" style="fill:#285ffa"/><path d="M49.7,243.93l-4.3,7.8c-.1.2-.2.4-.4.4a.66.66,0,0,1-.5-.4L33,234.33l2.6-1.5Z" style="fill:#285ffa"/><g style="opacity:0.20000000298023224"><path d="M49.7,243.93l-4.3,7.8c-.1.2-.2.4-.4.4a.66.66,0,0,1-.5-.4L33,234.33l2.6-1.5Z"/></g><path d="M72.8,257.93,34,235a2,2,0,0,1-1-1c-.2-.6.3-1.1.7-1.6a26.57,26.57,0,0,1,20.8-8.1A23.84,23.84,0,0,1,73.3,236c3.6,6.7,3.7,15.6-.5,21.9" style="fill:#285ffa"/><path d="M39.6,227.73c.2,0,.3-.1.5-.1s.8-.1,1.5-.1a32.72,32.72,0,0,1,5.4.4,35.78,35.78,0,0,1,7.7,2.3,31.54,31.54,0,0,1,17.5,20.4,31,31,0,0,1,1,5.3,8.64,8.64,0,0,1,.1,1.5v.5s-.1-.7-.3-2a33.3,33.3,0,0,0-1.1-5.3A31.7,31.7,0,0,0,47,228.13a47.76,47.76,0,0,0-5.3-.6C40.3,227.83,39.6,227.83,39.6,227.73Z" style="fill:#263238"/><path d="M67.5,242.13a7.22,7.22,0,0,1-2,.9c-1.2.5-3,1.1-4.9,1.7s-3.7,1.1-5,1.4a15.52,15.52,0,0,1-2.1.4,6.79,6.79,0,0,1,2-.7l4.9-1.5,4.9-1.6C66.1,242.53,66.8,242.33,67.5,242.13Z" style="fill:#263238"/><path d="M61.4,225.73a21,21,0,0,1,.5,4.3,21.63,21.63,0,0,1-.2,4.4,20.67,20.67,0,0,1-.2-4.3A21.58,21.58,0,0,1,61.4,225.73Z" style="fill:#263238"/><path d="M33.6,234.63a15.68,15.68,0,0,1,2.8-1c1.8-.5,4.2-1.2,7-1.9s5.2-1.2,7-1.5a15.44,15.44,0,0,1,3-.4,24.6,24.6,0,0,1-2.9.7c-1.8.4-4.3,1-7,1.6s-5.2,1.3-7,1.8A24.6,24.6,0,0,1,33.6,234.63Z" style="fill:#263238"/><path d="M54.9,261.13c-3.3-2.5-6.9-3-11.1-2.9a33.79,33.79,0,0,0-12.1,3.1c-6.6,2.9-12.7,7.1-16.6,13.1s-5.3,13.9-2.3,20.4a2.62,2.62,0,0,0,1.3,1.6,3.36,3.36,0,0,0,2.2-.2c7.4-2.4,14.9-4.9,21.8-8.7s13.1-9.1,16.8-16a15.84,15.84,0,0,0,1.8-5.3,7,7,0,0,0-1.8-5.1" style="fill:#285ffa"/><path d="M54.9,260.33c-.2.1-.3.2-.5.2l-1.6.5-1.1.4a11.22,11.22,0,0,0-1.3.5c-.9.4-2,.8-3.2,1.3l-1.8.8a17.38,17.38,0,0,0-1.9,1q-1.95,1.05-4.2,2.4a66.38,66.38,0,0,0-16.4,14.4c-1,1.3-2.1,2.6-2.9,3.8a18.76,18.76,0,0,0-1.2,1.8l-1,1.7c-.7,1.1-1.2,2.1-1.7,3a12.75,12.75,0,0,1-.7,1.2,3.7,3.7,0,0,0-.5,1.1l-.7,1.5c-.1.2-.2.3-.3.5a.76.76,0,0,1,.2-.5l.7-1.5a11.73,11.73,0,0,0,.5-1.1c.2-.4.4-.8.7-1.3a31.75,31.75,0,0,1,1.7-3c.3-.5.7-1.1,1-1.7a18.76,18.76,0,0,1,1.2-1.8,43.45,43.45,0,0,1,2.9-3.9,71.88,71.88,0,0,1,7.6-8,69.83,69.83,0,0,1,8.9-6.5c1.5-.9,2.8-1.7,4.2-2.4.7-.3,1.3-.7,2-1l1.8-.8c1.2-.5,2.3-.9,3.2-1.3.5-.2.9-.3,1.3-.5l1.1-.3,1.6-.5Z" style="fill:#263238"/><path d="M28.9,274.43a84.5,84.5,0,0,1-8.1,2.6,77.93,77.93,0,0,1-8.3,2.2,84.5,84.5,0,0,1,8.1-2.6A77.93,77.93,0,0,1,28.9,274.43Z" style="fill:#263238"/><path d="M28.5,292.33a21.05,21.05,0,0,1-.2-2.5v-6.1c0-2.4.2-4.5.3-6.1a10.68,10.68,0,0,1,.3-2.5,10.45,10.45,0,0,1,0,2.5c-.1,1.7-.1,3.8-.2,6.1s-.1,4.4-.2,6.1A7,7,0,0,1,28.5,292.33Z" style="fill:#263238"/><path d="M43.9,284.53c-.1,0-.5-4.4-.9-9.8s-.6-9.8-.4-9.8.5,4.4.9,9.8A95.17,95.17,0,0,1,43.9,284.53Z" style="fill:#263238"/><path d="M24.8,264.43a22.6,22.6,0,0,1,2.6-.1c1.6,0,3.8.1,6.3.1s4.7.2,6.3.3a11.53,11.53,0,0,1,2.6.3,22.6,22.6,0,0,1-2.6.1c-1.6,0-3.8,0-6.3-.1s-4.7-.2-6.3-.3A10.9,10.9,0,0,1,24.8,264.43Z" style="fill:#263238"/><path d="M63.2,319.63a4.33,4.33,0,0,0-.1-.5,8.64,8.64,0,0,0-.1-1.5,51.17,51.17,0,0,1,0-5.6c.1-2.4.2-5.2.5-8.3s.7-6.5,1.4-10.1,1.4-6.9,2.2-10,1.6-5.7,2.4-8,1.4-4,2-5.3a9.75,9.75,0,0,1,.6-1.4c.1-.2.1-.3.2-.5,0,.2-.1.3-.1.5l-.6,1.4c-.5,1.2-1.1,3-1.8,5.3s-1.5,5-2.3,8-1.5,6.4-2.2,9.9a101.5,101.5,0,0,0-1.4,10.1c-.3,3.1-.5,5.9-.6,8.3s-.1,4.3-.1,5.6v2.1Z" style="fill:#263238"/><path d="M65.2,293.13a12.88,12.88,0,0,1-1.6,1.7c-1,1-2.4,2.3-4.1,3.8s-3.2,2.7-4.3,3.5a12.74,12.74,0,0,1-1.9,1.3,12.88,12.88,0,0,1,1.7-1.6l4.2-3.6,4.1-3.7C64,294,64.6,293.53,65.2,293.13Z" style="fill:#263238"/><path d="M77.5,303a11.87,11.87,0,0,1-1.6-2.3l-3.8-5.6-3.9-5.5a18.82,18.82,0,0,1-1.6-2.3,16.8,16.8,0,0,1,1.8,2.1c1.1,1.4,2.5,3.3,4,5.5s2.8,4.2,3.7,5.7A13.77,13.77,0,0,1,77.5,303Z" style="fill:#263238"/><path d="M71,271.83a103.56,103.56,0,0,1-9.1,6.1c-5.1,3.2-9.3,5.9-9.4,5.8a103.56,103.56,0,0,1,9.1-6.1C66.8,274.33,71,271.83,71,271.83Z" style="fill:#263238"/><path d="M82.6,284.33a83.72,83.72,0,0,1-6.2-5.7,83.51,83.51,0,0,1-5.9-6,83.72,83.72,0,0,1,6.2,5.7A66.71,66.71,0,0,1,82.6,284.33Z" style="fill:#263238"/><path d="M85.5,284l3.5-.3a16.38,16.38,0,0,0,7.1-2.2c1.1-.6,2.2-1.2,3.3-1.7,4.3-1.7,9.2-1.4,13.8-1.7a58.15,58.15,0,0,0,22-5.6,2.19,2.19,0,0,0,1-.9c.7-1.3-.6-2.5-1.8-3.2-5.9-3.6-11.9-7.3-18.6-9.1s-14.3-1.5-20,2.4c-6.7,4.8-9.2,14.3-10.3,22.3" style="fill:#285ffa"/><path d="M136.2,271.33l-.6-.3-1.7-.9c-1.4-.8-3.5-1.9-6.1-3.1a60.38,60.38,0,0,0-9.5-3.7,32,32,0,0,0-12.3-1,21.27,21.27,0,0,0-11.2,4.8,23.59,23.59,0,0,0-5.8,8.2,61.33,61.33,0,0,0-2.5,6.4l-.6,1.8c-.1.2-.1.4-.2.6,0-.2.1-.4.1-.6.1-.5.3-1,.5-1.8.7-2.2,1.5-4.3,2.4-6.4a23.34,23.34,0,0,1,5.9-8.4,21.07,21.07,0,0,1,11.4-5,31.11,31.11,0,0,1,12.5,1,52.33,52.33,0,0,1,9.5,3.8c2.6,1.3,4.7,2.5,6.1,3.3l1.6,1A.91.91,0,0,1,136.2,271.33Z" style="fill:#263238"/><path d="M127.8,275.83c-.1.1-4.7-2.9-10.2-6.6s-10.1-6.9-10-7,4.6,2.9,10.2,6.6S127.9,275.73,127.8,275.83Z" style="fill:#263238"/><path d="M123.4,261.83a17.55,17.55,0,0,1-7.2.7,22,22,0,0,1,3.6-.4A14.61,14.61,0,0,1,123.4,261.83Z" style="fill:#263238"/><path d="M102.8,258.13a26,26,0,0,1-3.4,5.8,14,14,0,0,1,1.5-3A13.79,13.79,0,0,1,102.8,258.13Z" style="fill:#263238"/><path d="M106.9,278.63a9.41,9.41,0,0,1-2.2-1.2c-1.3-.8-3.1-2-5-3.4s-3.6-2.7-4.8-3.7a14.62,14.62,0,0,1-1.9-1.6,12.78,12.78,0,0,1,2.1,1.4l4.9,3.5c1.9,1.4,3.6,2.6,4.9,3.5A9.51,9.51,0,0,1,106.9,278.63Z" style="fill:#263238"/><path d="M90.6,298.93c-3.3-.9-7.3,2.4-8,5.8s.6,6.9,2.1,10a51.13,51.13,0,0,0,13.8,18.1,34.69,34.69,0,0,0,21.1,7.8c-1.4-6.6.4-13.4-.4-20.1a26,26,0,0,0-23.1-22.9c-2.2-.3-4.7-.7-5.5,1.3" style="fill:#285ffa"/><path d="M119.6,340.53c-.2-.1-.3-.1-.5-.2a9.13,9.13,0,0,1-1.3-.8,13.07,13.07,0,0,1-3.3-4.4l-1.7-3.4c-.6-1.2-1.2-2.6-1.8-4a34.82,34.82,0,0,0-2.2-4.3,30.83,30.83,0,0,0-3-4.1c-2.3-2.7-4.7-5-6.9-7.2a39.61,39.61,0,0,1-5.2-6.3,28.66,28.66,0,0,1-2.6-4.9,6.25,6.25,0,0,1-.4-1.4.9.9,0,0,1-.1-.5,19.35,19.35,0,0,0,.7,1.9,22.72,22.72,0,0,0,2.7,4.8,52.51,52.51,0,0,0,5.3,6.2c2.1,2.2,4.6,4.5,6.9,7.2a32.53,32.53,0,0,1,3.1,4.2,34.82,34.82,0,0,1,2.2,4.3l1.8,4c.6,1.2,1.1,2.4,1.7,3.4a12.55,12.55,0,0,0,3.1,4.4A15.76,15.76,0,0,0,119.6,340.53Z" style="fill:#263238"/><path d="M102.3,335.13a9.08,9.08,0,0,1,.3-2.3c.3-1.4.7-3.3,1.3-5.3s1.2-3.9,1.7-5.2a9.49,9.49,0,0,1,.9-2.1,9,9,0,0,1-.6,2.2c-.4,1.3-1,3.2-1.6,5.2s-1,3.9-1.4,5.3A9,9,0,0,1,102.3,335.13Z" style="fill:#263238"/><path d="M119,318.93a20.48,20.48,0,0,1-2.4-.5c-1.4-.4-3.4-.9-5.6-1.4s-4.2-.9-5.7-1.2a20.48,20.48,0,0,1-2.4-.5,9.74,9.74,0,0,1,2.4.2c1.5.2,3.5.5,5.7,1s4.2,1.1,5.6,1.5Q118,318.48,119,318.93Z" style="fill:#263238"/><path d="M89.9,323.63a10.87,10.87,0,0,1,.4-2.6c.3-1.6.8-3.8,1.4-6.2s1.3-4.5,1.8-6.1a26,26,0,0,1,1-2.5,18.29,18.29,0,0,1-.6,2.5c-.4,1.6-1.1,3.7-1.7,6.1s-1.1,4.6-1.5,6.1A14.56,14.56,0,0,1,89.9,323.63Z" style="fill:#263238"/><path d="M111.3,304.93a92.6,92.6,0,0,1-9.3-.8c-5.1-.6-9.3-1.1-9.3-1.2a73,73,0,0,1,9.3.8A69.47,69.47,0,0,1,111.3,304.93Z" style="fill:#263238"/><path d="M108.3,355.53c0,.1-14.7.2-32.8.2s-32.8-.1-32.8-.2,14.7-.2,32.8-.2S108.3,355.43,108.3,355.53Z" style="fill:#455a64"/><path d="M98.1,374.43c0,.1-9.9.2-22.1.2s-22.1-.1-22.1-.2,9.9-.2,22.1-.2S98.1,374.33,98.1,374.43Z" style="fill:#455a64"/><path d="M98.4,377.13c0,.1-9.9.2-22.1.2s-22.1-.1-22.1-.2,9.9-.2,22.1-.2S98.4,376.93,98.4,377.13Z" style="fill:#455a64"/><path d="M98.4,372.23c0,.1-10.2.2-22.8.2s-22.8-.1-22.8-.2S63,372,75.6,372,98.4,372,98.4,372.23Z" style="fill:#455a64"/></g></g></g></svg>