<svg viewBox="0 0 47.58 47.58" xmlns="http://www.w3.org/2000/svg"><g transform="translate(-1.59 -1.59)"><path d="m36 13.73c1.62-1.62 3.19-3.21 4.77-4.78.23-.23 0-.38 0-.57a2.85 2.85 0 0 1 .87-3.38 2.93 2.93 0 0 1 4.36 3.72 2.82 2.82 0 0 1 -3.71 1.2.48.48 0 0 0 -.63.13q-2.38 2.41-4.8 4.8a.51.51 0 0 0 -.14.65 2 2 0 0 0 .79 1c.45.28.89.56 1.33.86a2.58 2.58 0 0 1 1.21 2.4c0 .46-.07.92-.14 1.38a2.2 2.2 0 0 0 .36 1.69 6.75 6.75 0 0 1 .86 1.61c.07.22.2.27.41.27h2.43c.28 0 .35-.15.44-.35a2.44 2.44 0 0 1 2.82-1.41 2.51 2.51 0 0 1 0 4.89 2.41 2.41 0 0 1 -2.77-1.4.5.5 0 0 0 -.55-.35q-1.14 0-2.28 0a.43.43 0 0 0 -.5.34 5.68 5.68 0 0 1 -.8 1.47 2.36 2.36 0 0 0 -.39 1.79 10.42 10.42 0 0 1 .06 1.56 2.26 2.26 0 0 1 -.93 1.93c-.4.31-.84.58-1.27.86a3.77 3.77 0 0 0 -.78.6c-.52.62-.51.93 0 1.49.22.22.45.43.66.67a.66.66 0 0 1 0 .94.66.66 0 0 1 -1 0c-.25-.21-.48-.45-.73-.67-.2.23-.39.48-.61.69a3.17 3.17 0 0 1 -2.24.76 2.88 2.88 0 0 0 -2.33 1.09c-.06.08-.14.14-.21.22a3 3 0 0 1 -3.79.86c-.8-.33-.81-.3-.81.57s0 1.72 0 2.58a.51.51 0 0 0 .34.56 2.41 2.41 0 0 1 1.42 2.76 2.51 2.51 0 0 1 -4.89.06 2.43 2.43 0 0 1 1.39-2.82.5.5 0 0 0 .36-.54c0-1 0-2 0-3.07 0-.36-.09-.39-.39-.27a11.46 11.46 0 0 1 -1.17.39 2.57 2.57 0 0 1 -2.57-.62 9.51 9.51 0 0 1 -.84-.84 2.59 2.59 0 0 0 -2-.91 6.38 6.38 0 0 1 -1.37-.2 2.19 2.19 0 0 1 -1.38-1c-.23-.39-.37-.28-.6 0-.51.54-1 1.06-1.58 1.57a.51.51 0 0 0 -.15.64 2.43 2.43 0 0 1 -1.53 3.23 2.48 2.48 0 0 1 -3.16-1.69 2.45 2.45 0 0 1 3.18-3 .57.57 0 0 0 .72-.16c.66-.69 1.34-1.36 2-2a.53.53 0 0 0 .14-.69 2 2 0 0 0 -.73-.92c-.32-.2-.63-.42-1-.6a2.9 2.9 0 0 1 -1.57-3.37 3.28 3.28 0 0 0 -.62-2.93 1.66 1.66 0 0 1 -.34-.66c-.13-.58-.49-.71-1-.67a16 16 0 0 1 -1.83 0 .56.56 0 0 0 -.63.39 2.41 2.41 0 0 1 -2.7 1.37 2.51 2.51 0 0 1 -.06-4.85 2.43 2.43 0 0 1 2.92 1.37.49.49 0 0 0 .54.36h2.33c.2 0 .34 0 .41-.25a7 7 0 0 1 .88-1.66 2.15 2.15 0 0 0 .36-1.5 16.12 16.12 0 0 1 -.15-1.83 2.36 2.36 0 0 1 .82-1.79 10 10 0 0 1 1.38-1 2.85 2.85 0 0 0 .78-.6c.53-.62.51-.93-.05-1.49-1.15-1.16-2.32-2.31-3.46-3.47a.54.54 0 0 0 -.75-.14 3 3 0 0 1 -4.06-1.66 3.07 3.07 0 1 1 5.8-2 2.92 2.92 0 0 1 -.15 2.18.4.4 0 0 0 .09.55c1.14 1.12 2.27 2.26 3.41 3.39.09.09.2.34.36 0a2.52 2.52 0 0 1 2.32-1.27 4 4 0 0 0 3.16-1.55 2.73 2.73 0 0 1 3.29-.75c.33.13.68.24 1.07.37 0-.21 0-.38 0-.55 0-.79 0-1.59 0-2.38a1.13 1.13 0 0 0 -.7-1.21 2.3 2.3 0 0 1 -1-2.79 2.51 2.51 0 0 1 4.83.2 2.35 2.35 0 0 1 -1.26 2.7.78.78 0 0 0 -.49.87v3.07.12c.52-.16 1-.34 1.55-.49a2.39 2.39 0 0 1 2.36.51c.41.36.81.74 1.18 1.13a.69.69 0 0 1 0 1 .7.7 0 0 1 -1-.06c-.27-.25-.53-.5-.77-.77a1.45 1.45 0 0 0 -1.75-.4c-.29.11-.59.2-.88.32a3.85 3.85 0 0 1 -2.85 0c-2-.74-1.92-.71-3.33.78a4.18 4.18 0 0 1 -3 1.25c-.26 0-.52.07-.78.1a1.2 1.2 0 0 0 -1 .79 9.74 9.74 0 0 0 -.39 1.07 3.51 3.51 0 0 1 -1.89 2.36 2.22 2.22 0 0 0 -1.42 2.85 3.48 3.48 0 0 1 -.74 3.12 2.1 2.1 0 0 0 0 3 4 4 0 0 1 .75 3.41c-.05.26-.05.53-.08.79a1.2 1.2 0 0 0 .62 1.21c.3.2.6.41.92.58a3.92 3.92 0 0 1 1.84 2.29c.66 1.87.68 1.87 2.58 2.06a4.16 4.16 0 0 1 2.69 1.31c1.33 1.39 1.35 1.39 3.12.73a4.15 4.15 0 0 1 3.08 0c1.77.67 1.8.66 3.12-.73a4 4 0 0 1 2.84-1.31h.29a1.8 1.8 0 0 0 2-1.57 4.18 4.18 0 0 1 2.39-3 1.8 1.8 0 0 0 1.09-2.26 4.12 4.12 0 0 1 .82-3.68c.09-.12.15-.26.24-.38a1.49 1.49 0 0 0 0-1.84c-.1-.13-.17-.29-.27-.42a4.17 4.17 0 0 1 -.8-3.69 1.73 1.73 0 0 0 -1-2.18 4.45 4.45 0 0 1 -2.53-3.17 1.6 1.6 0 0 0 -1.45-1.4.64.64 0 0 1 -.58-.78c.05-.4.38-.61.85-.56a2.56 2.56 0 0 1 2.1 1.47zm-29.46-5.51a1.68 1.68 0 0 0 1.69 1.7 1.7 1.7 0 0 0 1.68-1.71 1.69 1.69 0 0 0 -3.37 0zm35.38-.9a1.53 1.53 0 0 0 1.53 1.51 1.54 1.54 0 1 0 -1.53-1.51zm4.74 19.16a1.11 1.11 0 1 0 0-2.21 1.1 1.1 0 0 0 -1.07 1.13 1.11 1.11 0 0 0 1.07 1.08zm-20.19 20.16a1.11 1.11 0 0 0 -1.11-1.1 1.12 1.12 0 0 0 0 2.23 1.12 1.12 0 0 0 1.11-1.13zm-15-6.22a1.09 1.09 0 0 0 -1.09-1.11 1.11 1.11 0 1 0 1.09 1.11zm15-36.33a1.1 1.1 0 1 0 -2.2 0 1.1 1.1 0 0 0 2.2 0zm-23.47 21.25a1.1 1.1 0 0 0 1 1.14 1.11 1.11 0 1 0 .06-2.21 1.1 1.1 0 0 0 -1.06 1.07z"/><path d="m24.22 30.84a3.55 3.55 0 1 1 -3.55-3.56 3.56 3.56 0 0 1 3.55 3.56zm-1.4 0a2.15 2.15 0 1 0 -2.16 2.16 2.15 2.15 0 0 0 2.16-2.18z"/><path d="m42.51 45.53a3 3 0 0 1 -2.73-4.17.54.54 0 0 0 -.15-.75 10.06 10.06 0 0 1 -.8-.8.69.69 0 1 1 1-1 12.18 12.18 0 0 1 .88.88.46.46 0 0 0 .63.11 2.93 2.93 0 0 1 3.77 1.09 3 3 0 0 1 -.64 3.94 3 3 0 0 1 -1.96.7zm1.62-3a1.62 1.62 0 0 0 -1.62-1.64 1.66 1.66 0 0 0 -1.64 1.64 1.63 1.63 0 0 0 3.26 0z"/><path d="m34.92 23.93a2.5 2.5 0 1 1 -2.49-2.5 2.5 2.5 0 0 1 2.49 2.5zm-3.6 0a1.1 1.1 0 1 0 1.11-1.09 1.11 1.11 0 0 0 -1.11 1.08z"/><path d="m20.7 20.45a2.5 2.5 0 1 1 2.49-2.45 2.5 2.5 0 0 1 -2.49 2.45zm-.06-1.39a1.11 1.11 0 1 0 -1.08-1.13 1.11 1.11 0 0 0 1.08 1.13z"/></g></svg>