<svg xmlns="http://www.w3.org/2000/svg" viewBox="0 0 37.37 45.44"><title>CardiologyAsset 28</title><g id="Layer_2" data-name="Layer 2"><g id="Layer_1-2" data-name="Layer 1"><path d="M17.84,6.34a13.56,13.56,0,0,1,2-1.89,10.67,10.67,0,0,1,6.31-2c1,0,2,0,3,0a3.14,3.14,0,0,1,3.13,2.26,5.1,5.1,0,0,1,.27,1.55c0,.69-.26,1-.8,1S31,7,31,6.3a3.26,3.26,0,0,0-.29-1.38,1.33,1.33,0,0,0-1.18-.84,25.1,25.1,0,0,0-5.41.21,9.09,9.09,0,0,0-5.4,3.54,27.1,27.1,0,0,0-3.45,6.62,61.94,61.94,0,0,1-2.63,6.1,10.63,10.63,0,0,1-2.4,3.17,6.44,6.44,0,0,1-5.93,1.2,18.79,18.79,0,0,1-2.51-.82,12.39,12.39,0,0,0,1.11,3.57,29.75,29.75,0,0,0,5,7.33,42.59,42.59,0,0,0,8.87,7.69c.45.29.95.51,1.42.77a2.61,2.61,0,0,0,3-.29,11.18,11.18,0,0,0,2.51-2.63,37.07,37.07,0,0,0,5.91-14A17.49,17.49,0,0,0,30,22.61a10.89,10.89,0,0,0-2.2-6.21c-.08-.11-.17-.22-.24-.33a.78.78,0,0,1,.1-1.13.75.75,0,0,1,1.16.14,12.92,12.92,0,0,1,1.93,3.31,12.62,12.62,0,0,1,.68,7,38.79,38.79,0,0,1-6,15.53,12.91,12.91,0,0,1-3.62,3.78,3.94,3.94,0,0,1-4,.36A26,26,0,0,1,12,41.2,42.1,42.1,0,0,1,2.6,30.61,16.34,16.34,0,0,1,.11,24.18,15.11,15.11,0,0,1,2.7,13.73,15.32,15.32,0,0,1,6.87,9.56a.63.63,0,0,0,.3-.76A9.48,9.48,0,0,0,5.74,5.47,2.7,2.7,0,0,1,5.72,2,4.63,4.63,0,0,1,8.14.18,2.7,2.7,0,0,1,10.82.6,5.33,5.33,0,0,1,12.15,2c.14.21.23.24.47.11a4.21,4.21,0,0,1,3.63-.18,2.33,2.33,0,0,1,1.59,2.35ZM1.63,21.92c0,.2.06.37.34.5a18,18,0,0,0,2.31.88,4.89,4.89,0,0,0,6.09-2.21,22.66,22.66,0,0,0,2-3.83.61.61,0,0,0,0-.44,15.12,15.12,0,0,0-2.19-4.92A4,4,0,0,0,8.9,10.75a.87.87,0,0,0-1,.06A14.27,14.27,0,0,0,1.63,21.92Zm11.72-7.44c.15,0,.15-.12.18-.2a40.4,40.4,0,0,1,2.59-5.49.7.7,0,0,0,.1-.38c0-.86,0-1.72,0-2.59,0-.28-.1-.31-.33-.22a4.49,4.49,0,0,1-2.54.17c-.36-.08-.39.06-.38.34,0,.66,0,1.32,0,2a.76.76,0,0,1-.49.76.78.78,0,0,1-.85-.13.86.86,0,0,1-.27-.78,28.22,28.22,0,0,0-.09-3.79,2.24,2.24,0,0,0-.54-1.33A3.94,3.94,0,0,1,8,5.48c-.31.12-.15.26-.08.41a9.46,9.46,0,0,1,.89,2.69.62.62,0,0,0,.5.57,4,4,0,0,1,1.56,1,9.93,9.93,0,0,1,2,3C13,13.6,13.16,14,13.35,14.48ZM9.05,1.63a2.82,2.82,0,0,0-2.3,2c-.06.34.07.41.39.35A2.5,2.5,0,0,0,9.28,1.94C9.33,1.68,9.29,1.59,9.05,1.63Zm7,2.08a2,2,0,0,0-1.37-.47,1.93,1.93,0,0,0-1.46.43c-.21.2-.23.36.11.44A3.38,3.38,0,0,0,16.06,3.71Z"/><path d="M24.84,25.13c-.19.94-.34,1.68-.48,2.42s-.48.94-1,.85-.75-.51-.62-1.18c.19-.93.37-1.86.57-2.78a.49.49,0,0,0-.33-.67,13.29,13.29,0,0,1-1.31-.65c-.22-.12-.32-.07-.44.13Q20,25.44,18.76,27.61c-.15.26-.06.53-.11.79A3.52,3.52,0,0,0,20.13,32a24,24,0,0,1,2.27,2.24.79.79,0,0,1-.15,1.35.78.78,0,0,1-1-.21l-2.33-2.33-.26-.22v2.35c0,.64,0,1.29,0,1.93s-.29,1-.81,1-.81-.34-.81-1V29.59c0-.14.07-.34-.05-.42s-.31.08-.45.16a6.6,6.6,0,0,0-2,1.29,6.62,6.62,0,0,0-.66,2.26c0,.18-.08.36-.13.54A.82.82,0,1,1,12.19,33c.17-.72.34-1.44.55-2.16.11-.35,0-.51-.29-.74a2.06,2.06,0,0,0-2.6-.36,2.8,2.8,0,0,1-.77.26.75.75,0,0,1-.93-.5.73.73,0,0,1,.42-1c.86-.32,1.72-.59,2.59-.87a.88.88,0,0,1,.76.19c.52.35,1.05.69,1.56,1.05a.49.49,0,0,0,.63,0c1-.59,1.91-1.16,2.87-1.73a1.13,1.13,0,0,0,.41-.43q1.35-2.39,2.72-4.75a1.34,1.34,0,0,0,.17-.67q0-2.05,0-4.11c0-.62.28-1,.79-1s.83.35.83,1c0,1.23,0,2.47,0,3.7a.64.64,0,0,0,.47.72,12.53,12.53,0,0,1,4.89,3.66.84.84,0,0,1,.3.86.8.8,0,0,1-1.36.37C25.75,26.12,25.35,25.67,24.84,25.13Z"/><path d="M32.26,13.3a3,3,0,0,1,2.06-1.9,5.61,5.61,0,0,0-1-.79A8.86,8.86,0,0,0,29.23,9a7.3,7.3,0,0,0-4.93,1.52c-1.3.92-2.41,2.07-3.65,3.06a4.4,4.4,0,0,1-1.71,1A.85.85,0,0,1,17.79,14c-.11-.48.17-.84.76-1a3.14,3.14,0,0,0,1.31-.84c1.16-1,2.28-2,3.53-2.89A15.4,15.4,0,0,1,25.58,8a6.9,6.9,0,0,1,4.79-.43,14.33,14.33,0,0,1,6.25,3.61,2.3,2.3,0,0,1,.75,1.9,4,4,0,0,1-1.77,3.31A2.38,2.38,0,0,1,32,15.59a3.45,3.45,0,0,0-6.14.12A.81.81,0,1,1,24.45,15a5.19,5.19,0,0,1,5.39-2.78A5,5,0,0,1,32.26,13.3Zm1.36,1.39c0,.5.32.69.86.47a2.44,2.44,0,0,0,1.24-2c0-.27-.15-.25-.33-.26C34.33,12.83,33.68,13.48,33.62,14.69Z"/></g></g></svg>