<svg xmlns="http://www.w3.org/2000/svg" viewBox="0 0 44.04 44.06"><title>DermatologyAsset 29</title><g id="Layer_2" data-name="Layer 2"><g id="Layer_1-2" data-name="Layer 1"><path d="M14,0h1.46A3.77,3.77,0,0,1,18,2c.15.3.29.16.47,0a3.65,3.65,0,0,1,5.34,1.32c.16.28.26.34.54.15a3.49,3.49,0,0,1,3.82-.19,3.66,3.66,0,0,1,2,3.35c0,1,0,2,0,3a.77.77,0,0,0,.58.88A15.35,15.35,0,0,1,40.43,25a15,15,0,0,1-2.5,8.27.57.57,0,0,0,.08.89c1.76,1.72,3.49,3.48,5.24,5.21A3.08,3.08,0,0,1,44,40.57v1.12a4.49,4.49,0,0,1-1.21,1.53,2.1,2.1,0,0,1-3.36,0l-5.32-5.31c-.16-.16-.29-.36-.57-.17a15.29,15.29,0,0,1-6,2.41c-.28.05-.35.2-.35.45,0,.43,0,.86,0,1.29A2.21,2.21,0,0,1,25,44H10.25a2.18,2.18,0,0,1-2.12-1.69A5.15,5.15,0,0,1,8,41.24c0-1.68,0-3.35,0-5a6.07,6.07,0,0,0-1.4-4q-2.52-3.18-5-6.39A7.36,7.36,0,0,1,0,21.13c0-2.61,0-5.21,0-7.82A5.84,5.84,0,0,1,4.6,7.45a.58.58,0,0,0,.51-.68,24.26,24.26,0,0,1,0-2.83,3.71,3.71,0,0,1,6-2.4c.16.13.29.25.46,0A3.9,3.9,0,0,1,14,0ZM6.68,11.68c0,2.33,0,4.66,0,7a2.86,2.86,0,0,1,0,.51.75.75,0,0,1-.75.65.71.71,0,0,1-.74-.59,2.89,2.89,0,0,1-.07-.72V9.63c0-.71-.06-.75-.73-.49a4.42,4.42,0,0,0-2.83,4.35c0,2.47,0,4.93,0,7.4A6.39,6.39,0,0,0,3,25.05c1.65,2.06,3.26,4.14,4.9,6.21a7.61,7.61,0,0,1,1.71,5c0,1.77,0,3.55,0,5.33,0,.38.07.71.48.87a1.42,1.42,0,0,0,.54.08h14a2.09,2.09,0,0,0,.43,0,.65.65,0,0,0,.6-.71c0-.34,0-.69,0-1s-.13-.36-.4-.35A14.36,14.36,0,0,1,21.66,40a15.41,15.41,0,0,1-12-16.79,14.86,14.86,0,0,1,4.84-9.61,15.13,15.13,0,0,1,13.61-3.8c.34.06.51,0,.5-.38,0-.95,0-1.89,0-2.84a2.13,2.13,0,0,0-4.26-.1c-.05.54-.37.88-.82.86a.81.81,0,0,1-.76-.87c0-.49,0-1,0-1.46a2.16,2.16,0,0,0-1.86-2,2.06,2.06,0,0,0-2.32,1.53,4.85,4.85,0,0,0-.09.55c-.08.52-.39.82-.84.79s-.72-.36-.73-.9,0-.88,0-1.33a2.22,2.22,0,0,0-2.07-2.14,2.11,2.11,0,0,0-2.19,1.88c-.05.34,0,.68-.06,1a.76.76,0,0,1-.75.74A.78.78,0,0,1,11,4.51c0-.2,0-.4-.09-.6a2.12,2.12,0,0,0-2-1.65A2.21,2.21,0,0,0,6.69,4.54C6.68,6.92,6.69,9.3,6.68,11.68ZM24.94,38.82a13.88,13.88,0,1,0,0-27.76,13.88,13.88,0,0,0,0,27.76ZM42.48,41.1a.59.59,0,0,0-.22-.45L38.9,37.28c-.18-.17-.32-.21-.5,0-.36.37-.73.73-1.1,1.09a.29.29,0,0,0,0,.47c1.16,1.15,2.31,2.31,3.46,3.46a.51.51,0,0,0,.8,0c.26-.24.51-.5.76-.75A.54.54,0,0,0,42.48,41.1Zm-5-5.17a3.15,3.15,0,0,0-.59-.67.26.26,0,0,0-.44,0c-.25.27-.51.53-.77.8-.6.59-.7.42,0,1.15.21.22.37.2.56,0s.69-.69,1-1A2.71,2.71,0,0,0,37.46,35.93Z"/><path d="M25.64,33.81a16.15,16.15,0,0,1,.13-2.94,16.27,16.27,0,0,1,1.28-3.36c.32-.75.65-1.5,1-2.24a5.61,5.61,0,0,0,.54-2.45q0-3.83,0-7.65a.65.65,0,0,0-.6-.77.85.85,0,0,1-.81-.7.77.77,0,0,1,1-.86,11.66,11.66,0,0,1,4.09,1.93,12.29,12.29,0,0,1,5.19,9.55A12.51,12.51,0,1,1,22.8,12.61a10.85,10.85,0,0,1,2.05-.18c.53,0,.87.29.9.73a.78.78,0,0,1-.81.82,13.62,13.62,0,0,0-3.05.45,11,11,0,0,0,1.63,21.36,10.4,10.4,0,0,0,1.58.11c.38,0,.55-.13.54-.53C25.62,34.79,25.64,34.2,25.64,33.81ZM30.15,19.6c0,1.07,0,2.14,0,3.22a7,7,0,0,1-.63,3c-.61,1.35-1.2,2.7-1.8,4.05a4.54,4.54,0,0,0-.42,1.34A37.46,37.46,0,0,0,27.23,35c0,.64,0,.65.61.48a10.9,10.9,0,0,0,8-11.51,10.73,10.73,0,0,0-5.24-8.42c-.43-.28-.47-.25-.47.25Z"/><path d="M24.3,17.24v.22c0,.56-.34.92-.81.92s-.75-.37-.78-.91a3.51,3.51,0,0,1,0-.65.78.78,0,0,1,.77-.72.8.8,0,0,1,.79.75c0,.13,0,.26,0,.39Z"/><path d="M24.3,28.25v.26a.83.83,0,0,1-.78.87.81.81,0,0,1-.8-.84,3.56,3.56,0,0,1,0-.73.78.78,0,0,1,.78-.71.79.79,0,0,1,.78.77c0,.13,0,.26,0,.38Z"/><path d="M19.77,18.7c0-.15,0-.29,0-.43a.76.76,0,0,1,.75-.69.74.74,0,0,1,.79.64,2.48,2.48,0,0,1,0,.94.77.77,0,0,1-1.54,0,3,3,0,0,1,0-.42Z"/><path d="M19.78,29.72c0-.77.25-1.14.79-1.14s.8.37.8,1.14v.12c0,.63-.33,1-.82,1s-.76-.39-.77-1Z"/><path d="M21.37,22.4a1.06,1.06,0,0,1-.29.91.72.72,0,0,1-.8.13c-.57-.25-.5-.77-.5-1.26a.84.84,0,0,1,.56-.91.77.77,0,0,1,.95.45A1.74,1.74,0,0,1,21.37,22.4Z"/><path d="M27.22,23.84a1.47,1.47,0,0,1,0,.21c0,.57-.28.9-.75.91s-.8-.31-.83-.89a2.72,2.72,0,0,1,0-.64.8.8,0,0,1,.81-.74.81.81,0,0,1,.74.8c0,.12,0,.23,0,.35Z"/><path d="M27.23,20.17c0,.75-.28,1.15-.8,1.14s-.79-.42-.79-1.16.33-1.17.91-1.1S27.23,19.44,27.23,20.17Z"/><path d="M24.31,20.88a4.38,4.38,0,0,1,0,.51.77.77,0,0,1-1.52,0,2.31,2.31,0,0,1,0-1,.77.77,0,0,1,1.54.06,2.54,2.54,0,0,1,0,.39Z"/><path d="M16.86,25.31c0-.76.26-1.15.78-1.15s.8.41.8,1.15a2.08,2.08,0,0,1,0,.43.76.76,0,0,1-.83.69.77.77,0,0,1-.72-.77C16.85,25.54,16.86,25.43,16.86,25.31Z"/><path d="M21.37,26.06v.25a.8.8,0,1,1-1.59,0,5.19,5.19,0,0,1,0-.56.79.79,0,0,1,.79-.84.8.8,0,0,1,.78.81c0,.12,0,.23,0,.35Z"/><path d="M24.29,31.89c0,.12,0,.23,0,.34a.78.78,0,0,1-1.56.05,3.22,3.22,0,0,1,0-.82.78.78,0,0,1,.79-.7.81.81,0,0,1,.76.75c0,.12,0,.25,0,.38Z"/><path d="M27.23,16.52c0,.73-.27,1.11-.78,1.12s-.81-.39-.81-1.14.28-1.14.81-1.14S27.23,15.75,27.23,16.52Z"/><path d="M16.85,21.62a2.53,2.53,0,0,1,0-.47.77.77,0,0,1,1.5-.07,2.31,2.31,0,0,1,0,1,.78.78,0,0,1-.82.72.81.81,0,0,1-.73-.81c0-.12,0-.23,0-.35Z"/><path d="M24.3,24.57c0,.75-.29,1.15-.81,1.14s-.78-.4-.78-1.12.26-1.15.79-1.15S24.3,23.81,24.3,24.57Z"/><path d="M18.44,29a1.94,1.94,0,0,1,0,.34.78.78,0,1,1-1.56-.06q0-.3,0-.6a.78.78,0,1,1,1.56-.07A2.55,2.55,0,0,1,18.44,29Z"/></g></g></svg>