<svg xmlns="http://www.w3.org/2000/svg" viewBox="0 0 35.41 44.74"><title>EndocrinologyAsset 30</title><g id="Layer_2" data-name="Layer 2"><g id="Layer_1-2" data-name="Layer 1"><path d="M30.1,40.23c-.07.85-.14,1.64-.21,2.44A3.67,3.67,0,0,1,26.37,46c-1.73,0-3.46,0-5.19,0a3.71,3.71,0,0,1-3.59-3.59l-.12-1.76c0-.24,0-.37-.35-.25a6.74,6.74,0,0,1-8.26-3.23C6.21,31.93,5.34,26.48,7,20.76a16.94,16.94,0,0,1,6.14-8.53c.6-.47,1.13-1.09,2-1.09.17,0,.09-.16.07-.25-.41-2.23-.78-4.46-1.24-6.68a2.26,2.26,0,0,1,2.54-2.88,4.28,4.28,0,0,1,.87.31,16.76,16.76,0,0,0,6.68,1.45,17.26,17.26,0,0,0,6.2-1.51,2.5,2.5,0,0,1,1.93-.14,2.16,2.16,0,0,1,1.41,2.38c-.39,2.29-.8,4.58-1.21,6.87-.06.3-.12.53.34.48a1,1,0,0,1,.73.24,18,18,0,0,1,7.23,9.38,20.73,20.73,0,0,1-.21,12.47,25,25,0,0,1-1.69,4,6.7,6.7,0,0,1-8.49,3Zm-15-27.56a16.91,16.91,0,0,0-6.27,7.58A17.76,17.76,0,0,0,7.8,29a20.89,20.89,0,0,0,2.52,7.72,5.16,5.16,0,0,0,6.18,2.33,6.39,6.39,0,0,0,3.1-2.66A13.36,13.36,0,0,0,20.86,34a.73.73,0,0,1,1-.44.75.75,0,0,1,.39,1c-.05.15-.18.29-.12.48a8.59,8.59,0,0,1,3.57,0c-.08-.22-.15-.37-.2-.53a.74.74,0,0,1,1.36-.57c.07.15.13.32.19.47a10.07,10.07,0,0,0,2.52,3.72,5.07,5.07,0,0,0,7.79-1.23,20,20,0,0,0,2.31-14.27A15.87,15.87,0,0,0,33.4,13.2l-.73-.54c0,.2,0,.32,0,.44a33.5,33.5,0,0,1-.86,6.22,32.58,32.58,0,0,1-4,9.19,5.47,5.47,0,0,0-.9,2.1.71.71,0,0,1-.8.61.73.73,0,0,1-.64-.78c0-.28.06-.56.1-.88a6.08,6.08,0,0,1-3.33,0c0,.32.09.57.1.83a.72.72,0,0,1-.66.8.73.73,0,0,1-.8-.67,3.39,3.39,0,0,0-.44-1.25c-.44-.78-.88-1.56-1.33-2.33a28.93,28.93,0,0,1-3.65-10.3A35.81,35.81,0,0,1,15.06,12.67Zm8.7,2.27a12.23,12.23,0,0,0,3.55-.55A5,5,0,0,0,31,10.34c.43-2.18.78-4.37,1.17-6.55A.81.81,0,0,0,31.91,3,.84.84,0,0,0,31,2.89c-.72.28-1.43.56-2.16.8a15,15,0,0,1-7.79.61A23.81,23.81,0,0,1,16.7,3a.91.91,0,0,0-1,0c-.37.27-.31.64-.24,1a.09.09,0,0,0,0,.05l1.11,6.13a5,5,0,0,0,3.34,4.14A10.9,10.9,0,0,0,23.76,14.94Zm-7.15-1.2a27.51,27.51,0,0,0,.44,3.75.55.55,0,0,0,.27.36c4.3,3.06,8.82,3,13.09-.14a.75.75,0,0,0,.32-.49A31.23,31.23,0,0,0,31.11,14c0-.1.08-.24-.08-.32C28.33,17.26,19.55,17.32,16.61,13.74Zm1.08,6.12a.45.45,0,0,0,0,.35,29,29,0,0,0,3,6.67,1.12,1.12,0,0,0,.32.33,4.6,4.6,0,0,0,5,.43,2.07,2.07,0,0,0,1.09-1c.19-.41.45-.78.65-1.18a4.86,4.86,0,0,0,.51-1.05c-.06,0-.07,0-.09,0l-.39.14a10.91,10.91,0,0,1-6.89.39c-.55-.15-.8-.5-.68-1s.5-.63,1-.48A9.86,9.86,0,0,0,29,22.34c.16-.09.34-.16.41-.35a20.92,20.92,0,0,0,.74-2.31A11.56,11.56,0,0,1,17.69,19.86Zm6.08,24.69h0c.83,0,1.66,0,2.49,0a2.25,2.25,0,0,0,2.11-1.65c.07-.3.08-.43-.31-.33a17.81,17.81,0,0,1-5.14.48,12,12,0,0,1-1.47-.13.72.72,0,0,1-.62-.79.74.74,0,0,1,.77-.65c.23,0,.46,0,.69,0a17.12,17.12,0,0,0,5.15-.32c1.09-.23,1.07-.24,1.2-1.31.05-.39,0-.43-.39-.34a17.91,17.91,0,0,1-6.56.45c-.57,0-.9-.39-.85-.83s.39-.68.94-.64c.76,0,1.51.11,2.27.1a18.23,18.23,0,0,0,3.21-.35c.27-.06.28-.11.14-.35A2.73,2.73,0,0,0,26,36.81a5.59,5.59,0,0,0-2.77-.35,4,4,0,0,0-3,1.67,4.32,4.32,0,0,1-1,1.06.61.61,0,0,0-.26.63c.07.88.12,1.75.2,2.63a2.24,2.24,0,0,0,2.33,2.1C22.19,44.56,23,44.55,23.77,44.55Z" transform="translate(-6.16 -1.3)"/></g></g></svg>