<svg xmlns="http://www.w3.org/2000/svg" viewBox="0 0 46.5 45.25"><title>GastroenterologyAsset 45</title><g id="Layer_2" data-name="Layer 2"><g id="Layer_1-2" data-name="Layer 1"><path d="M7.1,37a18.79,18.79,0,0,0,.16,2.53,5.8,5.8,0,0,0,1.08,2.73.85.85,0,0,1-.09,1.25A.86.86,0,0,1,7,43.33a7.35,7.35,0,0,1-1.5-4.11,18,18,0,0,1,.19-5.28,4.88,4.88,0,0,1,3.72-4,4.82,4.82,0,0,1,5.24,1.54,16,16,0,0,0,4.17,3.73,13.38,13.38,0,0,0,10.14,1.3,23.48,23.48,0,0,0,12.28-7.24,14.15,14.15,0,0,0,3.43-8.46,19.82,19.82,0,0,0-1.44-9.63,14.27,14.27,0,0,0-3.57-4.9,7.13,7.13,0,0,0-10.9,1.46c-.79,1.22-1.4,1.16-2.25.1a42.15,42.15,0,0,1-4.14-6.51A.83.83,0,0,1,22.68.11a.86.86,0,0,1,1.21.45,47,47,0,0,0,3.25,5.3c.38.52.39.53.79,0a8.88,8.88,0,0,1,12.81-1,16.26,16.26,0,0,1,4.91,7.93A21.55,21.55,0,0,1,45.87,24a17.15,17.15,0,0,1-7.22,9.93A24.92,24.92,0,0,1,27,38.59a14.32,14.32,0,0,1-12-4.2c-.57-.55-1.09-1.15-1.61-1.75a3.2,3.2,0,0,0-3.67-1,3.32,3.32,0,0,0-2.38,3C7.18,35.5,7.15,36.37,7.1,37Z"/><path d="M0,34.82c0-3.1.44-5.5,1.88-7.63A10,10,0,0,1,8.55,23a15.87,15.87,0,0,1,9.29.8,5,5,0,0,0,1.78.41,2.41,2.41,0,0,0,2.58-2,62.87,62.87,0,0,0,1.08-8.09,1.18,1.18,0,0,0-.34-1,50.17,50.17,0,0,1-6.4-9.36A.86.86,0,0,1,17,2.43.88.88,0,0,1,18.08,3a51.64,51.64,0,0,0,2.83,4.66,37.94,37.94,0,0,0,3.76,4.81,1.28,1.28,0,0,1,.35,1,52.64,52.64,0,0,1-1.13,9.11c-.55,2.63-3,3.9-5.74,3.14-1.16-.32-2.25-.87-3.45-1.08A14.44,14.44,0,0,0,7.64,25a8.11,8.11,0,0,0-5.78,7.18A23.07,23.07,0,0,0,3,41.73c.22.77.5,1.54.74,2.31a.86.86,0,1,1-1.62.58A31.67,31.67,0,0,1,0,34.82Z"/></g></g></svg>