<svg xmlns="http://www.w3.org/2000/svg" viewBox="0 0 43.88 43.77"><title>HepatologyAsset 42</title><g id="Layer_2" data-name="Layer 2"><g id="Layer_1-2" data-name="Layer 1"><path d="M43.88,9.37a3.38,3.38,0,0,1-1.3,1.7A55.82,55.82,0,0,0,35.42,18a59.71,59.71,0,0,1-7.57,7.43c-.57.45-1.14.9-1.74,1.31a.61.61,0,0,0-.29.71,23.17,23.17,0,0,1-2.6,15.22,1.93,1.93,0,0,1-2.31,1,2,2,0,0,1-1.32-3.1,19.16,19.16,0,0,0,2.15-6.32c.09-.55.09-.54-.45-.45a6.71,6.71,0,0,1-5.12-1.15.56.56,0,0,0-.62-.08q-1.61.7-3.24,1.35a12.54,12.54,0,0,0-3.85,2.8c-1.21,1.19-2.35,2.45-3.68,3.52a2.81,2.81,0,0,1-2.72.58,2.81,2.81,0,0,1-2-2.72C0,32.07,0,26,0,20A13.77,13.77,0,0,1,11.45,6.89a22.5,22.5,0,0,1,3.93-.18c.43,0,.49-.14.46-.51a22.89,22.89,0,0,0-.55-3.59A2,2,0,0,1,16.91.06a2,2,0,0,1,2.46,1.59A24.45,24.45,0,0,1,20,6.31c0,.31.1.42.42.4a6.37,6.37,0,0,1,1.07,0c.35,0,.47-.07.45-.44a22.12,22.12,0,0,0-.56-3.72A2,2,0,0,1,23,.07a1.94,1.94,0,0,1,2.44,1.48,20.73,20.73,0,0,1,.67,4.69c0,.39.13.47.5.47,4.81,0,9.62,0,14.43,0a2.55,2.55,0,0,1,2.81,1.84ZM1.38,28.91V38a1.47,1.47,0,0,0,.83,1.43,1.47,1.47,0,0,0,1.68-.21l.75-.64c1-.92,2-1.94,3-2.91a14.8,14.8,0,0,1,5.09-3.37,55.67,55.67,0,0,0,9.89-4.86,8.81,8.81,0,0,0,4.23-7,36.63,36.63,0,0,0-.09-6.54,15.33,15.33,0,0,0-1.43-5.48.58.58,0,0,0-.62-.37H13.92A12.33,12.33,0,0,0,1.38,20.52ZM26.67,8.13a18.19,18.19,0,0,1,.93,2.69,28.83,28.83,0,0,1,.65,6.8,23.9,23.9,0,0,1-.13,3.59,12.13,12.13,0,0,1-.85,2.87c.16,0,.22-.11.3-.17A47.18,47.18,0,0,0,32,19.73c2-2.17,3.95-4.43,6.08-6.51a46.23,46.23,0,0,1,4-3.52.87.87,0,0,0,.4-.89.82.82,0,0,0-.57-.69,2,2,0,0,0-.55,0H27.11A.69.69,0,0,0,26.67,8.13ZM24.5,27.85c-.47.3-1,.48-1.24.85s0,.82,0,1.25a.22.22,0,0,0,0,.08,20.72,20.72,0,0,1-2.5,11.17c-.28.52-.21.8.25,1.06s.74.16,1-.37A22.06,22.06,0,0,0,24.75,30,13.54,13.54,0,0,0,24.5,27.85Zm-7.11,3.91s.06.1.1.12a5.44,5.44,0,0,0,4.25.42c.11,0,.21-.08.21-.23a20.53,20.53,0,0,0-.05-2.35c0-.17,0-.26-.26-.15C20.26,30.36,18.84,31.07,17.39,31.76ZM18.64,6A21.14,21.14,0,0,0,18,2c-.13-.53-.37-.67-.86-.56s-.67.36-.54.91a19.88,19.88,0,0,1,.56,3.84c0,.46.17.56.59.55C18.69,6.68,18.69,6.7,18.64,6Zm6.13-.09A21.55,21.55,0,0,0,24.18,2c-.14-.57-.38-.74-.91-.6s-.63.37-.5.93a20,20,0,0,1,.54,3.54c.05.81,0,.81.84.81S24.79,6.78,24.77,5.93Z"/><path d="M11.53,10.56a.64.64,0,0,1,.72.52.63.63,0,0,1-.43.78c-.32.12-.65.19-1,.31a8.7,8.7,0,0,0-5.11,4.71c-.06.12-.1.24-.16.35a.68.68,0,1,1-1.25-.53,9.38,9.38,0,0,1,1.07-2,10.1,10.1,0,0,1,5.87-4.09A1.47,1.47,0,0,1,11.53,10.56Z"/><path d="M13.78,10.3a.66.66,0,0,1,.65.69.68.68,0,0,1-.69.67.69.69,0,0,1-.66-.7A.67.67,0,0,1,13.78,10.3Z"/></g></g></svg>