<svg xmlns="http://www.w3.org/2000/svg" viewBox="0 0 48.16 45.82"><title>Internal MedicineAsset 43</title><g id="Layer_2" data-name="Layer 2"><g id="Layer_1-2" data-name="Layer 1"><path d="M0,16c.39,0,.79,0,1.17,0s.44-.11.44-.45q0-4.85,0-9.69a4.77,4.77,0,0,1,.15-1.3A3.88,3.88,0,0,1,4.59,1.76a.69.69,0,0,0,.5-.42A2.4,2.4,0,0,1,7.76.05a2.44,2.44,0,0,1,1.9,2.28A2.41,2.41,0,0,1,8,4.69a2.33,2.33,0,0,1-2.77-1C5,3.3,4.81,3.31,4.49,3.5A2.34,2.34,0,0,0,3.21,5.6c0,3.37,0,6.74,0,10.11,0,.29.11.34.36.34.53,0,1.07,0,1.6,0,.36,0,.49.08.47.46a8.82,8.82,0,0,0,.25,2.85,6.25,6.25,0,0,0,4.43,4.4,7.08,7.08,0,0,0,6-.77,6.17,6.17,0,0,0,2.93-4.59,15.21,15.21,0,0,0,.07-2c0-.25.07-.35.31-.32a.75.75,0,0,0,.15,0c1.14,0,1.14,0,1.14-1.13,0-3,0-6.05,0-9.08a2.45,2.45,0,0,0-1.37-2.38c-.24-.13-.39-.13-.56.16A2.33,2.33,0,0,1,16.2,4.7a2.37,2.37,0,0,1-1.72-2.45A2.38,2.38,0,0,1,19,1.36c.08.17.16.33.37.38A4.07,4.07,0,0,1,22.45,6c0,3.18,0,6.36,0,9.54,0,.43.11.56.54.54,1.08,0,1,0,1.08,1.05a11.31,11.31,0,0,1-8.31,11.2.62.62,0,0,0-.54.74,10.85,10.85,0,0,1-.09,2.48,2.38,2.38,0,0,1-2,2.15c-.16,0-.25.08-.26.26-.15,3.61.87,6.73,3.94,8.86a7.87,7.87,0,0,0,10.71-1.57,9.73,9.73,0,0,0,2.21-6.43c0-5.1,0-10.19,0-15.28A7.1,7.1,0,0,1,33.43,13a6.51,6.51,0,0,1,8.83,2.55,8.47,8.47,0,0,1,1.09,4.64c0,.73,0,.73.68.91A5.61,5.61,0,1,1,41.35,21c.29-.06.4-.17.4-.49a8.9,8.9,0,0,0-.42-3.24A5.21,5.21,0,0,0,36,13.79a5.51,5.51,0,0,0-4.58,4.5,7.71,7.71,0,0,0-.1,1.36V34.79a11.25,11.25,0,0,1-1.62,6.09,9.64,9.64,0,0,1-8.4,4.94A9.31,9.31,0,0,1,14,42.47a11.12,11.12,0,0,1-2.78-7.63,3.65,3.65,0,0,1,0-.47c0-.45,0-.68-.57-.77A2.54,2.54,0,0,1,8.86,31c0-.7,0-1.41,0-2.11,0-.35-.11-.47-.43-.57a11.69,11.69,0,0,1-7.28-6A9.83,9.83,0,0,1,.09,19,.54.54,0,0,0,0,18.68ZM12.14,27.26a9.63,9.63,0,0,0,3.73-.67c3.74-1.47,6.07-4.1,6.57-8.18.09-.76.08-.77-.67-.77a4.51,4.51,0,0,1-.52,0c-.31,0-.38.1-.4.39a7.78,7.78,0,0,1-1.36,4,8.69,8.69,0,0,1-10.6,2.86A7.75,7.75,0,0,1,4,18.05c0-.32-.11-.43-.44-.41-.54,0-1.09,0-1.64,0-.3,0-.37.09-.35.37a9.19,9.19,0,0,0,.69,3.1A10.45,10.45,0,0,0,12.14,27.26Zm30.34,3.21a4,4,0,1,0,.11-8,4,4,0,0,0-.11,8Zm-30.4-1.66H10.72c-.13,0-.29-.05-.28.18a10.91,10.91,0,0,0,.11,2.42.82.82,0,0,0,.88.68H12.6c.58,0,.81-.2.94-.78a11.58,11.58,0,0,0,.1-2.28c0-.19-.06-.24-.25-.23C13,28.83,12.52,28.81,12.08,28.81ZM7.2,3.18a.79.79,0,1,0,0-1.57.79.79,0,1,0,0,1.57Zm9.65,0a.8.8,0,0,0,.8-.76.82.82,0,0,0-.79-.82.79.79,0,0,0-.79.77A.77.77,0,0,0,16.85,3.18Z"/><path d="M42.54,28.87a2.38,2.38,0,0,1-2.4-2.38,2.42,2.42,0,0,1,2.42-2.43,2.41,2.41,0,0,1,0,4.81Zm.79-2.39a.81.81,0,0,0-.76-.8.8.8,0,0,0-.82.78.76.76,0,0,0,.75.79A.78.78,0,0,0,43.33,26.48Z"/></g></g></svg>