<svg xmlns="http://www.w3.org/2000/svg" viewBox="0 0 48.82 45.77"><title>NeurologyAsset 31</title><g id="Layer_2" data-name="Layer 2"><g id="Layer_1-2" data-name="Layer 1"><path d="M28.44,2.47a5.92,5.92,0,0,0-3.23-1.12,9.75,9.75,0,0,0-4.6.94,2.17,2.17,0,0,1-1.68.07A8.46,8.46,0,0,0,10,4.23c-.27.25-.37.43,0,.65a1.19,1.19,0,0,1,.28.27,1,1,0,0,0,1.56.11c.11-.1.2-.21.3-.32a.67.67,0,1,1,1,.84,2.45,2.45,0,0,1-1.5,1c-.5.09-.57.31-.58.76a4.12,4.12,0,0,1-1.43,3.06c-.4.37-.79.4-1,.06a.66.66,0,0,1,.13-1,2.85,2.85,0,0,0,1-2.84A1.77,1.77,0,0,0,9.23,6,.94.94,0,0,0,8.1,5.69a10.59,10.59,0,0,0-4.32,3,6.74,6.74,0,0,0-1.54,3.6c0,.33,0,.39.39.39a1.62,1.62,0,0,0,1.58-.88,2.7,2.7,0,0,1,1.33-1,.62.62,0,0,1,.88.3.6.6,0,0,1-.27.85,3.92,3.92,0,0,0-1,.78c-.17.22-.15.34.09.47a4.46,4.46,0,0,1,1.26,1c.19.21.3.16.48,0a9,9,0,0,1,9.09-2.7c.32.07.46,0,.55-.31a6.26,6.26,0,0,1,.76-1.76.48.48,0,0,0-.06-.67,3.33,3.33,0,0,1-.67-3.15c.11-.44.37-.71.83-.58s.56.46.46.91a2,2,0,0,0,.46,2,7.55,7.55,0,0,1,2.17-1.59c.22-.11.19-.34.25-.53a3.42,3.42,0,0,1,1.94-2.33c.54-.22.92-.12,1.09.27s0,.72-.56.95A2.31,2.31,0,0,0,22,6.56a1,1,0,0,1-.59.79A6.37,6.37,0,0,0,17.76,12c-.26,1.06-.39,1.15-1.43.86a10.05,10.05,0,0,0-3.66-.34.74.74,0,0,0-.73.62A2.33,2.33,0,0,0,12.35,15a.74.74,0,0,1,.06.87.66.66,0,0,1-1.11-.05,3.84,3.84,0,0,1-.72-2.79A7.24,7.24,0,0,0,7.69,15.3c-.15.2,0,.3.14.42a8.69,8.69,0,0,0,1.53,1.5c.44.31.53.69.29,1s-.63.34-1.07,0A9.89,9.89,0,0,1,6.35,16,7.11,7.11,0,0,0,5,14.54,2.71,2.71,0,0,0,3.93,14c-1-.19-1.87-.21-2.28,1.13A4.79,4.79,0,0,0,3,20.46a1.84,1.84,0,0,1,.56,1,4.49,4.49,0,0,0,2.57,3,9.36,9.36,0,0,0,3.9.83c.29,0,.39-.08.37-.38a9.7,9.7,0,0,1,0-1.32c0-.29-.08-.38-.36-.4a6.13,6.13,0,0,1-2.47-.72c-.47-.26-.63-.61-.45-1s.57-.46,1-.2a5.89,5.89,0,0,0,2.05.59c.31,0,.5,0,.62-.36A6.36,6.36,0,0,1,14,17.78a.6.6,0,0,0,.37-.54,4.24,4.24,0,0,1,1-2.42,2.15,2.15,0,0,1,.52-.48.65.65,0,0,1,.81,1,3.05,3.05,0,0,0-1,2.47.9.9,0,0,1-.57.9,5.75,5.75,0,0,0-3.47,5.93,8.68,8.68,0,0,0,3.15,6.11c1.71,1.47,3.68,1.38,5.65.54a19,19,0,0,0,3.4-1.93A9.39,9.39,0,0,1,35.53,30l.22.16a1,1,0,0,0,0-.6,4.24,4.24,0,0,0-2.37-3.13,7.74,7.74,0,0,0-6.61-.35,8.13,8.13,0,0,1-5.66.42A4.14,4.14,0,0,1,20,26a.62.62,0,0,1-.2-.91.6.6,0,0,1,.86-.22,6.25,6.25,0,0,0,5.59,0,8.86,8.86,0,0,1,7,0,5.88,5.88,0,0,1,4,6,1.36,1.36,0,0,0,.59,1.24,9.29,9.29,0,0,0,4.06,2.12c.51.08,1.2.26,1.46-.15s-.1-1-.38-1.48a3.87,3.87,0,0,0-1-1.06c-.4-.32-.49-.74-.21-1a.69.69,0,0,1,1,0,5,5,0,0,1,1.86,2.85,2.78,2.78,0,0,0,.92-2.94,3.07,3.07,0,0,0-1.88-2.1,11.56,11.56,0,0,0-1.92-.51,5.76,5.76,0,0,1-3.55-2.24,4.35,4.35,0,0,0-1.87-1.58,3.45,3.45,0,0,0-1.8-.15c-.52.07-.87-.11-.91-.53s.25-.7.67-.78a4.53,4.53,0,0,1,4.15,1.28,5.71,5.71,0,0,1,.72.84,4.71,4.71,0,0,0,3.06,1.91,5.65,5.65,0,0,1,4,2.16,10.37,10.37,0,0,0,1.25-5.09,4.45,4.45,0,0,1-5.17,1.6,2.67,2.67,0,0,1-2-3.07A1.84,1.84,0,0,0,40,20.66a.56.56,0,0,1,.12-.83.62.62,0,0,1,.86,0,1.81,1.81,0,0,1,.67,1.34,8.15,8.15,0,0,1,0,1.21,1.42,1.42,0,0,0,1,1.63,2.88,2.88,0,0,0,4-2.33A3.64,3.64,0,0,0,44,17.81a6.2,6.2,0,0,1,.6,2.39c0,.46,0,.92,0,1.37a.63.63,0,0,1-.72.67c-.45,0-.62-.33-.6-.77A5.65,5.65,0,0,0,43,18.86c-.23-.56-.5-1-1.26-1a2.65,2.65,0,0,1-2.21-1.44.66.66,0,1,1,1.09-.74,1.8,1.8,0,0,0,2.2.79,3,3,0,0,1,1.53,0c.36.09.42-.07.45-.34a1,1,0,0,1,0-.17c.09-1.23.09-1.22-1.1-1.43a5.44,5.44,0,0,1-3-1.37,2.2,2.2,0,0,0-2.13-.61.63.63,0,0,1-.84-.5.65.65,0,0,1,.57-.8,3.46,3.46,0,0,1,3.27.91,4.28,4.28,0,0,0,2.26,1.06c.19,0,.45.13.58,0s0-.38-.11-.56A7.61,7.61,0,0,0,42,9.56l-.39-.31a.64.64,0,0,1-.17-1,.65.65,0,0,1,1-.09A8.74,8.74,0,0,1,46,13.3a8.59,8.59,0,0,1,.12,3.35.75.75,0,0,0,.14.71c3.1,3.6,3.29,7.54,1.34,11.72a3.14,3.14,0,0,0-.35,1.51,5,5,0,0,1-3.6,5c-.28.07-.34.22-.38.45A9.81,9.81,0,0,1,43,37.09c-.73,2.6-2.77,4-5.71,4a3.17,3.17,0,0,1-.44,0,3.32,3.32,0,0,0-2.42.34,2.34,2.34,0,0,1-1.77.21c-.32-.06-.41,0-.44.35a14.85,14.85,0,0,1-.43,2.38c-.3,1.16-1,1.58-2.47,1.43A1.7,1.7,0,0,1,27.83,44a8.49,8.49,0,0,0-1.51-4.54l-.06-.1A9.68,9.68,0,0,0,24,37.19,4.9,4.9,0,0,1,22,34.48c-.19-.52-.38-1-.56-1.56-.13-.34-.27-.45-.68-.29a6.56,6.56,0,0,1-8.25-2.35,11.45,11.45,0,0,1-1.66-3.15.68.68,0,0,0-.74-.55,10.38,10.38,0,0,1-4.55-.94,5.88,5.88,0,0,1-3.29-3.8,1.22,1.22,0,0,0-.3-.5A6.13,6.13,0,0,1,.68,14a1.63,1.63,0,0,0,.21-.78A8.23,8.23,0,0,1,4.27,6.35,12.24,12.24,0,0,1,7.73,4.43,1.77,1.77,0,0,0,8.46,4,9.85,9.85,0,0,1,19.24,1.05a1.22,1.22,0,0,0,.94,0A10.2,10.2,0,0,1,27.12.35a6,6,0,0,1,2.33,1.22,1.23,1.23,0,0,0,1,.32,10.19,10.19,0,0,1,4.89.57,7.78,7.78,0,0,1,4.56,4.31c.28.65.17.91-.48,1.21a7.39,7.39,0,0,1-4.48.4A8.31,8.31,0,0,0,29.3,9.47a5.2,5.2,0,0,0-2.57,4.27c0,.33,0,.66-.05,1a.64.64,0,0,1-.66.62.63.63,0,0,1-.65-.68,6.64,6.64,0,0,1,3.15-6.28,10,10,0,0,1,7.22-1.25,6.05,6.05,0,0,0,2.36-.06c.38-.08.47-.21.24-.57A7.06,7.06,0,0,0,33,3.22a12.64,12.64,0,0,0-2.75,0A3.24,3.24,0,0,0,28.51,4a7.94,7.94,0,0,0-2.32,3.11,1.27,1.27,0,0,1-.64.71,6.48,6.48,0,0,0-3.91,6.25c0,.19,0,.37,0,.56a.62.62,0,0,1-.65.67.61.61,0,0,1-.67-.65,7.93,7.93,0,0,1,1.78-5.81,8.27,8.27,0,0,1,2.46-2c.18-.09.37-.16.46-.37A9,9,0,0,1,28.44,2.47ZM41.1,38.06c-2.65.32-4.45-1-5.89-2.92A12.15,12.15,0,0,1,34,33,8.67,8.67,0,0,0,31,29.42,2.88,2.88,0,0,0,29.23,29c-.29,0-.43.08-.46.4A7.66,7.66,0,0,0,29,32.87a3,3,0,0,1,0,2.37,1.93,1.93,0,0,0,.11,1.81,5.61,5.61,0,0,0,2.15,2.59c.13.08.27.14.52.27a5.7,5.7,0,0,1-.72-1.63c-.13-.56,0-.93.44-1s.7.14.85.72a3.08,3.08,0,0,0,1,1.7c.61.5.7.48,1.33,0,.3-.22.2-.31,0-.5a6.93,6.93,0,0,1-2.19-3.25,8,8,0,0,0-.67-1.56,3.74,3.74,0,0,0-1.59-1.56c-.53-.25-.71-.59-.53-1s.59-.46,1.1-.22a4.93,4.93,0,0,1,2,1.88,11.68,11.68,0,0,1,1,2.32A5.24,5.24,0,0,0,39,39.33,2.52,2.52,0,0,0,41.1,38.06ZM27.39,30c0-.78.05-.77-.71-.52a14.65,14.65,0,0,0-3.26,1.81c-.32.21-.79.33-.94.62s.24.69.37,1a8.94,8.94,0,0,0,.95,2.28,2.06,2.06,0,0,0,3,.72,1.94,1.94,0,0,0,1-2.41,1.79,1.79,0,0,0-1.88-1.45h-.28a.62.62,0,0,1-.64-.63.63.63,0,0,1,.63-.69,3.31,3.31,0,0,1,.94.06c.77.17.77.16.82-.67A.86.86,0,0,0,27.39,30Zm7.29.84-.26.21c.78,1.08,1.13,2.37,1.92,3.44a6.7,6.7,0,0,0,1.82,1.74,3.87,3.87,0,0,0,3.28.4c.41-.12.44-.39.45-.7s-.29-.24-.47-.3-.68-.18-1-.3a11.81,11.81,0,0,1-4-2.53C35.81,32.16,35.27,31.45,34.68,30.8ZM30.93,41.52c0-.28.06-.52-.26-.7a6.8,6.8,0,0,1-2.83-3.42c-.14-.34-.25-.43-.62-.25s-.44.33-.26.66.26.58.44.83a10.17,10.17,0,0,1,1.76,5.25c0,.31.09.56.47.53s.75.15.87-.41A17.52,17.52,0,0,0,30.93,41.52Z"/><path d="M26,21.67A5.66,5.66,0,0,0,28,21a11.44,11.44,0,0,1,3.89-1.33,2.57,2.57,0,0,0,2.06-1.72A13.36,13.36,0,0,1,35.35,15a5.78,5.78,0,0,1,.63-.76.61.61,0,0,1,.93,0,.62.62,0,0,1,0,1,6.55,6.55,0,0,0-1,1.58,7.38,7.38,0,0,1,.79.12.6.6,0,0,1,.46.72.59.59,0,0,1-.64.55c-.18,0-.37,0-.55,0a.91.91,0,0,0-.91.58A3.85,3.85,0,0,1,31.89,21a8.63,8.63,0,0,0-3,1,9.21,9.21,0,0,1-6.72.93,6.87,6.87,0,0,0-3.6,0,3.13,3.13,0,0,0-2.28,3.35,2.45,2.45,0,0,0,1.09,1.6c.38.27.57.58.31,1s-.63.38-1.11.05a3.74,3.74,0,0,1-1.32-4.69c.15-.34.15-.53-.14-.78A2.56,2.56,0,0,1,14.38,22a.64.64,0,0,1,.46-.86.63.63,0,0,1,.83.52c0,.12.07.25.12.37.28.64.46.69,1,.29A5.82,5.82,0,0,1,21,21.39a19.16,19.16,0,0,1,2,.34,1.57,1.57,0,0,0,2-1.38c.08-.44.3-.73.77-.67s.59.38.56.81A3.79,3.79,0,0,1,26,21.67Z"/><path d="M31.14,13a5.17,5.17,0,0,0,.66-1.21c.18-.38.46-.6.88-.43a.64.64,0,0,1,.34,1,10.41,10.41,0,0,1-4.65,5,7.58,7.58,0,0,1-5.77.95A12.63,12.63,0,0,0,18.44,18l-.33,0c-.6,0-.91-.19-.92-.62s.28-.65.86-.71A16.22,16.22,0,0,1,23.2,17c2.1.47,3.85-.36,5.51-1.51a6.2,6.2,0,0,0,.7-.54,1.28,1.28,0,0,0,.25-1.87c-.35-.51-.35-.85,0-1.1s.73-.13,1.07.34C30.87,12.52,31,12.73,31.14,13Z"/><path d="M6.09,19.53a.6.6,0,0,1-.65.59c-.4,0-.9-.63-.91-1.16a.62.62,0,0,1,.62-.69C5.56,18.23,6.09,18.92,6.09,19.53Z"/></g></g></svg>