<svg xmlns="http://www.w3.org/2000/svg" viewBox="0 0 33.86 45.33"><title>OsteologyAsset 41</title><g id="Layer_2" data-name="Layer 2"><g id="Layer_1-2" data-name="Layer 1"><path d="M13.12,20.45a8.18,8.18,0,0,0,1.26.19c.23,0,.27-.07.27-.27q0-1.86,0-3.72c0-.24-.14-.29-.3-.36a4.39,4.39,0,0,1-1.94-1.57,2,2,0,0,1,.69-3,.63.63,0,0,0,.36-.84,1.17,1.17,0,0,0-.86-.87A2.2,2.2,0,0,1,11,7.27c.19-.95.18-1.93.43-2.88A5.76,5.76,0,0,1,19.8.73a5.48,5.48,0,0,1,2.74,4A25,25,0,0,1,23,7.79,2.13,2.13,0,0,1,21.36,10a1.18,1.18,0,0,0-1,1.23.38.38,0,0,0,.23.41A2,2,0,0,1,21.26,15a4.26,4.26,0,0,1-1.7,1.27.44.44,0,0,0-.34.48q0,1.77,0,3.54c0,.29.06.4.38.34a8,8,0,0,0,1.15-.18,2.4,2.4,0,0,0-.71-.71c-.31-.23-.45-.52-.19-.86s.57-.28.88-.07a3.67,3.67,0,0,1,1.09,1.13c.14.25.29.27.54.17a7,7,0,0,1,2.19-.63,6.08,6.08,0,0,1,2.68.35A2.71,2.71,0,0,1,29.15,22a.27.27,0,0,0,.22.26,2.38,2.38,0,0,1,1.71,2.52A7.24,7.24,0,0,1,31,26.26a6,6,0,0,0,.22,2.6,33.13,33.13,0,0,1,1.67,9,3.62,3.62,0,0,0,.51,1.72A3.63,3.63,0,0,1,33.85,41a2.35,2.35,0,0,1-2,2.61,2.65,2.65,0,0,1-2.94-2.08,2,2,0,0,1,0-1.13,7.21,7.21,0,0,0,.12-4c-.36-2.66-.85-5.31-1.39-7.94a3.13,3.13,0,0,0-1.09-1.95,2.49,2.49,0,0,1-.63-3.07.38.38,0,0,0-.12-.56,1.7,1.7,0,0,0-1.84,0c-.12.1-.06.2,0,.3a2.54,2.54,0,0,1,.18,1,.59.59,0,0,0,.22.45A3.48,3.48,0,0,1,25.29,28c0,.13-.13.31,0,.39s.21-.14.3-.23.2-.29.32-.41a.57.57,0,0,1,.91.67,1.6,1.6,0,0,1-.22.31A2.61,2.61,0,0,0,26,30.57c.12,1.87-1,3.07-2.5,4a6.84,6.84,0,0,1-2.33.79,1.76,1.76,0,0,0,2.63.53,4,4,0,0,0,1.3-1.62c.25-.59.73-.63,1.13-.11a3,3,0,0,1-.07,3.55,5.11,5.11,0,0,1-2,1.53.9.9,0,0,0,1.11.26A2.52,2.52,0,0,0,26,39c.45-.39.91-.24,1,.34a2.57,2.57,0,0,1-.66,2.6,2.63,2.63,0,0,1-2.69.48,5.57,5.57,0,0,1-2.21-1.45,15.27,15.27,0,0,1-1.88-2.29c-.17.09-.1.24-.1.34,0,1.31,0,2.62,0,3.92a2.34,2.34,0,0,1-.86,1.9,2.77,2.77,0,0,1-2.77.28,2.06,2.06,0,0,1-1.35-2c0-1.29,0-2.58,0-3.88v-.54c-.21.06-.26.23-.34.34a11.08,11.08,0,0,1-2.74,2.85,3.41,3.41,0,0,1-2.61.65,2.5,2.5,0,0,1-1.82-3.36.58.58,0,0,1,.91-.23c.22.16.42.35.65.49a1,1,0,0,0,1.28-.11c0-.18-.21-.17-.33-.23a4.72,4.72,0,0,1-1.76-1.43,2.93,2.93,0,0,1-.08-3.4c.16-.24.34-.48.68-.44s.43.28.55.54a3.66,3.66,0,0,0,1.37,1.62,1.77,1.77,0,0,0,2.53-.61A6.39,6.39,0,0,1,9.13,33.6,3.94,3.94,0,0,1,7.9,30.05a.59.59,0,0,0,0-.41,8.77,8.77,0,0,0-1.42-1.88A16.26,16.26,0,0,0,6,29.92q-.81,4-1.31,8.1a5,5,0,0,0,.28,2.21,2.62,2.62,0,0,1-2.65,3.4A2.36,2.36,0,0,1,.05,40.79a3.46,3.46,0,0,1,.43-1.16,4.15,4.15,0,0,0,.57-2.09,29.75,29.75,0,0,1,1.49-8.15,7.74,7.74,0,0,0,.29-3.76,4,4,0,0,1,.11-1.84,2.15,2.15,0,0,1,1.48-1.5c.15-.05.28-.08.31-.3a2.68,2.68,0,0,1,2-2.18,5.82,5.82,0,0,1,4.34.11l.35.14a.47.47,0,0,0,.73-.21,3.13,3.13,0,0,1,1.07-1.07c.38-.25.75-.22.92.09a.58.58,0,0,1-.25.85A2.24,2.24,0,0,0,13.12,20.45ZM17,1.25a4.28,4.28,0,0,0-4.53,3.62c-.19.81-.17,1.65-.33,2.46-.25,1.26.44,1.91,1.67,1.59.32-.08.61-.11.81.2a.54.54,0,0,1-.13.76c-.2.16,0,.29,0,.42s.18.17.31.13a8,8,0,0,1,4.34,0c.13,0,.26,0,.3-.13s.2-.25,0-.39a.56.56,0,0,1-.15-.8c.2-.31.51-.27.81-.19a1.94,1.94,0,0,0,.33.07A1.15,1.15,0,0,0,21.8,7.54c-.14-.72-.17-1.45-.28-2.18A4.36,4.36,0,0,0,17,1.25ZM5.43,23.33c-1,0-1.44.37-1.49,1.37a4.91,4.91,0,0,0,0,.86,8.4,8.4,0,0,1-.29,4,29.26,29.26,0,0,0-1.5,8.14,5,5,0,0,1-.66,2.41,3.29,3.29,0,0,0-.31.75,1.12,1.12,0,0,0,.34,1.29A1.29,1.29,0,0,0,3,42.34a1.46,1.46,0,0,0,.75-1.89A5.58,5.58,0,0,1,3.48,38c.35-2.88.83-5.73,1.4-8.58.28-1.44.52-2.87,1.82-3.86A1.17,1.17,0,0,0,7,24.11a1.27,1.27,0,0,0-1.18-.76A2.36,2.36,0,0,0,5.43,23.33Zm23,0c-.66,0-1.3.09-1.58.81s0,1.18.65,1.74A3.61,3.61,0,0,1,28.7,28c.65,3.06,1.19,6.15,1.6,9.26a6.24,6.24,0,0,1-.24,3.29,1.48,1.48,0,0,0-.07.42,1.46,1.46,0,0,0,.88,1.41,1.29,1.29,0,0,0,1.47-.21,1.25,1.25,0,0,0,.25-1.49,2.45,2.45,0,0,0-.24-.52,4.86,4.86,0,0,1-.67-2.41,30.41,30.41,0,0,0-1.53-8.28,7.55,7.55,0,0,1-.33-3.34,7.14,7.14,0,0,0,.11-1.38C29.88,23.72,29.45,23.31,28.46,23.33ZM8.28,35.7a1.28,1.28,0,0,0,.05.79A3.32,3.32,0,0,0,12.71,38a5.86,5.86,0,0,0,1.71-1.58A5.6,5.6,0,0,1,15.94,35a1.75,1.75,0,0,1,2,0,5.52,5.52,0,0,1,1.5,1.39,6.85,6.85,0,0,0,1.07,1.15A3.17,3.17,0,0,0,25.24,37a1.43,1.43,0,0,0,.35-1.28,8.56,8.56,0,0,1-1.05,1,2.92,2.92,0,0,1-3.78-.09,7.25,7.25,0,0,1-.84-.91,10.57,10.57,0,0,0-1.4-1.44,2.93,2.93,0,0,1-1.11-2.42c0-1.8,0-3.6,0-5.4a8.53,8.53,0,0,1,.41-3,1.64,1.64,0,0,0-.2-1.47.75.75,0,0,0-1.35,0,1.8,1.8,0,0,0-.17,1.61,6.21,6.21,0,0,1,.37,2V32a2.78,2.78,0,0,1-1,2.22,10.92,10.92,0,0,0-1.5,1.54,8.18,8.18,0,0,1-.74.81,2.92,2.92,0,0,1-3.89.13A7.55,7.55,0,0,1,8.28,35.7ZM19,27a5.23,5.23,0,0,0,3.15-1.05,2,2,0,0,0,.7-2.34c-.09-.21-.18-.36-.46-.3a24,24,0,0,1-3.17.35c-.15,0-.27,0-.32.21s-.16.55-.24.82,0,.37.28.32a2.65,2.65,0,0,0,1.79-.78.49.49,0,0,1,.73-.06.53.53,0,0,1,.15.76,1.86,1.86,0,0,1-.89.77A4.43,4.43,0,0,1,19,26.1c-.5,0-.41.3-.42.59S18.85,26.93,19,27Zm-5.06-4.55c.21,0,.42,0,.62.06.42.07.38-.29.41-.49s-.21-.15-.33-.16a12.46,12.46,0,0,1-4-.82,5,5,0,0,0-3.5-.13A2,2,0,0,0,6,21.79c-.06.12-.18.26,0,.39a1.35,1.35,0,0,0,1.29-.06,2.36,2.36,0,0,1,2.45-.5A16.27,16.27,0,0,0,13.94,22.41Zm4.88-.57c.17.28,0,.68.54.63a19.6,19.6,0,0,0,4.87-.86,2.08,2.08,0,0,1,2.2.38,1.15,1.15,0,0,0,1.31.24c.29-.09.28-.2.18-.4a1.8,1.8,0,0,0-1.06-.91,4.45,4.45,0,0,0-3.13-.09A15.18,15.18,0,0,1,18.82,21.84Zm-.22,10.3a3.49,3.49,0,0,0,1.6,2.09.65.65,0,0,0,.14,0,5.1,5.1,0,0,0,3.88-1.76,2.64,2.64,0,0,0,.5-2.68c0-.1-.08-.35-.21-.21s-.7.4-.55.9A1.3,1.3,0,0,1,24,31a3,3,0,0,1-2.88,2.34A2.84,2.84,0,0,1,18.6,32.14Zm-3.3,0c-1.51,1.37-2.73,1.49-4.32.47a2.09,2.09,0,0,1-1.06-2,1.12,1.12,0,0,0-.41-1c-.22-.23-.29-.16-.36.09a2.74,2.74,0,0,0,.69,2.9,5.14,5.14,0,0,0,2.6,1.42c.74.16,1.44.24,2-.5a1.68,1.68,0,0,1,.29-.24A1.69,1.69,0,0,0,15.3,32.16ZM8.23,24.58a2.65,2.65,0,0,1-.91,2c-.2.17-.19.25,0,.43.34.38.65.78,1,1.17.08.09.11.28.26.22s.08-.25.05-.38a3.45,3.45,0,0,1,1-3.4.49.49,0,0,0,.18-.37,2.8,2.8,0,0,1,.18-1c0-.1.1-.19,0-.29A1.62,1.62,0,0,0,8,23c-.17.15-.22.27-.09.48A2.18,2.18,0,0,1,8.23,24.58Zm1.83,1.21a2.26,2.26,0,0,0-.17.26,2.53,2.53,0,0,0,.5,2.9,5.35,5.35,0,0,0,4.49,1.65c.48,0,.41-.26.44-.56s-.24-.32-.46-.3a5.16,5.16,0,0,1-3-.45A2,2,0,0,1,10.77,27a.4.4,0,0,0-.09-.43C10.47,26.3,10.29,26.06,10.06,25.79Zm13.71,0a3.09,3.09,0,0,1-.57.74c-.15.12-.13.25-.1.42A2,2,0,0,1,22,29.29a4.76,4.76,0,0,1-2.92.44c-.45-.06-.53.09-.51.49s.12.38.39.37.67,0,1,0a4.73,4.73,0,0,0,3.71-1.85A2.34,2.34,0,0,0,23.77,25.78Zm-10.3-12.9a.94.94,0,0,0-.09,1.23,3,3,0,0,0,1.18,1,5.7,5.7,0,0,0,4.63.06,2.85,2.85,0,0,0,1.33-1.12.76.76,0,0,0-.16-1.1c-.56,1.6-1.9,1.89-3.34,1.9S14.11,14.63,13.47,12.88ZM12,23.79c.11-.33-.05-.45-.41-.52s-.47.11-.57.4a2,2,0,0,0,.7,2.21A5.38,5.38,0,0,0,14.94,27c.23,0,.42,0,.37-.31s.13-.55-.34-.56a4.67,4.67,0,0,1-1.8-.44A2,2,0,0,1,12,23.79Zm3.61,13.59c-.15.49.18.64.65.71a4.23,4.23,0,0,0,1.23,0c.85-.14.85-.13.83-1a1.79,1.79,0,0,0-1.43-1.24A1.75,1.75,0,0,0,15.58,37.38Zm1.34,6.73c.81.07,1.09-.19,1.3-.82a3,3,0,0,0,.06-1c0-.2-.12-.18-.26-.15a5.47,5.47,0,0,1-2.17,0c-.09,0-.2-.09-.26.08A1.41,1.41,0,0,0,16.92,44.11ZM18.29,40a3.09,3.09,0,0,1,0-.43c0-.33-.05-.44-.41-.35a4.46,4.46,0,0,1-2,0c-.12,0-.26-.13-.31.12-.28,1.36,0,1.76,1.42,1.74h.29C18.24,41,18.29,40.93,18.29,40Zm-.21-20.2c0-.22,0-.45,0-.67s-.07-.33-.32-.27a3.41,3.41,0,0,1-1.65,0c-.21-.05-.33,0-.32.25,0,.43,0,.86,0,1.28s.11.3.34.19a1.74,1.74,0,0,1,1.25-.13c.7.19.7.18.7-.57ZM8,40.48a1,1,0,0,0,.85.86,3.58,3.58,0,0,0,3.24-1.85,1.78,1.78,0,0,0-1.5.57A2.2,2.2,0,0,1,8,40.48Zm13.63-1a6.2,6.2,0,0,0,2.15,1.74,1.85,1.85,0,0,0,1.31.07.91.91,0,0,0,.7-.82A2.21,2.21,0,0,1,23.19,40,1.79,1.79,0,0,0,21.66,39.5Zm-4.27-27v-.95c0-.39-.3-.25-.49-.26s-.43-.09-.43.26c0,.62,0,1.24,0,1.86,0,.13,0,.24.17.29.5.14.74,0,.74-.53Zm-3.72,11c-.16,0-.39-.12-.51.11a.68.68,0,0,0,.11.67.84.84,0,0,0,.37.3,5.56,5.56,0,0,0,1.27.35c.25,0,.34,0,.31-.3-.13-.88-.24-1-1.11-1.09Zm3.14-5.74a2.5,2.5,0,0,0,1.07-.18c.38-.16.17-.5.18-.75s-.23-.13-.36-.12a11,11,0,0,1-1.62,0c-.2,0-.28,0-.29.24,0,.61,0,.65.6.77A3.44,3.44,0,0,0,16.81,17.8Zm-4.93,9.57a.93.93,0,0,0,.58.92,4.37,4.37,0,0,0,2.55.27c.14,0,.3,0,.3-.21s-.17-.22-.32-.22A6.74,6.74,0,0,1,11.88,27.37Zm10.11,0a6.84,6.84,0,0,1-3.12.76c-.13,0-.31-.05-.31.18s0,.22.17.24a4.3,4.3,0,0,0,2.82-.34A.86.86,0,0,0,22,27.37Zm-8,4.36a5.58,5.58,0,0,1-2.9-.75A1.94,1.94,0,0,0,14,31.73ZM22.79,31a5.56,5.56,0,0,1-2.9.79A1.94,1.94,0,0,0,22.79,31ZM15.3,13.34c0-.1,0-.19,0-.28,0-.44,0-.88,0-1.32,0-.24-.1-.25-.3-.2a.44.44,0,0,0-.4.51C14.65,12.93,14.74,13.15,15.3,13.34Zm3.93-1.09a2.14,2.14,0,0,0,0-.44c-.06-.28-.33-.26-.53-.29s-.14.2-.14.31c0,.43,0,.86,0,1.28s.13.27.31.14A1,1,0,0,0,19.23,12.25Z"/><path d="M14.76,4.82a1.38,1.38,0,0,1,1.45,1.43A2.34,2.34,0,0,1,14.3,8.31a1.66,1.66,0,0,1-1.55-1.68A1.88,1.88,0,0,1,14.76,4.82Zm-.85,1.82c0,.19.07.45.3.47.39,0,.53-.35.75-.57a.37.37,0,0,0,0-.49s-.05,0-.08,0A.78.78,0,0,0,13.91,6.64Z"/><path d="M19.16,4.82a1.91,1.91,0,0,1,1.76,1,1.67,1.67,0,0,1-.19,1.88,1.38,1.38,0,0,1-2.09.2,2.29,2.29,0,0,1-1-1.47A1.41,1.41,0,0,1,19.16,4.82Zm0,1.16c-.16,0-.34,0-.35.22,0,.46.37.63.63.89s.27,0,.36-.09a.56.56,0,0,0,.11-.54C19.81,6.09,19.5,6,19.18,6Z"/><path d="M16.36,8.41c0-.36,0-.68.42-.81a.53.53,0,0,1,.63.23,1.49,1.49,0,0,1,0,1.19.54.54,0,0,1-.64.18C16.37,9.06,16.34,8.74,16.36,8.41Z"/></g></g></svg>