<svg xmlns="http://www.w3.org/2000/svg" viewBox="0 0 42.19 43.83"><title>OtolaryngologyAsset 50</title><g id="Layer_2" data-name="Layer 2"><g id="Layer_1-2" data-name="Layer 1"><path d="M30.07,34v8.85a4,4,0,0,1,0,.49.58.58,0,0,1-1.14.06,2.42,2.42,0,0,1,0-.54c0-5.77,0-11.53,0-17.3a3.26,3.26,0,0,0-3.47-3.47,4.18,4.18,0,0,1-4.36-2.88A3.27,3.27,0,0,0,17.72,17c-1.75,0-3.5,0-5.24,0a3.54,3.54,0,0,0-2.7,1.11c-2.16,2.17-4.35,4.31-6.52,6.47-.12.12-.5.24-.24.46s.46.55.88.26,1.07-.65,1.6-1A1.38,1.38,0,0,1,6.29,24H19.68a1.43,1.43,0,0,1,.75.2c1.23.7,2.46,1.39,3.68,2.1A2.1,2.1,0,0,1,25,29.26a2.14,2.14,0,0,1-3,.79c-.86-.48-1.71-1-2.56-1.48a6.33,6.33,0,0,0-3.2-.87H10.37a1.58,1.58,0,0,0-1.76,1.73V33.3A1.58,1.58,0,0,0,10.31,35h4.45a.48.48,0,0,0,.52-.48c0-.34-.23-.49-.56-.49h-3.8a1.16,1.16,0,0,1-1.33-1.33c0-.92,0-1.85,0-2.77a1.11,1.11,0,0,1,1.22-1.23c1.91,0,3.82,0,5.73,0a4.65,4.65,0,0,1,2.35.68c1.26.77,2.53,1.53,3.78,2.32a4.33,4.33,0,0,1,2,4.77l-1.44,6.66c-.08.39-.26.69-.72.62s-.52-.35-.45-.84l0-.14L23,38.51c.19-.88.41-1.76.54-2.65a3,3,0,0,0-1.37-3.07c-1.31-.85-2.66-1.64-4-2.45a3.32,3.32,0,0,0-1.74-.47c-1.75,0-3.49,0-5.24,0-.36,0-.44.11-.43.45,0,.72,0,1.45,0,2.17,0,.29.09.36.37.36h3.5a1.68,1.68,0,1,1,0,3.35H10.28a2.75,2.75,0,0,1-2.85-2.87c0-1.33,0-2.67,0-4A2.66,2.66,0,0,1,10,26.55c2.4-.05,4.81-.12,7.21,0a6.52,6.52,0,0,1,2.79.94L22.54,29a1,1,0,0,0,.89.14,1,1,0,0,0,.65-.81.86.86,0,0,0-.48-.9L20,25.34a1,1,0,0,0-.52-.11H6.54a1.2,1.2,0,0,0-.64.19c-1.6,1-1.59,1-2.27,2.63a.25.25,0,0,0,.13.39,3.11,3.11,0,0,0,1.14.44.58.58,0,0,1,.55.48.6.6,0,0,1-.33.66c-.65.43-.66.44-.15,1a2.15,2.15,0,0,1,.48,2.24,8.81,8.81,0,0,0-.45,2,1.58,1.58,0,0,0,1.51,2,22.34,22.34,0,0,0,5.42-.06c1-.1,2.06-.24,3.08-.41a2.08,2.08,0,0,1,2.4,1.45c.51,1.51.86,3.07,1.27,4.61.09.36.05.7-.39.83s-.65-.09-.77-.56c-.37-1.45-.72-2.9-1.18-4.33A1,1,0,0,0,15,38a36.59,36.59,0,0,1-7.82.54,7.83,7.83,0,0,1-.83-.1,2.74,2.74,0,0,1-2.53-3.29,8.12,8.12,0,0,1,.46-2.12,1.19,1.19,0,0,0-.37-1.41c-.1-.11-.21-.21-.32-.31-.7-.59-.73-.74-.23-1.52.1-.17.05-.2-.08-.29-1.21-.88-1.24-1-.55-2.33.44-.84.5-.65-.32-1.17-.5-.32-1-.61-1.49-1a2,2,0,0,1-.45-3,2.87,2.87,0,0,1,.45-.53,18.86,18.86,0,0,0,3.31-4.28,2.88,2.88,0,0,0,.44-1.49c0-.65-.06-1.29-.09-1.93A10.83,10.83,0,0,1,8.74,4.72,20.12,20.12,0,0,1,18.18.48a22.4,22.4,0,0,1,15.06,2A16.68,16.68,0,0,1,39.63,8a16.17,16.17,0,0,1,2.48,7.57,18.15,18.15,0,0,1-.27,5.25,5.72,5.72,0,0,1-1,2.24c-1.62,2.22-3.29,4.41-4.9,6.63a5.15,5.15,0,0,0-.51,5.41c1,2.52,2.1,5,3.15,7.56a1.84,1.84,0,0,1,.15.36.56.56,0,0,1-.31.71.55.55,0,0,1-.76-.25,2.37,2.37,0,0,1-.17-.36c-1.06-2.55-2.14-5.09-3.19-7.65a6.2,6.2,0,0,1,.63-6.4c1.44-2,2.88-4,4.38-5.91a7.24,7.24,0,0,0,1.57-3.86,16.11,16.11,0,0,0-2.3-10.69,16.25,16.25,0,0,0-7-5.65,19.94,19.94,0,0,0-8.23-1.78A22,22,0,0,0,10.62,4.8,11,11,0,0,0,7.09,8.41a9.18,9.18,0,0,0-1.3,5.67,17.54,17.54,0,0,1,.06,1.78,3.79,3.79,0,0,1-.57,2,21.17,21.17,0,0,1-3.55,4.6c-.65.58-.68,1.11-.24,1.58.23.24.38.24.63,0,2.25-2.24,4.53-4.46,6.76-6.72a4.85,4.85,0,0,1,3.67-1.51c1.73,0,3.46,0,5.19,0a4.32,4.32,0,0,1,4.39,2.89,3.28,3.28,0,0,0,3.39,2.25,4.24,4.24,0,0,1,4.55,4.52C30.08,28.27,30.07,31.12,30.07,34Z"/></g></g></svg>