<svg xmlns="http://www.w3.org/2000/svg" viewBox="0 0 44.17 44.1"><title>PaediatricsAsset 35</title><g id="Layer_2" data-name="Layer 2"><g id="Layer_1-2" data-name="Layer 1"><path d="M13.45,17.61a3.82,3.82,0,0,1-3.74-.42A2.45,2.45,0,0,1,8.6,14.41,2.35,2.35,0,0,1,11,12.65a.62.62,0,0,0,.63-.44,4.8,4.8,0,0,1,3.56-3.07,4.17,4.17,0,0,1,2.51.3c.28.12.41.12.41-.23a4.48,4.48,0,0,1,.09-.82,2.43,2.43,0,0,1,3.95-1.47c.21.17.31.21.5,0a1.89,1.89,0,0,1,.76-.58,1.45,1.45,0,0,0,.89-1.08A7.63,7.63,0,0,1,37.15,2.48a7.9,7.9,0,0,1,.33,10.63,13.91,13.91,0,0,1-4.67,3.64,3.74,3.74,0,0,0-1.87,1.95,18.32,18.32,0,0,1-2.67,4.48,9.22,9.22,0,0,1-9.91,3.24,6.57,6.57,0,0,1-4.94-5.76A12,12,0,0,1,13.45,17.61Zm7-2.64A9.22,9.22,0,0,1,20.15,17a.73.73,0,1,1-1.42-.3c0-.12.05-.24.07-.36a7,7,0,0,0-.22-4,2.86,2.86,0,0,0-5-.75,5.65,5.65,0,0,0-.95,1.82c-.19.59-.4.71-1,.67a5.3,5.3,0,0,0-.69,0,.92.92,0,0,0-.92.63,1,1,0,0,0,.37,1.13,2.11,2.11,0,0,0,3.31-.51,7.49,7.49,0,0,0,.46-.89c.14-.31.23-.63.37-.94a.72.72,0,0,1,.91-.41.7.7,0,0,1,.46.88,4.56,4.56,0,0,1-.18.52,12.81,12.81,0,0,0-.85,6,5.17,5.17,0,0,0,4,4.48,7.94,7.94,0,0,0,8.56-3.11,24.42,24.42,0,0,0,2.43-4.31,3.8,3.8,0,0,1,1.85-1.94,14,14,0,0,0,3.85-2.63,6.69,6.69,0,0,0,2.2-6.47,6.53,6.53,0,0,0-6.31-5.12,6.1,6.1,0,0,0-6,5.06,1,1,0,0,1-.79.84A2.2,2.2,0,0,0,23,9.61a2.28,2.28,0,0,0,1.19,2,.74.74,0,0,1,.29,1,.74.74,0,0,1-1,.23,3.6,3.6,0,0,1-.87-.67A3.68,3.68,0,0,1,21.5,9.08a1,1,0,0,0-.84-1.24c-.58-.07-1,.34-1.09,1a5.49,5.49,0,0,0,.33,2.75,5.71,5.71,0,0,0,5.53,3.71c.57,0,.93.28.93.73s-.34.73-.91.74a7.27,7.27,0,0,1-2.27-.3A7.52,7.52,0,0,1,20.44,15Z"/><path d="M44.12,19.69v.19A17.92,17.92,0,0,1,44,23.4a16.75,16.75,0,0,1-1.31,3.22c-.67,1.56-1.35,3.11-2,4.68A6.72,6.72,0,0,1,38.62,34c-1.5,1.17-3,2.35-4.49,3.51a.73.73,0,0,0-.31.65c0,1.68,0,3.37,0,5.05,0,.67-.57,1.06-1.09.75a.72.72,0,0,1-.37-.69c0-1.93,0-3.86,0-5.79a1,1,0,0,1,.49-.83L37.58,33a6,6,0,0,0,1.86-2.4c1-2.4,2-4.78,3.07-7.17a1.66,1.66,0,0,0,.14-.66c0-2,0-4.07,0-6.11a.6.6,0,0,0-.51-.68,1.34,1.34,0,0,0-1.63.68,5.42,5.42,0,0,0-.63,2.19c-.08.58-.12,1.16-.18,1.74a.73.73,0,0,1-1.45,0,10.13,10.13,0,0,1,1-4.63,2.8,2.8,0,0,1,3.87-1.15,1.69,1.69,0,0,1,1,1.65C44.09,17.52,44.12,18.61,44.12,19.69Z"/><path d="M1.46,19.74a10.57,10.57,0,0,0,1.31,6.39c.74,1.51,1.36,3.08,2,4.63a5.18,5.18,0,0,0,1.62,2.08q2.39,1.9,4.81,3.76a1.37,1.37,0,0,1,.58,1.21c0,1.81,0,3.61,0,5.42,0,.55-.33.9-.79.86s-.68-.35-.68-.87c0-1.65,0-3.31,0-5a.87.87,0,0,0-.4-.79C8.43,36.33,7,35.17,5.5,34a6.72,6.72,0,0,1-2.1-2.73c-1-2.48-2.12-5-3.19-7.42a2.29,2.29,0,0,1-.21-1c0-2.17,0-4.35,0-6.52a1.62,1.62,0,0,1,.86-1.51,2.79,2.79,0,0,1,3.72.64A6.33,6.33,0,0,1,5.7,18.7c.07.53.11,1.07.16,1.6s-.23.93-.68,1-.73-.26-.78-.81A15.34,15.34,0,0,0,4,17.51a2.92,2.92,0,0,0-.59-1.18,1.3,1.3,0,0,0-1.11-.44c-.61.06-.8.26-.8.86Z"/><path d="M23.53,38.75a42.21,42.21,0,0,1,.08-4.43,8.06,8.06,0,0,1,5.54-6.76,2.79,2.79,0,0,0,1-.63c1-1,2-2,3-3a5.08,5.08,0,0,1,3.14-1.54,4.13,4.13,0,0,1,3.39,1.43.68.68,0,0,1,0,1,7.14,7.14,0,0,1-.54.56l-5.72,5.71a2.59,2.59,0,0,1-.35.31.68.68,0,0,1-1-.11.71.71,0,0,1-.06-.93,2.37,2.37,0,0,1,.34-.37c1.76-1.77,3.52-3.54,5.3-5.29.32-.3.22-.4-.11-.55a2.44,2.44,0,0,0-2.08,0,4.82,4.82,0,0,0-1.47,1L31.15,28a3.21,3.21,0,0,1-1.43.9,6.43,6.43,0,0,0-3.95,3.29A6.77,6.77,0,0,0,25,35.45c0,2.48,0,5,0,7.45v.32c0,.54-.28.87-.73.87s-.73-.32-.74-.86Z"/><path d="M20.59,39.05v4.13c0,.58-.28.92-.74.91s-.73-.33-.73-.91c0-2.58,0-5.15,0-7.72A6.63,6.63,0,0,0,14.63,29a4.83,4.83,0,0,1-1.94-1.29c-.82-.83-1.64-1.65-2.47-2.46A4.69,4.69,0,0,0,8.15,24a2.55,2.55,0,0,0-1.74.18c-.31.15-.34.25-.08.5,1.52,1.5,3,3,4.52,4.51.35.35.7.69,1,1a.73.73,0,0,1,0,1.07.71.71,0,0,1-1.09-.05q-3.18-3.15-6.34-6.33a.72.72,0,0,1,0-1.16A4.06,4.06,0,0,1,9.69,23a8.11,8.11,0,0,1,1.69,1.34l2.73,2.73a1.62,1.62,0,0,0,.65.4,8.23,8.23,0,0,1,5.83,8Z"/></g></g></svg>