<svg xmlns="http://www.w3.org/2000/svg" viewBox="0 0 27.78 43.93"><title>PhlebologyAsset 37</title><g id="Layer_2" data-name="Layer 2"><g id="Layer_1-2" data-name="Layer 1"><path d="M6.35,43.93A11.07,11.07,0,0,1,5,43.49,4.75,4.75,0,0,1,2.46,37.6c.4-1.18.92-2.31,1.22-3.52a12.52,12.52,0,0,0-.19-6c-1-4-2-8.1-2.86-12.17A27.09,27.09,0,0,1,1.57,1L1.72.57c.16-.44.48-.65.83-.54S3.09.5,3,1c-.22.7-.47,1.41-.67,2.12a26,26,0,0,0-.39,12.6c0,.06.05.13.09.27l1.11-1.12c.13-.12.08-.26.06-.4A24.38,24.38,0,0,1,4,2.63c.22-.71.49-1.4.75-2.1.17-.44.5-.62.86-.49A.67.67,0,0,1,5.91,1c-.28.8-.62,1.59-.86,2.46H7.39a.88.88,0,0,0,.55-.31c.48-.49,1-1,1.45-1.46s.73-.37,1-.08a.68.68,0,0,1-.09,1c-.51.52-1,1-1.55,1.54a2,2,0,0,1-1.51.61c-.74,0-1.48,0-2.23,0-.23,0-.35,0-.4.31-.17.78-.29,1.57-.41,2.36a.6.6,0,0,0,.2.57l2.82,2.82A.71.71,0,0,0,7.8,11c1.27,0,2.54,0,3.81,0,.37,0,.45-.12.45-.46,0-3.18,0-6.35,0-9.53a2.55,2.55,0,0,1,0-.55.62.62,0,0,1,1.21,0,1.87,1.87,0,0,1,0,.47V12.72a1.79,1.79,0,0,1,0,.46.62.62,0,0,1-1.21,0,1.3,1.3,0,0,1,0-.21c-.05-.69-.05-.69-.76-.69H8.86a.65.65,0,0,0,.3.42,4.06,4.06,0,0,1,1.44,3.46c-.06,1.57,0,3.15,0,4.72,0,.13,0,.26,0,.38a.63.63,0,0,1-.61.65.61.61,0,0,1-.66-.64c0-.66,0-1.31,0-2a1,1,0,0,0-.09-.56c-.25.27-.47.53-.7.76-.39.4-.79.45-1.08.15s-.23-.64.16-1,1-1,1.49-1.48a.65.65,0,0,0,.23-.57,3.86,3.86,0,0,1,0-.68,2.53,2.53,0,0,0-.87-2.1c-1.34-1.3-2.65-2.64-4-4a1.52,1.52,0,0,0-.31-.31,7.41,7.41,0,0,0-.07,1.62,38.62,38.62,0,0,0,1.38,7.7c.73,3.12,1.47,6.23,2.19,9.34A14.87,14.87,0,0,1,7,37l-.63,1.69c-.31.82,0,1.24.84,1.24H8.5a.62.62,0,0,1,.7.64.64.64,0,0,1-.7.64H7.12a2,2,0,0,1-2-2.86,35,35,0,0,0,1.23-3.57,15.24,15.24,0,0,0-.17-7.29c-.89-3.6-1.72-7.22-2.57-10.83a.57.57,0,0,0-.19-.37c-.33.35-.65.72-1,1.06-.16.16-.08.31,0,.47C3.23,21.38,4.06,25,4.91,28.55A12.43,12.43,0,0,1,4.44,36c-.25.68-.53,1.36-.76,2A3.46,3.46,0,0,0,7,42.64H25.36c.7,0,1.16-.41,1.14-1s-.53-1-1.25-.9l-2,.24a3.91,3.91,0,0,1-3.06-.82c-2.29-1.9-4.55-3.82-6.81-5.76a3.86,3.86,0,0,1-1.36-3.07q0-7.71,0-15.4c0-.5.26-.8.65-.8s.64.31.64.85c0,5,0,10,0,14.93a3.42,3.42,0,0,0,1.34,2.9c2,1.62,3.93,3.28,5.86,5a3.32,3.32,0,0,0,2.95.89c.57-.11,1.16-.15,1.74-.21a2.25,2.25,0,0,1,1,4.36c-.09,0-.21,0-.26.12Z"/></g></g></svg>