<svg xmlns="http://www.w3.org/2000/svg" viewBox="0 0 43.42 43.4"><title>PulmonologyAsset 39</title><g id="Layer_2" data-name="Layer 2"><g id="Layer_1-2" data-name="Layer 1"><path d="M18.06,16A5.1,5.1,0,0,0,19.47,15a.82.82,0,0,0,.15-.62V.92c0-.6.25-.92.7-.92s.7.33.7.92v13.6A2.06,2.06,0,0,1,20.43,16a7.3,7.3,0,0,1-2.11,1.54.62.62,0,0,0-.38.6c0,.57-.07,1.13-.12,1.74a1.44,1.44,0,0,0,.52-.35,20.28,20.28,0,0,1,2.48-1.72,1.7,1.7,0,0,1,1.78,0,20.72,20.72,0,0,1,2.68,1.87l.34.26c-.06-.75-.1-1.41-.15-2.07,0-.19-.18-.22-.3-.28a10,10,0,0,1-1.87-1.28,2.51,2.51,0,0,1-.89-2c0-4.39,0-8.78,0-13.17V.85c0-.54.28-.86.72-.85s.68.33.68.85v9.58c0,1.28,0,2.57,0,3.85a1.1,1.1,0,0,0,.45,1,5.68,5.68,0,0,0,1.12.78c0-.55.06-1.06.1-1.58a8.38,8.38,0,0,1,.59-2.71,2.89,2.89,0,0,1,3.38-1.92A6.61,6.61,0,0,1,33.51,12a12.48,12.48,0,0,1,1.73,2.3c1.39,2.45,3,4.74,4.64,7a20,20,0,0,1,3,6,12.76,12.76,0,0,1,.49,3.36,36,36,0,0,1-.61,8,9.21,9.21,0,0,1-1.3,3.18,3.38,3.38,0,0,1-5.17.67l-1-.89a9.83,9.83,0,0,0-5.56-2.39c-.52-.06-1-.14-1.56-.25a4.11,4.11,0,0,1-3.58-4,27.83,27.83,0,0,1,.65-8.34,15.45,15.45,0,0,0,.6-4.27.78.78,0,0,0-.32-.62,35.92,35.92,0,0,0-3.34-2.55.78.78,0,0,0-.95,0,36.52,36.52,0,0,0-3.5,2.69c-.15.12-.14.27-.16.43a11.31,11.31,0,0,0,.48,3.88A30,30,0,0,1,18.91,34a8.27,8.27,0,0,1-.2,1.65A4.17,4.17,0,0,1,14.93,39c-.94.16-1.88.24-2.8.46A9.56,9.56,0,0,0,8,41.72l-1,.83a3.35,3.35,0,0,1-5-.66,9.32,9.32,0,0,1-1.53-4,34.85,34.85,0,0,1-.36-8.41,13.8,13.8,0,0,1,2-5.86c.53-.91,1.1-1.79,1.71-2.65A72.41,72.41,0,0,0,8,14.57a12.17,12.17,0,0,1,2.47-3.15A6.29,6.29,0,0,1,14.54,9.8a2.72,2.72,0,0,1,2.71,1.68A8.18,8.18,0,0,1,18,14.4C18,14.92,18,15.44,18.06,16ZM42,32.46a15.77,15.77,0,0,0-.39-4.64,18.65,18.65,0,0,0-2.81-5.6C37.15,19.84,35.46,17.49,34,15a10.28,10.28,0,0,0-1.8-2.3A5,5,0,0,0,28.9,11.2a1.42,1.42,0,0,0-1.4.78A4.68,4.68,0,0,0,27,13.73a27.89,27.89,0,0,0,.14,6.89,15,15,0,0,1-.2,5,32.19,32.19,0,0,0-.77,4A23.09,23.09,0,0,0,26,34.88a2.84,2.84,0,0,0,2.55,2.74,11.29,11.29,0,0,0,1.3.18,10.17,10.17,0,0,1,5,1.67c.83.57,1.56,1.26,2.34,1.9a2,2,0,0,0,3.17-.43,6.15,6.15,0,0,0,.86-1.9A26.5,26.5,0,0,0,42,32.46Zm-40.6-.6a44.57,44.57,0,0,0,.29,4.72,15.56,15.56,0,0,0,.42,2.14,5.72,5.72,0,0,0,1.27,2.6,1.84,1.84,0,0,0,2.66.2c.44-.34.84-.72,1.27-1.08A9.83,9.83,0,0,1,12.09,38c.76-.13,1.53-.21,2.29-.31,2-.26,2.87-1.07,3.06-3.07a20.09,20.09,0,0,0-.52-7.08,20.43,20.43,0,0,1-.49-8,23,23,0,0,0,.13-5.11A6.66,6.66,0,0,0,16,12.16a1.51,1.51,0,0,0-1.6-1,5,5,0,0,0-2.8,1.1,10.28,10.28,0,0,0-2.48,3.09,68.73,68.73,0,0,1-4,6q-1,1.36-1.83,2.82A12.91,12.91,0,0,0,1.41,31.86Z"/><path d="M30.27,19.55a30.86,30.86,0,0,1,2.37,4.18,11.1,11.1,0,0,1,1,3c0,.18.06.35.3.41a5.53,5.53,0,0,1,2.86,2.06,6.8,6.8,0,0,0,1.05,1.16,2.53,2.53,0,0,0,.85.43.7.7,0,1,1-.42,1.33,3.83,3.83,0,0,1-2-1.31c-.42-.49-.82-1-1.26-1.45a2.47,2.47,0,0,0-1.12-.72c.13,2.5.36,4.94,2,7l.22.27a.71.71,0,1,1-1.09.88,10.23,10.23,0,0,1-2.32-5.56,36.23,36.23,0,0,0-.61-4.76,10.82,10.82,0,0,0-.52-1.59c-.52,1.18-1,2.25-1.47,3.34a9.71,9.71,0,0,0-.72,3.23A.7.7,0,1,1,28,31.37a12.36,12.36,0,0,1,1.18-4.58c.34-.77.68-1.54,1.05-2.31a2.55,2.55,0,0,0-.18-2.68c-.62-.95-1.28-1.88-1.93-2.81a5.82,5.82,0,0,1-.44-.7.68.68,0,0,1,.27-.91.66.66,0,0,1,.92.23.91.91,0,0,0,1,.52,4.77,4.77,0,0,1,3.54,1.45c.47.44.92.9,1.37,1.35a5,5,0,0,0,1.11.84A.7.7,0,1,1,35.3,23a5.93,5.93,0,0,1-1.6-1.21,13.53,13.53,0,0,0-1.65-1.56A3.5,3.5,0,0,0,30.27,19.55Z"/><path d="M9.54,28.65A3.77,3.77,0,0,0,8,29.8c-.35.41-.68.84-1,1.24a3.6,3.6,0,0,1-1.78,1.12.72.72,0,0,1-.92-.45.69.69,0,0,1,.5-.88,2.94,2.94,0,0,0,1.44-1,13.42,13.42,0,0,1,1.43-1.59,4.52,4.52,0,0,1,1.77-1,.51.51,0,0,0,.43-.46,13.45,13.45,0,0,1,1.57-4.19,24.62,24.62,0,0,1,1.76-3,2.38,2.38,0,0,0-1.32.37,6.11,6.11,0,0,0-1.42,1.16c-.44.43-.88.86-1.33,1.27A3.18,3.18,0,0,1,8,23.06a.67.67,0,0,1-.87-.31.65.65,0,0,1,.21-.89,11.79,11.79,0,0,0,2.5-2.17,5.27,5.27,0,0,1,3-1.53,3.47,3.47,0,0,1,.91,0,.63.63,0,0,0,.69-.38c.28-.47.69-.59,1.06-.34a.71.71,0,0,1,.12,1.07c-.62.94-1.23,1.88-1.92,2.77a3.25,3.25,0,0,0-.27,3.85,16.71,16.71,0,0,1,1.76,4.59,9.2,9.2,0,0,1,.22,1.73.7.7,0,1,1-1.39.07,11.85,11.85,0,0,0-1.21-4.44c-.32-.68-.63-1.37-1-2.12a8.13,8.13,0,0,0-.61,1.93,43.86,43.86,0,0,0-.52,4.43,10.3,10.3,0,0,1-2.36,5.54.7.7,0,0,1-1,.16.69.69,0,0,1-.1-1,10.06,10.06,0,0,0,2.22-6.4C9.48,29.3,9.51,29,9.54,28.65Z"/></g></g></svg>