<svg xmlns="http://www.w3.org/2000/svg" viewBox="0 0 37.13 43.67"><title>RheumatologyAsset 47</title><g id="Layer_2" data-name="Layer 2"><g id="Layer_1-2" data-name="Layer 1"><path d="M8.61,0c2.55,0,5.1,0,7.64,0a1.1,1.1,0,0,1,1.1.64q3.88,6.65,7.81,13.28a5.35,5.35,0,0,1,.6,4.24c-1.45,5.54-2.87,11.08-4.31,16.63a1.67,1.67,0,0,0,1.32,2.36l4.35,1.35a2,2,0,0,1,1.26,3.09A3.75,3.75,0,0,1,25,43.66a9.35,9.35,0,0,1-2.69-.26,12.64,12.64,0,0,0-6.23,0,10.58,10.58,0,0,1-2.38.26,3.22,3.22,0,0,1-3.36-3.22,5.66,5.66,0,0,1,.59-3A11.56,11.56,0,0,0,12,32.29c.09-2.5,0-5,.18-7.5A21.89,21.89,0,0,1,13.43,18c.09-.24,0-.37-.14-.53a17.61,17.61,0,0,0-3.14-3.08A51.45,51.45,0,0,1,4.79,9.75,19.72,19.72,0,0,1,0,1C-.11.34.15,0,.79,0Zm.28,1.24h-7c-.31,0-.44,0-.32.4A18.12,18.12,0,0,0,5.8,8.85a54.18,54.18,0,0,0,5,4.33,19.88,19.88,0,0,1,3.85,3.87.9.9,0,0,1,.14.94,19.37,19.37,0,0,0-1.3,6.6c-.16,2.62-.1,5.24-.2,7.86a11.89,11.89,0,0,1-1.13,5.4,4.65,4.65,0,0,0-.51,2.45,2,2,0,0,0,2.23,2,8.84,8.84,0,0,0,1.78-.22,13.9,13.9,0,0,1,6-.2,16.22,16.22,0,0,0,3.18.43,2.66,2.66,0,0,0,2.32-1.26c.46-.69.28-1.15-.5-1.39-1.47-.46-3-.93-4.43-1.38a2.85,2.85,0,0,1-2.06-3.67q2.13-8.41,4.29-16.83A4.25,4.25,0,0,0,24,14.43Q20.22,8,16.47,1.64a.69.69,0,0,0-.68-.4C13.49,1.26,11.19,1.25,8.89,1.25Z"/><path d="M28.68,13.49c-.59,0-.92-.53-.62-1,.63-.9,1.31-1.76,2-2.63a.57.57,0,0,1,.75-.14l.12.06c1,.44,1,.44,1.61-.38.47-.58.93-1.18,1.4-1.76.32-.38.69-.45,1-.2a.68.68,0,0,1,0,1L32.66,11.4a.72.72,0,0,1-1,.22c-.33-.15-.67-.49-1-.36s-.45.51-.66.79l-.83,1.1A.7.7,0,0,1,28.68,13.49Z"/><path d="M32.75,19.66a.78.78,0,0,1-.74-.49c-.5-1-.5-1-1.56-.71-.43.11-.86.23-1.29.33a.7.7,0,0,1-.92-.46c-.08-.36.17-.69.64-.8.9-.23,1.81-.44,2.72-.66.55-.12.77,0,1,.51.42.88.42.89,1.37.67.72-.17,1.43-.35,2.15-.51.51-.12.86,0,1,.43s-.17.73-.68.85l-3.4.8Z"/><path d="M32.37,15.87a1.9,1.9,0,0,1-1-.5c-.31-.23-.54-.26-.78.08a3.64,3.64,0,0,1-.51.53.58.58,0,0,1-.83,0,.59.59,0,0,1-.11-.86c.42-.49.88-.94,1.33-1.39a.57.57,0,0,1,.65-.09l.16.09c.34.19.65.62,1,.54s.56-.49.84-.76.34-.35.53-.5a.58.58,0,0,1,.8,0,.56.56,0,0,1,.1.79,18,18,0,0,1-1.92,1.89C32.56,15.84,32.44,15.84,32.37,15.87Z"/><path d="M17.66,17.59a1.33,1.33,0,0,1,.76.19.81.81,0,0,0,1.09-.16,1.7,1.7,0,0,1,1.63-.42A1.84,1.84,0,0,1,22.26,20l0,0c-1.19,1-1.25,2.41-1.46,3.77-.39,2.52-.8,5-1.21,7.54-.07.46-.33.67-.74.61s-.61-.32-.54-.8c.25-1.64.5-3.27.76-4.91s.54-3.29.78-4.94a1.61,1.61,0,0,1,.48-1c.29-.28.56-.57.83-.86a.54.54,0,0,0,.06-.79.53.53,0,0,0-.82-.06,1.73,1.73,0,0,1-2.45.29.54.54,0,0,0-.74.16.57.57,0,0,0,.11.79l.06.06c1.33,1.43,1.11.79.82,2.68-.55,3.57-1.15,7.14-1.72,10.71a.72.72,0,0,1-.56.69.61.61,0,0,1-.66-.31.82.82,0,0,1-.06-.63c.24-1.59.5-3.18.75-4.76l1-6.54a.55.55,0,0,0-.21-.56,3.32,3.32,0,0,1-.92-1.18A1.86,1.86,0,0,1,17.66,17.59Z"/><path d="M22.25,14.12a1.87,1.87,0,0,1-2.34,2,1,1,0,0,0-1.13.34,1.85,1.85,0,0,1-2.42.35,1.8,1.8,0,0,1-.69-2.3,1.33,1.33,0,0,0-.25-1.62C14,11,12.52,9.11,11.08,7.22a.79.79,0,0,1-.25-.71.63.63,0,0,1,.5-.48.64.64,0,0,1,.68.29l1.54,2c1.18,1.53,2.35,3.07,3.54,4.59a1,1,0,0,1,.16,1.1c-.14.32-.25.66-.37,1a.54.54,0,0,0,.2.69.56.56,0,0,0,.75-.09,8.73,8.73,0,0,0,.68-.68.79.79,0,0,1,.84-.23c.3.07.59.15.89.21a.54.54,0,0,0,.7-.35.53.53,0,0,0-.34-.71.61.61,0,0,0-.17-.07,3.74,3.74,0,0,1-2.38-2c-1.59-2.53-3.26-5-4.89-7.51-.08-.13-.17-.26-.24-.4a.63.63,0,0,1,1-.69,2.55,2.55,0,0,1,.26.38q2.69,4.09,5.36,8.19a1.1,1.1,0,0,0,.62.5,8.28,8.28,0,0,1,1,.38A1.72,1.72,0,0,1,22.25,14.12Z"/><path d="M5.57,6.94A.6.6,0,0,1,5,6.64c-.3-.46-.61-.92-.89-1.39a.68.68,0,0,1,.16-.94.68.68,0,0,1,.92.24c.31.45.63.91.91,1.38A.65.65,0,0,1,5.57,6.94Z"/></g></g></svg>